<svg width="63" height="63" viewBox="0 0 63 63" fill="none" xmlns="http://www.w3.org/2000/svg">
<path fill-rule="evenodd" clip-rule="evenodd" d="M6.37618e-07 9.42339C-0.000226099 8.00902 0.317976 6.61275 0.931006 5.33814C1.54404 4.06353 2.43616 2.9433 3.54121 2.06052C4.64626 1.17774 5.93588 0.555083 7.31441 0.238721C8.69294 -0.0776416 10.125 -0.0795859 11.5044 0.233032C12.8838 0.545649 14.1751 1.16481 15.2825 2.04458C16.39 2.92435 17.2851 4.04216 17.9016 5.3151C18.5181 6.58804 18.8401 7.98344 18.8437 9.3978C18.8473 10.8122 18.5325 12.2092 17.9225 13.4853L23.5547 19.1133L24.7439 17.924C25.6188 17.0491 26.6575 16.3551 27.8006 15.8816C28.9438 15.4081 30.1689 15.1644 31.4062 15.1644C32.6436 15.1644 33.8687 15.4081 35.0119 15.8816C36.155 16.3551 37.1937 17.0491 38.0686 17.924L39.2578 19.1133L44.8858 13.4853C43.9274 11.4797 43.709 9.19994 44.269 7.04889C44.8291 4.89785 46.1316 3.01408 47.9464 1.73057C49.7611 0.447057 51.9712 -0.153534 54.1859 0.0349613C56.4007 0.223456 58.4775 1.1889 60.0492 2.76063C61.6209 4.33235 62.5864 6.40915 62.7749 8.6239C62.9634 10.8387 62.3628 13.0487 61.0793 14.8635C59.7957 16.6782 57.912 17.9807 55.7609 18.5408C53.6099 19.1008 51.3301 18.8824 49.3246 17.924L43.7007 23.5562L44.89 24.7454C45.7649 25.6204 46.4589 26.659 46.9324 27.8021C47.4059 28.9453 47.6496 30.1705 47.6496 31.4078C47.6496 32.6451 47.4059 33.8703 46.9324 35.0134C46.4589 36.1565 45.7649 37.1952 44.89 38.0701L43.7007 39.2593L49.3287 44.8873C51.3343 43.929 53.6141 43.7105 55.7651 44.2706C57.9162 44.8306 59.7999 46.1331 61.0834 47.9479C62.367 49.7626 62.9675 51.9727 62.7791 54.1874C62.5906 56.4022 61.6251 58.479 60.0534 60.0507C58.4817 61.6224 56.4049 62.5879 54.1901 62.7764C51.9754 62.9649 49.7653 62.3643 47.9505 61.0808C46.1358 59.7973 44.8333 57.9135 44.2732 55.7624C43.7132 53.6114 43.9316 51.3316 44.89 49.3261L39.2578 43.7023L38.0686 44.8915C37.1937 45.7664 36.155 46.4604 35.0119 46.9339C33.8687 47.4074 32.6436 47.6512 31.4062 47.6512C30.1689 47.6512 28.9438 47.4074 27.8006 46.9339C26.6575 46.4604 25.6188 45.7664 24.7439 44.8915L23.5547 43.7023L17.9267 49.3303C18.8851 51.3358 19.1035 53.6156 18.5435 55.7666C17.9834 57.9177 16.6809 59.8014 14.8661 61.085C13.0514 62.3685 10.8413 62.9691 8.62658 62.7806C6.41183 62.5921 4.33503 61.6266 2.7633 60.0549C1.19158 58.4832 0.226134 56.4064 0.037639 54.1916C-0.150856 51.9769 0.449735 49.7668 1.73324 47.9521C3.01675 46.1373 4.90053 44.8348 7.05157 44.2747C9.20261 43.7147 11.4824 43.9331 13.4879 44.8915L19.1118 39.2593L17.9225 38.0701C17.0476 37.1952 16.3536 36.1565 15.8801 35.0134C15.4066 33.8703 15.1629 32.6451 15.1629 31.4078C15.1629 30.1705 15.4066 28.9453 15.8801 27.8021C16.3536 26.659 17.0476 25.6204 17.9225 24.7454L19.1118 23.5562L13.4838 17.9282C12.0473 18.6145 10.4603 18.9257 8.87103 18.8326C7.28174 18.7395 5.74195 18.2453 4.39541 17.3959C3.04887 16.5466 1.9395 15.3699 1.17087 13.9758C0.402242 12.5816 -0.000584987 11.0154 6.37618e-07 9.42339ZM9.42188 6.28276C9.00944 6.28276 8.60105 6.36399 8.22001 6.52183C7.83897 6.67966 7.49275 6.91099 7.20112 7.20263C6.90948 7.49426 6.67815 7.84048 6.52032 8.22152C6.36248 8.60256 6.28125 9.01095 6.28125 9.42339C6.28125 9.83582 6.36248 10.2442 6.52032 10.6253C6.67815 11.0063 6.90948 11.3525 7.20112 11.6441C7.49275 11.9358 7.83897 12.1671 8.22001 12.3249C8.60105 12.4828 9.00944 12.564 9.42188 12.564C10.2548 12.564 11.0537 12.2331 11.6426 11.6441C12.2316 11.0552 12.5625 10.2563 12.5625 9.42339C12.5625 8.59044 12.2316 7.79161 11.6426 7.20263C11.0537 6.61365 10.2548 6.28276 9.42188 6.28276ZM9.42188 50.2515C8.58893 50.2515 7.7901 50.5824 7.20112 51.1714C6.61214 51.7604 6.28125 52.5592 6.28125 53.3921C6.28125 54.2251 6.61214 55.0239 7.20112 55.6129C7.7901 56.2019 8.58893 56.5328 9.42188 56.5328C10.2548 56.5328 11.0537 56.2019 11.6426 55.6129C12.2316 55.0239 12.5625 54.2251 12.5625 53.3921C12.5625 52.5592 12.2316 51.7604 11.6426 51.1714C11.0537 50.5824 10.2548 50.2515 9.42188 50.2515ZM50.25 53.3921C50.25 52.5592 50.5809 51.7604 51.1699 51.1714C51.7589 50.5824 52.5577 50.2515 53.3906 50.2515C54.2236 50.2515 55.0224 50.5824 55.6114 51.1714C56.2004 51.7604 56.5312 52.5592 56.5312 53.3921C56.5312 54.2251 56.2004 55.0239 55.6114 55.6129C55.0224 56.2019 54.2236 56.5328 53.3906 56.5328C52.5577 56.5328 51.7589 56.2019 51.1699 55.6129C50.5809 55.0239 50.25 54.2251 50.25 53.3921ZM53.3906 6.28276C52.9782 6.28276 52.5698 6.36399 52.1888 6.52183C51.8077 6.67966 51.4615 6.91099 51.1699 7.20263C50.8782 7.49426 50.6469 7.84048 50.4891 8.22152C50.3312 8.60256 50.25 9.01095 50.25 9.42339C50.25 9.83582 50.3312 10.2442 50.4891 10.6253C50.6469 11.0063 50.8782 11.3525 51.1699 11.6441C51.4615 11.9358 51.8077 12.1671 52.1888 12.3249C52.5698 12.4828 52.9782 12.564 53.3906 12.564C54.2236 12.564 55.0224 12.2331 55.6114 11.6441C56.2004 11.0552 56.5312 10.2563 56.5312 9.42339C56.5312 8.59044 56.2004 7.79161 55.6114 7.20263C55.0224 6.61365 54.2236 6.28276 53.3906 6.28276ZM29.1869 22.3669C29.7757 21.7788 30.574 21.4485 31.4062 21.4485C32.2385 21.4485 33.0368 21.7788 33.6256 22.3669L40.4512 29.1884C41.0394 29.7773 41.3697 30.5755 41.3697 31.4078C41.3697 32.24 41.0394 33.0383 40.4512 33.6271L33.6256 40.4528C33.0368 41.0409 32.2385 41.3712 31.4062 41.3712C30.574 41.3712 29.7757 41.0409 29.1869 40.4528L22.3613 33.6271C21.7731 33.0383 21.4428 32.24 21.4428 31.4078C21.4428 30.5755 21.7731 29.7773 22.3613 29.1884L29.1869 22.3669Z" fill="#196164"/>
<path fill-rule="evenodd" clip-rule="evenodd" d="M9.42188 6.28276C9.00944 6.28276 8.60105 6.364 8.22001 6.52183C7.83897 6.67966 7.49275 6.91099 7.20112 7.20263C6.90948 7.49426 6.67815 7.84048 6.52032 8.22152C6.36248 8.60256 6.28125 9.01095 6.28125 9.42339C6.28125 9.83582 6.36248 10.2442 6.52032 10.6253C6.67815 11.0063 6.90948 11.3525 7.20112 11.6441C7.49275 11.9358 7.83897 12.1671 8.22001 12.3249C8.60105 12.4828 9.00944 12.564 9.42188 12.564C10.2548 12.564 11.0537 12.2331 11.6426 11.6441C12.2316 11.0552 12.5625 10.2563 12.5625 9.42339C12.5625 8.59044 12.2316 7.79161 11.6426 7.20263C11.0537 6.61365 10.2548 6.28276 9.42188 6.28276ZM9.42188 50.2515C8.58893 50.2515 7.7901 50.5824 7.20112 51.1714C6.61214 51.7604 6.28125 52.5592 6.28125 53.3921C6.28125 54.2251 6.61214 55.0239 7.20112 55.6129C7.7901 56.2019 8.58893 56.5328 9.42188 56.5328C10.2548 56.5328 11.0537 56.2019 11.6426 55.6129C12.2316 55.0239 12.5625 54.2251 12.5625 53.3921C12.5625 52.5592 12.2316 51.7604 11.6426 51.1714C11.0537 50.5824 10.2548 50.2515 9.42188 50.2515ZM50.25 53.3921C50.25 52.5592 50.5809 51.7604 51.1699 51.1714C51.7588 50.5824 52.5577 50.2515 53.3906 50.2515C54.2236 50.2515 55.0224 50.5824 55.6114 51.1714C56.2004 51.7604 56.5312 52.5592 56.5312 53.3921C56.5312 54.2251 56.2004 55.0239 55.6114 55.6129C55.0224 56.2019 54.2236 56.5328 53.3906 56.5328C52.5577 56.5328 51.7588 56.2019 51.1699 55.6129C50.5809 55.0239 50.25 54.2251 50.25 53.3921ZM53.3906 6.28276C52.9782 6.28276 52.5698 6.364 52.1888 6.52183C51.8077 6.67966 51.4615 6.91099 51.1699 7.20263C50.8782 7.49426 50.6469 7.84048 50.4891 8.22152C50.3312 8.60256 50.25 9.01095 50.25 9.42339C50.25 9.83582 50.3312 10.2442 50.4891 10.6253C50.6469 11.0063 50.8782 11.3525 51.1699 11.6441C51.4615 11.9358 51.8077 12.1671 52.1888 12.3249C52.5698 12.4828 52.9782 12.564 53.3906 12.564C54.2236 12.564 55.0224 12.2331 55.6114 11.6441C56.2004 11.0552 56.5312 10.2563 56.5312 9.42339C56.5312 8.59044 56.2004 7.79161 55.6114 7.20263C55.0224 6.61365 54.2236 6.28276 53.3906 6.28276ZM29.1869 22.3669C29.7757 21.7788 30.574 21.4485 31.4062 21.4485C32.2385 21.4485 33.0368 21.7788 33.6256 22.3669L40.4512 29.1884C41.0394 29.7773 41.3697 30.5755 41.3697 31.4078C41.3697 32.24 41.0394 33.0383 40.4512 33.6271L33.6256 40.4528C33.0368 41.0409 32.2385 41.3712 31.4062 41.3712C30.574 41.3712 29.7757 41.0409 29.1869 40.4528L22.3612 33.6271C21.7731 33.0383 21.4428 32.24 21.4428 31.4078C21.4428 30.5755 21.7731 29.7773 22.3612 29.1884L29.1869 22.3669Z" fill="#C5FF4A"/>
</svg>
