<svg width="65" height="65" viewBox="0 0 65 65" fill="none" xmlns="http://www.w3.org/2000/svg">
<path d="M25.4502 47.0379C26.4392 47.0379 27.4058 47.3311 28.2281 47.8805C29.0503 48.4299 29.6912 49.2108 30.0696 50.1245C30.4481 51.0381 30.5471 52.0434 30.3542 53.0133C30.1612 53.9832 29.685 54.8741 28.9858 55.5734C28.2865 56.2727 27.3956 56.7489 26.4257 56.9418C25.4558 57.1347 24.4505 57.0357 23.5368 56.6573C22.6232 56.2788 21.8423 55.638 21.2929 54.8157C20.7435 53.9935 20.4502 53.0268 20.4502 52.0379C20.4502 50.7118 20.977 49.44 21.9147 48.5023C22.8524 47.5647 24.1242 47.0379 25.4502 47.0379ZM10.2502 2.50037C10.8823 2.51622 11.4935 2.72972 11.998 3.11087C12.5025 3.49203 12.8748 4.02167 13.0627 4.62537L13.8377 7.32537H57.9502C58.4455 7.31189 58.9259 7.49495 59.2866 7.83457C59.6473 8.17418 59.8589 8.64273 59.8752 9.13787C59.8882 9.33671 59.8628 9.53618 59.8002 9.72537L54.5752 28.0379C54.4858 28.4453 54.2556 28.8082 53.9252 29.0629C52.1085 28.5402 50.2282 28.271 48.3377 28.2629C46.0031 28.2773 43.689 28.7003 41.5002 29.5129H24.2002C23.8391 29.5096 23.4809 29.5774 23.1459 29.7126C22.811 29.8478 22.506 30.0476 22.2483 30.3006C21.9907 30.5537 21.7853 30.855 21.6441 31.1874C21.5029 31.5198 21.4285 31.8767 21.4252 32.2379C21.4221 32.5576 21.4772 32.8753 21.5877 33.1754V33.2754C21.7605 33.8606 22.1182 34.3741 22.6071 34.7391C23.0961 35.1042 23.6901 35.3011 24.3002 35.3004H33.1752C31.7042 37.0121 30.5335 38.9604 29.7127 41.0629H20.0002C19.3631 41.0668 18.7424 40.8608 18.2341 40.4767C17.7257 40.0927 17.358 39.5518 17.1877 38.9379L8.12524 8.27537H5.41274C4.6292 8.26221 3.88279 7.93913 3.33693 7.37687C2.79106 6.8146 2.49021 6.05896 2.50024 5.27537V5.20037C2.5927 4.44711 2.96045 3.75464 3.53274 3.2562C4.10502 2.75776 4.84142 2.48855 5.60024 2.50037H10.2502Z" fill="#196164"/>
<path d="M48.15 32C50.9521 31.9975 53.692 32.8264 56.023 34.3816C58.3539 35.9369 60.1711 38.1486 61.2446 40.737C62.318 43.3253 62.5996 46.174 62.0535 48.9224C61.5074 51.6708 60.1583 54.1955 58.1769 56.1769C56.1955 58.1583 53.6708 59.5074 50.9224 60.0535C48.174 60.5995 45.3253 60.318 42.737 59.2445C40.1486 58.1711 37.9368 56.3539 36.3816 54.023C34.8264 51.692 33.9975 48.9521 34 46.15C34.0066 42.3992 35.4995 38.804 38.1517 36.1517C40.804 33.4995 44.3992 32.0066 48.15 32ZM53.3125 40.4L45.7375 48.8875L42.3125 45.425C42.1277 45.2426 41.8784 45.1403 41.6188 45.1403C41.3591 45.1403 41.1098 45.2426 40.925 45.425L39.5375 46.7625C39.4484 46.838 39.3753 46.9305 39.3225 47.0347C39.2698 47.1389 39.2384 47.2526 39.2302 47.3691C39.2221 47.4855 39.2373 47.6025 39.275 47.713C39.3128 47.8235 39.3723 47.9253 39.45 48.0125L39.5375 48.1125L44.3125 52.8125C44.6894 53.1931 45.2018 53.4089 45.7375 53.4125C46.0023 53.4202 46.2656 53.3706 46.5094 53.267C46.7532 53.1635 46.9717 53.0084 47.15 52.8125L56.1375 42.975C56.2734 42.795 56.3469 42.5756 56.3469 42.35C56.3469 42.1244 56.2734 41.905 56.1375 41.725L54.7375 40.4125C54.5527 40.2301 54.3034 40.1278 54.0438 40.1278C53.7841 40.1278 53.5348 40.2301 53.35 40.4125L53.3125 40.4Z" fill="#30e3ca"/>
</svg>
