<svg width="64" height="64" viewBox="0 0 64 64" fill="none" xmlns="http://www.w3.org/2000/svg">
<path d="M47.28 47.2533H54.9067C56.2553 47.2463 57.5468 46.7075 58.5005 45.7538C59.4541 44.8001 59.993 43.5087 60 42.16V9.06667C59.993 7.72046 59.4532 6.43179 58.4988 5.48236C57.5444 4.53294 56.2529 3.99998 54.9067 4H9.09333C7.74711 3.99998 6.45562 4.53294 5.5012 5.48236C4.54678 6.43179 4.00705 7.72046 4 9.06667V42.16C4.00701 43.5087 4.54587 44.8001 5.49954 45.7538C6.45321 46.7075 7.74466 47.2463 9.09333 47.2533H16.72" stroke="#196164" stroke-width="5.09333" stroke-miterlimit="10"/>
<path d="M60 14.1602H4V24.3468H60V14.1602Z" stroke="#30e3ca" stroke-width="5.09333" stroke-miterlimit="10"/>
<path d="M32.0019 59.4657C29.1091 58.6266 26.5649 56.8751 24.7485 54.4724C22.932 52.0697 21.9406 49.1444 21.9219 46.1324V38.1324L32.0019 35.0391L42.2952 37.9724V45.9724C42.2717 49.0327 41.2555 52.0028 39.3993 54.436C37.5431 56.8693 34.9472 58.6343 32.0019 59.4657Z" stroke="#30e3ca" stroke-width="5.09333" stroke-miterlimit="10"/>
</svg>
