<svg width="28" height="28" viewBox="0 0 28 28" fill="none" xmlns="http://www.w3.org/2000/svg">
<g clip-path="url(#clip0_313_7)">
<path d="M2.57981 7.7242C1.51993 9.64609 0.96452 11.8053 0.965467 14.0001C0.961242 16.99 1.99106 19.8895 3.88036 22.207H5.15967C3.07802 19.966 1.93098 17.0608 1.93098 14.0001C1.93098 11.777 2.54602 9.61468 3.70078 7.7242H2.57981ZM24.2991 7.7242C25.4561 9.61311 26.0686 11.785 26.0689 14.0001C26.0689 16.0981 25.5181 18.1175 24.5086 19.9056L25.2502 20.5646C26.4192 18.5745 27.0353 16.3081 27.0344 14.0001C27.0344 11.7948 26.4773 9.64268 25.4201 7.7242H24.2991ZM13.9999 0.965577C11.8052 0.964714 9.64601 1.52012 7.72409 2.57992V3.70089C9.61306 2.54407 11.7849 1.93161 13.9999 1.93109C16.2293 1.93109 18.3974 2.54903 20.2913 3.71006C20.2817 3.60008 20.2766 3.48976 20.2758 3.37937C20.2758 3.12109 20.3004 2.86765 20.3448 2.62047C18.4063 1.53515 16.2217 0.965357 13.9999 0.965577ZM8.6896 24.8317V25.903C10.3611 26.6475 12.1702 27.033 13.9999 27.0345C16.1947 27.0354 18.3539 26.48 20.2758 25.4202V24.2992C18.3868 25.4561 16.215 26.0685 13.9999 26.069C12.1355 26.069 10.3517 25.6495 8.6896 24.8317ZM9.65512 18.3449H18.3448V9.65523H9.65512V18.3449ZM10.6206 11.5863C10.6206 11.0538 11.0537 10.6207 11.5862 10.6207H16.4137C16.9462 10.6207 17.3793 11.0538 17.3793 11.5863V16.4139C17.3793 16.9463 16.9462 17.3794 16.4137 17.3794H11.5862C11.0537 17.3794 10.6206 16.9463 10.6206 16.4139V11.5863Z" fill="black"/>
<path d="M16.4138 11.5862H15.4483V13.5172H12.5517V11.5862H11.5862V16.4138H16.4143L16.4138 11.5862Z" fill="black"/>
<path d="M13.5172 11.5862H14.4827V12.5517H13.5172V11.5862ZM18.3448 7.72409C18.3448 7.19161 17.9118 6.75857 17.3793 6.75857H10.6207C10.0882 6.75857 9.65515 7.19161 9.65515 7.72409V8.68961H18.3448V7.72409ZM9.65515 20.2758C9.65515 20.8083 10.0882 21.2413 10.6207 21.2413H17.3793C17.9118 21.2413 18.3448 20.8083 18.3448 20.2758V19.3103H9.65515V20.2758ZM24.1379 6.71995V5.79306C23.3394 5.79306 22.6896 5.14326 22.6896 4.34478H23.6552C23.6552 4.61078 23.8714 4.82754 24.1379 4.82754H25.1034C25.2277 4.82198 25.3451 4.76869 25.4311 4.67876C25.5171 4.58884 25.5651 4.46921 25.5651 4.34478C25.5651 4.22036 25.5171 4.10073 25.4311 4.0108C25.3451 3.92087 25.2277 3.86758 25.1034 3.86202H24.1379C23.3394 3.86202 22.6896 3.21223 22.6896 2.41375C22.6896 1.61526 23.3394 0.965471 24.1379 0.965471V0.0385742C22.5033 0.27416 21.2414 1.68044 21.2414 3.37926C21.2414 5.07809 22.5033 6.48437 24.1379 6.71995Z" fill="black"/>
<path d="M25.1034 1.93103H24.1379C24.0136 1.93659 23.8963 1.98989 23.8103 2.07981C23.7243 2.16974 23.6763 2.28937 23.6763 2.41379C23.6763 2.53822 23.7243 2.65785 23.8103 2.74777C23.8963 2.8377 24.0136 2.89099 24.1379 2.89655H25.1034C25.9019 2.89655 26.5517 3.54634 26.5517 4.34483C26.5517 5.14331 25.9019 5.7931 25.1034 5.7931V6.72C26.7381 6.48441 28 5.07814 28 3.37931C28 1.68048 26.7381 0.274207 25.1034 0.0386207V0.965517C25.9019 0.965517 26.5517 1.61531 26.5517 2.41379H25.5862C25.5862 2.14779 25.3699 1.93103 25.1034 1.93103ZM21.2414 24.1379H23.1724V28H21.2414V24.1379ZM20.58 23.1724H26.7303L23.6552 20.439L20.58 23.1724ZM24.1379 24.1379H26.069V28H24.1379V24.1379ZM7.24138 23.1724H0.482759C0.216276 23.1724 0 23.3892 0 23.6552V27.5172C0 27.7832 0.216276 28 0.482759 28H7.24138C7.50786 28 7.72414 27.7832 7.72414 27.5172V23.6552C7.72414 23.3892 7.50786 23.1724 7.24138 23.1724ZM0.965517 24.1379H1.93103V25.1034H0.965517V24.1379ZM6.75862 27.0345H0.965517V26.069H6.75862V27.0345ZM6.75862 25.1034H3.86207V24.1379H6.75862V25.1034ZM3.86207 3.86207H4.82759V4.82759H5.7931V5.7931H4.82759V6.75862H6.75862V0H2.89655V2.89655H0V6.75862H3.86207V3.86207ZM3.86207 0.965517H4.82759V1.93103H5.7931V2.89655H3.86207V0.965517ZM2.89655 5.7931H1.93103V4.82759H0.965517V3.86207H2.89655V5.7931Z" fill="black"/>
<path d="M1.93103 0H0V1.93103H1.93103V0ZM0.965517 1.44828C0.837482 1.44828 0.71469 1.39741 0.624155 1.30688C0.533621 1.21634 0.482759 1.09355 0.482759 0.965517C0.482759 0.837482 0.533621 0.71469 0.624155 0.624155C0.71469 0.533621 0.837482 0.482759 0.965517 0.482759C1.09355 0.482759 1.21634 0.533621 1.30688 0.624155C1.39741 0.71469 1.44828 0.837482 1.44828 0.965517C1.44828 1.09355 1.39741 1.21634 1.30688 1.30688C1.21634 1.39741 1.09355 1.44828 0.965517 1.44828Z" fill="black"/>
</g>
<defs>
<clipPath id="clip0_313_7">
<rect width="28" height="28" fill="white"/>
</clipPath>
</defs>
</svg>
