<svg width="28" height="28" viewBox="0 0 28 28" fill="none" xmlns="http://www.w3.org/2000/svg">
<path d="M22.1667 8.16667V4.66667C22.1667 4.35725 22.0438 4.0605 21.825 3.84171C21.6062 3.62292 21.3094 3.5 21 3.5H5.83333C5.21449 3.5 4.621 3.74583 4.18342 4.18342C3.74583 4.621 3.5 5.21449 3.5 5.83333C3.5 6.45217 3.74583 7.04566 4.18342 7.48325C4.621 7.92083 5.21449 8.16667 5.83333 8.16667H23.3333C23.6428 8.16667 23.9395 8.28958 24.1583 8.50838C24.3771 8.72717 24.5 9.02391 24.5 9.33333V14M24.5 14H21C20.3812 14 19.7877 14.2458 19.3501 14.6834C18.9125 15.121 18.6667 15.7145 18.6667 16.3333C18.6667 16.9522 18.9125 17.5457 19.3501 17.9832C19.7877 18.4208 20.3812 18.6667 21 18.6667H24.5C24.8094 18.6667 25.1062 18.5437 25.325 18.325C25.5438 18.1062 25.6667 17.8094 25.6667 17.5V15.1667C25.6667 14.8572 25.5438 14.5605 25.325 14.3417C25.1062 14.1229 24.8094 14 24.5 14Z" stroke="black" stroke-width="2" stroke-linecap="round" stroke-linejoin="round"/>
<path d="M3.5 5.83325V22.1666C3.5 22.7854 3.74583 23.3789 4.18342 23.8165C4.621 24.2541 5.21449 24.4999 5.83333 24.4999H23.3333C23.6428 24.4999 23.9395 24.377 24.1583 24.1582C24.3771 23.9394 24.5 23.6427 24.5 23.3333V18.6666" stroke="black" stroke-width="2" stroke-linecap="round" stroke-linejoin="round"/>
</svg>
