<svg width="24" height="24" viewBox="0 0 24 24" fill="none" xmlns="http://www.w3.org/2000/svg">
<path d="M12 11.22C11 9.997 10 9 10 8C10 7.46957 10.2107 6.96086 10.5858 6.58579C10.9609 6.21071 11.4696 6 12 6C12.5304 6 13.0391 6.21071 13.4142 6.58579C13.7893 6.96086 14 7.46957 14 8C14 9 13.002 10.002 11.99 11.22" stroke="black" stroke-width="2" stroke-linecap="round" stroke-linejoin="round"/>
<path d="M12 18L14.57 14.5" stroke="black" stroke-width="2" stroke-linecap="round" stroke-linejoin="round"/>
<path d="M6.24292 9.0159C6.88644 8.08574 7.74578 7.32536 8.74738 6.79987C9.74897 6.27438 10.863 5.99942 11.9941 5.99854C13.1251 5.99765 14.2396 6.27087 15.242 6.79479C16.2444 7.31872 17.1049 8.07774 17.7499 9.0069" stroke="black" stroke-width="2" stroke-linecap="round" stroke-linejoin="round"/>
<path d="M9.3501 14.5302L12.0001 11.2202" stroke="black" stroke-width="2" stroke-linecap="round" stroke-linejoin="round"/>
<path d="M9.34998 14.53C7.72798 12.246 5.99998 10.221 5.99998 7C5.99998 5.67392 6.63212 4.40215 7.75734 3.46447C8.88255 2.52678 10.4087 2 12 2C13.5913 2 15.1174 2.52678 16.2426 3.46447C17.3678 4.40215 18 5.67392 18 7C17.995 10.22 16.222 12.235 14.57 14.5L18.127 19.027C18.2103 19.1331 18.2714 19.255 18.3064 19.3853C18.3414 19.5157 18.3497 19.6517 18.3307 19.7853C18.3117 19.9189 18.2659 20.0473 18.196 20.1628C18.1261 20.2782 18.0336 20.3783 17.924 20.457L16.03 21.817C15.8171 21.9695 15.5528 22.0325 15.2941 21.9923C15.0353 21.9521 14.8026 21.8119 14.646 21.602L12 18L9.32098 21.593C9.16397 21.8043 8.92997 21.9452 8.66974 21.9851C8.40951 22.025 8.14406 21.9606 7.93098 21.806L6.06598 20.453C5.95754 20.3743 5.86602 20.2746 5.79685 20.1599C5.72769 20.0451 5.68229 19.9176 5.66336 19.785C5.64442 19.6523 5.65233 19.5173 5.68663 19.3877C5.72092 19.2582 5.78089 19.1369 5.86298 19.031L9.34998 14.53Z" stroke="black" stroke-width="2" stroke-linecap="round" stroke-linejoin="round"/>
</svg>
