<svg width="24" height="24" viewBox="0 0 24 24" fill="none" xmlns="http://www.w3.org/2000/svg">
<path d="M14 4C14 3.46957 14.2107 2.96086 14.5858 2.58579C14.9609 2.21071 15.4696 2 16 2" stroke="black" stroke-width="2" stroke-linecap="round" stroke-linejoin="round"/>
<path d="M16 10C15.4696 10 14.9609 9.78929 14.5858 9.41421C14.2107 9.03914 14 8.53043 14 8" stroke="black" stroke-width="2" stroke-linecap="round" stroke-linejoin="round"/>
<path d="M20 2C20.5304 2 21.0391 2.21071 21.4142 2.58579C21.7893 2.96086 22 3.46957 22 4" stroke="black" stroke-width="2" stroke-linecap="round" stroke-linejoin="round"/>
<path d="M22 8C22 8.53043 21.7893 9.03914 21.4142 9.41421C21.0391 9.78929 20.5304 10 20 10" stroke="black" stroke-width="2" stroke-linecap="round" stroke-linejoin="round"/>
<path d="M3 7L6 10L9 7" stroke="black" stroke-width="2" stroke-linecap="round" stroke-linejoin="round"/>
<path d="M6 10V5C6 4.20435 6.31607 3.44129 6.87868 2.87868C7.44129 2.31607 8.20435 2 9 2H10" stroke="black" stroke-width="2" stroke-linecap="round" stroke-linejoin="round"/>
<path d="M8 14H4C2.89543 14 2 14.8954 2 16V20C2 21.1046 2.89543 22 4 22H8C9.10457 22 10 21.1046 10 20V16C10 14.8954 9.10457 14 8 14Z" stroke="black" stroke-width="2" stroke-linecap="round" stroke-linejoin="round"/>
</svg>
