<svg width="24" height="24" viewBox="0 0 24 24" fill="none" xmlns="http://www.w3.org/2000/svg">
<g clip-path="url(#clip0_379_188)">
<path d="M10.1001 2.18005C11.355 1.93543 12.6452 1.93543 13.9001 2.18005" stroke="black" stroke-width="2" stroke-linecap="round" stroke-linejoin="round"/>
<path d="M17.6001 3.70996C18.6624 4.42822 19.5758 5.34503 20.2901 6.40996" stroke="black" stroke-width="2" stroke-linecap="round" stroke-linejoin="round"/>
<path d="M21.8201 10.1001C22.0647 11.355 22.0647 12.6452 21.8201 13.9001" stroke="black" stroke-width="2" stroke-linecap="round" stroke-linejoin="round"/>
<path d="M20.2901 17.6001C19.5718 18.6624 18.655 19.5758 17.5901 20.2901" stroke="black" stroke-width="2" stroke-linecap="round" stroke-linejoin="round"/>
<path d="M13.9001 21.8198C12.6452 22.0642 11.355 22.0642 10.1001 21.8198" stroke="black" stroke-width="2" stroke-linecap="round" stroke-linejoin="round"/>
<path d="M6.39996 20.2898C5.33769 19.5716 4.42427 18.6548 3.70996 17.5898" stroke="black" stroke-width="2" stroke-linecap="round" stroke-linejoin="round"/>
<path d="M2.18005 13.9001C1.93543 12.6452 1.93543 11.355 2.18005 10.1001" stroke="black" stroke-width="2" stroke-linecap="round" stroke-linejoin="round"/>
<path d="M3.70996 6.39996C4.42822 5.33769 5.34503 4.42427 6.40996 3.70996" stroke="black" stroke-width="2" stroke-linecap="round" stroke-linejoin="round"/>
<path d="M12 13C12.5523 13 13 12.5523 13 12C13 11.4477 12.5523 11 12 11C11.4477 11 11 11.4477 11 12C11 12.5523 11.4477 13 12 13Z" stroke="black" stroke-width="2" stroke-linecap="round" stroke-linejoin="round"/>
</g>
<defs>
<clipPath id="clip0_379_188">
<rect width="24" height="24" fill="white"/>
</clipPath>
</defs>
</svg>
