<svg width="28" height="25" viewBox="0 0 28 25" fill="none" xmlns="http://www.w3.org/2000/svg">
<path d="M24.2784 3.31801C23.6621 2.7014 22.9304 2.21226 22.1249 1.87854C21.3195 1.54481 20.4563 1.37305 19.5845 1.37305C18.7126 1.37305 17.8494 1.54481 17.044 1.87854C16.2385 2.21226 15.5068 2.7014 14.8905 3.31801L13.6114 4.59709L12.3323 3.31801C11.0874 2.07308 9.39889 1.37369 7.6383 1.37369C5.87772 1.37369 4.18924 2.07308 2.94431 3.31801C1.69939 4.56293 1 6.25141 1 8.012C1 9.77258 1.69939 11.4611 2.94431 12.706L4.2234 13.9851L13.6114 23.373L22.9994 13.9851L24.2784 12.706C24.895 12.0897 25.3842 11.3579 25.7179 10.5525C26.0516 9.74708 26.2234 8.88381 26.2234 8.012C26.2234 7.14018 26.0516 6.27691 25.7179 5.4715C25.3842 4.66609 24.895 3.93433 24.2784 3.31801Z" stroke="#E2FF45" stroke-width="2" stroke-linecap="round" stroke-linejoin="round"/>
<path d="M22.1249 1.87854C22.9303 2.21226 23.6621 2.7014 24.2784 3.31801C24.895 3.93433 25.3841 4.66609 25.7179 5.4715C26.0516 6.27691 26.2233 7.14018 26.2233 8.012C26.2233 8.88381 26.0516 9.74708 25.7179 10.5525C25.3841 11.3579 24.895 12.0897 24.2784 12.706L22.9993 13.9851L13.6113 23.373V4.59709L14.8904 3.31801C15.5067 2.7014 16.2385 2.21226 17.0439 1.87854C17.8493 1.54481 18.7126 1.37305 19.5844 1.37305C20.4562 1.37305 21.3195 1.54481 22.1249 1.87854Z" fill="#D0FF45"/>
</svg>
