<svg width="28" height="28" viewBox="0 0 28 28" fill="none" xmlns="http://www.w3.org/2000/svg">
<path d="M9.33325 7H3.49992C2.85559 7 2.33325 7.52233 2.33325 8.16667V19.8333C2.33325 20.4777 2.85559 21 3.49992 21H9.33325C9.97758 21 10.4999 20.4777 10.4999 19.8333V8.16667C10.4999 7.52233 9.97758 7 9.33325 7Z" stroke="black" stroke-width="2" stroke-linecap="round" stroke-linejoin="round"/>
<path d="M15.1667 9.70679C15.9125 11.0148 16.3047 12.4945 16.3047 14.0001C16.3047 15.5058 15.9125 16.9855 15.1667 18.2935" stroke="black" stroke-width="2" stroke-linecap="round" stroke-linejoin="round"/>
<path d="M19.2034 7.24512C20.3689 9.30567 20.9815 11.6328 20.9815 14.0001C20.9815 16.3675 20.3689 18.6946 19.2034 20.7551" stroke="black" stroke-width="2" stroke-linecap="round" stroke-linejoin="round"/>
<path d="M23.2283 4.78345C24.8355 7.58885 25.682 10.7654 25.684 13.9986C25.6861 17.2317 24.8436 20.4093 23.2399 23.2168" stroke="black" stroke-width="2" stroke-linecap="round" stroke-linejoin="round"/>
</svg>
