<svg width="24" height="24" viewBox="0 0 24 24" fill="none" xmlns="http://www.w3.org/2000/svg">
<path d="M12 12V16" stroke="black" stroke-width="2" stroke-linecap="round" stroke-linejoin="round"/>
<path d="M12 20H12.01" stroke="black" stroke-width="2" stroke-linecap="round" stroke-linejoin="round"/>
<path d="M17 17.9999H17.5C18.6935 17.9999 19.8381 17.5258 20.682 16.6819C21.5259 15.8379 22 14.6934 22 13.4999C22 12.3064 21.5259 11.1618 20.682 10.3179C19.8381 9.47399 18.6935 8.99988 17.5 8.99988H15.71C15.3637 7.83835 14.7216 6.78667 13.8468 5.94777C12.9719 5.10887 11.8943 4.51151 10.7192 4.21416C9.54419 3.91681 8.31208 3.92966 7.1435 4.25145C5.97493 4.57325 4.90994 5.19296 4.05277 6.04993C3.19561 6.90689 2.57565 7.97175 2.25359 9.14025C1.93153 10.3087 1.91839 11.5409 2.21547 12.716C2.51255 13.8911 3.10966 14.9689 3.94836 15.8439C4.78706 16.719 5.8386 17.3612 7.00005 17.7079" stroke="black" stroke-width="2" stroke-linecap="round" stroke-linejoin="round"/>
</svg>
