<svg width="24" height="24" viewBox="0 0 24 24" fill="none" xmlns="http://www.w3.org/2000/svg">
<path d="M10.1699 4.19297C10.3269 3.83687 10.5843 3.53429 10.9106 3.3223C11.2369 3.11032 11.618 2.99814 12.0072 2.99952C12.3963 3.0009 12.7766 3.11578 13.1014 3.33007C13.4263 3.54437 13.6815 3.84877 13.8359 4.20597" stroke="black" stroke-width="2" stroke-linecap="round" stroke-linejoin="round"/>
<path d="M14 21H16" stroke="black" stroke-width="2" stroke-linecap="round" stroke-linejoin="round"/>
<path d="M15.874 7.74316L16.874 9.47516" stroke="black" stroke-width="2" stroke-linecap="round" stroke-linejoin="round"/>
<path d="M18.8491 12.9521L19.8491 14.6841" stroke="black" stroke-width="2" stroke-linecap="round" stroke-linejoin="round"/>
<path d="M21.824 18.1802C21.9622 18.4858 22.0213 18.8212 21.9959 19.1556C21.9705 19.49 21.8615 19.8127 21.6787 20.0939C21.496 20.3752 21.2454 20.6059 20.9502 20.765C20.6549 20.924 20.3244 21.0063 19.989 21.0042" stroke="black" stroke-width="2" stroke-linecap="round" stroke-linejoin="round"/>
<path d="M4.02404 21.0001C3.68635 21.0041 3.35316 20.9225 3.05552 20.7629C2.75788 20.6034 2.50549 20.3711 2.32189 20.0876C2.13828 19.8042 2.02944 19.4788 2.00552 19.142C1.98159 18.8051 2.04335 18.4677 2.18504 18.1611" stroke="black" stroke-width="2" stroke-linecap="round" stroke-linejoin="round"/>
<path d="M5.13599 12.9521L4.13599 14.6841" stroke="black" stroke-width="2" stroke-linecap="round" stroke-linejoin="round"/>
<path d="M8 21H10" stroke="black" stroke-width="2" stroke-linecap="round" stroke-linejoin="round"/>
<path d="M8.10205 7.74316L7.10205 9.47516" stroke="black" stroke-width="2" stroke-linecap="round" stroke-linejoin="round"/>
</svg>
