<svg width="27" height="24" viewBox="0 0 27 24" fill="none" xmlns="http://www.w3.org/2000/svg">
<path d="M1 1H8.33333C9.62995 1 10.8735 1.51508 11.7903 2.43192C12.7071 3.34877 13.2222 4.59227 13.2222 5.88889V23C13.2222 22.0275 12.8359 21.0949 12.1483 20.4073C11.4606 19.7196 10.528 19.3333 9.55555 19.3333H1V1Z" stroke="#E2FF45" stroke-width="2" stroke-linecap="round" stroke-linejoin="round"/>
<path d="M25.4449 1H18.1115C16.8149 1 15.5714 1.51508 14.6546 2.43192C13.7377 3.34877 13.2227 4.59227 13.2227 5.88889V23C13.2227 22.0275 13.609 21.0949 14.2966 20.4073C14.9842 19.7196 15.9169 19.3333 16.8893 19.3333H25.4449V1Z" stroke="#E2FF45" stroke-width="2" stroke-linecap="round" stroke-linejoin="round"/>
</svg>
