<svg width="28" height="24" viewBox="0 0 28 24" fill="none" xmlns="http://www.w3.org/2000/svg">
<path d="M19.8337 22.5V20.1667C19.8337 18.929 19.342 17.742 18.4668 16.8668C17.5917 15.9917 16.4047 15.5 15.167 15.5H5.83366C4.59598 15.5 3.409 15.9917 2.53383 16.8668C1.65866 17.742 1.16699 18.929 1.16699 20.1667V22.5" stroke="#E2FF45" stroke-width="2" stroke-linecap="round" stroke-linejoin="round"/>
<path d="M10.4997 10.8333C13.077 10.8333 15.1663 8.744 15.1663 6.16667C15.1663 3.58934 13.077 1.5 10.4997 1.5C7.92235 1.5 5.83301 3.58934 5.83301 6.16667C5.83301 8.744 7.92235 10.8333 10.4997 10.8333Z" stroke="#E2FF45" stroke-width="2" stroke-linecap="round" stroke-linejoin="round"/>
<path d="M26.833 22.4999V20.1666C26.8322 19.1326 26.4881 18.1282 25.8546 17.311C25.2211 16.4938 24.3342 15.9101 23.333 15.6516" stroke="#D0FF45" stroke-width="2" stroke-linecap="round" stroke-linejoin="round"/>
<path d="M18.667 1.65161C19.6708 1.90863 20.5605 2.49243 21.1959 3.31097C21.8313 4.12952 22.1761 5.13625 22.1761 6.17244C22.1761 7.20864 21.8313 8.21537 21.1959 9.03392C20.5605 9.85246 19.6708 10.4363 18.667 10.6933" stroke="#D0FF45" stroke-width="2" stroke-linecap="round" stroke-linejoin="round"/>
</svg>
