<svg width="24" height="24" viewBox="0 0 24 24" fill="none" xmlns="http://www.w3.org/2000/svg">
<path d="M14 10.9999C14 11.5304 13.7893 12.0391 13.4142 12.4141C13.0392 12.7892 12.5304 12.9999 12 12.9999C11.4696 12.9999 10.9609 12.7892 10.5858 12.4141C10.2107 12.0391 10 11.5304 10 10.9999C10 9.93906 10.4214 8.92165 11.1716 8.1715C11.9217 7.42135 12.9391 6.99993 14 6.99993C15.0609 6.99993 16.0783 7.42135 16.8284 8.1715C17.5786 8.92165 18 9.93906 18 10.9999C18 12.5912 17.3679 14.1173 16.2427 15.2426C15.1174 16.3678 13.5913 16.9999 12 16.9999C10.4087 16.9999 8.88259 16.3678 7.75737 15.2426C6.63215 14.1173 6.00001 12.5912 6.00001 10.9999C6.00001 8.8782 6.84287 6.84336 8.34316 5.34307C9.84345 3.84278 11.8783 2.99993 14 2.99993C16.1217 2.99993 18.1566 3.84278 19.6569 5.34307C21.1572 6.84336 22 8.8782 22 10.9999C22 13.6521 20.9464 16.1956 19.0711 18.071C17.1957 19.9464 14.6522 20.9999 12 20.9999C9.34785 20.9999 6.80431 19.9464 4.92894 18.071C3.05358 16.1956 2.00001 13.6521 2.00001 10.9999C1.99633 8.39352 2.84631 5.85762 4.42001 3.77993C4.57324 3.55395 4.77111 3.36174 5.00144 3.21513C5.23177 3.06853 5.48967 2.97063 5.75927 2.92748C6.02887 2.88433 6.30444 2.89683 6.56902 2.96423C6.8336 3.03162 7.08158 3.15247 7.29769 3.31933C7.51379 3.4862 7.69344 3.69554 7.82557 3.93447C7.9577 4.1734 8.0395 4.43685 8.06595 4.70859C8.0924 4.98034 8.06293 5.25462 7.97936 5.51454C7.89579 5.77446 7.75988 6.01452 7.58001 6.21993" stroke="black" stroke-width="2" stroke-linecap="round" stroke-linejoin="round"/>
</svg>
