<svg width="28" height="28" viewBox="0 0 28 28" fill="none" xmlns="http://www.w3.org/2000/svg">
<path d="M7 25.6667C8.933 25.6667 10.5 24.0997 10.5 22.1667C10.5 20.2338 8.933 18.6667 7 18.6667C5.067 18.6667 3.5 20.2338 3.5 22.1667C3.5 24.0997 5.067 25.6667 7 25.6667Z" stroke="black" stroke-width="2" stroke-linecap="round" stroke-linejoin="round"/>
<path d="M10.5 22.1666H20.4167C21.4996 22.1666 22.5382 21.7364 23.304 20.9706C24.0698 20.2048 24.5 19.1662 24.5 18.0833C24.5 17.0003 24.0698 15.9617 23.304 15.1959C22.5382 14.4301 21.4996 13.9999 20.4167 13.9999H7.58333C6.50037 13.9999 5.46175 13.5697 4.69598 12.8039C3.93021 12.0382 3.5 10.9996 3.5 9.91659C3.5 8.83362 3.93021 7.79501 4.69598 7.02923C5.46175 6.26346 6.50037 5.83325 7.58333 5.83325H17.5" stroke="black" stroke-width="2" stroke-linecap="round" stroke-linejoin="round"/>
<path d="M21 9.33325C22.933 9.33325 24.5 7.76625 24.5 5.83325C24.5 3.90026 22.933 2.33325 21 2.33325C19.067 2.33325 17.5 3.90026 17.5 5.83325C17.5 7.76625 19.067 9.33325 21 9.33325Z" stroke="black" stroke-width="2" stroke-linecap="round" stroke-linejoin="round"/>
</svg>
