<svg width="24" height="24" viewBox="0 0 24 24" fill="none" xmlns="http://www.w3.org/2000/svg">
<path d="M11.2461 16.657C11.3399 16.7648 11.4558 16.8512 11.5859 16.9104C11.7159 16.9695 11.8572 17.0002 12.0001 17.0002C12.143 17.0002 12.2842 16.9695 12.4143 16.9104C12.5443 16.8512 12.6602 16.7648 12.7541 16.657L16.3241 12.556C16.5682 12.2745 16.7525 11.9463 16.8659 11.5913C16.9792 11.2364 17.0193 10.8621 16.9836 10.4912C16.9479 10.1202 16.8372 9.76046 16.6582 9.43364C16.4792 9.10682 16.2356 8.81979 15.9423 8.58997C15.649 8.36015 15.312 8.19234 14.9519 8.09672C14.5917 8.0011 14.2159 7.97967 13.8472 8.03374C13.4786 8.0878 13.1247 8.21622 12.8072 8.41121C12.4896 8.60621 12.215 8.86369 12.0001 9.16805C11.7851 8.86369 11.5105 8.60621 11.193 8.41121C10.8754 8.21622 10.5216 8.0878 10.1529 8.03374C9.78421 7.97967 9.40838 8.0011 9.04824 8.09672C8.68809 8.19234 8.35113 8.36015 8.05782 8.58997C7.7645 8.81979 7.52096 9.10682 7.34196 9.43364C7.16297 9.76046 7.05226 10.1202 7.01656 10.4912C6.98086 10.8621 7.02091 11.2364 7.13428 11.5913C7.24765 11.9463 7.43198 12.2745 7.67607 12.556L11.2461 16.657Z" stroke="black" stroke-width="2" stroke-linecap="round" stroke-linejoin="round"/>
<path d="M17 3H19C19.5304 3 20.0391 3.21071 20.4142 3.58579C20.7893 3.96086 21 4.46957 21 5V7" stroke="black" stroke-width="2" stroke-linecap="round" stroke-linejoin="round"/>
<path d="M21 17V19C21 19.5304 20.7893 20.0391 20.4142 20.4142C20.0391 20.7893 19.5304 21 19 21H17" stroke="black" stroke-width="2" stroke-linecap="round" stroke-linejoin="round"/>
<path d="M3 7V5C3 4.46957 3.21071 3.96086 3.58579 3.58579C3.96086 3.21071 4.46957 3 5 3H7" stroke="black" stroke-width="2" stroke-linecap="round" stroke-linejoin="round"/>
<path d="M7 21H5C4.46957 21 3.96086 20.7893 3.58579 20.4142C3.21071 20.0391 3 19.5304 3 19V17" stroke="black" stroke-width="2" stroke-linecap="round" stroke-linejoin="round"/>
</svg>
