<svg width="24" height="24" viewBox="0 0 24 24" fill="none" xmlns="http://www.w3.org/2000/svg">
<path d="M9.93694 15.4998C9.84766 15.1537 9.66728 14.8379 9.41456 14.5851C9.16184 14.3324 8.84601 14.152 8.49994 14.0628L2.36494 12.4808C2.26027 12.4511 2.16815 12.388 2.10255 12.3012C2.03696 12.2144 2.00146 12.1086 2.00146 11.9998C2.00146 11.891 2.03696 11.7851 2.10255 11.6983C2.16815 11.6115 2.26027 11.5485 2.36494 11.5188L8.49994 9.93576C8.84589 9.84657 9.16163 9.66633 9.41434 9.4138C9.66705 9.16127 9.84751 8.84565 9.93694 8.49976L11.5189 2.36476C11.5483 2.25968 11.6113 2.1671 11.6983 2.10116C11.7852 2.03521 11.8913 1.99951 12.0004 1.99951C12.1096 1.99951 12.2157 2.03521 12.3026 2.10116C12.3896 2.1671 12.4525 2.25968 12.4819 2.36476L14.0629 8.49976C14.1522 8.84583 14.3326 9.16166 14.5853 9.41438C14.838 9.6671 15.1539 9.84748 15.4999 9.93676L21.6349 11.5178C21.7404 11.5469 21.8335 11.6098 21.8998 11.6968C21.9661 11.7839 22.002 11.8903 22.002 11.9998C22.002 12.1092 21.9661 12.2156 21.8998 12.3027C21.8335 12.3898 21.7404 12.4527 21.6349 12.4818L15.4999 14.0628C15.1539 14.152 14.838 14.3324 14.5853 14.5851C14.3326 14.8379 14.1522 15.1537 14.0629 15.4998L12.4809 21.6348C12.4515 21.7398 12.3886 21.8324 12.3016 21.8984C12.2147 21.9643 12.1086 22 11.9994 22C11.8903 22 11.7842 21.9643 11.6973 21.8984C11.6103 21.8324 11.5473 21.7398 11.5179 21.6348L9.93694 15.4998Z" stroke="black" stroke-width="2" stroke-linecap="round" stroke-linejoin="round"/>
<path d="M20 3V7" stroke="black" stroke-width="2" stroke-linecap="round" stroke-linejoin="round"/>
<path d="M22 5H18" stroke="black" stroke-width="2" stroke-linecap="round" stroke-linejoin="round"/>
<path d="M4 17V19" stroke="black" stroke-width="2" stroke-linecap="round" stroke-linejoin="round"/>
<path d="M5 18H3" stroke="black" stroke-width="2" stroke-linecap="round" stroke-linejoin="round"/>
</svg>
