<svg width="65" height="65" viewBox="0 0 65 65" fill="none" xmlns="http://www.w3.org/2000/svg">
<path d="M54.1667 63.6452H10.8333C10.115 63.6452 9.42616 63.3598 8.91825 62.8519C8.41034 62.344 8.125 61.6551 8.125 60.9368V4.06185C8.125 3.34355 8.41034 2.65468 8.91825 2.14677C9.42616 1.63886 10.115 1.35352 10.8333 1.35352H54.1667C54.885 1.35352 55.5738 1.63886 56.0817 2.14677C56.5897 2.65468 56.875 3.34355 56.875 4.06185V60.9368C56.875 61.6551 56.5897 62.344 56.0817 62.8519C55.5738 63.3598 54.885 63.6452 54.1667 63.6452ZM13.5417 58.2285H51.4583V6.77018H13.5417V58.2285Z" fill="#196164"/>
<path d="M20.3142 25.7295C19.7801 25.7272 19.2587 25.5672 18.8154 25.2694C18.3721 24.9717 18.0268 24.5495 17.8227 24.056C17.6187 23.5625 17.565 23.0198 17.6686 22.4959C17.7722 21.972 18.0283 21.4905 18.4048 21.1117L23.8214 15.6951C24.2243 15.2938 24.7432 15.0294 25.3046 14.9395C25.8661 14.8496 26.4416 14.9386 26.9496 15.194L30.7819 17.117L37.5527 11.4836C38.0175 11.0934 38.5998 10.8707 39.2064 10.851C39.8129 10.8314 40.4084 11.016 40.8975 11.3753L46.3142 15.4378C46.8888 15.8688 47.2687 16.5104 47.3703 17.2214C47.4718 17.9325 47.2868 18.6548 46.8558 19.2295C46.4248 19.8041 45.7832 20.184 45.0722 20.2856C44.3611 20.3871 43.6388 20.2021 43.0641 19.7711L39.3673 16.9951L32.8808 22.4117C32.4766 22.747 31.9836 22.9575 31.4618 23.0176C30.9401 23.0777 30.4122 22.9848 29.9423 22.7503L26.2725 20.8951L22.21 24.9576C21.7033 25.453 21.0227 25.7301 20.3142 25.7295Z" fill="#30e3ca"/>
<path d="M20.3099 35.2077C21.8057 35.2077 23.0182 33.9951 23.0182 32.4993C23.0182 31.0036 21.8057 29.791 20.3099 29.791C18.8141 29.791 17.6016 31.0036 17.6016 32.4993C17.6016 33.9951 18.8141 35.2077 20.3099 35.2077Z" fill="#30e3ca"/>
<path d="M20.3099 44.6882C21.8057 44.6882 23.0182 43.4756 23.0182 41.9798C23.0182 40.484 21.8057 39.2715 20.3099 39.2715C18.8141 39.2715 17.6016 40.484 17.6016 41.9798C17.6016 43.4756 18.8141 44.6882 20.3099 44.6882Z" fill="#30e3ca"/>
<path d="M20.3099 54.1667C21.8057 54.1667 23.0182 52.9541 23.0182 51.4583C23.0182 49.9626 21.8057 48.75 20.3099 48.75C18.8141 48.75 17.6016 49.9626 17.6016 51.4583C17.6016 52.9541 18.8141 54.1667 20.3099 54.1667Z" fill="#30e3ca"/>
<path d="M44.6901 35.2077H29.7943C29.076 35.2077 28.3871 34.9223 27.8792 34.4144C27.3713 33.9065 27.0859 33.2176 27.0859 32.4993C27.0859 31.7811 27.3713 31.0922 27.8792 30.5843C28.3871 30.0764 29.076 29.791 29.7943 29.791H44.6901C45.4084 29.791 46.0973 30.0764 46.6052 30.5843C47.1131 31.0922 47.3984 31.7811 47.3984 32.4993C47.3984 33.2176 47.1131 33.9065 46.6052 34.4144C46.0973 34.9223 45.4084 35.2077 44.6901 35.2077Z" fill="#30e3ca"/>
<path d="M44.6901 44.6882H29.7943C29.076 44.6882 28.3871 44.4028 27.8792 43.8949C27.3713 43.387 27.0859 42.6981 27.0859 41.9798C27.0859 41.2615 27.3713 40.5726 27.8792 40.0647C28.3871 39.5568 29.076 39.2715 29.7943 39.2715H44.6901C45.4084 39.2715 46.0973 39.5568 46.6052 40.0647C47.1131 40.5726 47.3984 41.2615 47.3984 41.9798C47.3984 42.6981 47.1131 43.387 46.6052 43.8949C46.0973 44.4028 45.4084 44.6882 44.6901 44.6882Z" fill="#30e3ca"/>
<path d="M44.6901 54.1667H29.7943C29.076 54.1667 28.3871 53.8813 27.8792 53.3734C27.3713 52.8655 27.0859 52.1766 27.0859 51.4583C27.0859 50.74 27.3713 50.0512 27.8792 49.5433C28.3871 49.0353 29.076 48.75 29.7943 48.75H44.6901C45.4084 48.75 46.0973 49.0353 46.6052 49.5433C47.1131 50.0512 47.3984 50.74 47.3984 51.4583C47.3984 52.1766 47.1131 52.8655 46.6052 53.3734C46.0973 53.8813 45.4084 54.1667 44.6901 54.1667Z" fill="#30e3ca"/>
</svg>
