<svg width="67" height="67" viewBox="0 0 67 67" fill="none" xmlns="http://www.w3.org/2000/svg">
<g clip-path="url(#clip0_2035_72)">
<path d="M47.3587 31.5685C47.4932 31.6889 47.6277 31.8096 47.762 31.9304C47.8505 32.0093 47.9391 32.0883 48.0303 32.1696C50.067 34.0944 51.5918 36.6705 52.6038 39.2585C52.6364 39.3417 52.6691 39.425 52.7028 39.5108C54.3731 43.8707 54.3749 48.8648 52.8655 53.2605C52.8157 53.4064 52.766 53.5523 52.7147 53.7026C51.5039 57.0251 49.3704 60.2166 46.5842 62.4206C46.5187 62.4725 46.4532 62.5244 46.3857 62.5779C42.6293 65.5208 38.303 67.0652 33.531 67.0416C33.4334 67.0414 33.3359 67.0412 33.2353 67.041C31.7636 67.0357 30.3515 66.9611 28.9182 66.6081C28.7681 66.5732 28.618 66.5383 28.4633 66.5023C23.3056 65.1684 18.8555 61.9111 16.0628 57.3754C13.2014 52.4748 12.3236 46.9182 13.6784 41.3793C14.4576 38.4364 15.8933 35.6399 17.926 33.3698C17.982 33.3061 18.038 33.2425 18.0957 33.1769C21.856 28.9034 26.8922 26.6359 32.5272 26.1912C38.0392 25.8671 43.2679 27.9513 47.3587 31.5685ZM33.0239 31.7095C32.5313 32.267 32.5655 32.7523 32.5741 33.4598C32.5747 33.5516 32.5753 33.6435 32.5759 33.7381C32.5774 33.9643 32.5798 34.1905 32.5823 34.4167C32.3556 34.4005 32.3556 34.4005 32.1243 34.384C30.1086 34.3966 27.9115 35.2795 26.4319 36.6413C25.0313 38.2862 24.4377 39.9829 24.5999 42.1374C24.8685 43.8284 25.7787 45.0801 27.0841 46.144C28.4306 47.1209 30.8818 48.1569 32.5823 48.1569C32.5823 50.532 32.5823 52.9071 32.5823 55.3542C30.0495 54.8477 30.0495 54.8476 29.3108 54.0456C28.9309 53.4078 28.6514 52.7337 28.3866 52.0418C28.1594 51.4606 27.9261 50.958 27.3668 50.633C26.7385 50.363 26.0954 50.3562 25.4259 50.447C24.8511 50.7073 24.5209 51.0117 24.2073 51.5593C23.8524 52.5943 24.1918 53.7384 24.6535 54.6861C25.8659 56.7353 27.9071 57.8179 30.1547 58.4064C30.9601 58.5597 31.7634 58.6027 32.5823 58.6257C32.5755 58.8529 32.5755 58.8529 32.5685 59.0847C32.5648 59.2861 32.5612 59.4875 32.5577 59.6889C32.5545 59.7884 32.5512 59.888 32.5478 59.9905C32.5394 60.638 32.6141 61.0749 32.9749 61.6355C33.273 61.8616 33.273 61.8616 33.6292 61.8972C34.0272 61.7398 34.225 61.611 34.4322 61.2337C34.5852 60.7146 34.5732 60.2348 34.5615 59.6971C34.5603 59.5939 34.5592 59.4908 34.558 59.3845C34.5549 59.1316 34.5502 58.8786 34.5452 58.6257C34.6815 58.6144 34.8178 58.6031 34.9582 58.5914C37.5133 58.3519 39.8114 57.6717 41.6116 55.7468C42.6174 54.5161 43.0263 52.7394 42.9621 51.1672C42.7641 49.3108 42.222 47.8599 40.8264 46.5866C39.1872 45.3572 36.6326 44.2312 34.5452 44.2312C34.5452 42.072 34.5452 39.9128 34.5452 37.6882C36.5727 38.0568 37.4814 38.651 38.6836 40.2808C39.0907 40.8175 39.4152 41.0951 40.0413 41.3522C40.7269 41.4365 41.1645 41.3366 41.7424 40.9597C42.2496 40.4593 42.5011 40.0333 42.5767 39.3158C42.5591 38.3611 42.0401 37.5618 41.4071 36.8785C39.6365 35.2428 36.9377 34.3395 34.5452 34.4167C34.5497 34.2732 34.5543 34.1296 34.559 33.9817C34.5627 33.7914 34.5662 33.601 34.5697 33.4107C34.573 33.3163 34.5763 33.222 34.5797 33.1247C34.5879 32.5229 34.5302 32.1431 34.1526 31.6687C33.6315 31.3213 33.4989 31.2912 33.0239 31.7095Z" fill="#30e3ca"/>
<path d="M21.3302 0.392738C21.4908 0.437271 21.6514 0.481804 21.8168 0.527687C26.1279 1.84593 29.6615 4.79954 31.7887 8.75394C32.4654 10.0591 33.2174 11.5877 33.1075 13.0861C32.944 13.404 32.944 13.404 32.715 13.724C30.9042 16.4402 30.1387 19.4566 29.5743 22.6388C29.4922 22.6578 29.4101 22.6768 29.3255 22.6964C23.0686 24.1593 17.8211 27.1759 13.8712 32.3224C10.6565 31.6567 7.95456 30.1749 5.62707 27.8732C5.53379 27.7894 5.44051 27.7055 5.3444 27.6192C3.33782 25.7774 1.94819 23.0335 1.30871 20.4142C1.26992 20.2734 1.23112 20.1325 1.19114 19.9874C0.624096 17.5813 0.628962 14.5441 1.30871 12.1701C1.34667 12.0331 1.34667 12.0331 1.38539 11.8934C2.53814 7.81788 5.16067 4.42714 8.7677 2.22477C8.84881 2.1752 8.92993 2.12562 9.01351 2.07455C10.2999 1.30533 11.6458 0.796714 13.0861 0.392738C13.2419 0.348037 13.3978 0.303335 13.5584 0.257278C15.9455 -0.303011 18.971 -0.278234 21.3302 0.392738ZM9.68371 7.59C9.49678 8.1508 9.43977 8.62325 9.67029 9.18457C10.1016 10.0293 10.5755 10.8401 11.0741 11.6466C11.1535 11.776 11.2329 11.9054 11.3147 12.0387C11.4768 12.303 11.6392 12.5671 11.8017 12.8311C12.1605 13.4141 12.5168 13.9985 12.8734 14.5828C13.0751 14.9127 13.2769 15.2426 13.4786 15.5724C13.3336 15.5679 13.1885 15.5633 13.039 15.5586C12.8475 15.5549 12.656 15.5514 12.4645 15.5479C12.369 15.5446 12.2735 15.5413 12.1752 15.5379C11.7493 15.5321 11.442 15.5414 11.0639 15.7467C10.7606 16.0737 10.7306 16.3087 10.7306 16.7502C11.0054 17.1919 11.1496 17.3697 11.6466 17.5353C11.8882 17.5461 12.1301 17.5494 12.372 17.5481C12.5124 17.5477 12.6528 17.5473 12.7975 17.5468C12.944 17.5457 13.0905 17.5446 13.2415 17.5435C13.3895 17.5429 13.5375 17.5423 13.69 17.5417C14.0558 17.5402 14.4215 17.538 14.7872 17.5353C15.0374 18.1159 15.1162 18.6114 15.1798 19.2365C15.0676 19.2344 14.9554 19.2324 14.8398 19.2303C14.4222 19.2236 14.0047 19.2186 13.5872 19.2149C13.4067 19.213 13.2262 19.2103 13.0457 19.2069C12.7859 19.2021 12.526 19.2001 12.2661 19.1982C12.1099 19.1961 11.9537 19.194 11.7927 19.1919C11.3495 19.2404 11.1741 19.3178 10.8614 19.6291C10.7191 19.9375 10.7191 19.9375 10.7306 20.2834C10.8893 20.6427 11.0179 20.8683 11.3482 21.0858C11.736 21.2334 12.056 21.2288 12.4706 21.2249C12.6283 21.2241 12.7861 21.2233 12.9486 21.2224C13.1127 21.2202 13.2768 21.218 13.4459 21.2157C13.6121 21.2146 13.7782 21.2134 13.9494 21.2122C14.3596 21.2091 14.7697 21.2048 15.1798 21.1994C15.1771 21.2983 15.1743 21.3973 15.1715 21.4992C15.1606 21.95 15.1538 22.4007 15.1471 22.8515C15.1427 23.0072 15.1383 23.1629 15.1338 23.3233C15.118 24.4607 15.118 24.4607 15.7032 25.3869C15.7707 25.4651 15.8382 25.5434 15.9077 25.6241C16.4507 26.0726 17.2675 25.9636 17.9279 25.9103C18.5474 25.6599 18.939 25.1967 19.2364 24.6017C19.2476 24.3453 19.2505 24.0885 19.2492 23.8319C19.2488 23.6792 19.2484 23.5266 19.2479 23.3693C19.2469 23.2092 19.2458 23.0491 19.2446 22.8842C19.244 22.7231 19.2434 22.562 19.2428 22.396C19.2413 21.9971 19.2391 21.5983 19.2364 21.1994C19.3401 21.2014 19.4437 21.2035 19.5504 21.2056C20.021 21.2138 20.4915 21.2189 20.9622 21.2239C21.1252 21.2272 21.2882 21.2305 21.4562 21.2339C21.6135 21.2351 21.7708 21.2364 21.9329 21.2377C22.0775 21.2398 22.2221 21.2418 22.371 21.2439C22.8233 21.1934 23.0631 21.0801 23.4239 20.8068C23.641 20.4392 23.641 20.4392 23.6857 20.0216C23.5144 19.6363 23.4116 19.4266 23.0314 19.2365C22.7463 19.2253 22.4609 19.2225 22.1757 19.2237C22.0053 19.2241 21.8349 19.2246 21.6594 19.225C21.4788 19.2261 21.2982 19.2272 21.1176 19.2283C20.9359 19.229 20.7543 19.2296 20.5726 19.2301C20.1272 19.2316 19.6818 19.2338 19.2364 19.2365C19.3 18.6114 19.3789 18.1159 19.629 17.5353C19.7207 17.5374 19.8125 17.5394 19.9069 17.5415C20.3241 17.5497 20.7412 17.5548 21.1584 17.5599C21.3028 17.5631 21.4471 17.5664 21.5957 17.5698C21.7353 17.5711 21.8749 17.5724 22.0187 17.5737C22.1469 17.5757 22.275 17.5778 22.4071 17.5799C22.8375 17.527 23.0776 17.4002 23.4239 17.1427C23.641 16.7752 23.641 16.7752 23.6857 16.3576C23.5144 15.9723 23.4116 15.7626 23.0314 15.5724C22.6757 15.563 22.3236 15.5603 21.9681 15.5642C21.8695 15.5648 21.7708 15.5654 21.6691 15.566C21.4253 15.5676 21.1814 15.5699 20.9376 15.5724C21.2264 15.0898 21.5155 14.6073 21.8046 14.1248C21.8921 13.9786 21.9797 13.8324 22.0699 13.6818C22.5216 12.9284 22.9755 12.1765 23.4342 11.4274C23.5177 11.2908 23.6013 11.1543 23.6874 11.0136C23.8476 10.7522 24.0081 10.4911 24.169 10.2302C24.2774 10.0533 24.2774 10.0533 24.388 9.87289C24.4516 9.76967 24.5152 9.66646 24.5807 9.56012C24.8816 9.02718 24.905 8.58621 24.8634 7.98258C24.6251 7.44329 24.2963 7.14067 23.8165 6.80485C23.4376 6.67854 23.142 6.63095 22.7451 6.60856C22.6272 6.59911 22.5093 6.58967 22.3878 6.57993C21.6622 6.74914 21.1975 7.18493 20.7966 7.80974C20.4246 8.45066 20.1019 9.11661 19.7762 9.7819C19.6729 9.98867 19.5693 10.1953 19.4655 10.4019C19.2622 10.8066 19.0599 11.2119 18.8584 11.6176C18.5099 12.3172 18.1475 13.0093 17.7806 13.6995C17.7007 13.8506 17.7007 13.8506 17.6192 14.0048C17.5042 14.2221 17.3889 14.4393 17.2736 14.6564C16.9128 14.2125 16.6582 13.7283 16.402 13.22C16.3086 13.0369 16.2152 12.8538 16.1218 12.6707C16.0735 12.5754 16.0251 12.4802 15.9753 12.3821C15.7256 11.8909 15.4733 11.401 15.2212 10.9111C15.1719 10.8152 15.1226 10.7194 15.0718 10.6207C14.5029 9.51479 14.5029 9.51479 13.9203 8.41605C13.8742 8.32714 13.8282 8.23822 13.7807 8.1466C13.4432 7.53024 13.0284 7.05463 12.4318 6.67399C11.3613 6.4169 10.3897 6.75323 9.68371 7.59Z" fill="#196164"/>
<path d="M60.2812 11.827C62.799 13.9964 64.6319 16.6964 65.5625 19.8914C65.59 19.9821 65.6175 20.0728 65.6459 20.1663C66.8565 24.3023 66.0825 28.8155 64.0783 32.5559C62.3976 35.5558 59.7646 37.8356 56.6641 39.2586C56.6385 39.191 56.613 39.1234 56.5867 39.0537C56.0677 37.6909 55.521 36.3762 54.7937 35.1098C54.6665 34.8837 54.5518 34.6506 54.4395 34.4168C54.4826 34.2873 54.5258 34.1577 54.5703 34.0243C54.8704 33.923 54.8704 33.923 55.2491 33.8443C56.0535 33.6438 56.5249 33.4001 56.983 32.6829C57.1248 31.9898 57.0479 31.3799 56.7213 30.7528C56.2936 30.4018 55.8925 30.3474 55.3555 30.3602C55.2129 30.3808 55.0704 30.4014 54.9235 30.4226C53.7829 30.5839 52.3127 30.7498 51.2988 30.0985C50.8049 29.6738 50.3641 29.1985 49.9216 28.7217C49.7212 28.5209 49.5103 28.3482 49.2874 28.1729C49.1739 28.0742 49.0603 27.9755 48.9434 27.8739C48.9597 27.5222 48.9597 27.5222 49.0742 27.0887C49.0819 26.8617 49.084 26.6344 49.0814 26.4073C49.0803 26.2898 49.0793 26.1722 49.0782 26.0511C49.0769 25.9617 49.0756 25.8723 49.0742 25.7801C49.1929 25.7773 49.1929 25.7773 49.314 25.7743C49.6758 25.7645 50.0375 25.7519 50.3992 25.7392C50.5237 25.7363 50.6482 25.7333 50.7764 25.7303C51.4756 25.7036 52.007 25.6553 52.6074 25.2567C52.8097 24.8521 52.7767 24.5246 52.7383 24.0789C52.4307 23.6615 52.192 23.5142 51.6914 23.4246C51.434 23.4188 51.1764 23.4195 50.919 23.4246C50.7702 23.4245 50.6213 23.4243 50.4679 23.4241C50.1554 23.4245 49.8428 23.4289 49.5304 23.4374C48.4191 23.4261 48.4191 23.4261 48.0428 23.0433C47.8686 22.737 47.7435 22.4508 47.6348 22.116C47.5847 21.9623 47.5847 21.9623 47.5336 21.8054C47.2754 20.9205 47.3053 20.0196 47.7247 19.1962C48.501 18.2942 49.2378 17.9022 50.4222 17.8013C51.1674 17.7937 51.9688 17.9191 52.6074 18.3211C53.0952 18.8967 53.4939 19.5382 53.8179 20.2186C54.011 20.6996 54.011 20.6996 54.4395 20.9383C55.0722 21.0137 55.6762 21.0186 56.2715 20.7829C56.7527 20.3468 56.9492 19.9828 56.983 19.3353C56.9366 18.1696 56.3176 17.2677 55.4863 16.4891C53.6254 14.9659 51.132 14.707 48.8125 14.9188C47.1645 15.1907 45.6092 15.957 44.5504 17.2691C43.6755 18.517 43.441 19.821 43.5781 21.3309C43.713 21.8727 43.894 22.3835 44.1016 22.9012C44.1447 23.0308 44.1879 23.1603 44.2324 23.2938C44.0953 23.3153 44.0953 23.3153 43.9554 23.3372C43.8363 23.358 43.7172 23.3787 43.5945 23.4001C43.4761 23.4198 43.3576 23.4396 43.2356 23.4599C42.8788 23.5333 42.8788 23.5333 42.6621 23.9481C41.9247 23.8666 41.2644 23.6769 40.5602 23.4492C38.2972 22.7474 35.9881 22.4411 33.6328 22.2469C33.6949 21.4277 33.8015 20.6611 34.0417 19.8751C34.0702 19.7809 34.0986 19.6866 34.1279 19.5895C35.4626 15.3234 38.4613 11.8695 42.3932 9.77677C43.4905 9.21603 44.6087 8.80765 45.8027 8.50667C45.9684 8.46484 46.134 8.42301 46.3047 8.3799C51.1984 7.28383 56.4581 8.62926 60.2812 11.827Z" fill="#196164"/>
<path d="M34.5469 48.5488C36.0116 48.7581 37.5429 49.2167 38.4808 50.4463C38.8947 51.1962 38.8531 52.0406 38.7344 52.8672C38.5827 53.2895 38.3818 53.5846 38.0801 53.9141C37.9849 54.0224 37.9849 54.0224 37.8879 54.1328C36.9877 55.0242 35.756 55.2024 34.5469 55.3535C34.5469 53.108 34.5469 50.8624 34.5469 48.5488Z" fill="#30e3ca"/>
<path d="M32.5824 37.6875C32.5824 39.7171 32.5824 41.7468 32.5824 43.8379C31.2745 43.5763 29.8994 43.2641 29.0563 42.1342C28.7069 41.478 28.5856 40.7598 28.7138 40.0266C29.0078 39.1114 29.6785 38.5173 30.5132 38.0883C31.272 37.7357 31.7116 37.6875 32.5824 37.6875Z" fill="#30e3ca"/>
</g>
<defs>
<clipPath id="clip0_2035_72">
<rect width="67" height="67" fill="white"/>
</clipPath>
</defs>
</svg>
