<svg width="64" height="64" viewBox="0 0 64 64" fill="none" xmlns="http://www.w3.org/2000/svg">
<path d="M33 13V15C33.2652 15 33.5196 14.8946 33.7071 14.7071C33.8946 14.5196 34 14.2652 34 14C34 13.7348 33.8946 13.4804 33.7071 13.2929C33.5196 13.1054 33.2652 13 33 13Z" fill="#30e3ca"/>
<path d="M47 7.945C44.877 7.7 43.5 6.651 43.11 5H20.89C20.5 6.651 19.123 7.7 17 7.945V16.055C19.123 16.3 20.5 17.349 20.89 19H43.11C43.496 17.349 44.877 16.3 47 16.055V7.945ZM33 17C33 17.2652 32.8946 17.5196 32.7071 17.7071C32.5196 17.8946 32.2652 18 32 18C31.7348 18 31.4804 17.8946 31.2929 17.7071C31.1054 17.5196 31 17.2652 31 17H30C29.7348 17 29.4804 16.8946 29.2929 16.7071C29.1054 16.5196 29 16.2652 29 16C29 15.7348 29.1054 15.4804 29.2929 15.2929C29.4804 15.1054 29.7348 15 30 15H31V13C30.2044 13 29.4413 12.6839 28.8787 12.1213C28.3161 11.5587 28 10.7956 28 10C28 9.20435 28.3161 8.44129 28.8787 7.87868C29.4413 7.31607 30.2044 7 31 7C31 6.73478 31.1054 6.48043 31.2929 6.29289C31.4804 6.10536 31.7348 6 32 6C32.2652 6 32.5196 6.10536 32.7071 6.29289C32.8946 6.48043 33 6.73478 33 7H34C34.2652 7 34.5196 7.10536 34.7071 7.29289C34.8946 7.48043 35 7.73478 35 8C35 8.26522 34.8946 8.51957 34.7071 8.70711C34.5196 8.89464 34.2652 9 34 9H33V11C33.7956 11 34.5587 11.3161 35.1213 11.8787C35.6839 12.4413 36 13.2044 36 14C36 14.7956 35.6839 15.5587 35.1213 16.1213C34.5587 16.6839 33.7956 17 33 17Z" fill="#30e3ca"/>
<path d="M30 10C30 10.2652 30.1054 10.5196 30.2929 10.7071C30.4804 10.8946 30.7348 11 31 11V9C30.7348 9 30.4804 9.10536 30.2929 9.29289C30.1054 9.48043 30 9.73478 30 10Z" fill="#30e3ca"/>
<path d="M16.5 31H29C30.0609 31 31.0783 30.5786 31.8284 29.8284C32.5786 29.0783 33 28.0609 33 27V24H51C51.2652 24 51.5196 23.8946 51.7071 23.7071C51.8946 23.5196 52 23.2652 52 23V1C52 0.734784 51.8946 0.48043 51.7071 0.292893C51.5196 0.105357 51.2652 0 51 0L13 0C12.7348 0 12.4804 0.105357 12.2929 0.292893C12.1054 0.48043 12 0.734784 12 1V23C12 23.2652 12.1054 23.5196 12.2929 23.7071C12.4804 23.8946 12.7348 24 13 24H31V27C31 27.5304 30.7893 28.0391 30.4142 28.4142C30.0391 28.7893 29.5304 29 29 29H16.5C15.3065 29 14.1619 29.4741 13.318 30.318C12.4741 31.1619 12 32.3065 12 33.5C12 34.6935 12.4741 35.8381 13.318 36.682C14.1619 37.5259 15.3065 38 16.5 38H41C41.5304 38 42.0391 38.2107 42.4142 38.5858C42.7893 38.9609 43 39.4696 43 40V43H41C39.6744 43.0016 38.4036 43.5289 37.4662 44.4662C36.5289 45.4036 36.0016 46.6744 36 48V56C36 58.1217 36.8429 60.1566 38.3431 61.6569C39.8434 63.1571 41.8783 64 44 64C46.1217 64 48.1566 63.1571 49.6569 61.6569C51.1571 60.1566 52 58.1217 52 56V48C51.9984 46.6744 51.4711 45.4036 50.5338 44.4662C49.5964 43.5289 48.3256 43.0016 47 43H45V40C45 38.9391 44.5786 37.9217 43.8284 37.1716C43.0783 36.4214 42.0609 36 41 36H16.5C15.837 36 15.2011 35.7366 14.7322 35.2678C14.2634 34.7989 14 34.163 14 33.5C14 32.837 14.2634 32.2011 14.7322 31.7322C15.2011 31.2634 15.837 31 16.5 31ZM19 20C19 19.5 19 18 16 18C15.7348 18 15.4804 17.8946 15.2929 17.7071C15.1054 17.5196 15 17.2652 15 17V7C15 6.73478 15.1054 6.48043 15.2929 6.29289C15.4804 6.10536 15.7348 6 16 6C19 6 19 4.5 19 4C19 3.73478 19.1054 3.48043 19.2929 3.29289C19.4804 3.10536 19.7348 3 20 3H44C44.2652 3 44.5196 3.10536 44.7071 3.29289C44.8946 3.48043 45 3.73478 45 4C45 4.5 45 6 48 6C48.2652 6 48.5196 6.10536 48.7071 6.29289C48.8946 6.48043 49 6.73478 49 7V17C49 17.2652 48.8946 17.5196 48.7071 17.7071C48.5196 17.8946 48.2652 18 48 18C45 18 45 19.5 45 20C45 20.2652 44.8946 20.5196 44.7071 20.7071C44.5196 20.8946 44.2652 21 44 21H20C19.7348 21 19.4804 20.8946 19.2929 20.7071C19.1054 20.5196 19 20.2652 19 20ZM45 50C45 50.2652 44.8946 50.5196 44.7071 50.7071C44.5196 50.8946 44.2652 51 44 51C43.7348 51 43.4804 50.8946 43.2929 50.7071C43.1054 50.5196 43 50.2652 43 50V48C43 47.7348 43.1054 47.4804 43.2929 47.2929C43.4804 47.1054 43.7348 47 44 47C44.2652 47 44.5196 47.1054 44.7071 47.2929C44.8946 47.4804 45 47.7348 45 48V50Z" fill="#196164"/>
</svg>
