<svg width="28" height="28" viewBox="0 0 28 28" fill="none" xmlns="http://www.w3.org/2000/svg">
<g clip-path="url(#clip0_310_40)">
<path d="M6.75722 14.2967H20.655C23.7228 14.2967 26.2129 11.8901 26.2129 8.93538C26.2129 5.98067 23.7169 3.57404 20.655 3.57404H7.09677C6.75722 1.57248 4.81524 0.244042 2.81368 0.678925C1.02059 1.06611 -0.194644 2.78174 0.0257853 4.59867C0.275981 6.63598 2.17032 8.02992 4.17188 7.69635C4.9039 7.57179 5.57913 7.22285 6.10419 6.6978C6.62925 6.17274 6.97818 5.49751 7.10274 4.76549H20.6609C23.0676 4.76549 25.0275 6.63598 25.0275 8.93543C25.0275 11.2348 23.0676 13.1054 20.6609 13.1054H6.75722C3.68936 13.1054 1.19333 15.512 1.19333 18.4667C1.19333 21.4214 3.68931 23.828 6.75124 23.828H16.4314L13.8818 26.3836C13.6435 26.61 13.6376 26.9912 13.8699 27.2235C14.1022 27.4559 14.4775 27.4678 14.7099 27.2354L14.7218 27.2235L18.29 23.6553C18.3452 23.6002 18.389 23.5347 18.4189 23.4627C18.4488 23.3906 18.4642 23.3134 18.4642 23.2353C18.4642 23.1573 18.4488 23.0801 18.4189 23.008C18.389 22.9359 18.3452 22.8705 18.29 22.8154L14.7218 19.2411C14.4835 19.0148 14.1082 19.0207 13.8818 19.253C13.7757 19.3647 13.7165 19.513 13.7165 19.6671C13.7165 19.8212 13.7757 19.9694 13.8818 20.0811L16.4374 22.6366H6.75722C4.34462 22.6366 2.38477 20.7662 2.38477 18.4667C2.38477 16.1673 4.34462 14.2967 6.75722 14.2967ZM3.57616 6.54662C2.25967 6.54662 1.19333 5.48033 1.19333 4.16379C1.19333 2.8473 2.25962 1.78096 3.57616 1.78096C4.89265 1.78096 5.95899 2.84725 5.95899 4.16379C5.95899 5.48028 4.89265 6.54662 3.57616 6.54662ZM24.4258 19.6521C22.454 19.6521 20.8515 21.2545 20.8515 23.2263C20.8515 25.1981 22.454 26.8005 24.4258 26.8005C26.3976 26.8005 28 25.1981 28 23.2263C28 21.2545 26.4035 19.658 24.4258 19.6521ZM24.4258 25.6091C23.1093 25.6091 22.0429 24.5428 22.0429 23.2263C22.0429 21.9097 23.1092 20.8435 24.4258 20.8435C25.7423 20.8435 26.8086 21.9097 26.8086 23.2263C26.8086 24.5428 25.7423 25.6091 24.4258 25.6091Z" fill="black"/>
</g>
<defs>
<clipPath id="clip0_310_40">
<rect width="28" height="28" fill="white"/>
</clipPath>
</defs>
</svg>
