<svg width="28" height="28" viewBox="0 0 28 28" fill="none" xmlns="http://www.w3.org/2000/svg">
<g clip-path="url(#clip0_310_47)">
<path d="M5.24674 0C3.85477 0 2.5198 0.55296 1.53553 1.53724C0.551251 2.52151 -0.00170898 3.85647 -0.00170898 5.24845C-0.00170898 6.64042 0.551251 7.97539 1.53553 8.95966C2.5198 9.94394 3.85477 10.4969 5.24674 10.4969C6.63872 10.4969 7.97368 9.94394 8.95796 8.95966C9.94223 7.97539 10.4952 6.64042 10.4952 5.24845C10.4952 3.85647 9.94223 2.52151 8.95796 1.53724C7.97368 0.55296 6.63872 0 5.24674 0ZM22.7482 0C21.3562 0 20.0213 0.55296 19.037 1.53724C18.0527 2.52151 17.4997 3.85647 17.4997 5.24845C17.4997 6.64042 18.0527 7.97539 19.037 8.95966C20.0213 9.94394 21.3562 10.4969 22.7482 10.4969C24.1402 10.4969 25.4751 9.94394 26.4594 8.95966C27.4437 7.97539 27.9966 6.64042 27.9966 5.24845C27.9966 3.85647 27.4437 2.52151 26.4594 1.53724C25.4751 0.55296 24.1402 0 22.7482 0ZM5.24674 0.876395C6.40674 0.876394 7.5193 1.33686 8.34001 2.15664C9.16071 2.97642 9.62244 4.08845 9.62376 5.24845C9.62114 6.40835 9.15909 7.51997 8.33876 8.33999C7.51843 9.16 6.40664 9.62163 5.24674 9.62381C4.08676 9.62381 2.97429 9.16301 2.15406 8.34278C1.33383 7.52255 0.873033 6.41008 0.873033 5.2501C0.873033 4.09012 1.33383 2.97765 2.15406 2.15742C2.97429 1.3372 4.08676 0.876395 5.24674 0.876395ZM22.7482 0.876395C23.9082 0.876394 25.0207 1.33686 25.8415 2.15664C26.6622 2.97642 27.1239 4.08845 27.1252 5.24845C27.1226 6.40835 26.6605 7.51997 25.8402 8.33999C25.0199 9.16 23.9081 9.62163 22.7482 9.62381C21.5882 9.62381 20.4757 9.16301 19.6555 8.34278C18.8353 7.52255 18.3745 6.41008 18.3745 5.2501C18.3745 4.09012 18.8353 2.97765 19.6555 2.15742C20.4757 1.3372 21.5882 0.876395 22.7482 0.876395ZM5.24839 1.53121C5.03343 1.53121 4.8102 1.67342 4.8102 1.96776V2.38611C4.38493 2.47762 4.00365 2.71157 3.72942 3.04924C3.45519 3.38691 3.30445 3.80808 3.30214 4.24308C3.30214 4.88797 3.62789 5.25672 4.01813 5.44688C4.41003 5.63869 4.82673 5.6668 5.20375 5.70484C5.58076 5.74452 5.9214 5.79578 6.09668 5.88012C6.20251 5.9413 6.32157 5.99917 6.32157 6.29682C6.32157 6.85573 5.86187 7.32203 5.26493 7.32699C4.76555 7.31707 4.372 7.00951 4.20664 6.46217C4.01317 5.91153 3.21119 6.16618 3.36993 6.72675C3.65104 7.59818 4.23806 8 4.80854 8.14882V8.53245C4.80854 9.12443 5.68494 9.10293 5.68494 8.53245V8.15213C6.10984 8.05995 6.49081 7.82615 6.76542 7.48905C7.04002 7.15196 7.19195 6.73158 7.19631 6.29682C7.19631 5.66019 6.87055 5.28814 6.48031 5.09632C6.08841 4.90451 5.67171 4.87639 5.29469 4.83671C4.91768 4.79868 4.57704 4.74576 4.40176 4.65978C4.27278 4.59694 4.17688 4.51095 4.17688 4.24308C4.17688 3.67425 4.63657 3.22778 5.23351 3.22282C5.76927 3.24266 6.11818 3.52542 6.2918 4.07937C6.47866 4.61844 7.27899 4.38859 7.12851 3.8148C6.91355 3.13187 6.45054 2.59115 5.68494 2.39603V1.96776C5.68494 1.67838 5.46336 1.53286 5.24839 1.53121ZM22.7498 1.53121C22.5349 1.53121 22.3116 1.67342 22.3116 1.96776V2.38611C21.8864 2.47762 21.5051 2.71157 21.2309 3.04924C20.9566 3.38691 20.8059 3.80808 20.8036 4.24308C20.8036 4.88797 21.1293 5.25672 21.5196 5.44688C21.9115 5.63869 22.3282 5.6668 22.7052 5.70484C23.0822 5.74452 23.4212 5.79578 23.5965 5.88012C23.704 5.9413 23.823 5.99917 23.823 6.29682C23.823 6.85573 23.3633 7.32203 22.7664 7.32699C22.267 7.31707 21.8734 7.00951 21.7081 6.46217C21.5146 5.91153 20.7126 6.16618 20.8714 6.72675C21.1525 7.59818 21.7379 8 22.31 8.14882V8.53245C22.31 9.12443 23.1864 9.10293 23.1864 8.53245V8.15213C23.6113 8.05995 23.9923 7.82615 24.2669 7.48905C24.5415 7.15196 24.6934 6.73158 24.6978 6.29682C24.6978 5.66019 24.372 5.28814 23.9801 5.09632C23.5899 4.90451 23.1732 4.87639 22.7961 4.83671C22.4191 4.79868 22.0785 4.74576 21.9032 4.65978C21.7742 4.59694 21.6783 4.51095 21.6783 4.24308C21.6783 3.67425 22.138 3.22778 22.735 3.22282C23.2707 3.24266 23.618 3.52542 23.7933 4.07937C23.9801 4.61844 24.7788 4.38859 24.63 3.8148C24.415 3.13187 23.952 2.59115 23.1864 2.39603V1.96776C23.1864 1.67838 22.9648 1.53286 22.7498 1.53121ZM14.7862 3.59487L15.1269 3.93716H11.8147C11.2294 3.93716 11.2294 4.81356 11.8147 4.81356H16.1868C16.2734 4.81364 16.3581 4.78804 16.4302 4.74C16.5023 4.69195 16.5585 4.62363 16.5918 4.54364C16.6251 4.46366 16.6339 4.37562 16.6171 4.29063C16.6004 4.20564 16.5588 4.12752 16.4977 4.06614L15.403 2.97478C14.988 2.56139 14.3761 3.18479 14.7862 3.59487ZM11.8147 5.6883C11.7278 5.68789 11.6427 5.71337 11.5702 5.7615C11.4978 5.80962 11.4413 5.8782 11.408 5.95853C11.3746 6.03885 11.366 6.12727 11.383 6.21255C11.4001 6.29782 11.4422 6.37608 11.5039 6.43737L12.587 7.5122C13.0185 7.94212 13.6386 7.32038 13.2054 6.8921L12.8747 6.56139H16.1868C16.7738 6.56139 16.7738 5.6883 16.1868 5.6883H11.8147ZM22.5547 11.7735L20.5506 12.9243C19.9884 13.2451 19.7486 13.9496 20.0727 14.5085L20.1256 14.5978C19.2145 14.9219 18.2687 14.8458 17.5775 14.7301C16.3884 14.5265 15.1769 14.4892 13.9776 14.6193C13.0963 14.7152 11.6957 14.9963 11.0723 15.7768L8.26782 15.2228L8.30751 15.1534C8.3875 15.0167 8.43955 14.8656 8.46064 14.7086C8.48173 14.5517 8.47144 14.3922 8.43037 14.2392C8.38929 14.0863 8.31825 13.9431 8.22137 13.8179C8.12449 13.6926 8.0037 13.5879 7.86601 13.5097L5.86353 12.3605C5.58568 12.2006 5.25585 12.157 4.94604 12.2395C4.63624 12.3219 4.37161 12.5235 4.20995 12.8003L0.165302 19.7702C0.0857565 19.9069 0.0340664 20.0581 0.0132117 20.2149C-0.00764304 20.3717 0.00275017 20.5311 0.0437921 20.6839C0.0848341 20.8367 0.155713 20.9799 0.252343 21.1051C0.348973 21.2304 0.469443 21.3353 0.606807 21.4138L2.60763 22.563C3.18639 22.8938 3.88585 22.6788 4.19011 22.2323L5.31785 23.074C5.20645 23.2794 5.14865 23.5095 5.14981 23.7431C5.15096 23.9768 5.21103 24.2063 5.32445 24.4106C5.43787 24.6148 5.60098 24.7872 5.79868 24.9117C5.99638 25.0362 6.22229 25.1088 6.45551 25.1228C6.41454 25.376 6.4438 25.6355 6.5401 25.8732C6.6364 26.1109 6.79605 26.3177 7.00168 26.471C7.20731 26.6243 7.45104 26.7182 7.70636 26.7426C7.96167 26.767 8.21878 26.7209 8.44972 26.6093C8.61707 26.9364 8.90568 27.185 9.2539 27.3021C9.60212 27.4192 9.98233 27.3955 10.3133 27.236C10.4353 27.4788 10.6263 27.6802 10.8623 27.8148C11.1849 27.9975 11.5664 28.0462 11.9246 27.9503C12.2828 27.8544 12.5889 27.6217 12.7771 27.3022L12.9871 26.9401L14.4307 27.7702C14.6296 27.884 14.8533 27.9473 15.0823 27.9547C15.3113 27.962 15.5386 27.9131 15.7444 27.8123C15.9501 27.7115 16.128 27.5618 16.2625 27.3763C16.397 27.1908 16.484 26.9751 16.5159 26.7482C16.7214 26.8416 16.9464 26.8839 17.1718 26.8715C17.3972 26.8591 17.6163 26.7924 17.8104 26.6771C18.0044 26.5618 18.1678 26.4013 18.2864 26.2092C18.4051 26.0172 18.4756 25.7993 18.4919 25.5742C18.7721 25.6239 19.0609 25.5864 19.3191 25.4666C19.5773 25.3468 19.7924 25.1506 19.9355 24.9045C20.0297 24.7458 20.091 24.5698 20.1157 24.3869C20.3701 24.5038 20.6537 24.5416 20.9298 24.4954C21.2059 24.4491 21.4617 24.321 21.6641 24.1277C21.8666 23.9344 22.0063 23.6847 22.0651 23.411C22.1239 23.1373 22.0992 22.8523 21.9942 22.5928L23.7536 20.845C24.081 21.4122 24.8185 21.5527 25.3757 21.2319L27.3815 20.081C27.9421 19.7586 28.1802 19.0558 27.8544 18.4986C26.6275 16.3853 25.3939 14.2737 24.1719 12.1571C23.8743 11.6428 23.1665 11.4212 22.5547 11.7735ZM23.4146 12.5903L27.0971 18.9334C27.1599 19.0442 27.107 19.2294 26.94 19.3253L24.9359 20.4762C24.7672 20.5721 24.5787 20.5258 24.5142 20.415C24.4431 20.2927 22.0768 16.1769 20.8317 14.0719C20.7656 13.9611 20.8152 13.7792 20.9888 13.68L22.9946 12.5291C23.1847 12.42 23.3534 12.4862 23.4146 12.5903ZM5.42367 13.1129L7.42781 14.2621C7.46637 14.283 7.50028 14.3116 7.52749 14.346C7.55469 14.3805 7.57461 14.4201 7.58606 14.4624C7.5975 14.5048 7.60022 14.549 7.59405 14.5925C7.58788 14.6359 7.57295 14.6777 7.55017 14.7152L3.50057 21.6866C3.47868 21.7243 3.44959 21.7572 3.41496 21.7836C3.38033 21.8099 3.34083 21.8292 3.29874 21.8402C3.25665 21.8513 3.21279 21.8539 3.16967 21.848C3.12656 21.8421 3.08503 21.8277 3.04749 21.8057L1.045 20.6565C0.96936 20.6128 0.91404 20.5411 0.891116 20.4568C0.868192 20.3725 0.879524 20.2826 0.92264 20.2067C1.00036 20.0711 3.62624 15.5618 4.97059 13.2352C4.9922 13.1971 5.02116 13.1637 5.0558 13.1368C5.09044 13.11 5.13006 13.0903 5.17237 13.0789C5.21468 13.0676 5.25883 13.0647 5.30225 13.0705C5.34568 13.0763 5.38586 13.0907 5.42367 13.1129ZM20.5704 15.3617C21.4915 16.9376 22.3794 18.487 23.2889 20.0678C22.7019 20.6565 21.8867 21.4634 21.4237 21.9264L13.6486 17.4651C13.5543 17.4104 13.4429 17.393 13.3365 17.4162C13.23 17.4395 13.136 17.5017 13.0731 17.5907C12.5671 18.3067 11.7767 19.036 11.1219 19.4163C10.7945 19.6064 10.5051 19.7024 10.3563 19.7057C10.2554 19.7057 10.2025 19.7057 10.1744 19.58C10.1668 19.4063 10.1903 19.2327 10.2438 19.0674C10.3249 18.7764 10.4687 18.4208 10.6473 18.0587C11.0045 17.3377 11.5485 16.5242 11.8065 16.2662C12.1951 15.8793 13.0086 15.6114 14.0768 15.489C15.1925 15.3706 16.3192 15.4057 17.4253 15.5932C18.5713 15.795 19.451 15.6957 20.0512 15.537C20.2265 15.489 20.3985 15.4378 20.5704 15.3617ZM7.80482 16.0215L10.4968 16.5573C10.264 16.9151 10.052 17.2862 9.86187 17.6685C9.67184 18.0419 9.51685 18.4322 9.39887 18.8342C9.30792 19.1699 9.22855 19.5651 9.3658 19.9305C9.52785 20.3605 9.90817 20.5953 10.3695 20.5788C10.773 20.5688 11.1864 20.3936 11.5601 20.1753C12.2529 19.7735 12.9838 19.117 13.5444 18.4142L20.9524 22.6639C21.0126 22.6971 21.0656 22.742 21.1081 22.796C21.1506 22.85 21.1818 22.9121 21.1999 22.9784C21.2179 23.0448 21.2224 23.114 21.2132 23.1822C21.2039 23.2503 21.181 23.3159 21.1459 23.3749C21.1112 23.4347 21.065 23.487 21.0101 23.5289C20.9551 23.5708 20.8924 23.6014 20.8256 23.6191C20.7588 23.6368 20.6892 23.6411 20.6207 23.6318C20.5523 23.6226 20.4863 23.5999 20.4266 23.5651C18.7234 22.5862 16.0793 21.0748 15.3336 20.6432C14.8292 20.3522 14.3894 21.1112 14.897 21.4022L18.9896 23.7503C19.2476 23.8991 19.3203 24.2166 19.1798 24.4613C19.109 24.5818 18.9935 24.6694 18.8585 24.705C18.7234 24.7406 18.5798 24.7214 18.4588 24.6515C17.2914 23.9802 16.124 23.3088 14.9532 22.6391C14.4489 22.3481 14.0123 23.1087 14.5183 23.3998C15.4658 23.9421 16.4133 24.4828 17.3592 25.0269C17.6171 25.1757 17.6899 25.4899 17.5477 25.7363C17.4773 25.8566 17.3621 25.9441 17.2273 25.9798C17.0925 26.0154 16.9491 25.9962 16.8284 25.9264C16.0496 25.4783 15.2691 25.0335 14.4935 24.5854C13.9875 24.2927 13.551 25.0533 14.0553 25.346L15.3898 26.11C15.6494 26.2588 15.7238 26.5779 15.5832 26.821C15.5125 26.9414 15.397 27.029 15.2619 27.0646C15.1269 27.1003 14.9832 27.081 14.8623 27.0112L13.3377 26.1348C13.3757 25.8596 13.3305 25.5793 13.2079 25.33C13.0853 25.0807 12.8909 24.8738 12.6498 24.7358C12.413 24.5985 12.1409 24.534 11.8677 24.5506C11.8514 24.3237 11.7795 24.1042 11.6584 23.9116C11.5373 23.719 11.3706 23.5591 11.1732 23.4461C10.937 23.3083 10.6656 23.2433 10.3927 23.2592C10.3689 22.9735 10.2583 22.702 10.0757 22.4809C9.89316 22.2599 9.64739 22.1 9.37136 22.0226C9.09533 21.9452 8.80224 21.9541 8.5314 22.048C8.26056 22.142 8.02492 22.3165 7.85608 22.5482C7.7389 22.3962 7.59174 22.27 7.42374 22.1773C7.25575 22.0846 7.07049 22.0274 6.87947 22.0092C6.68846 21.9911 6.49575 22.0124 6.3133 22.0718C6.13086 22.1313 5.96257 22.2275 5.81888 22.3547L4.63657 21.4733L7.80482 16.0215ZM9.25666 22.9136C9.5047 23.0558 9.59565 23.37 9.44682 23.6246C9.05327 24.3059 8.63326 25.0269 8.29097 25.6155C8.25689 25.6753 8.21128 25.7276 8.15679 25.7696C8.1023 25.8116 8.04002 25.8423 7.97356 25.86C7.9071 25.8777 7.83779 25.882 7.76965 25.8727C7.70151 25.8633 7.6359 25.8406 7.57663 25.8057C7.51659 25.7724 7.46382 25.7274 7.4214 25.6734C7.37898 25.6194 7.34776 25.5574 7.32959 25.4912C7.31142 25.425 7.30665 25.3558 7.31556 25.2877C7.32448 25.2196 7.3469 25.154 7.38151 25.0947L8.53736 23.1021C8.5719 23.0422 8.61799 22.9897 8.67297 22.9477C8.72794 22.9057 8.79071 22.8751 8.85762 22.8576C8.92453 22.84 8.99426 22.8359 9.06276 22.8456C9.13126 22.8552 9.19717 22.8783 9.25666 22.9136ZM7.0078 22.9516C7.25749 23.0955 7.35009 23.4064 7.20127 23.6627L7.00945 23.9934C6.93464 24.102 6.82171 24.1786 6.69307 24.2079C6.56444 24.2372 6.4295 24.217 6.31502 24.1515C6.20053 24.0859 6.11488 23.9797 6.07505 23.8539C6.03522 23.7282 6.04412 23.592 6.09999 23.4725L6.29015 23.1401C6.32436 23.0799 6.37029 23.0271 6.42523 22.9848C6.48018 22.9426 6.54302 22.9118 6.61005 22.8942C6.67709 22.8767 6.74696 22.8727 6.81556 22.8825C6.88415 22.8924 6.94843 22.9159 7.0078 22.9516ZM10.7333 24.2034C10.7928 24.2375 10.845 24.283 10.8868 24.3374C10.9286 24.3917 10.9593 24.4538 10.9769 24.5201C10.9946 24.5864 10.999 24.6555 10.9898 24.7234C10.9806 24.7914 10.9581 24.8569 10.9235 24.9161L10.1529 26.2406C10.0821 26.3577 9.96825 26.4424 9.83577 26.4767C9.70329 26.511 9.56265 26.4921 9.4439 26.4241C9.32515 26.3561 9.23771 26.2444 9.20025 26.1127C9.16279 25.9811 9.17829 25.8401 9.24343 25.7197L10.014 24.3935C10.0844 24.2732 10.1996 24.1857 10.3344 24.1501C10.4692 24.1144 10.6126 24.1336 10.7333 24.2034ZM12.2099 25.4932C12.458 25.6354 12.5506 25.9479 12.4018 26.2042L12.0165 26.8673C11.9472 26.9879 11.8328 27.076 11.6986 27.1123C11.5643 27.1486 11.4211 27.1301 11.3005 27.0608C11.1799 26.9915 11.0917 26.8771 11.0555 26.7428C11.0192 26.6086 11.0377 26.4654 11.107 26.3448L11.4906 25.68C11.5253 25.6202 11.5715 25.5679 11.6266 25.5261C11.6816 25.4843 11.7444 25.4538 11.8113 25.4364C11.8782 25.419 11.9479 25.4151 12.0163 25.4249C12.0847 25.4346 12.1506 25.4578 12.2099 25.4932Z" fill="black"/>
</g>
<defs>
<clipPath id="clip0_310_47">
<rect width="28" height="28" fill="white"/>
</clipPath>
</defs>
</svg>
