<svg width="200" height="41" viewBox="0 0 200 41" fill="none" xmlns="http://www.w3.org/2000/svg">
<g clip-path="url(#clip0_1318_54)">
<path d="M0 20.5308L20.2399 41L40.5405 20.4692L20.3007 0L0 20.5308ZM20.2563 29.9133L10.9624 20.5141L29.5781 20.4859L20.2563 29.9133Z" fill="white"/>
<path d="M51.3516 17.743V1.13633H58.5935C60.6566 1.13633 62.2565 1.6686 63.3723 2.73313C64.4881 3.81895 65.0354 5.16027 65.0354 6.71449C65.0354 8.35387 64.4881 9.71647 63.3723 10.781C62.2565 11.8455 60.6776 12.3991 58.5935 12.3991H55.562V17.743H51.3516ZM55.562 8.99259H58.3619C59.9829 8.99259 60.7829 8.24741 60.7829 6.73578C60.7829 6.09706 60.5934 5.58608 60.1934 5.16027C59.7934 4.73445 59.1829 4.54284 58.3619 4.54284H55.562V8.99259ZM66.7196 11.5262C66.7196 14.8688 69.5195 17.743 73.0773 17.743C74.151 17.743 75.1615 17.5089 76.0877 17.0405V17.743H79.435L79.414 5.43704H76.0035V5.9906C75.0983 5.5435 74.1089 5.33059 73.0773 5.33059C69.5195 5.33059 66.7196 8.20483 66.7196 11.5262ZM75.1825 13.6339C74.6141 14.1875 73.9194 14.5069 73.0773 14.5069C71.4142 14.5069 70.13 13.1017 70.13 11.5262C70.13 9.97196 71.4142 8.56677 73.0773 8.56677C73.9194 8.56677 74.6141 8.86484 75.1825 9.4184C75.5404 9.78034 76.0035 10.5468 76.0035 10.9939V12.0797C76.0035 12.5268 75.5404 13.2507 75.1825 13.6339ZM81.1192 18.3392C81.1192 21.6605 83.9191 24.5348 87.4769 24.5348C91.1189 24.5348 93.8557 21.7244 93.8557 18.3392V5.39446H90.4453V11.59C90.4453 13.1443 89.119 14.4856 87.4769 14.4856C85.8559 14.4856 84.8454 13.2933 84.5507 11.803L84.5296 5.39446H81.1192V11.7178C81.1192 14.954 84.1086 17.7218 87.4769 17.7218C88.5506 17.7218 89.5611 17.4876 90.4663 17.0192L90.4453 18.3392C90.4032 19.9786 89.2453 21.2986 87.4769 21.2986C85.8138 21.2986 84.5296 19.8934 84.5296 18.3392V18.1476H81.1192V18.3392ZM108.213 5.33059C112.171 5.33059 113.245 7.92805 113.245 11.1429V17.743H109.834L109.813 11.0152C109.813 9.78034 109.118 8.56677 107.961 8.56677C106.971 8.56677 106.108 9.07775 106.108 11.441V17.743H103.098V11.0365C103.098 9.97196 102.15 8.56677 101.034 8.56677C99.7082 8.56677 98.9292 10.2274 98.9292 11.441V17.743H95.5399V17.5514L95.5609 5.39446H98.9082V5.96931C99.5398 5.56479 100.234 5.33059 101.034 5.33059C102.508 5.33059 103.919 6.09706 104.571 7.3532C105.224 6.05447 106.761 5.33059 108.213 5.33059ZM114.487 11.5475C114.487 8.2687 117.245 5.41575 120.781 5.41575C124.297 5.41575 127.055 8.2687 127.055 11.5475C127.055 11.9946 127.013 12.4204 126.928 12.8249L118.15 12.8462C118.613 13.8043 119.581 14.4856 120.781 14.4856C121.602 14.4856 122.339 14.1449 122.844 13.6339H126.676C125.813 15.9546 123.518 17.7005 120.781 17.7005C117.245 17.7005 114.487 14.9327 114.487 11.6326V11.5475ZM118.255 10.0784L118.15 10.3765H123.476L123.308 10.0784C122.802 9.22678 121.897 8.63064 120.781 8.63064C119.666 8.63064 118.739 9.22678 118.255 10.0784ZM128.76 5.52221C128.76 9.52485 128.739 13.5275 128.739 17.5514V17.743H132.149V11.441C132.149 9.90808 133.476 8.56677 135.097 8.56677C136.655 8.56677 137.876 9.78034 138.044 11.2281C138.065 11.441 138.044 11.6752 138.044 11.8881L138.065 13.4423V17.7005L141.475 17.743V11.3346C141.475 9.78034 140.697 8.24741 139.581 7.16159C138.36 5.96931 136.865 5.33059 135.097 5.33059C134.044 5.33059 133.034 5.56479 132.107 6.03318V5.39446H128.76V5.52221ZM145.181 8.33257V17.743H148.591V13.9959C148.591 12.6333 148.549 11.2494 148.549 9.88679V8.33257L151.917 8.28999V5.37317L148.549 5.39446V1.09375H145.202V5.41575H141.833V8.33257H145.181ZM159.959 5.22414C163.538 5.22414 166.338 8.09838 166.338 11.441C166.338 14.7624 163.538 17.6366 159.959 17.6366C158.907 17.6366 157.896 17.4024 156.97 16.934V21.5754H153.623V5.39446H157.033V5.88415C157.938 5.43704 158.928 5.22414 159.959 5.22414ZM159.959 14.4004C161.643 14.4004 162.928 12.9952 162.928 11.441C162.928 9.8655 161.643 8.46032 159.959 8.46032C159.138 8.46032 158.443 8.75839 157.875 9.31195C157.454 9.73776 157.033 10.5042 157.033 11.0578V11.803C157.033 12.3565 157.454 13.1017 157.875 13.5275C158.443 14.0811 159.138 14.4004 159.959 14.4004ZM168.022 17.7643H171.433L171.39 1.11504H168.043V1.32795L168.022 17.7643ZM174.759 15.9972C175.959 17.2959 177.58 17.743 179.348 17.743C180.295 17.743 181.285 17.594 182.169 17.2108V17.743H185.58V5.39446H181.832V11.3558C181.832 13.0165 181.138 14.1023 179.348 14.1023C177.538 14.1023 176.885 12.9952 176.885 11.3558V5.39446H173.117V11.5475C173.117 13.1868 173.58 14.7411 174.759 15.9972ZM187.264 18.3605C187.264 21.6818 190.064 24.5561 193.621 24.5561C197.263 24.5561 200 21.7457 200 18.3605V11.5262C200 11.3558 199.979 11.1855 199.979 11.0152V5.37317H196.569V5.9906C195.663 5.5435 194.674 5.33059 193.621 5.33059C190.064 5.33059 187.264 8.20483 187.264 11.5262C187.264 14.8688 190.064 17.743 193.621 17.743C194.695 17.743 195.706 17.5089 196.611 17.0405L196.59 18.3605C196.548 19.9999 195.39 21.3199 193.621 21.3199C191.958 21.3199 190.674 19.9147 190.674 18.3605V18.1689H187.264V18.3605ZM195.727 13.6339C195.158 14.1875 194.464 14.5069 193.621 14.5069C191.958 14.5069 190.674 13.1017 190.674 11.5262C190.674 9.97196 191.958 8.56677 193.621 8.56677C194.464 8.56677 195.158 8.86484 195.727 9.4184C196.148 9.84421 196.569 10.5894 196.569 11.1642V11.9094C196.569 12.463 196.148 13.2081 195.727 13.6339Z" fill="white"/>
<path d="M53.9413 35.5648H54.9373V39.6748H53.9413L52.3476 37.2706V39.6748H51.3516V35.5648H52.3476L53.9413 37.969V35.5648ZM56.7595 35.5648H59.7808V36.4983H57.7555V37.1564H59.3824V38.0899H57.7555V38.7413H59.7808V39.6748H56.7595V35.5648ZM62.9841 38.4391L62.1541 39.6748H60.992L62.4064 37.5728L61.0584 35.5648H62.2205L62.9841 36.7065L63.7477 35.5648H64.9098L63.5685 37.5728L64.9762 39.6748H63.8141L62.9841 38.4391ZM66.1409 35.5648H69.5275V36.4983H68.3322V39.6748H67.3362V36.4983H66.1409V35.5648ZM70.8516 37.237H72.5781V38.0697H70.8516V37.237ZM78.1652 37.1564V39.4397C77.6938 39.621 77.1028 39.7218 76.5981 39.7218C75.3033 39.7218 74.4334 38.9361 74.4334 37.6399C74.4334 36.223 75.4759 35.5312 76.7508 35.5312C76.8372 35.5312 76.9301 35.5312 77.0364 35.538C77.136 35.5447 77.2422 35.5581 77.3551 35.5648C77.561 35.5917 77.7668 35.6186 77.966 35.679V36.7065C77.893 36.6729 77.8133 36.646 77.7203 36.6192C77.6207 36.599 77.5211 36.5789 77.4149 36.5587C77.2024 36.5184 76.9766 36.505 76.7575 36.505C75.9142 36.505 75.4294 36.7669 75.4294 37.6399C75.4294 38.4928 75.8743 38.748 76.6313 38.748C76.711 38.748 76.7973 38.7413 76.8903 38.7346C76.9766 38.7279 77.0696 38.7212 77.1692 38.7144V38.0899H76.3059V37.1564H78.1652ZM79.8545 35.5648H82.8759V36.4983H80.8506V37.1564H82.4775V38.0899H80.8506V38.7413H82.8759V39.6748H79.8545V35.5648ZM87.0885 35.5648H88.0846V39.6748H87.0885L85.4948 37.2706V39.6748H84.4988V35.5648H85.4948L87.0885 37.969V35.5648ZM92.426 39.6748V35.5648H94.3517C95.1087 35.5648 95.7528 36.1424 95.7528 36.9147C95.7528 37.6937 95.0888 38.2645 94.3517 38.2645H93.4221V39.6748H92.426ZM94.3517 36.4983H93.4221V37.331H94.3517C94.5841 37.331 94.7568 37.1497 94.7568 36.9147C94.7568 36.6796 94.5841 36.4983 94.3517 36.4983ZM99.5338 38.842H98.0398L97.7476 39.6748H96.6652L98.2921 35.5648H99.2881L100.915 39.6748H99.826L99.5338 38.842ZM98.3651 37.9086H99.2085L98.7901 36.7132L98.3651 37.9086ZM103.162 39.6748V38.1503C102.359 37.969 101.894 37.2975 101.894 36.4916V35.5648H102.89V36.4916C102.89 36.9751 103.175 37.2706 103.653 37.2706C104.145 37.2706 104.417 36.9818 104.417 36.4916V35.5648H105.413V36.4916C105.413 37.3109 104.942 37.9623 104.158 38.1503V39.6748H103.162ZM108.032 37.4116V39.6748H107.036V35.5648H108.032L109.3 37.8347L110.569 35.5648H111.565V39.6748H110.569V37.4116L109.798 38.748H108.802L108.032 37.4116ZM113.387 35.5648H116.408V36.4983H114.383V37.1564H116.01V38.0899H114.383V38.7413H116.408V39.6748H113.387V35.5648ZM120.621 35.5648H121.617V39.6748H120.621L119.027 37.2706V39.6748H118.031V35.5648H119.027L120.621 37.969V35.5648ZM123.2 35.5648H126.587V36.4983H125.391V39.6748H124.395V36.4983H123.2V35.5648ZM127.964 39.574V38.6271C128.043 38.6473 128.143 38.6674 128.256 38.6809C128.369 38.701 128.488 38.7144 128.615 38.7212C128.741 38.7279 128.867 38.7346 129 38.7413C129.132 38.748 129.259 38.7547 129.372 38.7547C129.684 38.7547 129.903 38.7346 130.036 38.701C130.162 38.6674 130.228 38.607 130.228 38.513C130.228 38.4324 130.168 38.3719 130.109 38.3249C129.889 38.1772 129.63 38.1168 129.372 38.0563C128.641 37.9086 127.97 37.6131 127.97 36.7669C127.97 35.7663 128.907 35.5312 129.71 35.5312C130.155 35.5312 130.607 35.5783 131.038 35.6857V36.6326C130.972 36.6125 130.886 36.599 130.779 36.5789C130.666 36.5655 130.553 36.552 130.427 36.5386C130.168 36.5117 129.923 36.4983 129.664 36.4983C129.518 36.4983 129.212 36.4983 129.073 36.552C128.98 36.5856 128.92 36.6259 128.92 36.7333C128.92 36.7871 128.933 36.8341 128.96 36.8744C128.986 36.9214 129.033 36.955 129.093 36.9885C129.272 37.0893 129.504 37.1497 129.704 37.1967C129.87 37.237 130.036 37.284 130.208 37.331C130.793 37.4922 131.178 37.8213 131.178 38.4525C131.178 39.4935 130.155 39.7151 129.332 39.7151C128.88 39.7151 128.409 39.6815 127.964 39.574ZM137.259 38.7749C137.983 38.7749 138.355 38.3048 138.355 37.6198C138.355 36.8945 137.956 36.4647 137.259 36.4647C136.528 36.4647 136.163 36.9348 136.163 37.6198C136.163 38.3317 136.568 38.7749 137.259 38.7749ZM137.259 39.7083C136.011 39.7083 135.167 38.8488 135.167 37.6198C135.167 36.3506 136.05 35.5312 137.259 35.5312C138.514 35.5312 139.351 36.3841 139.351 37.6198C139.351 38.8958 138.474 39.7083 137.259 39.7083ZM142.023 36.5117V37.4922H142.952C143.258 37.4922 143.437 37.3109 143.437 37.002C143.437 36.693 143.258 36.5117 142.952 36.5117H142.023ZM143.53 38.157C143.716 38.4122 143.902 38.6674 144.094 38.9159C144.28 39.1644 144.466 39.4196 144.652 39.6748H143.437C143.198 39.3524 142.966 39.0301 142.733 38.7077C142.501 38.3921 142.262 38.0697 142.023 37.7474V39.6748H141.027V35.5648H142.952C143.709 35.5648 144.353 36.1491 144.353 36.9214C144.353 37.4653 144.021 37.9421 143.53 38.157ZM149.323 38.5264V39.5606C148.911 39.6748 148.5 39.7218 148.075 39.7218C146.826 39.7218 145.99 38.8555 145.99 37.6265C145.99 36.364 146.86 35.5312 148.068 35.5312C148.486 35.5312 148.925 35.5648 149.323 35.6924V36.7266C148.998 36.5655 148.486 36.505 148.128 36.505C147.318 36.505 146.986 36.8408 146.986 37.6198C146.986 38.4458 147.377 38.748 148.134 38.748C148.473 38.748 149.024 38.6943 149.323 38.5264ZM153.416 35.5648H154.412V39.6748H153.416V38.0899H151.955V39.6748H150.959V35.5648H151.955V37.1564H153.416V35.5648ZM156.228 35.5648H159.249V36.4983H157.224V37.1564H158.851V38.0899H157.224V38.7413H159.249V39.6748H156.228V35.5648ZM160.673 39.574V38.6271C160.752 38.6473 160.852 38.6674 160.965 38.6809C161.078 38.701 161.197 38.7144 161.323 38.7212C161.45 38.7279 161.576 38.7346 161.709 38.7413C161.841 38.748 161.968 38.7547 162.08 38.7547C162.393 38.7547 162.612 38.7346 162.745 38.701C162.871 38.6674 162.937 38.607 162.937 38.513C162.937 38.4324 162.877 38.3719 162.818 38.3249C162.598 38.1772 162.339 38.1168 162.08 38.0563C161.35 37.9086 160.679 37.6131 160.679 36.7669C160.679 35.7663 161.616 35.5312 162.419 35.5312C162.864 35.5312 163.316 35.5783 163.747 35.6857V36.6326C163.681 36.6125 163.594 36.599 163.488 36.5789C163.375 36.5655 163.262 36.552 163.136 36.5386C162.877 36.5117 162.632 36.4983 162.373 36.4983C162.227 36.4983 161.921 36.4983 161.782 36.552C161.689 36.5856 161.629 36.6259 161.629 36.7333C161.629 36.7871 161.642 36.8341 161.669 36.8744C161.695 36.9214 161.742 36.955 161.802 36.9885C161.981 37.0893 162.213 37.1497 162.412 37.1967C162.579 37.237 162.745 37.284 162.917 37.331C163.502 37.4922 163.887 37.8213 163.887 38.4525C163.887 39.4935 162.864 39.7151 162.041 39.7151C161.589 39.7151 161.118 39.6815 160.673 39.574ZM165.257 35.5648H168.644V36.4983H167.449V39.6748H166.452V36.4983H165.257V35.5648ZM171.216 36.5117V37.4922H172.146C172.451 37.4922 172.631 37.3109 172.631 37.002C172.631 36.693 172.451 36.5117 172.146 36.5117H171.216ZM172.724 38.157C172.91 38.4122 173.095 38.6674 173.288 38.9159C173.474 39.1644 173.66 39.4196 173.846 39.6748H172.631C172.392 39.3524 172.159 39.0301 171.927 38.7077C171.694 38.3921 171.455 38.0697 171.216 37.7474V39.6748H170.22V35.5648H172.146C172.903 35.5648 173.547 36.1491 173.547 36.9214C173.547 37.4653 173.215 37.9421 172.724 38.157ZM177.839 38.842H176.345L176.053 39.6748H174.971L176.598 35.5648H177.594L179.221 39.6748H178.131L177.839 38.842ZM176.671 37.9086H177.514L177.096 36.7132L176.671 37.9086ZM179.98 35.5648H183.367V36.4983H182.171V39.6748H181.175V36.4983H179.98V35.5648ZM184.917 35.5648H185.913V39.6748H184.917V35.5648ZM189.674 38.7749C190.398 38.7749 190.769 38.3048 190.769 37.6198C190.769 36.8945 190.371 36.4647 189.674 36.4647C188.943 36.4647 188.578 36.9348 188.578 37.6198C188.578 38.3317 188.983 38.7749 189.674 38.7749ZM189.674 39.7083C188.425 39.7083 187.582 38.8488 187.582 37.6198C187.582 36.3506 188.465 35.5312 189.674 35.5312C190.929 35.5312 191.765 36.3841 191.765 37.6198C191.765 38.8958 190.889 39.7083 189.674 39.7083ZM196.031 35.5648H197.027V39.6748H196.031L194.438 37.2706V39.6748H193.441V35.5648H194.438L196.031 37.969V35.5648Z" fill="white"/>
</g>
<defs>
<clipPath id="clip0_1318_54">
<rect width="200" height="41" fill="white"/>
</clipPath>
</defs>
</svg>
