<svg width="215" height="29" viewBox="0 0 215 29" fill="none" xmlns="http://www.w3.org/2000/svg">
<path d="M45 20.0948V2.04628H52.9599C55.2275 2.04628 56.9861 2.62476 58.2125 3.78172C59.4388 4.96181 60.0405 6.41958 60.0405 8.10874C60.0405 9.89045 59.4388 11.3714 58.2125 12.5283C56.9861 13.6853 55.2506 14.2869 52.9599 14.2869H49.6278V20.0948H45ZM49.6278 10.5846H52.7053C54.4871 10.5846 55.3663 9.77476 55.3663 8.13188C55.3663 7.4377 55.1581 6.88236 54.7184 6.41958C54.2788 5.9568 53.6078 5.74854 52.7053 5.74854H49.6278V10.5846ZM61.8916 13.3382C61.8916 16.971 64.9691 20.0948 68.8796 20.0948C70.0597 20.0948 71.1704 19.8403 72.1885 19.3312V20.0948H75.8676L75.8445 6.72039H72.096V7.32201C71.101 6.83608 70.0134 6.60469 68.8796 6.60469C64.9691 6.60469 61.8916 9.72848 61.8916 13.3382ZM71.1935 15.629C70.5688 16.2306 69.8052 16.5777 68.8796 16.5777C67.0516 16.5777 65.6401 15.0505 65.6401 13.3382C65.6401 11.649 67.0516 10.1218 68.8796 10.1218C69.8052 10.1218 70.5688 10.4458 71.1935 11.0474C71.5869 11.4408 72.096 12.2738 72.096 12.7597V13.9398C72.096 14.4257 71.5869 15.2125 71.1935 15.629ZM77.7188 20.7427C77.7188 24.3524 80.7963 27.4762 84.7068 27.4762C88.7099 27.4762 91.718 24.4218 91.718 20.7427V6.67411H87.9694V13.4076C87.9694 15.0968 86.5117 16.5545 84.7068 16.5545C82.9251 16.5545 81.8144 15.2587 81.4905 13.639L81.4673 6.67411H77.7188V13.5464C77.7188 17.0636 81.0045 20.0717 84.7068 20.0717C85.8869 20.0717 86.9976 19.8172 87.9926 19.3081L87.9694 20.7427C87.9231 22.5244 86.6505 23.9591 84.7068 23.9591C82.8788 23.9591 81.4673 22.4319 81.4673 20.7427V20.5345H77.7188V20.7427ZM107.499 6.60469C111.849 6.60469 113.029 9.42767 113.029 12.9217V20.0948H109.281L109.257 12.7828C109.257 11.4408 108.494 10.1218 107.221 10.1218C106.134 10.1218 105.185 10.6772 105.185 13.2456V20.0948H101.876V12.806C101.876 11.649 100.835 10.1218 99.6084 10.1218C98.1507 10.1218 97.2945 11.9267 97.2945 13.2456V20.0948H93.5691V19.8866L93.5922 6.67411H97.2714V7.29887C97.9655 6.85922 98.7291 6.60469 99.6084 6.60469C101.228 6.60469 102.778 7.4377 103.496 8.80291C104.213 7.39142 105.902 6.60469 107.499 6.60469ZM114.394 13.3613C114.394 9.7979 117.426 6.69725 121.313 6.69725C125.177 6.69725 128.208 9.7979 128.208 13.3613C128.208 13.8472 128.162 14.31 128.07 14.7497L118.421 14.7728C118.93 15.8141 119.994 16.5545 121.313 16.5545C122.215 16.5545 123.025 16.1843 123.581 15.629H127.792C126.843 18.1511 124.321 20.0485 121.313 20.0485C117.426 20.0485 114.394 17.0405 114.394 13.4539V13.3613ZM118.536 11.7647L118.421 12.0887H124.275L124.09 11.7647C123.534 10.8392 122.539 10.1913 121.313 10.1913C120.087 10.1913 119.068 10.8392 118.536 11.7647ZM130.083 6.81294C130.083 11.1631 130.06 15.5133 130.06 19.8866V20.0948H133.808V13.2456C133.808 11.5796 135.266 10.1218 137.048 10.1218C138.76 10.1218 140.102 11.4408 140.287 13.0142C140.31 13.2456 140.287 13.5002 140.287 13.7316L140.31 15.4207V20.0485L144.059 20.0948V13.1299C144.059 11.4408 143.203 9.77476 141.976 8.59466C140.634 7.29887 138.991 6.60469 137.048 6.60469C135.891 6.60469 134.78 6.85922 133.762 7.36828V6.67411H130.083V6.81294ZM148.131 9.86731V20.0948H151.88V16.0223C151.88 14.5414 151.833 13.0374 151.833 11.5565V9.86731L155.536 9.82103V6.65097L151.833 6.67411V2H148.154V6.69725H144.452V9.86731H148.131ZM157.387 20.0948V2.04628H165.347C167.614 2.04628 169.373 2.62476 170.599 3.78172C171.826 4.96181 172.427 6.41958 172.427 8.10874C172.427 9.89045 171.826 11.3714 170.599 12.5283C169.373 13.6853 167.638 14.2869 165.347 14.2869H162.015V20.0948H157.387ZM162.015 10.5846H165.092C166.874 10.5846 167.753 9.77476 167.753 8.13188C167.753 7.4377 167.545 6.88236 167.105 6.41958C166.666 5.9568 165.995 5.74854 165.092 5.74854H162.015V10.5846ZM174.278 20.118H178.027L177.981 2.02314H174.302V2.25453L174.278 20.118ZM181.683 18.1974C183.002 19.6089 184.784 20.0948 186.727 20.0948C187.769 20.0948 188.856 19.9328 189.828 19.5163V20.0948H193.577V6.67411H189.458V13.1531C189.458 14.9579 188.694 16.138 186.727 16.138C184.737 16.138 184.02 14.9348 184.02 13.1531V6.67411H179.878V13.3613C179.878 15.143 180.387 16.8322 181.683 18.1974ZM195.428 20.7659C195.428 24.3756 198.505 27.4993 202.416 27.4993C206.419 27.4993 209.427 24.445 209.427 20.7659V13.3382C209.427 13.1531 209.404 12.968 209.404 12.7828V6.65097H205.655V7.32201C204.66 6.83608 203.573 6.60469 202.416 6.60469C198.505 6.60469 195.428 9.72848 195.428 13.3382C195.428 16.971 198.505 20.0948 202.416 20.0948C203.596 20.0948 204.706 19.8403 205.701 19.3312L205.678 20.7659C205.632 22.5476 204.359 23.9822 202.416 23.9822C200.588 23.9822 199.176 22.455 199.176 20.7659V20.5576H195.428V20.7659ZM204.73 15.629C204.105 16.2306 203.341 16.5777 202.416 16.5777C200.588 16.5777 199.176 15.0505 199.176 13.3382C199.176 11.649 200.588 10.1218 202.416 10.1218C203.341 10.1218 204.105 10.4458 204.73 11.0474C205.192 11.5102 205.655 12.3201 205.655 12.9448V13.7547C205.655 14.3563 205.192 15.1662 204.73 15.629Z" fill="white"/>
<path d="M211 24.0114C211 22.8914 211.897 22 213 22C214.127 22 215 22.8914 215 24.0114C215 25.1086 214.104 26 213 26C211.897 26 211 25.0857 211 24.0114Z" fill="white"/>
<mask id="mask0_1337_22" style="mask-type:alpha" maskUnits="userSpaceOnUse" x="0" y="0" width="150" height="29">
<path d="M150 0H0V29H150V0Z" fill="#D9D9D9"/>
</mask>
<g mask="url(#mask0_1337_22)">
<path d="M3.52372 6.47726C-1.18337 11.8987 -0.604229 20.1093 4.81711 24.8163C10.2385 29.5234 18.4491 28.9443 23.1561 23.5229C27.8632 18.1015 27.2842 9.89096 21.8628 5.18387C16.4414 0.476856 8.2308 1.05585 3.52372 6.47726Z" fill="#C4F500"/>
<path d="M24.6753 2.29827C24.2776 2.38474 24.1777 2.89159 24.485 3.15842C31.5744 9.31371 32.3317 20.0508 26.1764 27.1402C25.9095 27.4475 26.0796 27.9353 26.4855 27.9651C30.4348 28.2549 34.4671 26.7431 37.2629 23.5229C41.97 18.1016 41.391 9.89094 35.9695 5.18386C32.7494 2.38798 28.5449 1.45703 24.6753 2.29827Z" fill="white"/>
</g>
</svg>
