<svg width="200" height="37" viewBox="0 0 200 37" fill="none" xmlns="http://www.w3.org/2000/svg">
<path d="M25.2057 31.9379C25.0045 33.926 23.407 35.3542 21.6357 35.1281L6.56422 33.1997C4.79431 32.9723 3.52285 31.178 3.72407 29.1898L6.3582 3.21296C6.56072 1.22481 8.15779 -0.202902 9.92945 0.0236294L25.0005 1.95154C26.7713 2.17851 28.0423 3.9733 27.8402 5.96145L25.2057 31.9379Z" fill="black"/>
<path d="M4.64454 34.4775C2.87463 34.251 1.60274 32.4558 1.80396 30.4676L4.43852 4.49121C4.48566 4.02287 4.61355 3.58683 4.80036 3.19531H3.22599C1.44386 3.19531 0 4.81726 0 6.8185V32.9617C0 34.9633 1.44386 36.5853 3.22599 36.5853H18.3953C18.7733 36.5853 19.1342 36.508 19.4721 36.374L4.64454 34.4775Z" fill="black"/>
<path d="M35.5723 24.7276V6.67909H43.5321C45.7998 6.67909 47.5584 7.25757 48.7847 8.41453C50.0111 9.59462 50.6127 11.0524 50.6127 12.7416C50.6127 14.5233 50.0111 16.0042 48.7847 17.1611C47.5584 18.3181 45.8229 18.9197 43.5321 18.9197H40.2001V24.7276H35.5723ZM40.2001 15.2174H43.2776C45.0593 15.2174 45.9386 14.4076 45.9386 12.7647C45.9386 12.0705 45.7304 11.5152 45.2907 11.0524C44.8511 10.5896 44.18 10.3814 43.2776 10.3814H40.2001V15.2174ZM52.4639 17.971C52.4639 21.6038 55.5414 24.7276 59.4519 24.7276C60.632 24.7276 61.7427 24.4731 62.7608 23.964V24.7276H66.4399L66.4168 11.3532H62.6682V11.9548C61.6732 11.4689 60.5857 11.2375 59.4519 11.2375C55.5414 11.2375 52.4639 14.3613 52.4639 17.971ZM61.7658 20.2618C61.141 20.8634 60.3774 21.2105 59.4519 21.2105C57.6239 21.2105 56.2124 19.6833 56.2124 17.971C56.2124 16.2818 57.6239 14.7547 59.4519 14.7547C60.3774 14.7547 61.141 15.0786 61.7658 15.6802C62.1592 16.0736 62.6682 16.9066 62.6682 17.3925V18.5726C62.6682 19.0585 62.1592 19.8453 61.7658 20.2618ZM68.291 25.3755C68.291 28.9852 71.3685 32.109 75.2791 32.109C79.2821 32.109 82.2902 29.0547 82.2902 25.3755V11.3069H78.5417V18.0404C78.5417 19.7296 77.0839 21.1873 75.2791 21.1873C73.4973 21.1873 72.3867 19.8915 72.0627 18.2718L72.0396 11.3069H68.291V18.1793C68.291 21.6964 71.5768 24.7045 75.2791 24.7045C76.4592 24.7045 77.5698 24.45 78.5648 23.9409L78.5417 25.3755C78.4954 27.1572 77.2228 28.5919 75.2791 28.5919C73.4511 28.5919 72.0396 27.0647 72.0396 25.3755V25.1673H68.291V25.3755ZM98.0711 11.2375C102.421 11.2375 103.601 14.0605 103.601 17.5545V24.7276H99.8529L99.8297 17.4157C99.8297 16.0736 99.0661 14.7547 97.7935 14.7547C96.7059 14.7547 95.7572 15.31 95.7572 17.8784V24.7276H92.4483V17.4388C92.4483 16.2818 91.4071 14.7547 90.1807 14.7547C88.7229 14.7547 87.8668 16.5595 87.8668 17.8784V24.7276H84.1414V24.5194L84.1645 11.3069H87.8436V11.9317C88.5378 11.492 89.3014 11.2375 90.1807 11.2375C91.8004 11.2375 93.3507 12.0705 94.0681 13.4357C94.7854 12.0242 96.4745 11.2375 98.0711 11.2375ZM104.967 17.9941C104.967 14.4307 107.998 11.3301 111.885 11.3301C115.749 11.3301 118.781 14.4307 118.781 17.9941C118.781 18.4801 118.734 18.9428 118.642 19.3825L108.993 19.4056C109.502 20.4469 110.566 21.1873 111.885 21.1873C112.788 21.1873 113.598 20.8171 114.153 20.2618H118.364C117.415 22.7839 114.893 24.6814 111.885 24.6814C107.998 24.6814 104.967 21.6733 104.967 18.0867V17.9941ZM109.109 16.3975L108.993 16.7215H114.847L114.662 16.3975C114.107 15.472 113.112 14.8241 111.885 14.8241C110.659 14.8241 109.641 15.472 109.109 16.3975ZM120.655 11.4458C120.655 15.7959 120.632 20.1461 120.632 24.5194V24.7276H124.38V17.8784C124.38 16.2124 125.838 14.7547 127.62 14.7547C129.332 14.7547 130.674 16.0736 130.859 17.6471C130.882 17.8784 130.859 18.133 130.859 18.3644L130.882 20.0535V24.6814L134.631 24.7276V17.7627C134.631 16.0736 133.775 14.4076 132.548 13.2275C131.206 11.9317 129.564 11.2375 127.62 11.2375C126.463 11.2375 125.352 11.492 124.334 12.0011V11.3069H120.655V11.4458ZM138.703 14.5001V24.7276H142.452V20.6551C142.452 19.1742 142.406 17.6702 142.406 16.1893V14.5001L146.108 14.4538V11.2838L142.406 11.3069V6.63281H138.727V11.3301H135.024V14.5001H138.703ZM147.959 24.7276V6.67909H155.919C158.187 6.67909 159.945 7.25757 161.172 8.41453C162.398 9.59462 163 11.0524 163 12.7416C163 14.5233 162.398 16.0042 161.172 17.1611C159.945 18.3181 158.21 18.9197 155.919 18.9197H152.587V24.7276H147.959ZM152.587 15.2174H155.664C157.446 15.2174 158.326 14.4076 158.326 12.7647C158.326 12.0705 158.117 11.5152 157.678 11.0524C157.238 10.5896 156.567 10.3814 155.664 10.3814H152.587V15.2174ZM164.851 24.7508H168.599L168.553 6.65595H164.874V6.88734L164.851 24.7508ZM172.255 22.8302C173.574 24.2417 175.356 24.7276 177.3 24.7276C178.341 24.7276 179.428 24.5657 180.4 24.1492V24.7276H184.149V11.3069H180.03V17.7859C180.03 19.5907 179.266 20.7708 177.3 20.7708C175.31 20.7708 174.592 19.5676 174.592 17.7859V11.3069H170.45V17.9941C170.45 19.7759 170.959 21.465 172.255 22.8302ZM186 25.3987C186 29.0084 189.077 32.1322 192.988 32.1322C196.991 32.1322 199.999 29.0778 199.999 25.3987V17.971C199.999 17.7859 199.976 17.6008 199.976 17.4157V11.2838H196.227V11.9548C195.232 11.4689 194.145 11.2375 192.988 11.2375C189.077 11.2375 186 14.3613 186 17.971C186 21.6038 189.077 24.7276 192.988 24.7276C194.168 24.7276 195.279 24.4731 196.274 23.964L196.251 25.3987C196.204 27.1804 194.932 28.615 192.988 28.615C191.16 28.615 189.748 27.0878 189.748 25.3987V25.1904H186V25.3987ZM195.302 20.2618C194.677 20.8634 193.914 21.2105 192.988 21.2105C191.16 21.2105 189.748 19.6833 189.748 17.971C189.748 16.2818 191.16 14.7547 192.988 14.7547C193.914 14.7547 194.677 15.0786 195.302 15.6802C195.765 16.143 196.227 16.9529 196.227 17.5776V18.3875C196.227 18.9891 195.765 19.799 195.302 20.2618Z" fill="black"/>
</svg>
