<?xml version="1.0" encoding="UTF-8"?>
<svg version="1.1" xmlns="http://www.w3.org/2000/svg" width="1024" height="1024">
<path d="M0 0 C337.92 0 675.84 0 1024 0 C1024 337.92 1024 675.84 1024 1024 C686.08 1024 348.16 1024 0 1024 C0 686.08 0 348.16 0 0 Z " fill="#FBFCFC" transform="translate(0,0)"/>
<path d="M0 0 C55.48024288 27.83038214 117.87850897 71.63178904 138.92724609 132.75488281 C143.45398126 146.53681994 145.51642468 159.75508309 145.39135742 174.27587891 C145.37289963 176.49376769 145.37084991 178.71124092 145.37109375 180.92919922 C145.3505276 186.91734285 145.32385061 192.6977913 144.18554688 198.60107422 C144.75789063 198.84470703 145.33023437 199.08833984 145.91992188 199.33935547 C148.58988226 200.8262472 150.32383694 202.5819133 152.43554688 204.78857422 C155.80059356 208.23009924 159.23807676 211.45714486 162.88867188 214.58935547 C165.87379017 217.20387234 168.7775498 219.90138283 171.68554688 222.60107422 C175.10508307 225.77345581 178.52396261 228.93368514 182.06054688 231.97607422 C186.67804051 235.96746702 191.09923812 240.16927627 195.55175781 244.34228516 C199.87837788 248.39324203 204.2512044 252.38494021 208.66992188 256.33544922 C212.21823485 259.53113482 215.72132413 262.77482687 219.22680664 266.01733398 C224.36741788 270.77219219 229.5280837 275.50483195 234.69287109 280.23339844 C236.21369563 281.62686574 237.73302012 283.02195173 239.25195312 284.41748047 C245.52942162 290.18323683 251.8408963 295.90924942 258.18554688 301.60107422 C260.68040256 303.84566225 263.17447722 306.09108538 265.66601562 308.33935547 C267.39010084 309.88702267 269.1222975 311.42568828 270.86132812 312.95654297 C273.33209762 315.14180132 275.76925321 317.35584559 278.18554688 319.60107422 C278.75917969 320.12314453 279.3328125 320.64521484 279.92382812 321.18310547 C281.31054688 322.60107422 281.31054688 322.60107422 283.18554688 325.60107422 C283.09179688 327.54638672 283.09179688 327.54638672 282.81054688 329.72607422 C282.59267307 333.327044 283.11161433 334.49809674 285.26367188 337.49560547 C288.08675246 340.68122687 291.12618393 343.64473665 294.18554688 346.60107422 C295.93680814 348.34981205 297.68689251 350.09972962 299.43554688 351.85107422 C300.66337891 353.0634375 300.66337891 353.0634375 301.91601562 354.30029297 C304.54560604 356.96609117 306.97586771 359.76057882 309.40820312 362.60498047 C312.06249643 365.58595603 314.91543324 368.35394905 317.77929688 371.13232422 C320.40465277 373.82587118 322.85210122 376.63785624 325.31640625 379.47802734 C328.3561668 382.93071253 331.52235186 386.26178381 334.68554688 389.60107422 C339.08050607 394.24070124 343.38827131 398.93121604 347.578125 403.75732422 C349.74275902 406.24020941 351.96110874 408.67175362 354.18554688 411.10107422 C361.85155107 419.51526201 369.25687743 428.1463936 376.64794922 436.80175781 C377.63934073 437.96189682 378.63177592 439.12114516 379.62548828 440.27929688 C385.28830957 446.87963189 390.78900992 453.57408382 396.12890625 460.4387207 C399.09698185 464.24566931 402.13854576 467.97104164 405.24804688 471.66357422 C409.99044563 477.31249785 414.49100024 483.11630207 418.953125 488.98632812 C420.93149073 491.57842617 422.93700191 494.1495187 424.93554688 496.72607422 C431.50135877 505.23978289 437.84271361 513.92076354 444.18554688 522.60107422 C444.74177734 523.3611377 445.29800781 524.12120117 445.87109375 524.90429688 C454.20937591 536.31366453 462.27521298 547.89139086 470.18554688 559.60107422 C470.62995117 560.25672363 471.07435547 560.91237305 471.53222656 561.58789062 C483.86225996 579.7986202 495.26438793 598.5144789 506.18554688 617.60107422 C506.76594727 618.61476074 507.34634766 619.62844727 507.94433594 620.67285156 C532.27838078 663.31517414 554.91556461 707.47289293 569.18554688 754.60107422 C569.43836426 755.43058594 569.69118164 756.26009766 569.95166016 757.11474609 C573.63200808 769.55820733 576.51819591 784.71996038 570.81054688 796.91357422 C569.65907072 798.84446938 568.44526617 800.73898916 567.18554688 802.60107422 C566.62287109 803.4733667 566.62287109 803.4733667 566.04882812 804.36328125 C557.74010456 817.21289702 548.56949709 825.23269296 533.18554688 828.60107422 C520.02244534 829.95052887 508.99070761 828.46081216 497.18554688 822.60107422 C496.08170654 822.06160156 496.08170654 822.06160156 494.95556641 821.51123047 C467.49832967 807.83155035 442.44088201 788.46192322 418.86181641 768.97753906 C416.61791376 767.1349636 414.34033689 765.3364574 412.06054688 763.53857422 C406.24521559 758.89992368 400.63415298 754.02588045 395.00439453 749.16552734 C393.22074529 747.63134958 391.42935455 746.10680838 389.63476562 744.58544922 C382.16612479 738.24549973 374.90006026 731.72880849 367.73828125 725.04492188 C365.27681538 722.75606824 362.79267512 720.4925095 360.31054688 718.22607422 C358.26700573 716.35311021 356.22601348 714.47738671 354.18554688 712.60107422 C353.61610352 712.07819824 353.04666016 711.55532227 352.45996094 711.01660156 C343.06732865 702.37650228 333.95575695 693.4912324 324.98388672 684.4152832 C320.82998516 680.22472626 316.64450507 676.06576545 312.46231079 671.90348816 C309.38612034 668.8407415 306.31262736 665.77529383 303.23925781 662.7097168 C301.62459842 661.10008901 300.00904303 659.49135952 298.39257812 657.88354492 C296.0425119 655.54569865 293.69577036 653.20455758 291.34960938 650.86279297 C290.63584137 650.15418625 289.92207336 649.44557953 289.18667603 648.71549988 C285.18650256 644.7157681 281.36694443 640.61924151 277.68612671 636.32307434 C275.63092807 633.96461781 273.42610679 631.78267203 271.18554688 629.60107422 C267.72622862 626.17800631 264.45636942 622.69148819 261.29492188 618.99560547 C258.33008929 615.62997145 255.25473573 612.37141668 252.18554688 609.10107422 C247.42018924 604.01415079 242.70816021 598.90644755 238.18554688 593.60107422 C236.22825368 591.30851753 234.26964213 589.01709108 232.31054688 586.72607422 C231.79049072 586.11715332 231.27043457 585.50823242 230.73461914 584.88085938 C227.70596854 581.34388058 224.63367505 577.85672459 221.49804688 574.41357422 C217.72386 570.25385213 214.16768575 565.95073272 210.63476562 561.58544922 C207.86743886 558.21345934 205.03404272 554.90445101 202.18554688 551.60107422 C197.86296917 546.58452335 193.62775566 541.50924235 189.45507812 536.36669922 C187.3980214 533.85999326 185.30938854 531.38619183 183.20385742 528.92041016 C178.48402225 523.39257096 173.9122856 517.77604713 169.44946289 512.03881836 C165.94845936 507.54546269 162.36031084 503.13024318 158.74804688 498.72607422 C153.94184664 492.84978493 149.3190007 486.86437804 144.79541016 480.76855469 C139.19600402 473.2329572 133.40922289 465.84447087 127.62084961 458.45361328 C126.59463553 457.12908319 125.59530841 455.78354579 124.61450195 454.42504883 C122.9888347 452.34998304 121.87028035 451.83390347 119.43554688 450.91357422 C111.72603237 447.22702455 107.94879713 439.28302757 103.61914062 432.26513672 C98.89762635 424.6642819 93.98966876 417.20258304 88.99990845 409.77587891 C86.600196 406.20330348 84.20939413 402.62477341 81.81835938 399.04638672 C81.34012222 398.33089661 80.86188507 397.61540649 80.36915588 396.87823486 C73.22194339 386.17554502 66.19846116 375.39211361 59.18554688 364.60107422 C58.68055664 363.82489746 58.17556641 363.0487207 57.65527344 362.24902344 C52.51678524 354.34765655 47.41520256 346.42255427 42.33911133 338.48095703 C40.94790584 336.31545189 39.54540665 334.15715978 38.1315918 332.00634766 C34.91840785 327.0843118 31.92926261 322.26619104 29.47851562 316.91748047 C25.25123815 307.88582026 25.25123815 307.88582026 17.24560547 302.49902344 C10.09532168 300.846241 2.86376689 300.36306151 -4.44335938 299.88916016 C-35.85971923 297.20439012 -66.3841611 277.72594939 -86.81445312 254.60107422 C-90.48172097 250.15664516 -93.72235341 245.4585313 -96.81445312 240.60107422 C-97.17764648 240.03420898 -97.54083984 239.46734375 -97.91503906 238.88330078 C-117.79869822 207.33936006 -119.49421001 169.62562072 -111.59570312 133.96044922 C-109.60763794 125.35973613 -107.41602826 116.81347129 -105.12471008 108.28907776 C-100.432154 90.82953663 -95.99053804 73.72722509 -94.81445312 55.60107422 C-94.7593457 54.77881348 -94.70423828 53.95655273 -94.64746094 53.109375 C-93.29342999 29.40423038 -101.96589246 10.64088859 -116.81445312 -7.39892578 C-120.39057778 -11.88724476 -121.17430218 -15.46538497 -121.09179688 -21.12158203 C-120.49204953 -26.046268 -117.32135665 -29.08708504 -113.75195312 -32.21142578 C-87.50446808 -51.75742528 -23.51627852 -11.68878174 0 0 Z " fill="#00AE9D" transform="translate(285.814453125,122.39892578125)"/>
<path d="M0 0 C2.2322204 0.83318514 3.33772483 1.71744381 4.99829102 3.41040039 C5.80447876 4.22335571 5.80447876 4.22335571 6.62695312 5.05273438 C7.18648682 5.6335376 7.74602051 6.21434082 8.32250977 6.81274414 C8.90718018 7.40837158 9.49185059 8.00399902 10.09423828 8.61767578 C13.53496917 12.14664283 16.82029785 15.7669 20.00610352 19.52758789 C23.47428454 23.37436178 27.20495447 26.96398661 30.88549805 30.60620117 C34.54747142 34.24464379 38.03674339 37.95311081 41.37329102 41.89477539 C44.03931296 44.9171153 46.94671425 47.69458653 49.81469727 50.52368164 C52.4500772 53.19657588 54.88767465 56.00392717 57.33032227 58.85180664 C58.99205552 60.72995167 60.72126502 62.4932993 62.51000977 64.25024414 C65.50235352 67.19624629 68.26325149 70.28007422 71.00219727 73.46118164 C72.95363764 75.68597553 74.95184624 77.86194915 76.96459961 80.03125 C81.79305462 85.23731708 86.37506107 90.56840395 90.83032227 96.10180664 C92.98758375 98.72299533 95.22311977 101.24178695 97.51000977 103.75024414 C101.37534322 107.996761 105.02399223 112.38037524 108.63500977 116.84399414 C110.72690628 119.40381488 112.85180995 121.92734055 114.99902344 124.44042969 C121.21491739 131.71621184 127.15566592 139.18163282 133.01000977 146.75024414 C133.78602539 147.7518457 134.56204102 148.75344727 135.36157227 149.78540039 C137.41098529 152.44141225 139.45384729 155.1021553 141.49194336 157.7668457 C142.60830738 159.22540815 143.72601731 160.68294069 144.84448242 162.13989258 C152.61804619 172.26775737 160.36329959 182.39862928 167.68481445 192.85961914 C169.19571466 195.01518495 170.71620767 197.16384398 172.23657227 199.31274414 C180.70922945 211.31795563 188.93116339 223.47703445 197.01000977 235.75024414 C197.50098145 236.49371094 197.99195313 237.23717773 198.49780273 238.00317383 C218.60602964 268.50215519 236.92992624 300.56490854 252.87866211 333.42993164 C254.24933717 336.24108739 255.64079366 339.04172325 257.02954102 341.84399414 C268.3751956 364.89179016 277.49422694 388.53290272 286.01000977 412.75024414 C285.35000977 413.08024414 284.69000977 413.41024414 284.01000977 413.75024414 C281.21304 412.53240987 278.57348234 411.24255118 275.88500977 409.81274414 C275.05477295 409.37325439 274.22453613 408.93376465 273.36914062 408.48095703 C257.7806706 400.00724668 242.94940599 389.71563275 229.01000977 378.75024414 C227.93620673 377.91897769 226.86196381 377.08827925 225.78735352 376.25805664 C218.52646689 370.62346783 211.41553521 364.8176618 204.34082031 358.95166016 C199.83115428 355.22098762 195.26330908 351.58220117 190.63500977 348.00024414 C184.46513363 343.21173569 178.73690106 338.06347555 173.01000977 332.75024414 C169.39086934 329.51244455 165.71526984 326.34467763 162.00219727 323.21508789 C150.27207962 313.30813638 138.97439977 302.90884389 128.25561523 291.91137695 C126.34367328 290.07135628 124.39291064 288.34487746 122.38183594 286.61621094 C117.39150533 282.27610151 112.73803557 277.62185614 108.06860352 272.94165039 C107.14209488 272.01609848 106.21558624 271.09054657 105.26100159 270.13694763 C103.31218616 268.18959559 101.36516239 266.24047501 99.41943359 264.29003906 C96.94637115 261.81128019 94.46884444 259.33703983 91.9899435 256.86412144 C89.59704776 254.47574269 87.20800659 252.08352334 84.81860352 249.69165039 C83.93925644 248.81432755 83.05990936 247.9370047 82.15391541 247.03309631 C77.74349129 242.60601353 73.47158615 238.12097022 69.41004944 233.37046814 C67.7032009 231.39518342 65.88754466 229.56303645 64.01000977 227.75024414 C60.88246924 224.66440415 57.97618719 221.46900114 55.11547852 218.13696289 C52.35480797 215.00752003 49.49138002 211.97966198 46.63500977 208.93774414 C41.84814648 203.83007297 37.36202735 198.59449156 32.98657227 193.12915039 C30.74921178 190.43635882 28.33287541 188.04277373 25.81469727 185.61743164 C23.59426845 183.32010486 21.63159997 180.86925474 19.63500977 178.37524414 C16.75277952 174.78955431 13.80831483 171.45661039 10.51000977 168.25024414 C6.44614933 164.29184721 2.9259981 160.05147956 -0.61499023 155.62524414 C-3.09374654 152.6246444 -5.70424706 149.77505837 -8.36499023 146.93774414 C-12.73178612 142.25442577 -16.74062876 137.37964647 -20.65356445 132.31347656 C-24.34000287 127.5467988 -28.14343309 122.88841763 -31.98999023 118.25024414 C-37.61019202 111.45894561 -43.11668277 104.59296984 -48.52563477 97.63256836 C-50.13347699 95.56580218 -51.74710535 93.50362761 -53.36108398 91.44165039 C-60.58167589 82.20466714 -67.73489193 72.92119064 -74.7019043 63.4909668 C-75.90298813 61.86781901 -77.11407721 60.25208809 -78.32592773 58.63696289 C-78.97819336 57.7462207 -79.63045898 56.85547852 -80.30249023 55.93774414 C-81.13200195 54.81432617 -81.13200195 54.81432617 -81.97827148 53.66821289 C-82.31213867 53.0352832 -82.64600586 52.40235352 -82.98999023 51.75024414 C-81.83166599 48.2752714 -81.29930715 48.04970844 -78.25561523 46.28930664 C-77.46509766 45.82484131 -76.67458008 45.36037598 -75.86010742 44.88183594 C-74.56314941 44.136073 -74.56314941 44.136073 -73.23999023 43.37524414 C-71.39543735 42.2919747 -69.55171216 41.20729485 -67.70874023 40.12133789 C-66.28174805 39.2838501 -66.28174805 39.2838501 -64.82592773 38.42944336 C-60.42701774 35.82478574 -56.08164961 33.13643389 -51.73999023 30.43774414 C-50.88356934 29.90648926 -50.02714844 29.37523437 -49.14477539 28.82788086 C-43.33075337 25.21677365 -37.52959887 21.58525396 -31.73022461 17.95068359 C-27.72386987 15.44231619 -23.71233288 12.94231592 -19.69995117 10.44360352 C-17.22005987 8.89400657 -14.74895356 7.33131428 -12.27905273 5.76586914 C-10.93315291 4.92659843 -9.5868364 4.08799534 -8.23999023 3.25024414 C-7.35561279 2.68031738 -7.35561279 2.68031738 -6.45336914 2.09887695 C-2.52263436 -0.31660593 -2.52263436 -0.31660593 0 0 Z " fill="#27E3D3" transform="translate(540.989990234375,473.249755859375)"/>
<path d="M0 0 C18.25680719 4.77814876 35.58414392 12.87453268 52.05712891 21.95605469 C54.58635427 23.31506043 57.16198946 24.56329822 59.74755859 25.81079102 C77.61391874 34.46066359 94.19486924 45.03051331 110 57 C110.7415332 57.55751953 111.48306641 58.11503906 112.24707031 58.68945312 C120.194692 64.6699097 128.04746653 70.74638545 135.703125 77.09765625 C137.3400288 78.4533912 138.99891093 79.7827723 140.671875 81.09375 C143.20919186 83.17128461 144.98560567 85.41905726 147 88 C149.11880688 90.17607193 151.2600985 92.31447446 153.48828125 94.37890625 C174.31653727 114.21297344 191.1452481 143.17742132 192.203125 172.296875 C192.28799069 176.87047488 192.19504835 181.43029578 192 186 C191.95230469 187.14984375 191.90460938 188.2996875 191.85546875 189.484375 C191.16754534 194.44771025 190.0157264 197.09617566 186.234375 200.4609375 C183.0737629 202.71819185 179.74594479 204.66482132 176.38232422 206.6015625 C172.87254215 208.661824 169.46544196 210.87430777 166.04443359 213.07788086 C163.24080589 214.8809128 160.42480943 216.66306414 157.60546875 218.44140625 C153.91946674 220.77125578 150.25779074 223.13314532 146.61328125 225.52734375 C145.7615332 226.08115723 144.90978516 226.6349707 144.03222656 227.20556641 C142.43274278 228.24627442 140.8391926 229.29618315 139.25292969 230.35693359 C133.68613732 233.95334501 129.33733016 235.70118418 122.59765625 234.28515625 C93.07160607 224.0733842 68.37526603 207.40223267 54 179 C49.762939 169.99328654 47.4590166 160.53546382 45.22998047 150.86938477 C44.99811035 149.91088623 44.76624023 148.9523877 44.52734375 147.96484375 C44.32874756 147.1049585 44.13015137 146.24507324 43.92553711 145.35913086 C42.40259935 141.47726655 40.00355373 139.49010764 36.3125 137.6875 C31.99419726 136.79124849 28.25385291 136.75439666 24 138 C20.99666733 140.33336666 20.99666733 140.33336666 19 143 C18.67 143.33 18.34 143.66 18 144 C15.36284203 167.07513227 25.87198034 193.53096494 39.9765625 211.59375 C43.54569466 215.83812338 47.19219143 219.96782561 51 224 C51.72445312 224.80050781 52.44890625 225.60101563 53.1953125 226.42578125 C66.74121914 240.82117695 84.50621518 250.25310759 102 259 C100.35 263.62 98.7 268.24 97 273 C69.71772294 274.29915605 42.30226856 264.11807388 22 246 C20.96875 245.21625 19.9375 244.4325 18.875 243.625 C11.17356333 236.59325347 5.25103959 227.95454358 0 219 C-0.43957031 218.28199219 -0.87914062 217.56398438 -1.33203125 216.82421875 C-14.73777706 192.86410798 -13.99868838 162.82614585 -7 137 C-6.74798828 136.05511719 -6.49597656 135.11023438 -6.23632812 134.13671875 C-5.10137967 129.89631181 -3.95498274 125.65927147 -2.79003906 121.42700195 C3.77812857 97.4167392 9.0948116 73.85804474 9.25 48.875 C9.2595874 47.62323975 9.2691748 46.37147949 9.27905273 45.08178711 C9.23894139 33.98553077 8.56826448 22.91872612 4.5 12.5 C4.0771875 11.3965625 3.654375 10.293125 3.21875 9.15625 C2.8165625 8.1146875 2.414375 7.073125 2 6 C1.32235455 4.00369314 0.65215679 2.00477828 0 0 Z " fill="#2AE3D5" transform="translate(211,122)"/>
<path d="M0 0 C3.21630141 1.52603415 5.28769299 3.09800771 7.75 5.6875 C11.65388539 9.69259724 15.75414637 13.36423019 20 17 C24.48635095 20.87041409 28.8580965 24.75707447 33 29 C34.43404583 30.46173011 35.87193953 31.91968976 37.3125 33.375 C38.00988281 34.08398438 38.70726562 34.79296875 39.42578125 35.5234375 C42.17277298 38.16621861 45.02357134 40.6543208 47.90112305 43.15283203 C51.25787369 46.10702249 54.50104036 49.17833693 57.75 52.25 C63.44106904 57.60874384 69.16903448 62.92029879 74.94140625 68.19140625 C78.48463044 71.43556503 81.9915083 74.71837717 85.5 78 C90.21739866 82.4086147 94.93871454 86.81268139 99.6875 91.1875 C100.61949219 92.04730469 101.55148437 92.90710938 102.51171875 93.79296875 C104.60979019 95.65389553 106.72486138 97.3642446 109 99 C107.67997366 102.07951942 106.52260905 103.640926 103.68359375 105.41015625 C103.01134766 105.83643311 102.33910156 106.26270996 101.64648438 106.7019043 C100.91751953 107.15090088 100.18855469 107.59989746 99.4375 108.0625 C97.87353308 109.04921795 96.30973532 110.03620406 94.74609375 111.0234375 C93.94929199 111.52198242 93.15249023 112.02052734 92.33154297 112.53417969 C88.86329644 114.71463541 85.43302365 116.95217918 82 119.1875 C77.08488141 122.37515342 72.15649602 125.54112359 67.21484375 128.6875 C65.12228337 130.02065683 63.0298381 131.35399434 60.9375 132.6875 C59.36633423 133.68849731 59.36633423 133.68849731 57.76342773 134.7097168 C52.18209307 138.27900219 46.63347435 141.89002653 41.1328125 145.58203125 C40.57757401 145.95446457 40.02233551 146.32689789 39.45027161 146.71061707 C36.77473659 148.50748802 34.10435596 150.31152935 31.43920898 152.1237793 C30.49118408 152.76355713 29.54315918 153.40333496 28.56640625 154.0625 C27.31259155 154.91521484 27.31259155 154.91521484 26.03344727 155.78515625 C24 157 24 157 22 157 C20.64648438 155.4621582 20.64648438 155.4621582 19.09375 153.30078125 C18.51995605 152.5104248 17.94616211 151.72006836 17.35498047 150.90576172 C16.74283691 150.04998535 16.13069336 149.19420898 15.5 148.3125 C14.22250118 146.54994932 12.94385161 144.78823215 11.6640625 143.02734375 C11.03661133 142.16222168 10.40916016 141.29709961 9.76269531 140.40576172 C7.52273391 137.34861773 5.20994751 134.3602342 2.875 131.375 C-1.90663651 125.20489481 -6.38839857 118.84498951 -10.8671875 112.453125 C-14.01803101 107.96095061 -17.2208189 103.50768414 -20.4375 99.0625 C-20.98317627 98.30710937 -21.52885254 97.55171875 -22.09106445 96.7734375 C-24.70562992 93.15724546 -27.32901807 89.54812219 -29.97265625 85.953125 C-40.73639029 71.26019049 -50.83837196 56.11201696 -61 41 C-58.60175095 38.49904434 -56.32126369 36.39250591 -53.3671875 34.58203125 C-52.6563501 34.14084961 -51.9455127 33.69966797 -51.21313477 33.24511719 C-50.05575806 32.53597168 -50.05575806 32.53597168 -48.875 31.8125 C-40.70156227 26.72881378 -32.61321153 21.52489055 -24.5625 16.25 C-23.49821777 15.55366455 -22.43393555 14.8573291 -21.33740234 14.13989258 C-14.20059268 9.4626958 -7.0931467 4.74304118 0 0 Z " fill="#3DEBC4" transform="translate(413,345)"/>
<path d="M0 0 C4.30901191 4.08391427 7.89214745 8.54322707 11.5 13.25 C12.11166016 14.04212891 12.72332031 14.83425781 13.35351562 15.65039062 C17.95362581 21.61490013 22.52465887 27.60181118 27.09472656 33.58935547 C36.21983354 45.53731733 45.41419292 57.41714978 55 69 C56.43768741 70.77068118 57.87518202 72.54151892 59.3125 74.3125 C63.31645391 79.21087992 67.42370216 84.01332201 71.55566406 88.8034668 C74.61978718 92.36348635 77.61568228 95.96651789 80.5625 99.625 C84.65417779 104.66719459 88.99860111 109.43191737 93.40625 114.1953125 C95.66351233 116.63614737 97.90952869 119.08371448 100.125 121.5625 C100.66382813 122.16191406 101.20265625 122.76132812 101.7578125 123.37890625 C103 125 103 125 104 128 C104.99 128.33 105.98 128.66 107 129 C108.40234375 130.390625 108.40234375 130.390625 109.9375 132.25 C113.10312628 135.98091669 116.36037188 139.60143474 119.6875 143.1875 C120.45356567 144.01399048 120.45356567 144.01399048 121.23510742 144.85717773 C122.29051222 145.99577038 123.34609708 147.13419615 124.40185547 148.27246094 C125.99287161 149.99229445 127.57749459 151.71779041 129.16015625 153.4453125 C134.03723492 158.76339546 138.94346733 164.00577136 144.09472656 169.06176758 C145.82472213 170.82169003 147.42055463 172.62703644 149.01171875 174.51171875 C153.88696884 180.12158671 159.21290664 185.28378373 164.5 190.5 C170.24893051 196.17186217 175.94203571 201.81874354 181.19384766 207.96240234 C185.08011106 212.3466622 189.28744995 216.43014739 193.4375 220.5625 C194.34048828 221.46935547 195.24347656 222.37621094 196.17382812 223.31054688 C200.68427225 227.81445885 205.25348605 232.15823319 210.09008789 236.30834961 C214.26354482 240.00487052 218.09804786 244.06090036 222 248.0390625 C225.86796353 251.95235373 229.8312914 255.66328029 234 259.25390625 C238.11247694 262.84429139 242.03727848 266.64078137 246 270.39453125 C249.9928553 274.16122873 254.05088314 277.83007506 258.19628906 281.42822266 C260.45489298 283.3963997 262.66508778 285.41493328 264.875 287.4375 C268.95215156 291.11627339 273.14704194 294.58706488 277.45703125 297.98828125 C280.03570808 300.02824833 282.58328532 302.10169827 285.125 304.1875 C286.04152344 304.93773437 286.95804688 305.68796875 287.90234375 306.4609375 C289.53308539 307.79649088 291.16238745 309.13372042 292.78955078 310.47363281 C301.9920967 318.0483086 311.31606768 325.40661448 320.91845703 332.46875 C322.33046259 333.50746673 323.74022554 334.54923759 325.14794922 335.59375 C341.38118338 347.6285469 358.26522837 358.32251931 376 368 C377.134375 368.62261719 378.26875 369.24523437 379.4375 369.88671875 C381.95493109 371.26424163 384.47523324 372.63598406 387 374 C382.65881638 378.71328508 379.84819845 380.64397519 373.5 381.4375 C347.48810113 380.56559278 318.4664451 353.70173589 299.26806641 338.76123047 C297.30538019 337.23713807 295.33456188 335.72533218 293.35546875 334.22265625 C277.14420613 321.88930356 261.49538781 308.85184875 246.4296875 295.14453125 C243.82642294 292.84679452 241.14617766 290.67219441 238.4375 288.5 C234.03816591 284.94335526 230.05009549 281.15872635 226.10546875 277.109375 C224.17821133 275.17854196 222.20061436 273.39327187 220.125 271.625 C215.81307754 267.9315206 211.86927934 263.90227403 207.90625 259.84375 C205.83283715 257.7649306 203.67301137 255.84073592 201.43969727 253.93530273 C196.43031042 249.568092 191.75079745 244.89443618 187.05859375 240.19140625 C186.13208511 239.26585434 185.20557648 238.34030243 184.25099182 237.38670349 C182.30217639 235.43935145 180.35515263 233.49023087 178.40942383 231.53979492 C175.93636139 229.06103605 173.45883467 226.58679569 170.97993374 224.1138773 C168.58703799 221.72549855 166.19799682 219.3332792 163.80859375 216.94140625 C162.92924667 216.0640834 162.0498996 215.18676056 161.14390564 214.28285217 C156.75460952 209.87697718 152.50137319 205.41627415 148.46412659 200.68431091 C146.26482896 198.15426944 143.89865046 195.84221163 141.5 193.5 C137.85962122 189.90817599 134.38721677 186.24051169 131.06640625 182.3515625 C128.15787593 179.04166599 125.13910478 175.83864344 122.125 172.625 C113.27704104 163.18197562 104.61942574 153.58265762 96.21484375 143.7421875 C95.18491129 142.53644513 94.15496295 141.33071633 93.125 140.125 C92.60607178 139.51720703 92.08714355 138.90941406 91.55249023 138.28320312 C88.50362806 134.72246032 85.40851818 131.21453378 82.25 127.75 C78.71543444 123.85437667 75.41602582 119.8250238 72.16015625 115.6953125 C69.68182453 112.60299987 67.13081265 109.58009049 64.5625 106.5625 C59.63505539 100.76669425 54.79636889 94.9049999 50 89 C48.99100991 87.76161731 47.98188689 86.52334292 46.97265625 85.28515625 C44.18755412 81.86627561 41.40869237 78.44239222 38.63330078 75.015625 C37.58590823 73.72305805 36.53749629 72.43131607 35.48779297 71.140625 C27.33046636 61.10419507 19.54155191 50.81440139 11.82080078 40.43945312 C10.08554938 38.11461644 8.34025946 35.79780786 6.58984375 33.484375 C1.52347604 26.78381916 -3.50142493 20.10301327 -8 13 C-6.53181332 9.89257577 -4.79975 7.09528261 -2.875 4.25 C-2.33617187 3.45078125 -1.79734375 2.6515625 -1.2421875 1.828125 C-0.62730469 0.92320312 -0.62730469 0.92320312 0 0 Z " fill="#17D9BE" transform="translate(438,547)"/>
<path d="M0 0 C3.98410695 3.57910317 6.66628051 7.79706253 9.5625 12.25 C10.63579835 13.87951286 11.71003577 15.50840753 12.78515625 17.13671875 C13.59364014 18.36334229 13.59364014 18.36334229 14.41845703 19.61474609 C21.87411169 30.8592268 29.69291492 41.86081761 37.49267578 52.86767578 C38.97829898 54.96930083 40.45704885 57.07558293 41.93359375 59.18359375 C51.15343977 72.33310963 60.59636871 85.32186869 70.375 98.0625 C71.15101563 99.07570313 71.92703125 100.08890625 72.7265625 101.1328125 C74.25665496 103.06251674 75.83667767 104.95354693 77.4609375 106.8046875 C78.21632813 107.67351562 78.97171875 108.54234375 79.75 109.4375 C80.42546875 110.17871094 81.1009375 110.91992188 81.796875 111.68359375 C83 114 83 114 82.3046875 117.07421875 C80.95552944 120.0997259 79.5371478 123.06544511 78 126 C77.34 126 76.68 126 76 126 C74.32859169 123.78383639 72.77971071 121.56208805 71.25 119.25 C70.25756758 117.77663112 69.26402527 116.30400939 68.26953125 114.83203125 C67.74053223 114.04650879 67.2115332 113.26098633 66.66650391 112.45166016 C63.27553166 107.46306607 59.78094447 102.54602339 56.29980469 97.62011719 C47.49109251 85.09367942 39.15229372 72.23831251 30.75 59.4375 C30.29733765 58.7481134 29.84467529 58.05872681 29.3782959 57.34844971 C23.03650929 47.68550368 16.72270113 38.00645529 10.58129883 28.21435547 C8.15090116 24.34136315 5.69413226 20.51919286 3.04296875 16.79296875 C2.59856445 16.15439941 2.15416016 15.51583008 1.69628906 14.85791016 C0.54487903 13.21565465 -0.63440956 11.59303647 -1.81640625 9.97265625 C-3.13723591 6.655325 -3.03027623 6.23306236 -1.71484375 3.12109375 C-1.14894531 2.09113281 -0.58304687 1.06117188 0 0 Z " fill="#16DABF" transform="translate(332,407)"/>
<path d="M0 0 C0.66 0 1.32 0 2 0 C0.62215146 3.28945426 -0.74379695 4.8171511 -3.73828125 6.7265625 C-4.47626953 7.2009375 -5.21425781 7.6753125 -5.97460938 8.1640625 C-6.74611328 8.64617187 -7.51761719 9.12828125 -8.3125 9.625 C-9.07240234 10.11484375 -9.83230469 10.6046875 -10.61523438 11.109375 C-14.30651236 13.45691234 -17.83175661 15.58562599 -22 17 C-22 14 -22 14 -20 11 C-19.41500732 11.20665283 -18.83001465 11.41330566 -18.22729492 11.6262207 C-15.42783084 12.09602006 -14.6710775 11.56013843 -12.36328125 9.98046875 C-11.70392578 9.53509766 -11.04457031 9.08972656 -10.36523438 8.63085938 C-9.68783203 8.15455078 -9.01042969 7.67824219 -8.3125 7.1875 C-7.62349609 6.72279297 -6.93449219 6.25808594 -6.22460938 5.77929688 C-2.52798964 3.42597165 -2.52798964 3.42597165 0 0 Z " fill="#56F6D2" transform="translate(520,444)"/>
<path d="M0 0 C5.81166978 1.82170077 11.22990455 4.31738628 16.7578125 6.85546875 C19.88422691 7.9591307 21.02229143 8.2814517 24 7 C24 7.99 24 8.98 24 10 C24.99 10.33 25.98 10.66 27 11 C20.49869941 10.51593982 15.45504286 8.78918855 9.5625 6.0625 C8.74845703 5.70220703 7.93441406 5.34191406 7.09570312 4.97070312 C1.13579852 2.27159704 1.13579852 2.27159704 0 0 Z " fill="#0C9A83" transform="translate(774,939)"/>
<path d="M0 0 C2.47186455 2.96346786 3.66248361 5.54041689 4.6875 9.25 C5.06455078 10.58804688 5.06455078 10.58804688 5.44921875 11.953125 C5.63097656 12.62859375 5.81273437 13.3040625 6 14 C0.52067211 12.45454854 -4.11429181 9.84456788 -9 7 C-8.34 6.67 -7.68 6.34 -7 6 C-4.6171875 6.99609375 -4.6171875 6.99609375 -1.875 8.4375 C-0.96492187 8.91058594 -0.05484375 9.38367188 0.8828125 9.87109375 C1.58148437 10.24363281 2.28015625 10.61617187 3 11 C2.7834375 10.45730469 2.566875 9.91460938 2.34375 9.35546875 C2.0653125 8.64003906 1.786875 7.92460938 1.5 7.1875 C1.2215625 6.47980469 0.943125 5.77210938 0.65625 5.04296875 C0 3 0 3 0 0 Z " fill="#2EEEDE" transform="translate(821,873)"/>
<path d="M0 0 C3.45201639 1.47721422 5.64961936 3.43794001 8.25 6.125 C8.95640625 6.84945313 9.6628125 7.57390625 10.390625 8.3203125 C11.18726563 9.15175781 11.18726563 9.15175781 12 10 C9 10 9 10 7.17578125 8.46875 C6.56089844 7.8190625 5.94601562 7.169375 5.3125 6.5 C4.68988281 5.8503125 4.06726563 5.200625 3.42578125 4.53125 C2.72001953 3.77328125 2.72001953 3.77328125 2 3 C1.401875 3.350625 0.80375 3.70125 0.1875 4.0625 C-2 5 -2 5 -5 4 C-3.35 2.68 -1.7 1.36 0 0 Z " fill="#4FF6D0" transform="translate(413,345)"/>
<path d="M0 0 C0 3 0 3 -2.375 5.6875 C-5 8 -5 8 -7 8 C-7.66 9.32 -8.32 10.64 -9 12 C-8.52379711 7.62346871 -7.33100111 5.93461995 -3.9375 3.1875 C-3.20402344 2.58292969 -2.47054687 1.97835937 -1.71484375 1.35546875 C-1.14894531 0.90816406 -0.58304688 0.46085937 0 0 Z " fill="#079D8B" transform="translate(175,88)"/>
<path d="M0 0 C0.66 0.33 1.32 0.66 2 1 C0.37660195 2.70884005 -1.29319053 4.37446717 -3 6 C-3.66 6 -4.32 6 -5 6 C-7.0078864 6.64252365 -9.00882592 7.30741771 -11 8 C-8.83385197 5.69125289 -6.60793392 3.94709819 -3.9375 2.25 C-2.89916016 1.57710938 -2.89916016 1.57710938 -1.83984375 0.890625 C-1.23269531 0.59671875 -0.62554688 0.3028125 0 0 Z " fill="#2EECDF" transform="translate(537,474)"/>
<path d="M0 0 C0.7425 0.185625 1.485 0.37125 2.25 0.5625 C4.94990963 0.99203108 6.44631077 0.85122974 9 0 C5.80009492 2.74277578 2.99500618 4.6302836 -1 6 C-1 3 -1 3 0 0 Z " fill="#4DF1CD" transform="translate(499,455)"/>
<path d="M0 0 C1.8125 0.1875 1.8125 0.1875 4 1 C5.99925898 3.84509932 7.45097678 6.8953338 9 10 C7.86800647 9.0919838 6.74467637 8.17316174 5.625 7.25 C4.99851562 6.73953125 4.37203125 6.2290625 3.7265625 5.703125 C1.91687682 3.91800519 0.99882545 2.32050356 0 0 Z " fill="#0B9D89" transform="translate(554,747)"/>
<path d="M0 0 C2.475 0.495 2.475 0.495 5 1 C5.33 2.98 5.66 4.96 6 7 C3.95880212 5.38405168 1.95927063 3.7143618 0 2 C0 1.34 0 0.68 0 0 Z " fill="#0CA08B" transform="translate(523,713)"/>
</svg>
