<svg width="176" height="203" viewBox="0 0 176 203" fill="none" xmlns="http://www.w3.org/2000/svg">
<path d="M170.483 172.608C170.377 172.606 170.271 172.577 170.181 172.52C170.089 172.464 170.015 172.383 169.968 172.287C169.92 172.19 169.901 172.083 169.911 171.977C169.922 171.87 169.96 171.768 170.025 171.683C170.953 170.465 171.337 166.12 171.566 163.524C171.593 163.203 171.621 162.899 171.647 162.617C173.193 145.947 170.846 125.883 165.663 111.497C164.463 108.162 162.972 104.808 160.232 102.877C157.752 101.13 154.616 100.735 151.356 100.457C141.63 99.6277 132.443 98.8445 122.461 99.468C122.386 99.4726 122.309 99.4624 122.237 99.4379C122.167 99.4133 122.101 99.3748 122.043 99.3247C121.987 99.2745 121.939 99.2137 121.906 99.1456C121.873 99.0775 121.854 99.0036 121.849 98.928C121.844 98.8523 121.854 98.7765 121.879 98.7048C121.903 98.6331 121.942 98.5668 121.993 98.5101C122.043 98.4532 122.104 98.4069 122.171 98.3736C122.239 98.3402 122.314 98.3206 122.389 98.316C132.456 97.6853 141.685 98.4728 151.454 99.3066C154.744 99.5874 158.183 100.027 160.896 101.934C163.897 104.048 165.482 107.59 166.748 111.104C171.982 125.632 174.355 145.893 172.796 162.718C172.77 163.006 172.743 163.294 172.715 163.621C172.377 167.452 171.987 171.006 170.944 172.376C170.891 172.446 170.822 172.505 170.741 172.546C170.662 172.586 170.572 172.606 170.483 172.608Z" fill="#196164"/>
<path d="M119.512 109.066C121.079 128.405 125.128 153.805 124.765 170.629L107.207 171.441C106.857 171.458 113.255 105.469 113.082 107.234L116.481 107.041C117.643 107.041 119.28 106.16 119.512 109.066Z" fill="#196164"/>
<path d="M114.816 127.707C114.682 127.705 114.553 127.659 114.449 127.573C114.345 127.487 114.276 127.368 114.252 127.236C114.226 127.104 114.249 126.967 114.314 126.85C114.38 126.732 114.483 126.641 114.609 126.594L121.928 123.774C122.071 123.718 122.231 123.722 122.37 123.784C122.51 123.846 122.619 123.961 122.674 124.104C122.729 124.247 122.725 124.405 122.663 124.545C122.601 124.684 122.486 124.794 122.343 124.85L115.022 127.668C114.957 127.692 114.887 127.705 114.816 127.707Z" fill="black"/>
<path d="M114.444 131.778C114.31 131.778 114.181 131.731 114.079 131.645C113.975 131.56 113.906 131.441 113.88 131.31C113.855 131.177 113.877 131.042 113.942 130.924C114.007 130.807 114.11 130.716 114.234 130.666L121.709 127.748C121.78 127.721 121.856 127.708 121.931 127.71C122.007 127.712 122.081 127.728 122.15 127.759C122.22 127.789 122.282 127.833 122.334 127.888C122.387 127.943 122.428 128.008 122.455 128.077C122.482 128.147 122.497 128.224 122.494 128.299C122.493 128.375 122.477 128.45 122.446 128.519C122.415 128.588 122.372 128.65 122.317 128.703C122.262 128.755 122.197 128.795 122.127 128.823L114.653 131.739C114.587 131.766 114.516 131.779 114.444 131.778Z" fill="black"/>
<path d="M81.4082 52.0713C81.316 54.0873 80.776 56.7355 78.7658 56.8953C77.8931 56.9645 77.091 56.4734 76.2818 56.1408C72.6429 54.646 67.9614 56.7585 66.6741 60.4752C65.3867 64.1918 67.7613 68.7465 71.5442 69.8222C74.4098 70.6358 77.667 69.6667 80.3469 70.9656C82.373 71.9477 83.6171 74.0198 84.5675 76.0603C86.353 79.9037 87.5008 84.012 87.9659 88.224C93.1855 90.3696 99.0319 90.168 104.669 89.9318C113.021 89.5819 121.359 89.2334 129.7 88.7798C133.665 88.5638 137.728 88.3017 141.364 86.6961C145 85.0905 148.168 81.8433 148.538 77.8891C148.69 76.2648 148.371 74.6246 148.505 72.9931C148.638 71.3616 149.397 69.6148 150.924 69.036C152.305 68.5133 153.824 69.0993 155.273 69.3859C160.056 70.3276 165.557 67.0473 166.152 62.2104C166.746 57.3734 161.112 52.6819 156.736 54.8131C155.363 55.4813 154.23 56.6606 152.969 57.4987C152.744 57.6454 152.485 57.7298 152.217 57.7436C151.949 57.7573 151.683 57.6997 151.445 57.5767C151.206 57.4538 151.004 57.2699 150.86 57.0437C150.716 56.8174 150.636 56.5571 150.624 56.2891C150.325 49.0524 149.255 41.8681 147.433 34.8576C146.183 30.0465 144.121 24.8021 139.571 22.8091C137.555 21.9278 135.305 21.8155 133.111 21.7493C121.867 21.416 110.614 21.9833 99.4596 23.4456C95.9301 23.9078 90.8815 23.8776 88.1512 26.5833C86.1256 28.5993 85.6907 31.9113 84.8771 34.5134C83.0699 40.2893 81.6832 46.0032 81.4082 52.0713Z" fill="#BDCDCB"/>
<path d="M116.698 81.033C114.9 81.033 113.472 80.6226 112.274 80.2799C111.529 80.0654 110.886 79.881 110.331 79.8551C110.256 79.8515 110.182 79.8331 110.114 79.8008C110.045 79.7686 109.983 79.7231 109.932 79.6671C109.882 79.611 109.842 79.5455 109.816 79.4742C109.791 79.403 109.78 79.3274 109.783 79.2518C109.787 79.1762 109.806 79.1018 109.837 79.0334C109.869 78.9649 109.915 78.9034 109.971 78.8524C110.027 78.8015 110.092 78.7622 110.164 78.7365C110.235 78.7109 110.311 78.6995 110.386 78.7031C111.074 78.7362 111.777 78.9378 112.592 79.1711C114.713 79.7802 117.621 80.6111 122.191 78.5879C122.331 78.526 122.491 78.5223 122.633 78.5773C122.776 78.6324 122.89 78.7418 122.951 78.8817C123.013 79.0215 123.018 79.18 122.963 79.3226C122.907 79.4653 122.797 79.5801 122.658 79.642C120.287 80.6903 118.341 81.033 116.698 81.033Z" fill="white"/>
<path d="M97.8237 69.8713C97.4925 69.8713 97.167 69.8627 96.8531 69.8511C92.1558 69.6812 88.8712 68.2988 87.0932 65.7428C85.7166 63.7643 85.4228 61.214 85.1867 59.1649C85.1608 58.9388 85.1233 58.6811 85.0844 58.4089C84.8627 56.8494 84.5588 54.7139 85.5035 53.4107C86.2984 52.3134 87.7672 52.3436 88.841 52.3667C89.0066 52.3667 89.1678 52.3739 89.3176 52.3667L107.309 52.2515C107.629 52.2515 108.111 52.2515 108.526 52.5107C109.38 53.055 109.28 54.2199 109.246 54.6591C109.01 57.3951 108.766 60.2305 107.757 62.8902C106.605 65.9142 104.546 68.1995 102.089 69.1743C100.678 69.7374 99.1888 69.8713 97.8237 69.8713ZM86.3329 59.0324C86.5648 61.0484 86.8283 63.3423 88.0403 65.0804C89.6013 67.3225 92.5806 68.5364 96.8963 68.6963C98.3795 68.751 100.106 68.7222 101.663 68.1044C103.823 67.2491 105.646 65.1999 106.678 62.4884C107.63 59.9785 107.868 57.2281 108.097 54.5684C108.148 53.9665 108.085 53.6036 107.908 53.4899C107.78 53.4092 107.524 53.4121 107.319 53.4121L89.319 53.5273C89.1592 53.5273 88.9878 53.5273 88.8107 53.5273C87.9025 53.5072 86.8715 53.4856 86.4308 54.0947C85.7598 55.0206 86.0262 56.8897 86.2206 58.2548C86.2595 58.5356 86.2969 58.8006 86.3257 59.0425L86.3329 59.0324Z" fill="black"/>
<path d="M110.737 75.4944H110.721C110.569 75.4902 110.425 75.4257 110.32 75.3151C110.215 75.2044 110.158 75.0565 110.161 74.904C110.191 73.7246 110.667 72.6778 111.126 71.6654C111.364 71.1668 111.574 70.6553 111.755 70.1333C112.307 68.4312 112.187 66.5059 112.078 64.644C111.934 62.2608 111.79 59.7984 112.978 57.6399C113.054 57.5092 113.178 57.4135 113.323 57.373C113.469 57.3327 113.623 57.351 113.755 57.424C113.888 57.497 113.986 57.6188 114.029 57.7634C114.072 57.908 114.056 58.0636 113.986 58.1971C112.955 60.0691 113.087 62.2536 113.228 64.5734C113.347 66.5434 113.47 68.5795 112.851 70.489C112.658 71.0524 112.432 71.6044 112.174 72.1421C111.742 73.091 111.336 73.9882 111.31 74.9328C111.307 75.0826 111.246 75.225 111.138 75.3298C111.031 75.4346 110.887 75.4937 110.737 75.4944Z" fill="white"/>
<path d="M116.728 105.502C116.339 105.499 115.952 105.469 115.567 105.409C115.095 105.338 115.061 104.873 115.045 104.65C115.033 104.506 115.023 104.287 115.012 104.002C114.994 103.518 114.976 102.818 114.958 101.925C114.925 100.306 114.902 98.3764 114.886 97.0991C114.878 96.4353 114.872 95.9471 114.869 95.7916L114.762 91.2167C114.762 90.9287 114.728 90.5601 114.696 90.167C114.604 88.9833 114.5 87.6412 114.803 86.7945C114.858 86.6552 114.964 86.5428 115.101 86.4808C115.238 86.4189 115.392 86.4124 115.533 86.4627C115.674 86.5131 115.789 86.6163 115.855 86.7506C115.922 86.8848 115.933 87.0394 115.887 87.1818C115.667 87.7982 115.77 89.1157 115.845 90.0777C115.877 90.4866 115.907 90.874 115.914 91.1908L116.02 95.7642C116.02 95.927 116.03 96.4137 116.038 97.0847C116.06 98.7969 116.112 102.998 116.182 104.324C117.818 104.484 118.734 104.009 119.129 102.818C119.274 102.294 119.359 101.755 119.382 101.213C119.575 98.8386 119.615 96.6124 119.658 94.2537C119.674 93.3349 119.692 92.3817 119.719 91.4255C119.723 91.2727 119.788 91.1279 119.899 91.0229C119.954 90.9709 120.018 90.9302 120.089 90.9031C120.16 90.8762 120.236 90.8633 120.311 90.8654C120.387 90.8674 120.462 90.8844 120.531 90.9153C120.599 90.9461 120.662 90.9903 120.714 91.0452C120.766 91.1002 120.806 91.1649 120.834 91.2356C120.861 91.3063 120.874 91.3816 120.871 91.4572C120.844 92.4119 120.826 93.3594 120.81 94.2753C120.767 96.6513 120.726 98.8962 120.522 101.308C120.495 101.941 120.391 102.569 120.214 103.18C119.712 104.72 118.535 105.502 116.728 105.502Z" fill="black"/>
<path d="M139.781 174.362C142.067 174.353 144.491 174.307 146.429 173.085C148.367 171.862 149.481 169.004 148.087 167.181C146.693 165.358 143.973 165.613 141.731 165.973C131.639 167.596 116.886 168.844 115.894 167.22C115.271 166.199 115.403 155.335 115.403 149.921C115.403 144.363 115.517 136.139 115.741 129.029C116.238 113.296 116.948 92.1042 117.622 78.502C117.766 75.514 118.896 69.2573 112.094 68.8973C104.8 68.5129 103.667 68.4538 96.3648 68.3372C67.1801 67.8732 37.9911 68.9508 8.91976 71.5655C6.98152 71.7383 3.63208 71.966 2.04808 73.1007C-1.12856 75.3716 0.229363 80.0429 0.649843 83.9468C1.43464 91.2404 2.38936 98.5151 3.4708 105.771C4.55224 113.025 5.75176 120.267 7.04056 127.486C8.32936 134.704 9.70312 141.92 11.1143 149.122C11.8237 152.736 12.5408 156.351 13.2657 159.965C13.9655 163.467 14.4738 167.09 15.4257 170.53C15.9354 172.362 16.8657 174.035 18.7607 174.633C20.6558 175.23 22.7726 174.911 24.6993 174.834C31.7308 174.546 38.8113 174.739 45.8457 174.713L68.098 174.63L90.1756 174.555L112.427 174.472L134.587 174.389L139.781 174.362Z" fill="#FFD550"/>
<path d="M17.6159 138.331C17.5437 138.331 17.4723 138.317 17.4056 138.289C17.2636 138.233 17.1496 138.122 17.0885 137.983C17.0276 137.843 17.0246 137.684 17.0802 137.543C17.7109 135.943 16.7288 134.839 15.0728 133.17C14.6869 132.781 14.2895 132.379 13.9136 131.955C13.3203 131.284 12.6464 130.525 12.2389 129.607C11.3447 127.6 11.7651 125.027 13.3909 122.551C18.8427 114.244 18.4381 111.56 17.6605 110.264C17.5817 110.133 17.5584 109.976 17.5954 109.828C17.6324 109.679 17.7267 109.551 17.8578 109.473C17.9887 109.394 18.1456 109.371 18.294 109.407C18.4421 109.445 18.5696 109.54 18.6483 109.671C19.7283 111.471 20.0639 114.483 14.3543 123.184C13.6875 124.199 12.2504 126.812 13.2887 129.144C13.6256 129.9 14.2103 130.559 14.7747 131.197C15.129 131.598 15.5149 131.988 15.8893 132.365C17.4632 133.949 19.0904 135.591 18.1515 137.971C18.1083 138.078 18.0343 138.168 17.9389 138.233C17.8434 138.296 17.7309 138.331 17.6159 138.331Z" fill="#196164"/>
<path d="M23.1742 114.724C23.0836 114.724 22.9943 114.702 22.9135 114.662C22.846 114.628 22.7858 114.58 22.7366 114.522C22.6872 114.465 22.6497 114.399 22.6263 114.327C22.6027 114.255 22.5936 114.178 22.5993 114.103C22.6051 114.028 22.6258 113.954 22.6601 113.887C26.1363 107.007 21.8566 101.39 19.8564 99.2937C19.7587 99.1821 19.7078 99.0369 19.7144 98.8886C19.7211 98.7404 19.7847 98.6003 19.892 98.4979C19.9994 98.3954 20.1421 98.3382 20.2906 98.3384C20.439 98.3387 20.5816 98.3961 20.6887 98.4988C22.3822 100.271 27.6007 106.66 23.6883 114.407C23.6403 114.502 23.5669 114.581 23.476 114.638C23.3853 114.694 23.2807 114.724 23.1742 114.724Z" fill="#196164"/>
<path d="M23.4149 141.833C23.3033 141.833 23.194 141.802 23.1003 141.741C23.0065 141.681 22.9322 141.594 22.8865 141.493C22.8408 141.391 22.8255 141.279 22.8427 141.168C22.8597 141.058 22.9085 140.955 22.9829 140.873C24.5568 139.12 23.8815 136.164 22.5135 134.011C22.3234 133.712 22.1232 133.414 21.913 133.097C20.5839 131.098 19.0762 128.834 19.9532 126.464C19.9794 126.392 20.0194 126.327 20.071 126.271C20.1224 126.216 20.1843 126.172 20.253 126.14C20.3218 126.108 20.3963 126.09 20.4719 126.087C20.5475 126.084 20.6231 126.097 20.6941 126.123C20.765 126.149 20.8301 126.189 20.8857 126.241C20.9413 126.293 20.9861 126.355 21.0178 126.422C21.0493 126.491 21.0672 126.566 21.07 126.641C21.0729 126.718 21.0608 126.792 21.0346 126.864C20.3607 128.685 21.638 130.608 22.8721 132.457C23.0765 132.766 23.2882 133.084 23.4855 133.393C24.9687 135.729 25.9522 139.29 23.8397 141.642C23.7862 141.701 23.7206 141.748 23.6475 141.781C23.5743 141.814 23.4951 141.832 23.4149 141.833Z" fill="#196164"/>
<path d="M57.1142 122.176C56.3261 122.184 55.5509 121.976 54.8721 121.575C53.746 120.897 53.0116 119.578 52.954 118.131C52.9091 117.363 53.0894 116.599 53.4724 115.931C54.0484 113.978 56.0097 112.521 58.0675 112.647C60.3427 112.791 62.2751 114.827 62.2852 117.111C62.2807 118.046 62.0126 118.959 61.5119 119.747C61.0399 120.487 60.3903 121.097 59.6221 121.522C58.8538 121.945 57.9917 122.171 57.1142 122.176ZM54.2083 117.136C54.1244 117.447 54.0894 117.768 54.1046 118.089C54.1463 119.153 54.6691 120.104 55.4668 120.59C57.0508 121.548 59.4729 120.855 60.5385 119.137C60.9224 118.535 61.1299 117.837 61.1375 117.121C61.1303 115.455 59.6644 113.906 58.0012 113.809C56.9399 113.745 55.8873 114.276 55.2105 115.105C55.292 115.231 55.3225 115.38 55.2957 115.527C55.2688 115.673 55.1867 115.802 55.0665 115.889C54.8624 116.034 54.6863 116.216 54.5466 116.424C54.5222 116.524 54.5035 116.626 54.4905 116.728C54.4764 116.813 54.4437 116.892 54.3949 116.963C54.3461 117.034 54.2823 117.091 54.2083 117.133V117.136Z" fill="#196164"/>
<path d="M158.684 66.656C158.532 66.6583 158.385 66.5999 158.275 66.4935C158.166 66.387 158.103 66.2415 158.1 66.0887C158.098 65.9359 158.156 65.7886 158.262 65.6789C158.369 65.5693 158.514 65.5063 158.667 65.504C159.426 65.4865 160.156 65.2204 160.748 64.7466C161.34 64.2727 161.759 63.6175 161.942 62.8819C162.124 62.1463 162.06 61.371 161.759 60.6754C161.458 59.9799 160.936 59.4028 160.274 59.0327C160.14 58.9564 160.042 58.8299 160.002 58.6815C159.962 58.5329 159.982 58.3743 160.058 58.2407C160.134 58.107 160.261 58.0091 160.409 57.9687C160.558 57.9282 160.716 57.9484 160.85 58.0247C162.578 59.0096 163.533 61.2128 163.052 63.1496C162.571 65.0864 160.703 66.5912 158.709 66.6503L158.684 66.656Z" fill="black"/>
<path d="M73.5759 66.9915C72.9705 66.9776 72.3895 66.7501 71.9357 66.3492C71.0141 65.5788 70.4424 64.2771 70.4453 62.9494C70.4482 61.6217 71.0213 60.3257 71.9501 59.5625C72.5736 59.0484 73.2951 58.8425 73.982 58.9707C74.0563 58.9849 74.127 59.0137 74.1902 59.0553C74.2534 59.0969 74.3078 59.1507 74.3503 59.2133C74.3926 59.2759 74.4225 59.3463 74.4377 59.4205C74.4528 59.4947 74.4534 59.571 74.4392 59.6453C74.4249 59.7196 74.3961 59.7904 74.3545 59.8537C74.3129 59.9169 74.2592 59.9712 74.1965 60.0136C74.1339 60.0561 74.0635 60.0858 73.9893 60.101C73.9151 60.1163 73.8388 60.1167 73.7645 60.1025C73.3239 60.0175 72.9336 60.2465 72.6831 60.451C72.0264 60.9938 71.6002 61.9759 71.5973 62.9522C71.5944 63.9286 72.0178 64.9164 72.6744 65.465C72.9236 65.6738 73.3138 65.9057 73.7544 65.8236C73.9046 65.7961 74.0597 65.8295 74.1854 65.9163C74.3111 66.0032 74.3973 66.1364 74.4248 66.2866C74.4523 66.4369 74.4189 66.592 74.332 66.7177C74.2452 66.8433 74.112 66.9294 73.9618 66.9569C73.8344 66.9799 73.7052 66.9915 73.5759 66.9915Z" fill="black"/>
<path d="M130.497 70.9226H130.453C128.13 70.9226 126.378 70.5626 124.936 69.8066C122.39 68.4674 120.549 65.6004 120.009 62.1372C119.689 60.0837 119.746 57.8561 120.199 54.9156C120.368 53.8039 120.602 52.2818 122.349 51.9348C123.789 51.6468 125.373 51.6986 126.906 51.7505C127.515 51.7706 128.09 51.7908 128.647 51.7879C132.823 51.7721 137.071 51.8729 141.283 52.0903C141.633 52.109 142.16 52.1364 142.579 52.4575C143.348 53.0335 143.265 54.1221 143.229 54.5844C143.014 57.3722 142.796 60.2537 141.85 62.9839C140.776 66.0986 138.868 68.4905 136.476 69.7188C134.885 70.5396 132.981 70.9226 130.497 70.9226ZM121.152 61.9601C121.636 65.0647 123.253 67.6164 125.472 68.7857C126.74 69.4538 128.325 69.7663 130.453 69.7706C132.768 69.7706 134.518 69.4322 135.957 68.6935C138.082 67.602 139.79 65.442 140.766 62.6095C141.659 60.0175 141.876 57.2109 142.087 54.4965C142.12 54.0645 142.127 53.5548 141.892 53.3777C141.758 53.2769 141.509 53.2567 141.223 53.2409C137.032 53.0249 132.801 52.9241 128.65 52.9399C128.074 52.9399 127.459 52.9212 126.866 52.901C125.401 52.8521 123.886 52.8017 122.572 53.0637C121.708 53.2351 121.526 53.8413 121.335 55.0898C120.903 57.9093 120.844 60.0276 121.145 61.9601H121.152Z" fill="black"/>
<path d="M121.754 58.0448C121.636 58.0449 121.519 58.0082 121.421 57.9396C119.332 56.443 116.839 55.6123 114.27 55.5563C111.701 55.5003 109.174 56.2216 107.021 57.6257C106.893 57.709 106.738 57.7379 106.588 57.7062C106.438 57.6744 106.309 57.5847 106.225 57.4565C106.142 57.3284 106.113 57.1724 106.144 57.0229C106.176 56.8735 106.265 56.7427 106.394 56.6595C108.739 55.1306 111.491 54.3451 114.289 54.4056C117.088 54.4659 119.803 55.3694 122.079 56.9979C122.18 57.0683 122.255 57.169 122.294 57.285C122.333 57.4009 122.334 57.5265 122.297 57.6431C122.259 57.7598 122.186 57.8617 122.088 57.9339C121.989 58.006 121.869 58.0449 121.747 58.0448H121.754Z" fill="black"/>
<path d="M131.265 62.5072C131.19 62.5072 131.115 62.5072 131.04 62.5072C130.127 62.4526 129.249 62.1409 128.506 61.6081C127.763 61.0753 127.185 60.3432 126.84 59.4963C126.812 59.4258 126.798 59.3504 126.798 59.2744C126.799 59.1985 126.815 59.1235 126.845 59.0537C126.876 58.9838 126.919 58.9208 126.974 58.8678C127.028 58.8149 127.092 58.7733 127.162 58.7454C127.233 58.7174 127.309 58.7037 127.385 58.7052C127.46 58.7065 127.535 58.7229 127.606 58.7533C127.675 58.7838 127.738 58.8277 127.79 58.8824C127.843 58.9373 127.884 59.0021 127.911 59.073C128.167 59.7194 128.604 60.2785 129.168 60.6836C129.733 61.0885 130.404 61.3222 131.098 61.3568C131.792 61.3912 132.482 61.225 133.083 60.878C133.685 60.531 134.175 60.0177 134.493 59.3997C134.526 59.3303 134.574 59.2682 134.631 59.2172C134.689 59.1661 134.757 59.1272 134.83 59.1026C134.902 59.0781 134.98 59.0685 135.056 59.0743C135.134 59.0802 135.209 59.1013 135.277 59.1365C135.346 59.1717 135.406 59.2204 135.455 59.2796C135.504 59.3386 135.542 59.407 135.565 59.4808C135.586 59.5545 135.593 59.632 135.586 59.7086C135.578 59.7852 135.554 59.8593 135.517 59.9267C135.108 60.701 134.496 61.3499 133.747 61.8043C132.998 62.2587 132.14 62.5016 131.265 62.5072Z" fill="white"/>
<path d="M95.4491 62.8454C93.1451 62.8454 91.0283 61.1289 90.8209 59.0179C90.8065 58.8651 90.8526 58.7128 90.9505 58.5941C91.0485 58.4756 91.1881 58.4007 91.3408 58.3857C91.4934 58.3709 91.6461 58.4173 91.7656 58.5148C91.8837 58.6123 91.9585 58.7528 91.9729 58.9056C92.1429 60.6451 94.0883 61.8072 95.7169 61.6833C97.3456 61.5595 99.016 60.396 100.051 58.6493C100.089 58.581 100.139 58.5208 100.2 58.4724C100.26 58.4241 100.329 58.3885 100.404 58.3677C100.479 58.3469 100.557 58.3415 100.635 58.3516C100.711 58.3618 100.786 58.3875 100.852 58.4269C100.918 58.4664 100.977 58.5189 101.023 58.5814C101.069 58.6439 101.101 58.7151 101.12 58.7905C101.137 58.8661 101.14 58.9443 101.127 59.0208C101.113 59.0972 101.085 59.1703 101.042 59.2353C99.8008 61.3334 97.8424 62.6784 95.8033 62.8353C95.6809 62.8411 95.5643 62.8454 95.4491 62.8454Z" fill="white"/>
<path d="M91.9875 50.1307C91.7629 50.1311 91.5368 50.1108 91.3151 50.0702C90.2955 49.8772 89.2717 49.0017 89.3221 47.8699C89.3711 46.774 90.2768 45.9777 92.0149 45.5025C93.7847 45.0201 95.5199 44.5607 97.2954 44.2627L97.4912 44.2295C99.7491 43.8465 103.951 43.1323 105.501 45.4953C106.231 46.6084 105.921 48.2054 104.811 49.0579C103.675 49.9305 102.153 49.7318 100.93 49.5734L100.508 49.5201C98.3149 49.2615 96.0944 49.3664 93.9359 49.8311L93.6896 49.8844C93.1338 50.0287 92.5621 50.1114 91.9875 50.1307ZM101.28 44.9769C99.9709 44.9769 98.5928 45.2116 97.6899 45.3643L97.4927 45.3988C95.7647 45.6868 94.064 46.139 92.3231 46.6142C91.4979 46.8388 90.5087 47.2492 90.4784 47.9203C90.4568 48.4055 91.0069 48.8375 91.5354 48.9383C92.1272 49.0492 92.7666 48.9095 93.4434 48.7598L93.6954 48.7051C95.9792 48.2136 98.3293 48.1021 100.649 48.3753L101.081 48.43C102.147 48.574 103.353 48.7267 104.105 48.142C104.726 47.6668 104.926 46.7236 104.537 46.126C103.954 45.2375 102.654 44.9769 101.28 44.9769Z" fill="white"/>
<path d="M124.272 49.1529C123.025 49.1529 121.627 48.9455 120.96 47.7748C120.78 47.4547 120.683 47.0944 120.679 46.7271C120.673 46.3599 120.761 45.9971 120.932 45.6724C121.449 44.6198 122.694 43.7572 123.956 43.5743C125.071 43.4077 126.197 43.3393 127.322 43.3699H127.836C130.153 43.354 133.4 43.8422 135.569 45.2692C136.885 46.1332 136.607 47.0404 136.433 47.3889C136.281 47.6693 136.051 47.8988 135.77 48.0484C134.284 48.8721 132.576 48.9211 131.069 48.9628L124.643 49.1471C124.524 49.1515 124.399 49.1529 124.272 49.1529ZM126.891 44.5276C125.967 44.5178 125.044 44.5823 124.129 44.7206C123.247 44.8487 122.319 45.4795 121.969 46.1879C121.88 46.3443 121.834 46.5213 121.834 46.7013C121.834 46.8814 121.88 47.0583 121.969 47.2147C122.401 47.9692 123.608 48.0326 124.616 48.0038L131.043 47.8209C132.418 47.7806 133.976 47.7374 135.219 47.0491C135.301 47.0086 135.37 46.9457 135.416 46.8676C135.524 46.6603 135.17 46.3852 134.948 46.2398C132.992 44.9524 129.908 44.5118 127.855 44.5305C127.67 44.5305 127.497 44.5305 127.33 44.5305L126.891 44.5276Z" fill="white"/>
<path d="M140.56 55.0738C140.435 55.0731 140.313 55.0309 140.212 54.9538C140.113 54.8768 140.041 54.7691 140.007 54.6472C139.976 54.5253 139.983 54.3961 140.032 54.2795C140.079 54.1627 140.164 54.0649 140.272 54.001C146.536 50.3347 153.467 47.6808 159.584 45.3394C161.031 44.785 162.672 44.1571 164.378 44.0434C166.362 43.9166 168.131 44.5459 169.229 45.7714C170.773 47.4878 170.695 50.4283 169.065 52.0613C167.435 53.6942 164.496 53.7835 162.768 52.2442C162.654 52.1422 162.585 51.9989 162.575 51.8459C162.566 51.6927 162.618 51.5423 162.721 51.4277C162.823 51.3132 162.967 51.2438 163.119 51.2349C163.272 51.226 163.423 51.2782 163.537 51.3802C164.824 52.5322 167.023 52.4703 168.244 51.2477C169.466 50.0251 169.522 47.8263 168.367 46.5403C167.517 45.5957 166.051 45.0917 164.446 45.1939C162.914 45.2918 161.422 45.8606 159.99 46.4107C153.915 48.7363 147.03 51.3715 140.848 54.9903C140.762 55.0431 140.663 55.0719 140.56 55.0738Z" fill="black"/>
<path d="M153.931 12.6689C154.16 11.3542 153.838 9.51815 152.504 9.44039C151.938 9.40727 151.42 9.74855 150.985 10.1129C149.253 11.5686 148.075 13.5761 147.647 15.798C147.238 13.0594 145.777 10.5888 143.572 8.91191C142.504 8.10551 140.727 7.63319 140.018 8.76791C139.756 9.18839 139.74 9.71255 139.765 10.2079C139.857 12.109 140.411 13.959 141.379 15.5978C130.288 9.98946 117.684 8.10911 105.438 10.2364C93.1936 12.3637 81.9611 18.3852 73.4113 27.4058C71.584 29.334 69.7768 31.7575 70.1973 34.3812C70.7373 37.7609 74.5965 39.4572 77.9819 39.9597C82.816 40.6797 87.7437 40.2074 92.5903 39.5796C107.863 37.6023 122.897 34.0892 137.464 29.0935C136.96 34.4215 136.935 40.8252 141.363 43.8218C144.243 45.7745 148.887 47.1972 151.65 45.0789C160.637 38.1885 155.259 25.8838 153.54 24.1615C150.071 20.6854 151.577 18.8709 152.11 17.873C152.991 16.2467 153.606 14.4898 153.931 12.6689Z" fill="#196164"/>
<path d="M129.547 116.239C129.047 116.239 128.352 115.879 127.077 114.974L126.995 114.915C123.922 112.745 121.748 110.529 121.031 108.834C120.972 108.694 120.97 108.536 121.028 108.393C121.085 108.252 121.196 108.139 121.337 108.08C121.478 108.02 121.637 108.019 121.778 108.077C121.919 108.133 122.033 108.245 122.092 108.385C122.718 109.865 124.799 111.955 127.659 113.975L127.745 114.035C129.017 114.938 129.421 115.072 129.542 115.085C130.667 114.924 131.72 112.309 132.035 110.936C133.013 106.681 133.174 104.6 133.416 101.432C133.5 100.343 133.595 99.1076 133.734 97.61C133.749 97.4572 133.824 97.3164 133.942 97.2185C134.06 97.1205 134.212 97.0736 134.365 97.088C134.518 97.1023 134.659 97.1767 134.757 97.2948C134.855 97.413 134.901 97.5652 134.886 97.718C134.742 99.2055 134.652 100.437 134.569 101.52C134.323 104.733 134.16 106.856 133.163 111.194C133.151 111.242 132.045 115.939 129.671 116.234C129.63 116.239 129.588 116.24 129.547 116.239Z" fill="#196164"/>
<path d="M149.854 158.252C149.799 158.252 149.746 158.244 149.692 158.229C149.619 158.208 149.551 158.172 149.492 158.124C149.432 158.076 149.383 158.017 149.347 157.95C149.311 157.884 149.288 157.81 149.279 157.734C149.272 157.657 149.279 157.581 149.301 157.509C150.143 154.619 150.381 151.87 150.775 147.315C150.968 145.096 151.207 142.336 151.574 138.946L151.587 138.822C151.77 137.122 151.96 135.366 152.84 133.827C153.753 132.231 155.71 130.884 157.683 131.395C157.759 131.411 157.831 131.442 157.893 131.487C157.957 131.532 158.01 131.589 158.052 131.655C158.092 131.722 158.119 131.795 158.131 131.871C158.142 131.948 158.138 132.025 158.118 132.1C158.099 132.177 158.064 132.246 158.017 132.308C157.969 132.37 157.91 132.42 157.843 132.459C157.777 132.496 157.702 132.521 157.624 132.529C157.548 132.538 157.47 132.531 157.395 132.509C155.995 132.148 154.515 133.213 153.841 134.399C153.081 135.728 152.904 137.364 152.732 138.946L152.719 139.07C152.353 142.448 152.114 145.201 151.923 147.422C151.523 152.047 151.281 154.839 150.407 157.839C150.372 157.957 150.299 158.062 150.199 158.137C150.1 158.212 149.979 158.252 149.854 158.252Z" fill="#196164"/>
<path d="M127.157 137.65C127.041 137.65 126.929 137.616 126.834 137.551C126.738 137.486 126.664 137.395 126.621 137.289C126.115 136.063 125.853 134.753 125.848 133.428C125.848 133.274 125.908 133.129 126.016 133.021C126.124 132.913 126.271 132.852 126.424 132.852C126.576 132.852 126.723 132.913 126.831 133.021C126.939 133.129 127 133.274 127 133.428C127.005 134.605 127.24 135.771 127.691 136.86C127.748 137.001 127.747 137.159 127.687 137.299C127.626 137.44 127.514 137.551 127.371 137.608C127.304 137.636 127.23 137.649 127.157 137.65Z" fill="#196164"/>
<path d="M131.191 142.014C131.008 142.014 130.526 142.014 128.706 140.272C128.596 140.167 128.531 140.022 128.528 139.869C128.526 139.716 128.583 139.568 128.688 139.457C128.795 139.348 128.94 139.284 129.093 139.28C129.246 139.277 129.394 139.335 129.503 139.44C130.14 140.05 130.984 140.757 131.254 140.867C131.407 140.875 131.551 140.945 131.653 141.058C131.755 141.172 131.807 141.322 131.799 141.474C131.79 141.629 131.722 141.771 131.609 141.873C131.493 141.976 131.344 142.027 131.191 142.019V142.014Z" fill="#196164"/>
<path d="M137.081 144.016C135.953 144.016 134.317 143.639 133.954 143.358C133.834 143.267 133.753 143.131 133.731 142.978C133.71 142.827 133.75 142.674 133.842 142.552C133.934 142.429 134.071 142.349 134.222 142.328C134.374 142.307 134.528 142.347 134.649 142.438C135.022 142.651 136.994 142.969 137.444 142.85C137.51 142.812 137.582 142.788 137.657 142.778C137.732 142.768 137.808 142.773 137.881 142.794C137.955 142.812 138.023 142.847 138.083 142.893C138.143 142.939 138.194 142.995 138.231 143.061C138.269 143.126 138.293 143.2 138.303 143.275C138.313 143.349 138.308 143.426 138.289 143.499C138.269 143.571 138.236 143.64 138.19 143.701C138.143 143.76 138.086 143.81 138.02 143.848C137.827 143.967 137.487 144.016 137.081 144.016Z" fill="#196164"/>
<path d="M141.408 143.115C141.255 143.115 141.109 143.053 141.001 142.945C140.893 142.837 140.832 142.692 140.832 142.539C140.832 142.385 140.893 142.239 141.001 142.131C141.109 142.023 141.255 141.963 141.408 141.963C142.117 141.963 143.531 141.043 143.783 140.523C143.849 140.385 143.968 140.28 144.112 140.229C144.256 140.179 144.415 140.187 144.553 140.254C144.69 140.32 144.796 140.438 144.847 140.583C144.897 140.727 144.887 140.886 144.821 141.024C144.359 141.98 142.508 143.115 141.408 143.115Z" fill="#196164"/>
<path d="M146.287 138.952C146.178 138.95 146.07 138.919 145.976 138.858C145.884 138.799 145.811 138.713 145.765 138.612C145.72 138.513 145.704 138.4 145.72 138.291C145.736 138.182 145.783 138.079 145.855 137.997C146.214 137.585 146.41 136.269 146.25 135.326C146.224 135.175 146.26 135.019 146.348 134.895C146.436 134.77 146.571 134.685 146.721 134.661C146.872 134.635 147.026 134.669 147.151 134.757C147.277 134.847 147.36 134.98 147.386 135.132C147.55 136.098 147.454 137.917 146.724 138.753C146.67 138.815 146.603 138.866 146.528 138.9C146.453 138.933 146.371 138.952 146.287 138.952Z" fill="#196164"/>
<path d="M146.556 132.524C146.422 132.524 146.293 132.478 146.19 132.391C146.087 132.306 146.016 132.187 145.992 132.054L145.516 129.544C145.488 129.397 145.518 129.243 145.601 129.118C145.685 128.991 145.815 128.903 145.961 128.872C146.108 128.84 146.262 128.867 146.391 128.948C146.517 129.029 146.608 129.157 146.643 129.302L147.075 131.089C147.103 131.209 147.093 131.334 147.046 131.446L147.121 131.841C147.149 131.992 147.116 132.146 147.03 132.273C146.945 132.4 146.811 132.486 146.661 132.514C146.627 132.521 146.592 132.525 146.556 132.524Z" fill="#196164"/>
<path d="M137.029 135.478C136.42 135.805 135.547 137.103 136.453 138.214C136.885 138.75 137.722 138.854 138.351 138.569C139.503 138.042 139.739 136.135 138.653 135.474L137.029 135.478Z" fill="black"/>
<path d="M137.626 139.306C137.32 139.313 137.018 139.251 136.739 139.127C136.461 139.002 136.213 138.818 136.013 138.586C135.797 138.331 135.64 138.03 135.558 137.706C135.474 137.382 135.466 137.042 135.533 136.714C135.607 136.357 135.754 136.017 135.964 135.717C136.176 135.418 136.445 135.166 136.757 134.974C136.841 134.93 136.935 134.905 137.03 134.905H138.66C138.766 134.905 138.87 134.936 138.959 134.99C139.62 135.392 139.984 136.142 139.933 137.016C139.876 137.938 139.357 138.756 138.595 139.1C138.291 139.237 137.96 139.307 137.626 139.306ZM137.194 136.053C136.923 136.28 136.734 136.59 136.658 136.934C136.624 137.097 136.628 137.264 136.67 137.424C136.711 137.582 136.791 137.731 136.9 137.853C137.149 138.158 137.682 138.243 138.112 138.047C138.485 137.877 138.746 137.444 138.776 136.943C138.795 136.782 138.778 136.617 138.724 136.463C138.671 136.309 138.583 136.17 138.468 136.053H137.194Z" fill="black"/>
<path d="M133.374 6.64691C133.263 6.64677 133.154 6.61423 133.06 6.55332L127.968 3.24132C127.902 3.20157 127.844 3.14887 127.798 3.08623C127.752 3.02359 127.721 2.95231 127.702 2.87685C127.685 2.80125 127.683 2.72291 127.696 2.64659C127.709 2.57013 127.738 2.49727 127.781 2.43232C127.823 2.36723 127.878 2.31151 127.942 2.26816C128.007 2.22496 128.079 2.19516 128.155 2.18061C128.232 2.16607 128.31 2.16707 128.386 2.18363C128.462 2.20005 128.533 2.23159 128.596 2.27651L133.688 5.58851C133.793 5.65605 133.872 5.75555 133.915 5.87234C133.959 5.98898 133.963 6.11656 133.928 6.23594C133.892 6.35517 133.82 6.45986 133.72 6.5343C133.62 6.60861 133.499 6.64864 133.374 6.64836V6.64691Z" fill="black"/>
<path d="M137.779 3.70773C137.678 3.70788 137.579 3.68138 137.491 3.63084C137.403 3.58029 137.33 3.50743 137.279 3.41973L135.819 0.865173C135.782 0.799509 135.757 0.727075 135.747 0.652051C135.737 0.576883 135.743 0.500708 135.762 0.427556C135.782 0.354404 135.816 0.28586 135.862 0.225812C135.908 0.165764 135.966 0.115364 136.031 0.0774923C136.097 0.0396203 136.169 0.0151393 136.244 0.00534727C136.319 -0.00444473 136.395 0.000594816 136.469 0.0201788C136.542 0.0399068 136.611 0.0737492 136.67 0.119829C136.731 0.166053 136.781 0.223508 136.818 0.289172L138.279 2.84373C138.316 2.9094 138.341 2.98197 138.351 3.057C138.359 3.13202 138.355 3.20834 138.335 3.28135C138.315 3.35436 138.28 3.42276 138.234 3.48252C138.188 3.54242 138.13 3.59253 138.064 3.62997C137.978 3.6808 137.88 3.70759 137.779 3.70773Z" fill="black"/>
<path d="M157.824 18.3194C157.719 18.3192 157.616 18.2901 157.526 18.2351C157.436 18.1803 157.362 18.1015 157.313 18.0078C157.266 17.914 157.244 17.8088 157.251 17.7035C157.259 17.5982 157.295 17.497 157.355 17.4107C160.294 13.2566 162.725 8.76599 164.595 4.03458C164.653 3.89346 164.762 3.78056 164.902 3.72066C165.042 3.66061 165.2 3.65816 165.341 3.71418C165.484 3.77005 165.596 3.87963 165.658 4.01903C165.719 4.15827 165.721 4.31609 165.667 4.45793C163.762 9.27517 161.288 13.847 158.295 18.076C158.242 18.1513 158.172 18.2128 158.089 18.2552C158.007 18.2975 157.917 18.3195 157.824 18.3194Z" fill="black"/>
<path d="M84.0321 30.4225C82.8168 30.4225 81.4992 29.9703 81.096 28.9105C80.7201 27.927 81.2688 26.8571 82.6382 25.8995C84.2095 24.8187 85.967 24.0377 87.8222 23.5955C87.8968 23.5744 87.9748 23.5685 88.0522 23.5783C88.1285 23.5881 88.2019 23.6133 88.2696 23.6525C88.3358 23.6915 88.3949 23.7438 88.441 23.806C88.487 23.8681 88.5202 23.9389 88.5389 24.0142C88.5576 24.0895 88.559 24.1679 88.5475 24.2442C88.5346 24.3206 88.5058 24.3938 88.464 24.4592C88.4237 24.5246 88.369 24.5807 88.3042 24.6246C88.2408 24.6684 88.1688 24.6989 88.0925 24.7143C86.377 25.1232 84.7514 25.8452 83.2977 26.8441C82.9708 27.0716 81.9283 27.8636 82.1702 28.5015C82.3545 28.9839 83.2632 29.3223 84.2395 29.2647C84.7233 29.2277 85.2044 29.1595 85.6795 29.0603C86.2562 28.9374 86.8417 28.8604 87.4305 28.8299C87.5833 28.8254 87.7315 28.882 87.8426 28.9868C87.9538 29.0918 88.019 29.2365 88.0234 29.3893C88.0277 29.5421 87.9709 29.6903 87.8661 29.8014C87.7611 29.9126 87.6164 29.9774 87.4636 29.9819C86.9343 30.011 86.4081 30.0812 85.8897 30.1921C85.3671 30.301 84.8379 30.3754 84.3057 30.4153C84.215 30.4153 84.1243 30.4225 84.0321 30.4225Z" fill="black"/>
<path d="M105.798 31.6365C105.091 31.6499 104.402 31.4144 103.849 30.9712C103.598 30.7569 103.395 30.4925 103.252 30.1949C103.11 29.8972 103.031 29.5731 103.021 29.2432C103.011 28.9196 103.07 28.5975 103.191 28.2975C103.313 27.9975 103.496 27.7262 103.728 27.5008C103.782 27.4484 103.847 27.4072 103.918 27.3795C103.988 27.3519 104.063 27.3385 104.14 27.3399C104.214 27.3414 104.289 27.3578 104.358 27.3882C104.428 27.4184 104.491 27.4622 104.543 27.5166C104.596 27.5712 104.636 27.6356 104.665 27.7061C104.692 27.7766 104.705 27.8519 104.704 27.9275C104.703 28.0032 104.687 28.0778 104.656 28.1472C104.625 28.2166 104.582 28.2793 104.527 28.3317C104.409 28.4447 104.315 28.5818 104.253 28.7339C104.191 28.8858 104.164 29.0492 104.17 29.213C104.176 29.3814 104.216 29.5467 104.289 29.6985C104.363 29.8502 104.466 29.9851 104.595 30.0942C105.189 30.6011 106.302 30.6242 106.929 30.1432C107.051 30.0569 107.201 30.0209 107.348 30.0431C107.496 30.0651 107.629 30.1436 107.719 30.2619C107.81 30.3801 107.852 30.5288 107.836 30.677C107.819 30.8252 107.745 30.9611 107.63 31.0562C107.099 31.4437 106.456 31.6474 105.798 31.6365Z" fill="black"/>
<path d="M120.507 20.426C119.451 20.426 118.375 19.994 117.719 19.3014C117.483 19.0654 117.301 18.7788 117.19 18.4631C117.079 18.1476 117.04 17.811 117.076 17.4783C117.195 16.4387 118.109 15.5214 119.3 15.2449C120.308 15.0131 121.339 15.2118 122.168 15.3716C122.246 15.3833 122.32 15.4103 122.384 15.4511C122.451 15.4919 122.508 15.5454 122.553 15.6088C122.597 15.6721 122.629 15.7439 122.645 15.8196C122.661 15.8955 122.662 15.9737 122.648 16.0499C122.633 16.126 122.603 16.1985 122.56 16.2627C122.517 16.3271 122.461 16.3819 122.396 16.4241C122.331 16.4664 122.258 16.4951 122.181 16.5085C122.105 16.5219 122.027 16.5196 121.951 16.502C121.191 16.358 120.328 16.191 119.56 16.3681C118.948 16.5121 118.292 16.9815 118.221 17.6094C118.205 17.7751 118.227 17.9424 118.285 18.0987C118.342 18.2548 118.436 18.3958 118.555 18.5108C119.02 19.0019 119.884 19.3143 120.658 19.2711C121.241 19.2197 121.82 19.1205 122.386 18.9745C123.237 18.7815 124.114 18.5814 125.043 18.6649C125.119 18.6718 125.192 18.6935 125.26 18.7288C125.326 18.7643 125.387 18.8124 125.434 18.8708C125.483 18.9291 125.521 18.9965 125.542 19.0691C125.565 19.1415 125.574 19.2179 125.567 19.2935C125.56 19.3691 125.538 19.4426 125.502 19.5099C125.467 19.5771 125.418 19.6367 125.361 19.6854C125.302 19.7339 125.234 19.7707 125.162 19.7931C125.09 19.8157 125.014 19.8238 124.937 19.8169C124.194 19.7492 123.44 19.9206 122.642 20.1049C122.014 20.2656 121.373 20.3735 120.727 20.4275C120.651 20.4246 120.576 20.426 120.507 20.426Z" fill="black"/>
<path d="M132.066 162.912C131.928 162.913 131.794 162.863 131.69 162.773C131.585 162.683 131.516 162.557 131.496 162.421C131.475 162.284 131.504 162.144 131.579 162.028C131.652 161.911 131.766 161.825 131.899 161.784C139.426 159.489 141.287 159.142 153.602 157.106C153.754 157.081 153.908 157.117 154.033 157.206C154.157 157.296 154.24 157.43 154.266 157.581C154.291 157.732 154.255 157.886 154.165 158.01C154.078 158.135 153.942 158.219 153.791 158.243C141.542 160.259 139.691 160.612 132.234 162.887C132.18 162.905 132.123 162.913 132.066 162.912Z" fill="#196164"/>
<path d="M49.2371 175.423C49.0843 175.423 48.9379 175.362 48.8298 175.254C48.7218 175.146 48.6611 175.001 48.6611 174.847C48.6611 174.694 48.7218 174.549 48.8298 174.441C48.9379 174.333 49.0843 174.271 49.2371 174.271C56.9599 174.157 61.2439 174.112 65.3853 174.068C69.5267 174.023 73.8093 173.979 81.5306 173.865H81.5392C81.692 173.865 81.8389 173.924 81.9477 174.03C82.0566 174.138 82.1184 174.284 82.1195 174.436C82.1207 174.591 82.0611 174.737 81.9538 174.845C81.8467 174.955 81.7006 175.017 81.5479 175.017C73.8237 175.131 69.5397 175.177 65.3983 175.22C61.2568 175.263 56.9757 175.309 49.253 175.423H49.2371Z" fill="black"/>
<path d="M89.5463 174.984C89.3029 174.984 89.0423 174.973 88.7701 174.962C88.1668 174.925 87.56 174.93 86.9562 174.976C86.8806 174.984 86.8041 174.975 86.7314 174.953C86.6587 174.932 86.5911 174.894 86.5324 174.847C86.4736 174.798 86.4251 174.739 86.3894 174.673C86.3535 174.605 86.3314 174.531 86.324 174.457C86.3167 174.38 86.3242 174.304 86.3463 174.23C86.3685 174.158 86.4047 174.091 86.453 174.032C86.5013 173.973 86.5606 173.925 86.6277 173.889C86.6947 173.853 86.7681 173.832 86.8439 173.824C87.4998 173.771 88.1581 173.765 88.8148 173.806C89.1676 173.82 89.5002 173.833 89.7666 173.821C89.9193 173.814 90.069 173.869 90.1814 173.973C90.2937 174.076 90.3599 174.22 90.3671 174.373C90.3729 174.526 90.3182 174.675 90.2145 174.788C90.1108 174.9 89.9668 174.966 89.8141 174.973C89.7277 174.982 89.6385 174.984 89.5463 174.984Z" fill="black"/>
<path d="M93.7327 175.008C93.138 175.008 92.5807 175.008 92.0824 174.983C91.9298 174.978 91.7858 174.911 91.6821 174.799C91.577 174.688 91.5223 174.54 91.5266 174.387C91.5324 174.233 91.5986 174.089 91.7095 173.985C91.8218 173.88 91.9701 173.826 92.1228 173.831C94.5232 173.916 98.2514 173.766 101.539 173.635C103.058 173.575 104.492 173.517 105.627 173.491C105.78 173.487 105.928 173.545 106.039 173.65C106.15 173.755 106.213 173.9 106.217 174.053C106.22 174.206 106.164 174.354 106.058 174.465C105.953 174.574 105.807 174.639 105.654 174.643C104.528 174.671 103.098 174.727 101.585 174.787C98.9541 174.891 96.0425 175.008 93.7327 175.008Z" fill="black"/>
<path d="M8.10368 162.283C8.34992 164.921 10.9621 171.696 14.2957 172.569C17.6293 173.441 18.2355 172.011 15.4477 170.39C14.5837 169.887 11.3725 167.972 10.6035 166.339C9.83456 164.706 7.65296 157.431 8.10368 162.283Z" fill="white"/>
<path d="M112.914 174.903C112.761 174.906 112.614 174.848 112.505 174.741C112.394 174.635 112.331 174.489 112.329 174.337C112.326 174.184 112.385 174.036 112.49 173.926C112.597 173.817 112.742 173.754 112.895 173.751C135.019 173.031 152.783 172.691 170.484 172.656C170.636 172.656 170.783 172.718 170.891 172.826C170.999 172.934 171.06 173.08 171.06 173.232C171.06 173.386 170.999 173.532 170.891 173.64C170.783 173.748 170.636 173.808 170.484 173.808C152.793 173.843 135.042 174.181 112.931 174.903H112.914Z" fill="black"/>
<path d="M174.144 173.997C174.015 173.996 173.89 173.954 173.789 173.875C173.689 173.795 173.617 173.685 173.585 173.559C173.555 173.435 173.566 173.304 173.618 173.186C173.67 173.07 173.761 172.972 173.873 172.913C174.362 172.654 174.931 172.589 175.466 172.731C175.608 172.774 175.729 172.872 175.801 173.002C175.873 173.133 175.892 173.287 175.853 173.431C175.814 173.575 175.72 173.699 175.592 173.775C175.464 173.852 175.311 173.876 175.166 173.843C174.914 173.778 174.646 173.808 174.414 173.929C174.331 173.973 174.239 173.996 174.144 173.997Z" fill="black"/>
<path d="M142.776 188.083C143.064 189.049 143.352 190.045 143.261 191.048C143.117 192.714 141.965 194.094 140.86 195.354C139.171 197.292 137.608 199.828 135.918 201.766C135.299 202.476 134.866 203.128 133.511 201.933C131.152 199.851 128.773 197.052 126.664 194.717C126.103 194.1 125.543 193.454 125.238 192.68C124.79 191.542 125.546 189.784 125.697 188.571C126.329 183.501 126.512 178.99 126.193 173.883C125.926 169.634 125.202 168.267 124.596 167.766C125.779 167.697 132.215 167.087 132.883 167.071C134.274 167.038 135.583 166.285 136.394 167.75C137.269 169.334 138.122 172.38 138.634 174.108L140.564 180.615L142.776 188.083Z" fill="#196164"/>
<path d="M125.519 185.421C125.39 185.421 125.264 185.377 125.162 185.297C125.061 185.216 124.989 185.104 124.959 184.977C124.93 184.85 124.943 184.718 124.999 184.6C125.054 184.483 125.148 184.388 125.263 184.329C130.122 181.916 135.209 179.989 140.448 178.579C140.523 178.558 140.6 178.549 140.677 178.558C140.753 178.566 140.828 178.589 140.896 178.627C140.963 178.664 141.022 178.714 141.07 178.775C141.119 178.837 141.153 178.906 141.174 178.981C141.194 179.056 141.198 179.134 141.188 179.21C141.176 179.286 141.151 179.36 141.112 179.426C141.071 179.492 141.019 179.55 140.956 179.596C140.894 179.642 140.824 179.674 140.747 179.691C135.582 181.082 130.567 182.98 125.776 185.359C125.696 185.4 125.609 185.421 125.519 185.421Z" fill="black"/>
<path d="M125.059 190.227C124.939 190.226 124.824 190.19 124.726 190.121C124.629 190.052 124.556 189.954 124.516 189.841C124.477 189.729 124.473 189.607 124.506 189.493C124.539 189.378 124.606 189.275 124.699 189.202C127.243 187.16 130.238 186.034 133.608 184.882C136.344 183.942 139.119 183.024 141.873 182.155C141.945 182.132 142.022 182.123 142.097 182.129C142.173 182.136 142.246 182.157 142.313 182.192C142.38 182.227 142.439 182.274 142.488 182.333C142.537 182.391 142.573 182.457 142.596 182.53C142.619 182.602 142.628 182.677 142.621 182.754C142.615 182.829 142.593 182.902 142.559 182.97C142.524 183.036 142.475 183.096 142.418 183.144C142.36 183.193 142.293 183.23 142.221 183.253C139.476 184.117 136.704 185.033 133.982 185.971C130.718 187.095 127.819 188.182 125.419 190.108C125.316 190.187 125.19 190.229 125.059 190.227Z" fill="black"/>
</svg>
