<svg width="190" height="184" viewBox="0 0 190 184" fill="none" xmlns="http://www.w3.org/2000/svg">
<path d="M39.7964 33.6822C58.29 20.5916 81.6286 14.6777 104.182 16.863C110.695 17.4928 117.176 18.7784 123.275 21.1528C128.795 23.3015 133.95 26.321 138.775 29.7569C151.248 38.6531 161.534 50.269 168.857 63.7262C172.628 70.6757 175.02 78.4532 175.163 86.2825C175.21 88.9009 174.24 87.1701 173.887 86.5951C172.018 83.5451 169.086 82.1116 165.562 81.9424C162.399 81.7899 159.083 84.2207 157.327 87.6764C155.895 90.4854 155.722 88.2864 155.452 87.4369C153.904 82.6301 148.625 79.0601 143.438 79.4307C138.252 79.8013 133.412 83.3484 131.493 88.2086C130.592 90.4961 130.247 88.7545 130.064 88.0667C128.774 83.2188 124.222 79.2217 119.148 79.0311C113.843 78.8329 108.275 82.7064 107.381 87.8761C107.095 89.5262 106.533 88.419 106.344 87.9265C104.406 82.8696 99.2149 79.054 93.7783 79.3117C88.607 79.5573 84.9486 84.4403 83.297 89.0275C82.3332 91.7039 81.6729 90.0508 81.2382 89.1541C79.3411 85.2394 76.0212 79.205 71.1107 78.6026C65.4896 77.9133 59.6946 81.4726 57.4833 86.6287C57.4429 86.7222 57.374 86.8005 57.2863 86.8525C57.1987 86.9045 57.0969 86.9276 56.9955 86.9183C56.8939 86.909 56.798 86.868 56.7213 86.8008C56.6446 86.7337 56.591 86.6441 56.5683 86.5448C55.3605 81.3141 49.8354 77.3338 44.318 77.3811C38.4818 77.4314 33.1519 81.16 29.9433 86.0736C29.8816 86.1645 29.7963 86.2371 29.6966 86.2834C29.597 86.3299 29.4868 86.3485 29.3773 86.3374C29.2679 86.3264 29.1636 86.286 29.0753 86.2204C28.987 86.1549 28.9181 86.0667 28.8758 85.9653C26.7927 80.791 21.045 77.2423 15.4696 77.8965C12.9396 78.1924 10.5591 79.3514 8.65738 81.0304C7.68413 81.8908 6.83699 82.8842 6.14113 83.9813L6.12131 84.0118C6.05284 84.1237 5.94777 84.2085 5.82378 84.2517C5.69995 84.295 5.56499 84.2942 5.44162 84.2492C5.3184 84.2044 5.21439 84.1182 5.14729 84.0055C5.08019 83.8928 5.05427 83.7603 5.07363 83.6305C5.21088 82.7521 5.35118 81.953 5.45946 81.584C6.06138 79.5313 6.74046 77.5026 7.49686 75.4977C9.02598 71.4415 10.8496 67.5026 12.9533 63.7125C17.1716 56.1119 22.4525 49.1518 28.6364 43.0427C32.0963 39.625 35.8286 36.4945 39.7964 33.6822Z" fill="#196164"/>
<path d="M50.2617 49.117C50.1458 49.1171 50.0323 49.0845 49.9344 49.0224C49.8365 48.9605 49.7581 48.872 49.7087 48.7673C49.6593 48.6623 49.6407 48.5457 49.6552 48.4307C49.6697 48.3157 49.7166 48.2073 49.7904 48.1181C59.8554 35.9181 68.8956 28.8146 83.1315 21.9171C83.2771 21.8464 83.4447 21.8367 83.5977 21.8896C83.7505 21.9427 83.876 22.0543 83.9466 22.1999C84.0172 22.3456 84.027 22.5132 83.9741 22.6661C83.921 22.8189 83.8094 22.9444 83.6637 23.0151C69.6078 29.8272 60.6759 36.8407 50.7314 48.8943C50.6743 48.9637 50.6027 49.0197 50.5214 49.0581C50.4402 49.0967 50.3515 49.1166 50.2617 49.117Z" fill="white"/>
<path d="M31.1546 75.5086C31.0511 75.5086 30.9492 75.4822 30.8588 75.4319C30.7682 75.3815 30.6919 75.3091 30.6372 75.2213C30.5824 75.1334 30.551 75.0331 30.5457 74.9295C30.5405 74.8261 30.5616 74.7232 30.6072 74.6302C34.2855 67.1357 38.8232 60.0946 44.1293 53.6492C44.1798 53.5858 44.2423 53.5329 44.3134 53.4938C44.3845 53.4548 44.4625 53.4302 44.5432 53.4219C44.6237 53.4133 44.7053 53.4209 44.7829 53.4443C44.8606 53.4676 44.9328 53.5063 44.9954 53.5579C45.0579 53.6094 45.1094 53.673 45.1473 53.7448C45.1849 53.8165 45.208 53.8952 45.2148 53.9759C45.2218 54.0567 45.2127 54.1381 45.1878 54.2153C45.163 54.2925 45.123 54.3638 45.0702 54.4255C39.8253 60.7972 35.3391 67.7573 31.7021 75.1655C31.6521 75.2682 31.5743 75.3549 31.4775 75.4154C31.3808 75.4761 31.2688 75.5084 31.1546 75.5086Z" fill="white"/>
<path d="M88.4172 51.8878C88.3964 51.8893 88.3755 51.8893 88.3547 51.8878C88.275 51.8797 88.1976 51.8561 88.127 51.8182C88.0566 51.7803 87.994 51.7289 87.9434 51.6668C87.8926 51.6049 87.8547 51.5334 87.8316 51.4568C87.8085 51.3801 87.8007 51.2996 87.8088 51.2198C87.8576 50.7333 87.9048 50.2652 87.9491 49.8107C88.6201 43.0443 88.9891 39.3172 93.5412 23.1964C93.5855 23.0407 93.6892 22.9088 93.831 22.83C93.9713 22.751 94.139 22.7315 94.2946 22.7755C94.4501 22.8196 94.5828 22.9238 94.6606 23.065C94.7399 23.2063 94.7597 23.3732 94.7155 23.5289C90.1954 39.5353 89.8263 43.2258 89.163 49.9236C89.1187 50.3811 89.0715 50.8477 89.0227 51.3357C89.0083 51.4865 88.9383 51.6265 88.8264 51.7286C88.7145 51.8306 88.5687 51.8873 88.4172 51.8878Z" fill="white"/>
<path d="M130.046 67.5526C129.917 67.5527 129.792 67.5118 129.686 67.4359C129.583 67.3601 129.505 67.253 129.465 67.1301C126.79 58.8509 121.23 41.6199 104.836 23.6219C104.779 23.5635 104.733 23.4939 104.702 23.4174C104.672 23.3408 104.657 23.2589 104.66 23.1766C104.661 23.0942 104.679 23.0131 104.714 22.9381C104.748 22.8632 104.797 22.7959 104.858 22.7404C104.919 22.6849 104.99 22.6424 105.068 22.6154C105.146 22.5882 105.228 22.5773 105.311 22.583C105.393 22.5887 105.474 22.611 105.547 22.6485C105.62 22.6861 105.684 22.7381 105.738 22.8014C122.302 40.9947 127.925 58.3934 130.627 66.755C130.656 66.8466 130.664 66.9438 130.649 67.0388C130.633 67.1339 130.597 67.2239 130.54 67.3017C130.484 67.3795 130.409 67.4428 130.324 67.4864C130.237 67.53 130.142 67.5527 130.046 67.5526Z" fill="white"/>
<path d="M125.385 29.5523C125.304 29.5523 125.225 29.5365 125.15 29.5057C125.075 29.4747 125.008 29.4294 124.952 29.3724C122.01 26.4107 118.547 24.0193 114.734 22.3193C114.589 22.2514 114.476 22.1294 114.421 21.9793C114.365 21.8293 114.371 21.6634 114.435 21.5174C114.501 21.3713 114.621 21.2568 114.771 21.1985C114.92 21.1403 115.086 21.143 115.233 21.206C119.181 22.9674 122.769 25.4445 125.816 28.5123C125.902 28.5978 125.96 28.7066 125.982 28.8248C126.005 28.9431 125.993 29.0656 125.947 29.1769C125.9 29.2881 125.822 29.3832 125.722 29.45C125.621 29.5168 125.504 29.5525 125.383 29.5523H125.385Z" fill="white"/>
<path d="M157.879 77.9847C157.751 77.9846 157.628 77.9445 157.524 77.8698C157.42 77.795 157.342 77.6897 157.301 77.5684C152.228 62.4221 145.153 45.5556 131.16 35.3076C131.029 35.212 130.942 35.0683 130.917 34.9084C130.893 34.7482 130.932 34.5851 131.027 34.4544C131.123 34.3237 131.266 34.2365 131.427 34.2117C131.587 34.187 131.75 34.2268 131.881 34.3225C138.254 38.9905 143.637 45.2689 148.342 53.5192C151.965 59.8738 155.18 67.3967 158.459 77.1811C158.489 77.2729 158.498 77.3706 158.483 77.4664C158.469 77.5622 158.431 77.6531 158.375 77.7316C158.318 77.8101 158.244 77.874 158.158 77.9179C158.071 77.962 157.975 77.9849 157.879 77.9847Z" fill="white"/>
<path d="M25.0911 14.4932C23.4669 19.5425 24.1425 25.066 25.6279 30.158C26.6023 33.4962 27.9413 36.7902 30.1098 39.5047C32.2784 42.2192 35.333 44.3542 38.7734 44.8529C44.364 45.6642 50.8209 41.7343 53.4256 36.7231C56.0303 31.712 55.7954 26.1579 54.8545 20.5871C54.0691 15.9374 51.957 11.0147 48.7179 7.59259C45.9942 4.71948 41.7029 2.76749 37.7028 3.51626C36.1778 3.80296 34.5003 4.75761 33.0683 5.36761C31.2841 6.14795 29.6909 7.3068 28.3988 8.76379C26.9043 10.4189 25.777 12.3715 25.0911 14.4932Z" fill="#D0FF45"/>
<path d="M44.5977 42.6521C44.473 42.6518 44.3512 42.6134 44.249 42.5417C44.1468 42.4702 44.069 42.3689 44.026 42.2518C43.9832 42.1345 43.9772 42.007 44.0091 41.8864C44.041 41.7658 44.1091 41.6578 44.2043 41.577C47.666 38.6581 48.6375 33.8788 49.066 30.5375C49.4183 27.7925 49.1346 24.7761 48.2013 21.3006C47.1765 17.4881 45.8528 13.2059 43.0941 10.6622C40.3354 8.11848 37.2503 5.87063 32.7027 8.81388C32.6355 8.85826 32.56 8.88891 32.4809 8.90401C32.4017 8.91896 32.3203 8.91819 32.2414 8.90172C32.1626 8.8851 32.0877 8.85307 32.0212 8.80732C31.9549 8.76173 31.8982 8.70332 31.8544 8.63561C31.8106 8.5679 31.7809 8.49226 31.7666 8.41296C31.7522 8.33351 31.7537 8.25222 31.7711 8.17353C31.7885 8.09469 31.8213 8.02027 31.8675 7.95424C31.9139 7.88836 31.9727 7.83209 32.0409 7.78908C34.4123 6.25493 36.6449 5.83098 38.8638 6.49131C40.8249 7.07538 42.4566 8.40976 43.9267 9.76396C46.9264 12.5288 48.3172 17.0047 49.3863 20.9834C50.3607 24.6159 50.6551 27.791 50.283 30.6931C49.8255 34.2356 48.7839 39.3154 44.9958 42.5088C44.8849 42.6033 44.7434 42.6542 44.5977 42.6521Z" fill="black"/>
<path d="M38.6895 33.9003C37.0852 33.9003 35.6395 33.2537 34.7245 32.1084C34.6744 32.0456 34.6372 31.9736 34.615 31.8965C34.5927 31.8193 34.586 31.7385 34.595 31.6587C34.6038 31.579 34.6285 31.5016 34.6674 31.4313C34.7062 31.361 34.7585 31.2991 34.8213 31.2491C34.8841 31.1991 34.9561 31.1619 35.0333 31.1396C35.1104 31.1173 35.1913 31.1105 35.271 31.1195C35.3508 31.1285 35.4281 31.1532 35.4984 31.1919C35.5687 31.2308 35.6306 31.2831 35.6806 31.3459C36.4431 32.3128 37.7623 32.8008 39.1973 32.6513C40.6323 32.5019 41.8172 31.7516 42.3678 30.6475C42.9183 29.5434 42.8054 28.1434 42.0628 26.9082C41.3201 25.6729 40.1397 24.9135 38.906 24.8815C37.0242 24.8372 35.2979 26.1289 34.1602 27.108C34.0869 27.1709 33.9996 27.2156 33.9057 27.2384C33.8117 27.2609 33.7137 27.2611 33.6197 27.2384C33.5258 27.2158 33.4386 27.1711 33.3652 27.1081C33.2919 27.0451 33.2345 26.9657 33.1979 26.8762L30.825 21.0812C30.6725 20.7106 30.3904 20.0137 30.7152 19.3671C30.9882 18.8165 31.557 18.5924 31.8956 18.4521C34.3463 17.4837 36.8396 16.5336 39.3086 15.6278C39.3838 15.6002 39.4637 15.5875 39.5438 15.5909C39.6238 15.5941 39.7025 15.613 39.7751 15.6467C39.8478 15.6802 39.9133 15.728 39.9676 15.7868C40.0218 15.8457 40.0641 15.9148 40.0917 15.99C40.1193 16.0651 40.132 16.145 40.1286 16.2251C40.1254 16.3052 40.1065 16.3837 40.0728 16.4565C40.0392 16.5292 39.9915 16.5946 39.9326 16.6489C39.8738 16.7032 39.8047 16.7454 39.7295 16.773C37.2697 17.6758 34.7855 18.6213 32.3439 19.5867C32.1792 19.6522 31.8727 19.7727 31.8071 19.9054C31.7294 20.0579 31.888 20.4483 31.9596 20.6145L34.0184 25.647C35.2811 24.6527 36.9982 23.6142 38.9426 23.6645C40.5957 23.7087 42.1558 24.6863 43.1135 26.2829C44.0712 27.8796 44.2039 29.7142 43.4642 31.195C42.7246 32.6757 41.1767 33.6731 39.3284 33.8668C39.1162 33.8893 38.903 33.9006 38.6895 33.9003Z" fill="black"/>
<path d="M41.6787 6.96434C41.5312 6.96495 41.3885 6.91203 41.277 6.81535C41.1655 6.71881 41.0928 6.58507 41.0724 6.43897C41.0518 6.29288 41.085 6.14435 41.1657 6.02082C41.2464 5.8973 41.369 5.80732 41.511 5.76721L44.2194 4.99251C44.3737 4.95164 44.5381 4.97284 44.677 5.05168C44.8159 5.13053 44.9183 5.26076 44.9622 5.41433C45.0061 5.56789 44.9881 5.73259 44.912 5.87305C44.8358 6.0135 44.7075 6.11842 44.5548 6.16524L41.8526 6.93994C41.7961 6.95702 41.7376 6.96525 41.6787 6.96434Z" fill="black"/>
<path d="M43.51 10.8239C43.3801 10.8242 43.2534 10.783 43.1485 10.7063C43.0435 10.6297 42.9659 10.5215 42.9267 10.3976C42.8877 10.2736 42.8891 10.1405 42.9308 10.0174C42.9728 9.89452 43.0527 9.78808 43.1593 9.71366C43.9416 9.16618 46.2093 8.55466 47.9737 8.13681C48.0516 8.1182 48.1326 8.11515 48.2118 8.12766C48.2911 8.14031 48.3669 8.16853 48.4353 8.21046C48.5036 8.2524 48.563 8.30746 48.6101 8.37242C48.6571 8.43739 48.6909 8.51089 48.7095 8.58897C48.7281 8.6669 48.7312 8.74787 48.7185 8.82702C48.7059 8.90632 48.6778 8.98211 48.6359 9.05043C48.5938 9.11891 48.5389 9.17823 48.4739 9.22535C48.4089 9.27232 48.3353 9.30618 48.2574 9.32478C46.0126 9.85548 44.3274 10.3923 43.8623 10.7125C43.7592 10.7851 43.6362 10.824 43.51 10.8239Z" fill="black"/>
<path d="M48.8221 16.5716C48.6806 16.5714 48.5435 16.522 48.4343 16.4317C48.3252 16.3416 48.2508 16.2163 48.224 16.0773C48.1971 15.9383 48.2194 15.7943 48.2871 15.67C48.3548 15.5456 48.4635 15.4487 48.5949 15.3958C48.9517 15.254 49.7798 15.0908 51.0043 14.8636L51.3795 14.7934C51.4589 14.7767 51.541 14.7759 51.6208 14.7913C51.7005 14.8067 51.7763 14.8378 51.8439 14.883C51.9114 14.9279 51.9694 14.986 52.0142 15.0539C52.0589 15.1216 52.0898 15.1976 52.1048 15.2775C52.1199 15.3572 52.1188 15.4393 52.1017 15.5186C52.0847 15.598 52.0519 15.6732 52.0052 15.7398C51.9587 15.8063 51.8994 15.8629 51.8307 15.9062C51.762 15.9495 51.6853 15.9788 51.6052 15.9921L51.2285 16.0638C50.466 16.2056 49.3192 16.4206 49.0493 16.5213C48.9773 16.5521 48.9003 16.5691 48.8221 16.5716Z" fill="black"/>
<path d="M50.5538 21.8118C50.392 21.8217 50.2329 21.767 50.1115 21.6596C49.9901 21.5521 49.9163 21.401 49.9064 21.2392C49.8965 21.0774 49.9513 20.9183 50.0586 20.7969C50.1661 20.6755 50.3173 20.6017 50.4791 20.5918C50.9869 20.5293 51.4108 20.4393 51.8607 20.3463C52.3106 20.2532 52.7849 20.1526 53.3415 20.0824C53.5021 20.0622 53.6642 20.1065 53.792 20.2058C53.9198 20.3051 54.003 20.451 54.0232 20.6116C54.0434 20.7722 53.9991 20.9342 53.8998 21.0621C53.8005 21.1899 53.6546 21.273 53.494 21.2933C52.9862 21.3573 52.5607 21.4458 52.1108 21.5404C51.6609 21.6349 51.1867 21.734 50.63 21.8027L50.5538 21.8118Z" fill="black"/>
<path d="M50.2934 29.978C50.1412 29.9765 49.9953 29.9182 49.8838 29.8145C49.7725 29.711 49.7039 29.5694 49.6915 29.4177C49.679 29.2661 49.7237 29.1153 49.8167 28.995C49.9097 28.8747 50.0444 28.7934 50.1943 28.7671L54.0144 28.1297C54.1723 28.1071 54.3327 28.1471 54.4613 28.2413C54.59 28.3356 54.6766 28.4763 54.7027 28.6336C54.7287 28.7909 54.6923 28.9521 54.6009 29.0828C54.5098 29.2135 54.3708 29.3033 54.2142 29.3329L50.3926 29.9704C50.3598 29.9751 50.3267 29.9777 50.2934 29.978Z" fill="black"/>
<path d="M48.8217 36.79C48.7417 36.7924 48.6618 36.7791 48.5869 36.7508C48.5118 36.7224 48.4432 36.6797 48.3848 36.6248C48.3264 36.5699 48.2793 36.504 48.2463 36.431C48.2134 36.3579 48.1951 36.2791 48.1927 36.199C48.1902 36.119 48.2035 36.0391 48.2319 35.9642C48.2601 35.8891 48.3029 35.8205 48.3578 35.7621C48.4127 35.7037 48.4786 35.6566 48.5517 35.6236C48.6247 35.5907 48.7035 35.5724 48.7836 35.57C49.5888 35.5212 51.4569 35.3443 52.1386 35.1658C52.2167 35.1428 52.2987 35.1358 52.3797 35.1451C52.4605 35.1542 52.5389 35.1797 52.6098 35.2197C52.6807 35.2596 52.7431 35.3135 52.793 35.3778C52.8427 35.4423 52.8791 35.516 52.9 35.5948C52.9209 35.6735 52.9258 35.7556 52.9145 35.8362C52.9031 35.9169 52.8758 35.9945 52.8338 36.0644C52.7921 36.1344 52.7366 36.1951 52.6708 36.2433C52.6053 36.2914 52.5305 36.3259 52.4512 36.3447C51.5591 36.581 49.3601 36.7579 48.8644 36.7884L48.8217 36.79Z" fill="black"/>
<path d="M144.22 27.7105C146.237 30.3991 149.199 32.2352 152.272 33.6016C157.629 35.9821 163.979 37.0587 169.294 34.5821C170.581 33.9813 171.734 32.3389 172.454 30.9648C174.243 27.558 174.143 25.7661 172.432 23.1065C170.721 20.4469 167.235 17.9825 164.394 16.5917C159.938 14.4079 156.525 13.2367 150.517 12.8372C146.507 12.5703 142.562 16.0488 142.01 19.8949C141.617 22.6505 142.571 25.5053 144.22 27.7105Z" fill="#D0FF45"/>
<path d="M166.184 31.1476C165.318 31.1449 164.452 31.0939 163.592 30.9951C160.066 30.5956 156.516 29.5205 154.562 28.6329C151.09 27.0545 145.586 22.0891 145.098 18.4642C144.93 17.2274 145.325 16.1767 146.236 15.4142C146.297 15.363 146.369 15.3242 146.445 15.3004C146.521 15.2766 146.602 15.2683 146.681 15.2754C146.762 15.2827 146.84 15.3058 146.91 15.343C146.982 15.3802 147.044 15.4311 147.094 15.4927C147.146 15.5544 147.184 15.6254 147.209 15.7018C147.233 15.7784 147.241 15.8589 147.233 15.9387C147.227 16.0184 147.204 16.096 147.166 16.1669C147.13 16.2379 147.078 16.3008 147.017 16.3521C146.428 16.8431 146.196 17.4806 146.306 18.3026C146.736 21.4868 151.918 26.0922 155.067 27.5242C159.31 29.4518 168.597 31.3032 171.045 28.5399C171.098 28.4798 171.162 28.4307 171.234 28.3956C171.305 28.3604 171.385 28.3396 171.464 28.3348C171.545 28.3297 171.624 28.3406 171.7 28.3666C171.777 28.3927 171.847 28.4334 171.906 28.4865C171.966 28.5396 172.016 28.6039 172.051 28.6759C172.086 28.748 172.106 28.8263 172.112 28.9062C172.117 28.9862 172.106 29.0665 172.08 29.1423C172.053 29.2181 172.013 29.288 171.96 29.3481C170.724 30.742 168.437 31.1476 166.184 31.1476Z" fill="black"/>
<path d="M143.516 25.542C143.42 25.542 143.326 25.5194 143.24 25.4758C143.155 25.4324 143.08 25.3692 143.024 25.2916C142.967 25.2141 142.929 25.1242 142.914 25.0295C142.899 24.9346 142.906 24.8375 142.935 24.746C143.533 22.8778 144.537 21.1646 145.872 19.7287C145.926 19.6669 145.991 19.6166 146.066 19.5808C146.139 19.5449 146.219 19.5242 146.301 19.5199C146.382 19.5155 146.464 19.5277 146.542 19.5558C146.618 19.5837 146.688 19.6268 146.748 19.6826C146.809 19.7385 146.856 19.8057 146.89 19.8806C146.923 19.9553 146.941 20.036 146.943 20.1179C146.945 20.1998 146.929 20.2811 146.899 20.357C146.868 20.4329 146.823 20.5019 146.765 20.5598C145.551 21.864 144.64 23.42 144.097 25.1165C144.058 25.2399 143.981 25.3477 143.876 25.4241C143.773 25.5007 143.646 25.542 143.516 25.542Z" fill="black"/>
<path d="M148.591 30.681C148.502 30.6813 148.415 30.6625 148.336 30.6261C148.263 30.5932 148.197 30.546 148.141 30.4875C148.086 30.4288 148.043 30.36 148.016 30.2846C147.987 30.2095 147.973 30.1293 147.976 30.0489C147.979 29.9685 147.997 29.8895 148.031 29.8163C148.223 29.3985 149.222 27.2909 149.983 26.7145C150.047 26.6661 150.12 26.6307 150.196 26.6106C150.274 26.5903 150.355 26.5856 150.434 26.5966C150.514 26.6076 150.59 26.6339 150.66 26.6745C150.729 26.7151 150.79 26.7688 150.837 26.8327C150.886 26.8966 150.921 26.9693 150.942 27.0469C150.962 27.1244 150.967 27.2052 150.956 27.2845C150.945 27.364 150.918 27.4404 150.878 27.5094C150.837 27.5785 150.784 27.6391 150.719 27.6874C150.376 27.9467 149.632 29.2597 149.14 30.3272C149.091 30.4321 149.013 30.5212 148.917 30.5837C148.819 30.6464 148.706 30.6801 148.591 30.681Z" fill="black"/>
<path d="M152.72 33.3497C152.63 33.3502 152.54 33.3299 152.46 33.2903C152.313 33.2209 152.202 33.0966 152.147 32.9446C152.092 32.7924 152.101 32.6251 152.17 32.479L153.847 28.9272C153.916 28.781 154.041 28.6683 154.194 28.614C154.346 28.5597 154.514 28.5681 154.66 28.6375C154.807 28.7069 154.919 28.8315 154.973 28.9838C155.028 29.1363 155.019 29.3041 154.95 29.4503L153.263 33.0021C153.214 33.105 153.138 33.1921 153.042 33.2535C152.946 33.315 152.835 33.3482 152.72 33.3497Z" fill="black"/>
<path d="M158.972 35.2273C158.885 35.2279 158.8 35.2091 158.721 35.1724C158.573 35.1057 158.458 34.9834 158.4 34.8321C158.344 34.6809 158.348 34.5131 158.416 34.3656L160.075 30.7056C160.145 30.5628 160.267 30.4526 160.416 30.3988C160.566 30.345 160.731 30.3517 160.875 30.4176C161.02 30.4833 161.133 30.603 161.191 30.7511C161.249 30.8992 161.248 31.064 161.185 31.2104L159.526 34.8704C159.477 34.9766 159.399 35.0667 159.302 35.13C159.202 35.1933 159.09 35.227 158.972 35.2273Z" fill="black"/>
<path d="M165.946 35.3947C165.879 35.3947 165.812 35.3834 165.748 35.3611C165.672 35.3352 165.601 35.2946 165.542 35.2417C165.482 35.1887 165.432 35.1245 165.397 35.0525C165.362 34.9805 165.342 34.9023 165.336 34.8224C165.331 34.7424 165.342 34.6622 165.368 34.5864L166.542 31.1674C166.594 31.0143 166.705 30.8883 166.85 30.8171C166.924 30.7819 167.001 30.7611 167.081 30.7561C167.161 30.7511 167.241 30.7617 167.317 30.7877C167.393 30.8136 167.463 30.8541 167.523 30.9072C167.582 30.9601 167.633 31.0245 167.668 31.0963C167.703 31.1683 167.723 31.2465 167.729 31.3264C167.733 31.4064 167.723 31.4866 167.697 31.5624L166.522 34.9829C166.481 35.1031 166.404 35.2073 166.3 35.2811C166.196 35.3549 166.073 35.3947 165.946 35.3947Z" fill="black"/>
<path d="M158.115 25.1695C158.033 25.1696 157.952 25.153 157.876 25.1208C157.799 25.0885 157.731 25.0414 157.674 24.9819L153.025 20.1294C152.941 20.042 152.884 19.9317 152.863 19.8125C152.843 19.6932 152.858 19.5703 152.907 19.4596C152.956 19.3489 153.037 19.2552 153.139 19.1906C153.241 19.1261 153.362 19.0934 153.482 19.0969C157.86 19.233 162.193 20.0377 166.327 21.4836C166.477 21.5394 166.599 21.6516 166.666 21.796C166.734 21.9405 166.742 22.1058 166.69 22.2564C166.637 22.4071 166.527 22.5311 166.384 22.6018C166.242 22.6726 166.076 22.6845 165.925 22.6349C162.388 21.3989 158.702 20.6444 154.964 20.3917L158.556 24.1325C158.638 24.2188 158.695 24.3275 158.716 24.4453C158.737 24.563 158.724 24.6844 158.676 24.7945C158.63 24.9044 158.551 24.9982 158.452 25.0641C158.351 25.13 158.234 25.1651 158.115 25.1649V25.1695Z" fill="black"/>
<path d="M160.81 62.7471C161.678 66.5703 165.932 69.024 169.827 68.5833C173.722 68.1426 177.06 65.3107 178.919 61.8596C181.716 56.6746 181.335 49.4263 175.518 46.9603C171.436 45.2295 165.792 48.3527 163.032 52.1758C161.043 54.9376 160.029 59.3144 160.81 62.7471Z" fill="#D0FF45"/>
<path d="M166.58 66.4211C165.767 66.4177 164.959 66.2765 164.193 66.0032C164.041 65.9495 163.916 65.8376 163.845 65.6917C163.775 65.5459 163.766 65.3781 163.819 65.2255C163.873 65.0728 163.986 64.9476 164.131 64.8776C164.277 64.8075 164.445 64.7982 164.597 64.8519C169.424 66.5446 172.513 61.84 173.618 59.7385C175.905 55.3984 176.329 50.0365 174.505 48.7052C174.441 48.658 174.386 48.5986 174.343 48.5301C174.302 48.4618 174.273 48.3858 174.261 48.3067C174.249 48.2275 174.252 48.1467 174.272 48.0688C174.29 47.9908 174.324 47.9175 174.371 47.8527C174.418 47.7879 174.478 47.733 174.546 47.6912C174.615 47.6494 174.69 47.6215 174.769 47.609C174.848 47.5965 174.929 47.5998 175.007 47.6186C175.085 47.6373 175.159 47.6714 175.223 47.7185C177.856 49.64 177.078 55.7781 174.697 60.3058C172.617 64.2663 169.695 66.4211 166.58 66.4211Z" fill="black"/>
<path d="M176.702 64.3835C176.578 64.3844 176.458 64.347 176.356 64.2767L174.864 63.2489C174.732 63.1571 174.64 63.016 174.61 62.857C174.581 62.6977 174.616 62.5335 174.709 62.4002C174.8 62.2669 174.94 62.1756 175.101 62.1463C175.259 62.117 175.424 62.1521 175.557 62.2439L177.048 63.2718C177.155 63.3457 177.236 63.4517 177.278 63.5746C177.319 63.6975 177.322 63.8307 177.283 63.9548C177.245 64.0789 177.167 64.1874 177.063 64.2645C176.958 64.3416 176.831 64.3833 176.702 64.3835Z" fill="black"/>
<path d="M173.207 66.9427C173.085 66.9425 172.966 66.9058 172.865 66.8375L171.798 66.1131C171.727 66.0698 171.668 66.0129 171.621 65.9456C171.572 65.8784 171.54 65.8024 171.522 65.7221C171.505 65.6417 171.505 65.5586 171.52 65.4779C171.535 65.3972 171.567 65.3205 171.613 65.2525C171.659 65.1845 171.718 65.1264 171.788 65.0819C171.857 65.0373 171.935 65.0071 172.016 64.9933C172.096 64.9792 172.179 64.9818 172.26 65.0009C172.339 65.0198 172.415 65.0547 172.481 65.1035L173.548 65.8279C173.657 65.9011 173.737 66.0072 173.782 66.1303C173.824 66.2535 173.827 66.3873 173.789 66.512C173.751 66.6369 173.673 66.746 173.568 66.8236C173.463 66.901 173.336 66.9428 173.205 66.9427H173.207Z" fill="black"/>
<path d="M178.984 60.5299C178.871 60.5303 178.761 60.4997 178.665 60.4414C177.902 59.9786 177.114 59.5582 176.304 59.1818C176.156 59.1153 176.042 58.9928 175.984 58.8414C175.926 58.69 175.932 58.5219 175.999 58.3743C176.065 58.2267 176.187 58.1115 176.339 58.0542C176.49 57.9969 176.658 58.0021 176.806 58.0685C177.661 58.4657 178.496 58.91 179.302 59.3999C179.415 59.4694 179.504 59.5739 179.551 59.6977C179.6 59.8214 179.607 59.9576 179.571 60.0855C179.534 60.2135 179.458 60.326 179.351 60.4062C179.246 60.4864 179.116 60.5299 178.984 60.5299Z" fill="black"/>
<path d="M179.66 55.1326C179.594 55.1325 179.528 55.1217 179.466 55.1006L177.669 54.5013C177.515 54.4501 177.389 54.3401 177.317 54.1954C177.244 54.0507 177.232 53.8831 177.284 53.7296C177.335 53.5761 177.445 53.4492 177.59 53.3769C177.735 53.3046 177.901 53.2926 178.055 53.3438L179.852 53.9432C179.989 53.9884 180.106 54.0816 180.183 54.2056C180.257 54.3296 180.286 54.4766 180.263 54.6199C180.241 54.7633 180.167 54.8937 180.056 54.9876C179.945 55.0816 179.804 55.1331 179.66 55.1326Z" fill="black"/>
<path d="M162.664 59.883C162.506 59.8831 162.355 59.8217 162.24 59.7119C162.126 59.6021 162.06 59.4523 162.054 59.2943C161.963 56.714 163.255 53.1943 165.83 51.7456C165.972 51.6664 166.138 51.6469 166.295 51.6912C166.451 51.7352 166.584 51.8397 166.663 51.9812C166.741 52.1227 166.761 52.2899 166.716 52.4459C166.672 52.6019 166.568 52.7339 166.427 52.8131C164.351 53.9782 163.194 57.0023 163.274 59.2532C163.277 59.3332 163.264 59.4131 163.236 59.4883C163.209 59.5634 163.166 59.6323 163.111 59.6909C163.056 59.7496 162.991 59.7968 162.918 59.8301C162.844 59.8632 162.767 59.8818 162.686 59.8845L162.664 59.883Z" fill="white"/>
<path d="M59.4004 61.6478C59.745 64.8213 61.9715 67.5312 64.6143 69.3246C67.6735 71.4017 72.3918 72.8794 76.0945 72.7772C78.687 72.7055 80.6238 71.3651 81.5601 68.9495C82.1152 67.519 81.8209 65.8995 81.3024 64.4553C79.9299 60.6184 76.854 57.5318 73.194 55.8116C70.051 54.3323 64.9224 53.1596 61.909 55.5066C60.1095 56.9203 59.1548 59.377 59.4004 61.6478Z" fill="#D0FF45"/>
<path d="M76.0446 69.6766C69.4764 69.6766 63.2605 64.3635 62.4355 57.7954C62.4254 57.7159 62.4312 57.6352 62.4524 57.5579C62.4736 57.4806 62.5097 57.4082 62.5588 57.3449C62.6079 57.2816 62.6691 57.2287 62.7388 57.189C62.8083 57.1492 62.8852 57.1238 62.9646 57.1137C63.0441 57.1036 63.1248 57.1094 63.2021 57.1306C63.2794 57.1518 63.3517 57.188 63.4151 57.2371C63.4784 57.2863 63.5313 57.3473 63.571 57.417C63.6106 57.4866 63.6363 57.5634 63.6463 57.6429C64.4378 63.9411 70.6781 68.9751 77.0023 68.4124C77.1641 68.3981 77.325 68.4486 77.4494 68.5529C77.574 68.657 77.6521 68.8065 77.6664 68.9683C77.6807 69.1301 77.6303 69.291 77.526 69.4154C77.4218 69.54 77.2724 69.6181 77.1105 69.6324C76.7552 69.6614 76.3984 69.6766 76.0446 69.6766Z" fill="black"/>
<path d="M61.8135 65.3367C61.7317 65.3369 61.6508 65.3203 61.5756 65.2879C61.4269 65.2247 61.3092 65.1051 61.2486 64.9552C61.1881 64.8054 61.1893 64.6377 61.2523 64.4888C61.4517 64.1049 61.6971 63.7463 61.9827 63.4213C62.5577 62.7336 62.7742 62.6177 63.0411 62.6177C63.179 62.6174 63.3129 62.6639 63.4208 62.7496C63.5289 62.8351 63.6047 62.9548 63.6361 63.089C63.6674 63.2234 63.6523 63.3643 63.5933 63.4889C63.5343 63.6133 63.4347 63.7143 63.311 63.7751C63.093 63.9673 62.486 64.7054 62.3762 64.9662C62.3292 65.0764 62.2507 65.1702 62.1507 65.2362C62.0506 65.3021 61.9333 65.3371 61.8135 65.3367Z" fill="black"/>
<path d="M65.8252 69.6767C65.7093 69.6765 65.5959 69.6434 65.4981 69.5812C65.4004 69.519 65.3225 69.4301 65.2733 69.3252C65.2242 69.2203 65.2059 69.1034 65.2209 68.9886C65.2357 68.8736 65.283 68.7653 65.3571 68.6763L67.3548 66.2805C67.4062 66.219 67.4692 66.1683 67.5401 66.1311C67.6112 66.094 67.6888 66.0711 67.7686 66.064C67.8483 66.0568 67.9288 66.0655 68.0052 66.0894C68.0816 66.1134 68.1527 66.1521 68.2142 66.2035C68.2756 66.2549 68.3264 66.3179 68.3636 66.3888C68.4007 66.4599 68.4235 66.5373 68.4307 66.6172C68.4379 66.697 68.4292 66.7774 68.4052 66.8539C68.3813 66.9303 68.3426 67.0014 68.2912 67.0628L66.2949 69.4571C66.2376 69.5259 66.1658 69.5812 66.0846 69.6192C66.0034 69.6572 65.9149 69.6768 65.8252 69.6767Z" fill="black"/>
<path d="M70.945 71.798C70.8163 71.798 70.691 71.7575 70.5868 71.6818C70.4826 71.6064 70.405 71.4998 70.3651 71.3773C70.3251 71.255 70.325 71.1232 70.3645 71.0008C70.404 70.8783 70.4813 70.7714 70.5851 70.6955C70.8704 70.3822 71.1065 70.0275 71.2851 69.6432C71.292 69.4814 71.3629 69.3291 71.4821 69.2196C71.6014 69.1099 71.7592 69.0523 71.921 69.0591C72.0828 69.066 72.2352 69.1369 72.3448 69.2562C72.4543 69.3754 72.512 69.5333 72.5051 69.6951C72.5051 70.2852 71.6252 71.458 71.2958 71.6882C71.193 71.7601 71.0705 71.7983 70.945 71.798Z" fill="black"/>
<path d="M77.9019 62.9056C77.7854 62.9055 77.6712 62.8719 77.5731 62.809C77.4751 62.746 77.397 62.6563 77.3483 62.5503C76.8494 61.4862 76.1337 60.5378 75.2472 59.766C74.3606 58.9942 73.3228 58.416 72.1999 58.0683C72.1232 58.0452 72.0519 58.007 71.9899 57.9563C71.9279 57.9053 71.8765 57.8428 71.8388 57.7722C71.801 57.7016 71.7774 57.6241 71.7696 57.5443C71.7617 57.4646 71.7696 57.3841 71.7928 57.3074C71.8159 57.2307 71.8541 57.1593 71.9049 57.0974C71.9558 57.0353 72.0183 56.9839 72.0889 56.9462C72.1595 56.9084 72.237 56.8848 72.3168 56.877C72.3965 56.8691 72.477 56.877 72.5537 56.9002C73.8405 57.2991 75.0299 57.9622 76.0455 58.8472C77.0613 59.7321 77.881 60.8194 78.4524 62.0394C78.4954 62.1323 78.5144 62.2346 78.5075 62.3368C78.5005 62.439 78.468 62.5378 78.4128 62.6241C78.3577 62.7104 78.2816 62.7815 78.1918 62.8306C78.102 62.8799 78.0013 62.9056 77.8989 62.9056H77.9019Z" fill="white"/>
<path d="M5.23142 147.933C6.99279 149.632 9.22997 150.9 11.6532 151.229C14.0764 151.558 16.6857 150.877 18.4425 149.175C20.5394 147.148 21.1875 144.023 21.1234 141.108C21.0335 136.584 19.33 131.897 15.7448 129.136C12.2373 126.44 7.02482 126.965 3.6195 130.031C2.18142 131.326 1.11545 133.565 0.834847 135.404C0.496297 137.621 0.825697 139.325 1.44485 141.483C2.11935 143.927 3.42521 146.152 5.23142 147.933Z" fill="#D0FF45"/>
<path d="M14.7351 149.606C14.7072 149.608 14.6791 149.608 14.6512 149.606C8.90196 148.813 6.78678 142.977 5.77113 140.173C4.68533 137.176 4.13786 131.692 7.08111 128.86C7.19777 128.748 7.35423 128.687 7.51619 128.69C7.67799 128.693 7.83202 128.76 7.94426 128.877C8.0565 128.995 8.1178 129.15 8.1146 129.312C8.11155 129.473 8.04415 129.627 7.92748 129.74C5.42038 132.151 5.97701 137.164 6.91794 139.756C8.41396 143.885 10.4071 147.789 14.8174 148.397C14.8975 148.403 14.9757 148.423 15.0477 148.46C15.1197 148.495 15.1839 148.545 15.2367 148.605C15.2896 148.666 15.3298 148.736 15.3556 148.812C15.3812 148.888 15.3916 148.967 15.3863 149.048C15.3808 149.129 15.3597 149.207 15.324 149.279C15.2884 149.35 15.2389 149.414 15.1784 149.468C15.118 149.521 15.0477 149.561 14.9716 149.587C14.8955 149.613 14.8151 149.623 14.7351 149.617V149.606Z" fill="black"/>
<path d="M1.59266 134.618C1.44443 134.618 1.30154 134.563 1.19052 134.465C1.0795 134.366 1.00797 134.232 0.989216 134.084C0.970611 133.937 1.00599 133.788 1.0891 133.666C1.17206 133.544 1.29681 133.455 1.44016 133.417C2.67083 133.088 2.89196 132.96 2.96516 132.916C3.20763 132.774 3.26101 132.763 4.17143 132.696C4.33324 132.682 4.49367 132.734 4.61735 132.839C4.74102 132.945 4.81788 133.094 4.83099 133.257C4.84411 133.419 4.79257 133.579 4.68734 133.703C4.58227 133.826 4.43236 133.902 4.27056 133.916C3.91371 133.945 3.66056 133.966 3.57211 133.98C3.40741 134.076 3.11461 134.236 1.75736 134.601C1.70352 134.613 1.64802 134.619 1.59266 134.618Z" fill="black"/>
<path d="M1.58214 139.378C1.43635 139.378 1.29575 139.325 1.18549 139.23C1.07538 139.134 1.00294 139.003 0.981289 138.858C0.959786 138.715 0.990591 138.567 1.06806 138.444C1.14553 138.32 1.26448 138.229 1.40372 138.186L3.99622 137.387C4.15085 137.339 4.31814 137.355 4.46119 137.431C4.60423 137.507 4.71114 137.637 4.75872 137.791C4.8063 137.945 4.79028 138.113 4.71464 138.256C4.63885 138.399 4.50922 138.506 4.35459 138.553L1.76209 139.352C1.70368 139.371 1.64314 139.378 1.58214 139.378Z" fill="black"/>
<path d="M3.97947 144.57C3.83856 144.57 3.70207 144.521 3.59319 144.431C3.4843 144.342 3.40958 144.217 3.38197 144.08C3.35437 143.941 3.37527 143.798 3.44145 143.673C3.50748 143.549 3.61469 143.452 3.74462 143.397L7.14384 141.98C7.29207 141.924 7.45678 141.927 7.60287 141.988C7.74897 142.05 7.86486 142.168 7.92602 142.314C7.98717 142.461 7.98885 142.625 7.93044 142.773C7.87204 142.921 7.75842 143.04 7.61355 143.106L4.21279 144.522C4.13883 144.553 4.05953 144.57 3.97947 144.57Z" fill="black"/>
<path d="M7.00208 148.593C6.863 148.593 6.72788 148.545 6.6193 148.458C6.51072 148.371 6.43508 148.251 6.40504 148.114C6.375 147.978 6.39223 147.836 6.45384 147.713C6.5156 147.588 6.61808 147.487 6.74435 147.429L9.41768 146.188C9.56453 146.119 9.73244 146.113 9.88433 146.168C10.0364 146.224 10.16 146.337 10.2282 146.483C10.2964 146.631 10.3034 146.799 10.2477 146.952C10.1922 147.103 10.0785 147.226 9.9316 147.295L7.25828 148.535C7.17821 148.573 7.09068 148.593 7.00208 148.593Z" fill="black"/>
<path d="M18.7523 139.517H18.734C18.5725 139.513 18.4194 139.444 18.3085 139.326C18.1975 139.209 18.1377 139.052 18.1423 138.89C18.1629 137.658 17.9143 136.435 17.4138 135.308C16.9134 134.181 16.1732 133.178 15.2448 132.366C15.1839 132.315 15.1339 132.25 15.0976 132.179C15.0612 132.109 15.0394 132.029 15.0331 131.95C15.0269 131.871 15.0365 131.79 15.0613 131.714C15.086 131.637 15.1257 131.567 15.1777 131.506C15.2298 131.445 15.2933 131.395 15.3646 131.358C15.4362 131.323 15.5139 131.3 15.5938 131.294C15.6738 131.288 15.754 131.297 15.8302 131.323C15.9063 131.348 15.9769 131.387 16.0378 131.439C17.1102 132.363 17.9645 133.515 18.5392 134.809C19.1142 136.103 19.3952 137.509 19.3623 138.924C19.3579 139.082 19.2917 139.233 19.1777 139.345C19.0638 139.455 18.9112 139.517 18.7523 139.517Z" fill="black"/>
<path d="M163.017 148.42C160.76 150.542 159.052 153.424 158.99 156.521C158.927 159.618 160.867 162.838 163.858 163.644C166.273 164.296 168.824 163.35 171.025 162.159C174.343 160.364 177.494 157.753 178.618 154.151C179.513 151.278 178.668 147.919 176.382 145.941C175.409 145.097 172.704 143.667 168.076 145.213C166.169 145.848 164.48 147.048 163.017 148.42Z" fill="#D0FF45"/>
<path d="M163.7 160.242C162.633 160.242 161.686 160.022 160.923 159.572C160.8 159.484 160.713 159.353 160.681 159.205C160.647 159.055 160.672 158.9 160.748 158.769C160.826 158.638 160.948 158.538 161.092 158.493C161.239 158.447 161.394 158.458 161.533 158.522C163.211 159.507 166.261 159.017 169.302 157.276C172.559 155.412 175.847 151.99 175.847 148.545C175.847 148.383 175.911 148.228 176.025 148.113C176.14 147.999 176.295 147.935 176.457 147.935C176.619 147.935 176.774 147.999 176.888 148.113C177.003 148.228 177.067 148.383 177.067 148.545C177.067 152.748 173.21 156.446 169.899 158.336C167.72 159.591 165.53 160.242 163.7 160.242Z" fill="black"/>
<path d="M165.682 163.734C165.556 163.734 165.431 163.695 165.327 163.621L165.277 163.585C164.548 163.065 164.209 162.822 163.892 161.859C163.84 161.704 163.852 161.537 163.926 161.393C163.997 161.249 164.124 161.139 164.278 161.087C164.432 161.035 164.6 161.047 164.743 161.12C164.888 161.192 164.998 161.319 165.05 161.473C165.248 162.064 165.316 162.115 165.986 162.592L166.036 162.629C166.141 162.703 166.219 162.81 166.26 162.932C166.3 163.056 166.302 163.187 166.262 163.31C166.222 163.432 166.144 163.541 166.041 163.617C165.937 163.693 165.812 163.734 165.682 163.734Z" fill="black"/>
<path d="M170.791 162.032C170.7 162.032 170.61 162.012 170.526 161.973C170.444 161.933 170.372 161.875 170.314 161.803L169.247 160.467C169.193 160.405 169.154 160.333 169.129 160.256C169.105 160.178 169.096 160.095 169.103 160.015C169.111 159.932 169.135 159.853 169.173 159.781C169.213 159.71 169.265 159.647 169.329 159.595C169.393 159.545 169.466 159.507 169.545 159.484C169.623 159.462 169.706 159.456 169.786 159.466C169.867 159.476 169.947 159.502 170.017 159.543C170.087 159.584 170.149 159.639 170.198 159.705L171.266 161.039C171.337 161.129 171.383 161.238 171.395 161.352C171.409 161.465 171.389 161.581 171.339 161.684C171.29 161.788 171.212 161.875 171.115 161.936C171.017 161.999 170.904 162.031 170.79 162.031L170.791 162.032Z" fill="black"/>
<path d="M174.868 159.342C174.776 159.342 174.686 159.322 174.602 159.283C174.52 159.243 174.448 159.185 174.39 159.113L173.346 157.808C173.295 157.745 173.259 157.674 173.236 157.596C173.213 157.52 173.207 157.439 173.216 157.36C173.225 157.28 173.25 157.202 173.288 157.132C173.326 157.062 173.378 157 173.44 156.951C173.504 156.901 173.576 156.862 173.652 156.841C173.73 156.818 173.809 156.811 173.89 156.82C173.969 156.829 174.047 156.853 174.117 156.891C174.187 156.931 174.248 156.983 174.299 157.045L175.343 158.351C175.415 158.441 175.461 158.549 175.473 158.663C175.487 158.776 175.467 158.892 175.417 158.996C175.368 159.1 175.29 159.187 175.192 159.249C175.095 159.31 174.982 159.342 174.868 159.342Z" fill="black"/>
<path d="M178.061 155.55C177.98 155.55 177.901 155.533 177.828 155.502C177.753 155.472 177.686 155.426 177.63 155.37L176.033 153.773C175.919 153.659 175.854 153.503 175.854 153.341C175.854 153.18 175.919 153.024 176.033 152.91C176.147 152.796 176.303 152.731 176.464 152.731C176.626 152.731 176.782 152.796 176.896 152.91L178.493 154.508C178.607 154.622 178.671 154.778 178.671 154.938C178.671 155.1 178.607 155.255 178.493 155.37C178.436 155.426 178.369 155.472 178.294 155.502C178.221 155.533 178.142 155.55 178.061 155.55Z" fill="black"/>
<path d="M163.56 154.52C163.502 154.52 163.446 154.513 163.391 154.498C163.313 154.476 163.24 154.438 163.177 154.388C163.113 154.337 163.061 154.275 163.022 154.203C162.984 154.133 162.959 154.055 162.95 153.974C162.942 153.894 162.95 153.813 162.973 153.735C163.71 151.164 166.176 149.2 168.853 149.064C168.934 149.059 169.014 149.072 169.09 149.099C169.165 149.125 169.235 149.166 169.294 149.221C169.354 149.274 169.402 149.338 169.436 149.412C169.471 149.483 169.491 149.563 169.494 149.643C169.498 149.723 169.486 149.804 169.46 149.878C169.433 149.955 169.392 150.023 169.338 150.083C169.285 150.142 169.219 150.191 169.146 150.226C169.075 150.26 168.997 150.279 168.916 150.284C167.832 150.359 166.795 150.761 165.944 151.438C165.091 152.114 164.464 153.032 164.146 154.072C164.111 154.2 164.034 154.314 163.928 154.395C163.822 154.476 163.693 154.52 163.56 154.52Z" fill="black"/>
<path d="M176.453 114.286C176.741 115.367 177.52 116.303 179.434 116.836C180.959 117.26 183.321 117.202 185.67 115.989C187.123 115.239 188.508 114.045 189.33 112.634C190.152 111.224 190.158 109.833 189.424 108.373C188.46 106.457 185.99 105.862 184.032 106.238C181.721 106.678 179.646 107.367 177.932 109.064C177.032 109.959 175.876 112.125 176.453 114.286Z" fill="#D0FF45"/>
<path d="M180.323 114.932C178.714 114.932 177.159 114.475 176.716 113.092C176.687 113.014 176.675 112.932 176.678 112.849C176.683 112.767 176.703 112.686 176.739 112.613C176.776 112.538 176.826 112.473 176.889 112.418C176.951 112.364 177.023 112.323 177.102 112.299C177.18 112.273 177.264 112.264 177.345 112.271C177.427 112.279 177.506 112.303 177.579 112.343C177.653 112.383 177.715 112.436 177.767 112.502C177.817 112.566 177.855 112.64 177.877 112.72C178.282 113.982 181.188 113.816 182.7 113.368C185.148 112.643 187.768 110.868 187.768 109.381C187.768 109.22 187.832 109.064 187.946 108.95C188.061 108.836 188.216 108.771 188.378 108.771C188.54 108.771 188.695 108.836 188.81 108.95C188.924 109.064 188.988 109.22 188.988 109.381C188.988 111.588 185.927 113.685 183.04 114.539C182.158 114.795 181.243 114.926 180.323 114.932Z" fill="black"/>
<path d="M94.1264 178.525C93.9846 178.525 93.8488 178.476 93.739 178.386C93.6308 178.296 93.5286 178.032 93.5286 178.032C92.3078 171.748 91.7739 165.366 91.5561 159C91.3695 153.55 91.4148 148.112 91.4592 142.758C91.6498 119.851 91.8572 96.6096 92.0692 73.6828C92.0692 73.521 92.1332 73.3659 92.2476 73.2513C92.362 73.137 92.5175 73.0728 92.6792 73.0728C92.8408 73.0728 92.9964 73.137 93.1107 73.2513C93.2251 73.3659 93.2892 73.521 93.2892 73.6828C93.0711 96.6096 92.8637 119.849 92.6792 142.756C92.5831 154.302 92.484 166.241 94.7257 177.787C94.7562 177.945 94.7227 178.11 94.6327 178.244C94.5427 178.379 94.4024 178.472 94.2438 178.502C94.2057 178.513 94.166 178.52 94.1264 178.525Z" fill="black"/>
<path d="M93.5361 18.475C93.3973 18.4749 93.2631 18.4275 93.1548 18.3407C93.0466 18.2541 92.9718 18.133 92.9413 17.9977C91.7488 12.7029 92.0919 6.5709 93.0206 3.4904C93.5071 1.8678 94.4648 1.1053 95.1251 0.940599C95.4027 0.866789 95.694 0.857032 95.9746 0.912085C96.2567 0.966985 96.5236 1.08517 96.7523 1.2578C97.5819 1.8678 98.073 3.2037 98.1721 5.10385C98.4039 9.29394 98.3383 13.4952 97.9754 17.6759C97.9677 17.756 97.9449 17.8339 97.9083 17.9053C97.8717 17.9765 97.8198 18.0398 97.7588 18.0914C97.6963 18.1431 97.6261 18.1819 97.5484 18.206C97.4721 18.2301 97.3913 18.2388 97.312 18.2318C97.2312 18.2246 97.1534 18.2019 97.0817 18.1647C97.01 18.1273 96.9475 18.0766 96.8956 18.0148C96.8438 17.9532 96.8057 17.882 96.7813 17.8053C96.7569 17.7284 96.7477 17.6477 96.7554 17.5677C97.1137 13.4438 97.1793 9.29943 96.949 5.16637C96.8392 3.0634 96.2628 2.42137 96.0203 2.23685C95.9349 2.17112 95.8343 2.12659 95.729 2.10692C95.6223 2.0874 95.514 2.0932 95.4103 2.124C95.2105 2.1728 94.5563 2.5937 94.1812 3.83963C93.286 6.81337 93.0191 12.8219 94.1247 17.7293C94.1598 17.8865 94.1324 18.0516 94.047 18.1882C93.96 18.3248 93.8243 18.422 93.6672 18.4583C93.6245 18.4682 93.5803 18.4738 93.5361 18.475Z" fill="black"/>
<path d="M92.8957 14.638C92.2263 14.638 91.5568 14.6227 90.8888 14.5922C90.808 14.5886 90.7303 14.5694 90.6571 14.5354C90.5854 14.5014 90.5198 14.4533 90.4655 14.3942C90.4115 14.335 90.3696 14.2657 90.3423 14.1903C90.315 14.1149 90.3026 14.0349 90.3063 13.9548C90.31 13.8747 90.3293 13.796 90.3633 13.7235C90.3972 13.6509 90.4452 13.5856 90.5046 13.5315C90.564 13.4775 90.6326 13.4355 90.7089 13.4082C90.7836 13.3808 90.8629 13.3686 90.9437 13.3722C94.16 13.52 97.3838 13.303 100.551 12.7256C100.631 12.7098 100.713 12.7099 100.792 12.7261C100.871 12.7423 100.946 12.774 101.013 12.8194C101.08 12.865 101.138 12.9234 101.181 12.9913C101.225 13.0592 101.256 13.1351 101.271 13.2149C101.285 13.2945 101.283 13.3762 101.266 13.4554C101.248 13.5344 101.216 13.6092 101.169 13.6754C101.122 13.7416 101.064 13.7977 100.995 13.8407C100.926 13.8837 100.849 13.9127 100.769 13.9258C98.1722 14.3995 95.537 14.6378 92.8957 14.638Z" fill="black"/>
<path d="M81.694 133.86C82.3712 132.013 83.0145 130.601 84.4283 130.084C87.3375 129.017 89.7889 138.326 84.689 151.215C84.5004 151.69 84.2704 152.169 83.8698 152.487C83.4999 152.78 83.0219 152.891 82.562 152.994C80.6193 153.428 78.6407 154.036 76.6694 154.309C74.4099 154.627 75.4241 152.565 75.829 151.251C76.9898 147.483 78.2146 143.735 79.5034 140.007C80.2124 137.953 80.8875 135.874 81.694 133.86Z" fill="#FFD550"/>
<path d="M94.6056 144.149C96.695 143.953 98.856 143.883 100.841 144.573C102.826 145.263 104.604 146.829 105.004 148.883C105.404 150.936 104.368 152.985 102.961 154.581C102.901 154.65 102.858 154.732 102.833 154.82C102.808 154.908 102.803 155 102.818 155.09C102.832 155.181 102.867 155.267 102.919 155.342C102.97 155.417 103.038 155.481 103.118 155.528C104.747 156.515 105.872 158.323 105.99 160.232C106.107 162.141 105.219 164.047 103.737 165.229C103.579 165.359 103.476 165.547 103.451 165.752C103.427 165.956 103.483 166.163 103.607 166.328C105.272 168.627 104.734 172.358 102.315 173.938C101.652 174.37 100.726 174.56 100.583 174.973C100.478 175.291 100.516 176.421 100.544 176.898C100.723 179.793 98.2434 182.318 95.4694 183.17C92.6958 184.022 89.7082 183.594 86.8467 183.112C83.8707 182.615 80.8058 182.037 78.3014 180.357C72.9027 176.74 71.7624 169.304 72.0379 162.811C72.163 159.866 72.4873 156.876 73.6361 154.166C76.1564 148.211 82.422 146.352 88.2616 145.127C90.356 144.68 92.474 144.354 94.6056 144.149Z" fill="#FFD550"/>
<path d="M95.196 156.444C95.1209 156.444 95.0473 156.424 94.9824 156.385C94.9177 156.348 94.8639 156.294 94.8269 156.229C94.7898 156.164 94.7708 156.09 94.7715 156.014C94.7724 155.94 94.7929 155.866 94.8314 155.801C95.1135 155.317 95.2822 154.776 95.3248 154.217C95.3674 153.657 95.2828 153.097 95.0773 152.575C95.0538 152.522 95.0412 152.466 95.0401 152.41C95.0389 152.353 95.0493 152.296 95.0705 152.243C95.0918 152.191 95.1234 152.142 95.1636 152.102C95.2039 152.061 95.252 152.03 95.3048 152.008C95.3577 151.987 95.4143 151.977 95.4713 151.978C95.5283 151.978 95.5846 151.99 95.6366 152.014C95.6887 152.037 95.7356 152.071 95.7744 152.112C95.8132 152.155 95.8432 152.203 95.8626 152.257C96.1165 152.9 96.2214 153.592 96.1684 154.282C96.1165 154.971 95.9088 155.639 95.5605 156.237C95.5229 156.3 95.4695 156.351 95.4055 156.387C95.3416 156.425 95.2694 156.444 95.196 156.444Z" fill="black"/>
<path d="M94.6174 169.196C94.5555 169.196 94.4943 169.182 94.4383 169.156C94.3365 169.109 94.2576 169.023 94.2191 168.917C94.1806 168.811 94.1854 168.696 94.2328 168.593C94.789 167.385 94.8921 166.017 94.5232 164.739C94.4954 164.633 94.5102 164.519 94.5643 164.424C94.6186 164.327 94.7078 164.256 94.8135 164.226C94.9191 164.194 95.0327 164.206 95.1303 164.256C95.2278 164.307 95.3016 164.395 95.3361 164.499C95.7622 165.975 95.6437 167.555 95.0021 168.95C94.9682 169.025 94.9139 169.086 94.8458 169.129C94.7775 169.174 94.6984 169.196 94.6174 169.196Z" fill="black"/>
<path d="M92.727 179.505C92.6427 179.506 92.5603 179.481 92.4903 179.434C92.4203 179.386 92.366 179.32 92.3341 179.242C92.3023 179.164 92.2945 179.078 92.3115 178.995C92.3287 178.913 92.37 178.837 92.4302 178.779C92.8136 178.393 93.0993 177.923 93.2636 177.405C93.4278 176.886 93.4659 176.337 93.3745 175.802C93.3542 175.691 93.3786 175.576 93.4424 175.484C93.5062 175.392 93.6042 175.328 93.7147 175.308C93.8254 175.287 93.9395 175.311 94.0322 175.375C94.1247 175.44 94.1883 175.537 94.2087 175.647C94.3283 176.32 94.2828 177.011 94.0762 177.662C93.8696 178.314 93.5081 178.904 93.0227 179.384C92.9436 179.462 92.8375 179.505 92.727 179.505Z" fill="black"/>
</svg>
