<svg width="184" height="182" viewBox="0 0 184 182" fill="none" xmlns="http://www.w3.org/2000/svg">
<path d="M64.2181 154.239C65.4228 162.23 66.9031 170.229 69.7385 177.799C70.2755 179.22 70.9485 180.74 72.3035 181.424C74.0721 182.319 76.1753 181.424 77.9653 180.57C101.238 169.531 126.986 164.746 152.671 166.687C159.72 167.224 166.73 168.28 173.793 168.625C175.193 168.695 176.743 168.686 177.799 167.763C178.92 166.782 179.084 165.124 179.159 163.637C180.871 129.732 177.633 95.76 169.551 62.7891C168.35 57.8952 167.025 52.9781 164.664 48.5264C164.034 47.3342 163.28 46.1315 162.11 45.4585C160.628 44.6083 158.796 44.7781 157.098 44.9858C123.114 49.1493 89.688 58.2319 55.4686 59.3453C52.4256 59.4438 48.6272 59.5116 46.5186 62.0767C45.0329 63.8792 46.2805 65.7569 47.3456 67.4145C50.9488 73.0297 52.4632 79.9572 54.0455 86.3779C55.7908 93.4609 57.1082 100.643 58.2073 107.858C59.3117 115.117 60.1942 122.406 61.0713 129.696C61.9484 136.987 62.7915 144.28 63.8368 151.547C63.955 152.442 64.0821 153.339 64.2181 154.239Z" fill="#196164"/>
<path d="M116.778 113.687C117.608 114.437 118.536 115.217 119.653 115.298C120.696 115.371 121.675 114.813 122.533 114.211C126.94 111.127 130.051 106.566 133.155 102.179C145.452 84.841 159.348 68.6953 174.659 53.9538C176.408 52.2694 178.363 50.5295 180.566 49.6667C180.94 49.5207 181.347 49.4731 181.744 49.528C182.141 49.583 182.519 49.7389 182.84 49.9811C183.16 50.2231 183.414 50.5431 183.575 50.9108C183.738 51.2785 183.803 51.6816 183.765 52.0815C183.459 55.1531 181.579 58.1585 179.789 60.8184C167.685 78.8011 156.587 97.4406 146.546 116.653C140.92 127.418 133.917 139.239 128.221 148.09C127.061 149.891 125.406 151.556 123.315 152.028C119.617 152.873 116.463 149.422 114.236 146.351L97.8128 123.684L81.198 100.754L77.0613 95.0433C75.8352 93.3499 74.1973 91.6011 73.4939 89.6052C72.3322 86.3277 74.8059 84.1869 77.9814 84.5753C81.4433 84.9978 85.0698 87.3158 88.0054 89.0897C91.2979 91.1185 94.4381 93.3846 97.4011 95.8702C103.433 100.856 108.93 106.432 114.666 111.753C115.365 112.401 116.069 113.046 116.778 113.687Z" fill="#D0FF45"/>
<path d="M21.3702 105.605C36.0085 93.8192 53.2288 85.6654 71.6227 81.8111C71.7478 81.7852 71.8652 81.7304 71.9653 81.6511C72.0655 81.5718 72.1455 81.4702 72.1994 81.3543C72.2531 81.2383 72.2791 81.1116 72.275 80.9838C72.2708 80.8562 72.2368 80.7312 72.1758 80.619C58.9298 56.42 64.7759 25.5765 50.3843 1.87154C50.0496 1.32022 49.0042 -0.591503 45.1199 0.697297C32.4217 4.91096 20.2622 12.5596 6.90165 11.8633C6.8211 11.8633 3.53108 21.6081 3.14265 22.5174C2.37116 24.2895 1.36518 25.9775 0.622328 27.7514C0.0745879 29.0598 1.32043 30.4811 1.89502 31.7091C4.55138 37.3887 6.11405 43.5087 7.16657 49.6717C8.24057 55.96 8.80442 62.3198 9.45777 68.66C10.1075 74.959 10.8289 81.2742 12.2627 87.455C13.6553 93.4569 15.7586 99.3274 19.054 104.56C19.2151 104.816 19.3787 105.07 19.5444 105.322C19.6409 105.467 19.7662 105.591 19.9126 105.684C20.0592 105.777 20.2234 105.839 20.3952 105.866C20.5669 105.893 20.7423 105.882 20.91 105.838C21.0779 105.793 21.2347 105.714 21.3702 105.605Z" fill="#FFD550"/>
<path d="M20.6366 26.612C20.4749 26.6131 20.3176 26.5593 20.1901 26.4595C20.0629 26.3598 19.9732 26.2196 19.9356 26.0623C19.898 25.9049 19.9148 25.7395 19.9832 25.5929C20.0518 25.4465 20.168 25.3273 20.3126 25.2552C26.0544 22.3563 32.1554 20.2321 38.456 18.9382C38.6386 18.9082 38.8258 18.9499 38.9782 19.0546C39.1307 19.1595 39.2366 19.3193 39.2739 19.5005C39.3113 19.6818 39.2769 19.8705 39.1781 20.0269C39.0793 20.1834 38.9239 20.2954 38.7442 20.3398C32.5676 21.6093 26.5864 23.692 20.957 26.5332C20.858 26.5846 20.7481 26.6116 20.6366 26.612Z" fill="#196164"/>
<path d="M22.3459 36.1466C22.1835 36.1473 22.0258 36.0927 21.8986 35.9919C21.7713 35.8913 21.682 35.7502 21.6455 35.592C21.6088 35.434 21.627 35.268 21.697 35.1216C21.767 34.9752 21.8848 34.8569 22.0308 34.7862C32.9087 29.4448 39.4171 28.2437 44.3503 27.7747C44.4445 27.7658 44.5392 27.7754 44.6296 27.8032C44.7198 27.8309 44.8038 27.8762 44.8766 27.9364C44.9495 27.9965 45.0096 28.0704 45.0538 28.1538C45.098 28.2373 45.1254 28.3287 45.1344 28.4227C45.1433 28.5167 45.1337 28.6115 45.1059 28.7019C45.0782 28.7922 45.0329 28.8761 44.9727 28.949C44.9126 29.0216 44.8387 29.082 44.7553 29.1262C44.6718 29.1704 44.5804 29.1978 44.4864 29.2067C39.682 29.665 33.3329 30.8392 22.6609 36.0803C22.5623 36.1258 22.4545 36.1483 22.3459 36.1466Z" fill="#196164"/>
<path d="M20.6367 50.6999C20.4788 50.7002 20.3251 50.6483 20.1998 50.5524C20.0743 50.4563 19.9841 50.3217 19.9433 50.169C19.9025 50.0165 19.9132 49.8546 19.9739 49.7088C20.0346 49.5629 20.1418 49.4413 20.2787 49.3627C31.2854 43.0619 38.6173 40.7242 51.9098 37.5613C52.0865 37.5362 52.266 37.5783 52.4135 37.6787C52.5608 37.7793 52.6654 37.9313 52.7065 38.1047C52.7477 38.2783 52.7227 38.4611 52.6362 38.6172C52.5497 38.7731 52.4081 38.8912 52.2392 38.9485C39.088 42.0774 31.8332 44.3882 20.9876 50.5995C20.8812 50.6626 20.7604 50.6972 20.6367 50.6999Z" fill="#196164"/>
<path d="M28.5807 58.6094C28.4156 58.6096 28.2556 58.5526 28.1276 58.4483C27.9998 58.3439 27.9119 58.1986 27.8788 58.0368C27.8457 57.8751 27.8695 57.7069 27.9463 57.5608C28.0229 57.4146 28.1478 57.2995 28.2996 57.2347L47.859 48.8879C47.9454 48.851 48.0383 48.8315 48.1325 48.8306C48.2264 48.8295 48.3199 48.8471 48.4071 48.8822C48.4944 48.9172 48.5739 48.9692 48.641 49.0349C48.7083 49.1007 48.7618 49.1791 48.7987 49.2656C48.8356 49.3522 48.8551 49.4451 48.8562 49.5391C48.8571 49.6333 48.8395 49.7265 48.8044 49.8137C48.7694 49.901 48.7174 49.9805 48.6518 50.0478C48.5859 50.1149 48.5075 50.1685 48.421 50.2053L28.8617 58.5521C28.7729 58.5901 28.6773 58.6094 28.5807 58.6094Z" fill="#196164"/>
<path d="M25.9257 74.2111C25.7698 74.2111 25.618 74.1601 25.4936 74.066C25.3694 73.9718 25.2792 73.8397 25.2368 73.6895C25.1945 73.5395 25.2024 73.3795 25.2591 73.2343C25.3161 73.089 25.4186 72.9664 25.5516 72.8848C36.4975 66.1919 47.9678 61.2804 54.0968 60.6628C54.1907 60.6533 54.2858 60.6625 54.3762 60.6898C54.4667 60.717 54.5509 60.762 54.6241 60.8218C54.6971 60.8815 54.7578 60.9553 54.8025 61.0385C54.8471 61.1218 54.875 61.2131 54.8844 61.3072C54.8938 61.4012 54.8845 61.4961 54.8573 61.5866C54.8299 61.677 54.7852 61.7612 54.7252 61.8344C54.6654 61.9076 54.5919 61.9681 54.5085 62.0128C54.4252 62.0576 54.3341 62.0853 54.24 62.0948C48.3061 62.6927 37.0774 67.5221 26.2981 74.1129C26.1853 74.1791 26.0566 74.2131 25.9257 74.2111Z" fill="#196164"/>
<path d="M36.8094 80.7462C36.6521 80.7458 36.4992 80.6939 36.3745 80.598C36.2495 80.502 36.1599 80.3676 36.1192 80.2156C36.0784 80.0637 36.0888 79.9024 36.1489 79.7569C36.2091 79.6115 36.3154 79.4898 36.4514 79.4109C40.4771 77.0642 46.803 74.6387 50.8484 73.8905C50.9424 73.8694 51.0396 73.8674 51.1343 73.8848C51.229 73.9021 51.3192 73.9385 51.3996 73.9914C51.4799 74.0444 51.5488 74.1132 51.602 74.1934C51.6552 74.2735 51.6917 74.3638 51.7092 74.4583C51.7269 74.553 51.7252 74.6503 51.7044 74.7443C51.6835 74.8383 51.6439 74.9269 51.5879 75.0053C51.532 75.0837 51.4608 75.1499 51.3786 75.2001C51.2965 75.2504 51.205 75.2833 51.1098 75.2974C47.2648 76.0134 41.0124 78.4102 37.1728 80.6477C37.0627 80.7124 36.9372 80.7464 36.8094 80.7462Z" fill="#196164"/>
<path d="M116.858 142.71C117.796 144.237 119.006 145.932 120.787 146.066C122.568 146.2 123.985 144.727 125.04 143.311C126.638 141.163 127.934 137.952 126.067 136.035C125.244 135.192 124.03 134.895 122.926 134.483C116.319 132.029 112.816 125.037 108.121 119.782C106.868 118.376 98.1343 111.154 105.214 123.224C106.238 124.969 107.288 126.655 108.359 128.365C109.93 130.871 111.232 133.556 112.784 136.076L116.858 142.71Z" fill="#196164"/>
<path d="M68.5674 136.968C68.3916 136.968 68.2214 136.905 68.0893 136.789C67.9572 136.672 67.8725 136.511 67.8514 136.337C65.9773 121.096 63.5679 105.716 60.6914 90.6292C60.6558 90.4427 60.6959 90.2496 60.8026 90.0924C60.9092 89.9354 61.0741 89.8271 61.2606 89.7915C61.4473 89.7559 61.6403 89.7958 61.7974 89.9027C61.9544 90.0094 62.0627 90.1742 62.0983 90.3607C64.9784 105.48 67.3932 120.888 69.2709 136.164C69.2834 136.264 69.2741 136.368 69.2438 136.465C69.2134 136.561 69.1627 136.651 69.0949 136.728C69.0272 136.803 68.9438 136.864 68.8507 136.905C68.7577 136.946 68.6567 136.968 68.5549 136.968H68.5674Z" fill="white"/>
<path d="M70.4178 152.879C70.2533 152.877 70.094 152.821 69.9665 152.718C69.8391 152.612 69.7512 152.469 69.7179 152.308C69.0878 149.274 68.9643 147.645 68.8838 146.111C68.8789 146.016 68.8925 145.923 68.9239 145.833C68.9554 145.744 69.0039 145.663 69.0669 145.593C69.1299 145.524 69.2061 145.466 69.2912 145.425C69.376 145.384 69.4682 145.361 69.5622 145.357C69.6563 145.352 69.7503 145.364 69.8391 145.397C69.9279 145.429 70.0095 145.477 70.0795 145.54C70.1495 145.602 70.2064 145.679 70.2468 145.763C70.2875 145.849 70.3109 145.941 70.3158 146.036C70.3927 147.512 70.5127 149.079 71.1213 152.016C71.1599 152.2 71.1232 152.395 71.0191 152.553C70.9151 152.712 70.7522 152.823 70.5664 152.863C70.5177 152.873 70.4677 152.879 70.4178 152.879Z" fill="white"/>
<path d="M76.719 174.588C75.5895 174.588 74.716 174.243 74.1664 173.373C73.5292 172.359 71.6926 163.758 71.809 161.032C71.8131 160.939 71.8355 160.846 71.8752 160.762C71.9148 160.676 71.971 160.599 72.0403 160.536C72.1095 160.472 72.1908 160.422 72.2792 160.39C72.3675 160.357 72.4614 160.343 72.5554 160.347C72.6496 160.352 72.7418 160.374 72.8271 160.413C72.9125 160.454 72.9891 160.51 73.0529 160.579C73.1166 160.647 73.1658 160.73 73.1982 160.817C73.2304 160.905 73.2451 161 73.241 161.093C73.1336 163.562 74.9236 171.801 75.389 172.614C76.2196 173.931 79.796 172.614 83.5836 171.228C86.5854 170.126 89.99 168.876 93.2997 168.386C93.3941 168.37 93.4911 168.371 93.5845 168.393C93.6781 168.414 93.7666 168.454 93.8444 168.509C93.9223 168.565 93.9882 168.636 94.0381 168.719C94.0881 168.801 94.121 168.892 94.135 168.987C94.1491 169.082 94.1439 169.179 94.1197 169.27C94.0957 169.363 94.0533 169.451 93.9948 169.528C93.9364 169.603 93.8634 169.667 93.78 169.714C93.6966 169.76 93.6046 169.791 93.5092 169.801C90.3444 170.27 87.015 171.493 84.0777 172.572C81.1403 173.652 78.5788 174.588 76.719 174.588Z" fill="white"/>
<path d="M80.8469 62.0893C80.657 62.1029 80.4696 62.0404 80.3257 61.9156C80.1819 61.791 80.0935 61.6142 80.0799 61.4243C80.0665 61.2344 80.129 61.0469 80.2535 60.903C80.3783 60.7593 80.555 60.6709 80.7449 60.6573C87.4789 59.6799 94.3292 58.5093 100.956 57.3672C107.582 56.2252 114.451 55.0528 121.202 54.0718C121.39 54.0446 121.582 54.0931 121.734 54.2066C121.886 54.3203 121.986 54.4898 122.015 54.6778C122.042 54.8657 121.994 55.0569 121.879 55.2092C121.766 55.3614 121.596 55.4623 121.408 55.4895C114.674 56.4669 107.822 57.6375 101.197 58.7795C94.5726 59.9216 87.7026 61.094 80.9507 62.0749C80.9149 62.0857 80.8791 62.0893 80.8469 62.0893Z" fill="white"/>
<path d="M132.171 53.3362C131.994 53.336 131.822 53.2698 131.692 53.1507C131.561 53.0315 131.477 52.8677 131.461 52.6912C131.443 52.5147 131.491 52.3379 131.597 52.1952C131.702 52.0524 131.856 51.9538 132.03 51.9185C134.795 51.3582 139.113 50.6655 142.177 50.5241C142.367 50.516 142.553 50.5837 142.693 50.7122C142.833 50.8409 142.917 51.0197 142.924 51.2097C142.933 51.3996 142.865 51.585 142.736 51.725C142.607 51.865 142.428 51.948 142.238 51.9561C139.256 52.085 135.03 52.7723 132.315 53.3219C132.268 53.331 132.22 53.3358 132.171 53.3362Z" fill="white"/>
<path d="M119.806 116.146C117.597 116.146 115.667 114.088 114.173 112.495C113.739 112.011 113.28 111.551 112.798 111.114C112.336 110.721 111.135 109.639 109.474 108.143C104.004 103.217 92.6193 92.9681 89.5226 91.1083C89.3655 91.0082 89.2534 90.8505 89.2106 90.669C89.1677 90.4875 89.1974 90.2965 89.2931 90.1365C89.3891 89.9767 89.5436 89.8603 89.7238 89.8125C89.9041 89.7647 90.0958 89.7891 90.2583 89.8805C93.4803 91.8119 104.507 101.744 110.432 107.08C112.086 108.567 113.28 109.643 113.727 110.024C114.25 110.495 114.748 110.993 115.218 111.515C117.334 113.773 119.101 115.418 120.959 114.394C121.041 114.345 121.132 114.311 121.229 114.299C121.324 114.285 121.42 114.292 121.514 114.315C121.607 114.34 121.694 114.385 121.769 114.444C121.846 114.503 121.909 114.576 121.956 114.662C122.002 114.746 122.031 114.839 122.042 114.934C122.051 115.031 122.042 115.128 122.013 115.221C121.984 115.312 121.938 115.398 121.875 115.471C121.812 115.545 121.735 115.604 121.65 115.647C121.087 115.971 120.454 116.143 119.806 116.146Z" fill="#196164"/>
<path d="M74.8396 91.9838C74.7347 91.9838 74.6312 91.9607 74.5362 91.9161C74.4413 91.8715 74.3572 91.8067 74.2901 91.7262C73.3091 90.5484 72.7686 89.4223 72.6361 88.2856C72.4571 86.7623 73.1284 85.2802 74.299 84.5929C75.2996 84.0057 76.4166 84.0111 77.1773 84.1167C79.4309 84.4353 82.6243 85.5346 84.2908 86.3705C84.4605 86.4557 84.5896 86.6048 84.6492 86.7851C84.7089 86.9653 84.6946 87.1619 84.6094 87.3316C84.5242 87.5012 84.3751 87.6303 84.1949 87.6901C84.0146 87.7499 83.8179 87.7356 83.6482 87.6504C82.0819 86.8663 79.0873 85.8333 76.9769 85.5362C76.2215 85.4288 75.527 85.5362 75.024 85.8279C74.3456 86.2253 73.95 87.1687 74.0592 88.1209C74.1576 88.973 74.5962 89.8519 75.3909 90.8059C75.5121 90.952 75.5705 91.1403 75.5529 91.3292C75.5355 91.5182 75.4437 91.6923 75.2978 91.8137C75.1702 91.9233 75.0079 91.9836 74.8396 91.9838Z" fill="#196164"/>
<path d="M79.2127 98.7119C79.1069 98.7119 79.0026 98.6887 78.9068 98.6421C78.8112 98.5974 78.7267 98.5311 78.6596 98.4506C77.7728 97.3748 76.968 96.2353 76.252 95.0399C76.1545 94.8769 76.1257 94.6817 76.172 94.4974C76.2184 94.3132 76.336 94.1548 76.4991 94.0572C76.6621 93.9597 76.8572 93.9308 77.0416 93.9772C77.2258 94.0236 77.3842 94.1412 77.4818 94.3042C78.1611 95.4377 78.924 96.5188 79.764 97.5395C79.8507 97.6433 79.9056 97.7704 79.9228 97.9046C79.9398 98.0407 79.9181 98.1767 79.8603 98.3002C79.8025 98.4237 79.7109 98.5276 79.5963 98.5992C79.4816 98.6725 79.3486 98.7119 79.2127 98.7119Z" fill="#196164"/>
<path d="M92.9545 118.115C92.8283 118.115 92.7042 118.083 92.5949 118.018C92.4855 117.956 92.3946 117.866 92.3316 117.757C89.227 112.328 85.688 107.159 81.7491 102.302C81.636 102.154 81.5848 101.968 81.6064 101.783C81.6281 101.597 81.721 101.429 81.8654 101.311C82.0097 101.194 82.1943 101.137 82.3797 101.153C82.5652 101.169 82.737 101.257 82.8589 101.398C86.8477 106.315 90.4317 111.549 93.5756 117.046C93.6223 117.127 93.6526 117.217 93.6644 117.311C93.6762 117.404 93.6696 117.499 93.6449 117.589C93.62 117.68 93.5776 117.766 93.52 117.839C93.4623 117.915 93.3907 117.975 93.3089 118.024C93.2006 118.083 93.0785 118.115 92.9545 118.115Z" fill="#196164"/>
<path d="M121.933 152.721C120.488 152.721 119.056 152.263 118.009 151.164C117.944 151.094 117.894 151.015 117.86 150.928C117.826 150.84 117.81 150.745 117.813 150.652C117.815 150.557 117.836 150.466 117.874 150.38C117.912 150.294 117.967 150.215 118.036 150.151C118.104 150.086 118.183 150.036 118.271 150.002C118.36 149.968 118.453 149.952 118.546 149.954C118.641 149.957 118.734 149.977 118.82 150.017C118.906 150.054 118.983 150.108 119.047 150.178C120.544 151.749 123.193 151.504 124.924 150.475C126.947 149.272 128.356 147.181 129.467 145.296C133.86 137.845 137.726 130.529 141.46 123.458C145.989 114.893 150.265 106.811 155.34 98.6023C156.534 96.6754 157.488 95.2293 158.413 93.9154C158.467 93.8386 158.537 93.7733 158.615 93.7232C158.696 93.6732 158.785 93.6392 158.877 93.6235C158.97 93.6077 159.065 93.6102 159.156 93.6312C159.249 93.6521 159.335 93.6908 159.412 93.7452C159.489 93.7998 159.553 93.8687 159.604 93.9483C159.654 94.028 159.688 94.1168 159.704 94.2095C159.72 94.3022 159.716 94.3971 159.697 94.4889C159.675 94.5806 159.636 94.6674 159.582 94.7442C158.667 96.033 157.735 97.4567 156.559 99.3577C151.507 107.517 147.242 115.586 142.727 124.128C138.979 131.218 135.104 138.548 130.697 146.028C129.492 148.071 127.951 150.342 125.651 151.712C124.521 152.367 123.24 152.716 121.933 152.721Z" fill="#196164"/>
<path d="M161.634 90.7146C161.521 90.7146 161.408 90.6878 161.308 90.6362C161.206 90.5847 161.12 90.5098 161.052 90.4178C160.986 90.3258 160.943 90.2195 160.925 90.1074C160.909 89.9952 160.918 89.8807 160.953 89.7731C161.286 88.776 161.805 87.8519 162.486 87.0505C162.546 86.9789 162.622 86.92 162.706 86.8772C162.788 86.8344 162.879 86.8085 162.974 86.8011C163.067 86.7936 163.162 86.8045 163.252 86.8335C163.341 86.8625 163.424 86.9089 163.495 86.9698C163.567 87.0308 163.626 87.1054 163.669 87.189C163.712 87.2728 163.737 87.3643 163.744 87.4579C163.753 87.5517 163.74 87.646 163.712 87.7355C163.683 87.825 163.637 87.9079 163.576 87.9795C163.019 88.6398 162.593 89.4013 162.323 90.2224C162.274 90.367 162.183 90.4926 162.06 90.5812C161.934 90.6697 161.786 90.7164 161.634 90.7146Z" fill="#196164"/>
<path d="M174.741 68.6356C174.607 68.6356 174.474 68.5978 174.361 68.5264C174.247 68.455 174.156 68.353 174.097 68.2318C174.037 68.1108 174.014 67.9756 174.029 67.8419C174.043 67.7082 174.095 67.5813 174.179 67.4757C176.64 64.3539 183.455 54.2673 182.443 51.1294C182.241 50.5011 181.922 50.3597 181.7 50.3078C180.324 49.982 177.616 51.9922 176.819 52.8138C176.685 52.945 176.506 53.0187 176.32 53.0191C176.132 53.0196 175.951 52.9468 175.819 52.8161C175.684 52.6856 175.606 52.5075 175.602 52.3205C175.597 52.1334 175.666 51.9519 175.793 51.815C176.481 51.1097 179.748 48.3835 182.028 48.9187C182.624 49.0584 183.415 49.4808 183.807 50.6944C185.314 55.3753 175.403 68.2364 175.303 68.3689C175.235 68.4527 175.149 68.5203 175.052 68.5665C174.956 68.6127 174.848 68.6363 174.741 68.6356Z" fill="#196164"/>
<path d="M158.087 71.782C157.946 71.7821 157.808 71.7406 157.692 71.6629C157.574 71.5851 157.482 71.4744 157.427 71.3448C157.373 71.2151 157.357 71.0721 157.384 70.9337C157.409 70.7951 157.475 70.6675 157.574 70.5666C158.182 69.9419 159.294 68.7569 160.581 67.3857C165.553 62.0909 170.121 57.2686 171.389 56.4291C171.468 56.3772 171.555 56.3413 171.647 56.3234C171.74 56.3053 171.835 56.3056 171.928 56.3244C172.019 56.343 172.107 56.3796 172.185 56.4322C172.262 56.4848 172.329 56.5521 172.382 56.6305C172.434 56.7089 172.47 56.7968 172.488 56.8892C172.506 56.9814 172.506 57.0764 172.486 57.1686C172.468 57.2608 172.431 57.3483 172.379 57.4264C172.325 57.5042 172.259 57.5712 172.18 57.6231C170.947 58.4393 165.111 64.6542 161.619 68.3631C160.328 69.7396 159.211 70.9264 158.596 71.5618C158.529 71.6305 158.451 71.6853 158.363 71.7231C158.277 71.7608 158.182 71.7809 158.087 71.782Z" fill="#196164"/>
</svg>
