<?xml version="1.0" encoding="UTF-8"?>
<svg version="1.1" xmlns="http://www.w3.org/2000/svg" width="1024" height="1024">
<path d="M0 0 C337.92 0 675.84 0 1024 0 C1024 337.92 1024 675.84 1024 1024 C686.08 1024 348.16 1024 0 1024 C0 686.08 0 348.16 0 0 Z " fill="#F9F9F9" transform="translate(0,0)"/>
<path d="M0 0 C2.0293962 0.41874098 4.05902045 0.83637816 6.08886719 1.25292969 C16.86993763 3.47435515 27.64428192 5.73959657 38.38769531 8.13720703 C43.09972721 9.1870616 47.81845703 10.1663938 52.55859375 11.08203125 C53.67331055 11.29827148 54.78802734 11.51451172 55.93652344 11.73730469 C58.0542939 12.14488032 60.17333897 12.54592287 62.29394531 12.93847656 C81.867581 16.70739411 81.867581 16.70739411 88.5 22.9375 C89.64275391 23.96230469 89.64275391 23.96230469 90.80859375 25.0078125 C97.62240722 33.48669998 98.77354109 41.00084065 98.55078125 51.6953125 C98.54370651 52.99072968 98.53663177 54.28614685 98.52934265 55.62081909 C98.51043782 59.03082354 98.46148725 62.43972822 98.40582275 65.8493042 C98.35426754 69.34209321 98.3317521 72.83506351 98.30664062 76.328125 C98.2533464 83.15669595 98.16824118 89.98454488 98.0625 96.8125 C98.95670654 97.09319336 99.85091309 97.37388672 100.7722168 97.66308594 C103.62054336 98.65810868 106.0733843 99.75418019 108.70703125 101.203125 C109.54943359 101.66589844 110.39183594 102.12867188 111.25976562 102.60546875 C112.55430664 103.32669922 112.55430664 103.32669922 113.875 104.0625 C114.72642578 104.52785156 115.57785156 104.99320312 116.45507812 105.47265625 C121.5333288 108.28058465 126.25718243 111.26620127 130.8659668 114.79980469 C135.87876189 117.11091662 141.64435043 114.0758502 146.57421875 112.37109375 C148.05634586 111.86801491 149.53852577 111.36509156 151.02075195 110.86230469 C151.79246735 110.59881226 152.56418274 110.33531982 153.35928345 110.06384277 C210.01140676 90.77844438 210.01140676 90.77844438 225.65625 97.51953125 C234.87467095 102.47293602 240.29260685 111.17629319 246.31738281 119.43945312 C249.47155711 123.72856535 252.70708449 127.95569055 255.9375 132.1875 C256.61385498 133.0753418 257.29020996 133.96318359 257.98706055 134.87792969 C262.41185824 140.67779564 266.88230419 146.44016023 271.375 152.1875 C275.71488132 157.75559168 280.0293791 163.34077325 284.25 169 C284.69577393 169.58765137 285.14154785 170.17530273 285.60083008 170.78076172 C291.4082437 178.64828724 292.4957103 184.37659477 292.33618164 193.92919922 C292.32737473 195.57690811 292.32737473 195.57690811 292.31838989 197.25790405 C292.30477327 199.6352649 292.28482555 202.01259615 292.25923347 204.38985825 C292.22226738 208.1568142 292.20986865 211.92308919 292.20518494 215.69021606 C292.19044967 226.39789817 292.15612598 237.10486162 292.0456543 247.81201172 C291.97828184 254.3690338 291.96371893 260.92507333 291.97836113 267.48242569 C291.97457766 269.97589697 291.95254858 272.46941159 291.9116993 274.96255112 C291.1253769 288.0882248 291.1253769 288.0882248 295.22140503 300.07476807 C297.76070954 302.38788297 297.76070954 302.38788297 300.52268982 303.86380005 C305.00488566 307.3028188 306.66602151 312.00792243 307.44548702 317.52164268 C307.63682498 320.59543885 307.69426201 323.64538249 307.70703125 326.72509766 C307.72689087 327.88605957 307.74675049 329.04702148 307.76721191 330.24316406 C307.82543762 334.07106241 307.85288196 337.89829454 307.875 341.7265625 C307.88596727 343.06100211 307.89739471 344.39543801 307.90927124 345.72986984 C307.9639344 352.02126548 308.00258989 358.31245583 308.0180788 364.60407221 C308.03409022 371.06701989 308.08274443 377.52759462 308.1875 383.98974609 C309.1297743 443.39897956 309.1297743 443.39897956 296.56903076 466.90362549 C294.24055484 471.39954713 292.535196 476.09251028 290.78515625 480.8359375 C290.16726869 482.42728432 289.5456593 484.0171922 288.91992188 485.60546875 C288.00599631 487.93594162 287.09414055 490.2670921 286.18920898 492.60107422 C275.60920784 519.87579571 275.60920784 519.87579571 261.6875 526.75 C245.23160759 532.85002908 225.93057426 527.43189461 209.14138794 524.76968384 C199.13647159 523.18407765 189.14715762 521.77735609 179.0625 520.8125 C179.07360306 521.83012421 179.08470612 522.84774841 179.09614563 523.89620972 C179.19779514 533.51735323 179.27259611 543.13838685 179.32156086 552.75994682 C179.34758117 557.70575329 179.38284002 562.65112397 179.43969727 567.59667969 C179.49428817 572.37536996 179.52397736 577.15364281 179.53688622 581.932621 C179.54607772 583.74979339 179.56402622 585.56694464 179.59115028 587.38393784 C179.87571985 607.2487155 179.87571985 607.2487155 172.47946167 615.59992981 C163.91701102 624.06462027 149.94974918 628.21051726 139.0625 633.125 C137.58814547 633.79232435 136.11386232 634.4598064 134.63964844 635.12744141 C131.74802779 636.43646163 128.85575949 637.74403366 125.96289062 639.05029297 C122.70775717 640.52029299 119.45494974 641.99534877 116.203125 643.47265625 C107.77523416 647.29454988 99.31347839 651.0308619 90.8125 654.6875 C89.95430664 655.0572998 89.09611328 655.42709961 88.21191406 655.80810547 C85.83466494 656.82431622 83.45002898 657.82072959 81.0625 658.8125 C80.37269043 659.11196533 79.68288086 659.41143066 78.97216797 659.7199707 C74.14156495 661.71213644 69.8993311 662.32688121 64.6875 662.25 C63.94363037 662.24025146 63.19976074 662.23050293 62.43334961 662.22045898 C49.28185613 661.79797281 41.98788653 655.10387727 33.234375 645.83984375 C29.31916162 641.63676668 25.50835242 637.34382441 21.75 633 C17.67950159 628.29565269 13.39363704 623.78910753 9.1237793 619.26635742 C8.544104 618.64994385 7.96442871 618.03353027 7.3671875 617.3984375 C6.52208618 616.5010083 6.52208618 616.5010083 5.65991211 615.58544922 C4.13720687 613.89541629 2.75737286 612.14588648 1.37109375 610.34375 C0.60925781 609.5084375 -0.15257812 608.673125 -0.9375 607.8125 C-4.51527436 607.83029154 -4.51527436 607.83029154 -7.046875 608.37890625 C-10.88011087 608.95389163 -14.63066553 608.91162771 -18.5 608.875 C-19.22743408 608.87064941 -19.95486816 608.86629883 -20.7043457 608.86181641 C-22.44876629 608.84976442 -24.19314413 608.83176283 -25.9375 608.8125 C-26.09158325 610.26184937 -26.09158325 610.26184937 -26.2487793 611.74047852 C-26.91249358 616.35151191 -28.40479746 620.58706172 -29.95703125 624.96484375 C-30.25687424 625.82380753 -30.55671722 626.6827713 -30.86564636 627.56776428 C-31.49884702 629.37659951 -32.1352438 631.18431874 -32.7746582 632.9909668 C-33.74472899 635.73508943 -34.702175 638.48337985 -35.65820312 641.23242188 C-36.27789401 642.99765994 -36.89831304 644.76264259 -37.51953125 646.52734375 C-37.80198196 647.33904526 -38.08443268 648.15074677 -38.3754425 648.98704529 C-42.61659468 660.90367745 -48.60026771 671.54121705 -60.046875 677.91796875 C-70.90307012 683.05447429 -81.7280853 680.50269643 -92.99609375 678.13671875 C-95.76638057 677.5739304 -98.53875658 677.0220812 -101.31201172 676.47412109 C-102.02218099 676.33364884 -102.73235025 676.19317659 -103.4640398 676.04844761 C-111.10368022 674.55547156 -118.77966176 673.32659456 -126.47265625 672.14453125 C-127.1532246 672.03957211 -127.83379295 671.93461296 -128.53498459 671.82647324 C-132.66170245 671.19116112 -136.78958448 670.56373632 -140.91802979 669.9397583 C-146.50528467 669.09506089 -152.09151921 668.24385457 -157.67666435 667.38532066 C-159.58011596 667.09426996 -161.4843865 666.80859044 -163.38868713 666.52314758 C-191.804376 662.17452868 -191.804376 662.17452868 -198.78125 653.52734375 C-202.59726447 647.99232276 -204.06375329 644.10550138 -204.05102539 637.3215332 C-204.05117142 636.6676059 -204.05131744 636.01367859 -204.0514679 635.3399353 C-204.05077188 633.18101674 -204.04299408 631.02218472 -204.03515625 628.86328125 C-204.03329096 627.36541287 -204.03186758 625.86754389 -204.03086853 624.36967468 C-204.02705207 620.42904981 -204.0172292 616.48846186 -204.00616455 612.54785156 C-203.99593172 608.52604675 -203.9913669 604.50423596 -203.98632812 600.48242188 C-203.97560616 592.59243099 -203.95854017 584.70247009 -203.9375 576.8125 C-204.70320312 576.67099518 -205.46890625 576.52949036 -206.2578125 576.38369751 C-209.38449915 575.71721844 -212.02024905 574.58027476 -214.9375 573.2734375 C-216.6390625 572.52707031 -216.6390625 572.52707031 -218.375 571.765625 C-220.75290205 570.71225611 -223.1279128 569.65233635 -225.5 568.5859375 C-227.2015625 567.8434375 -227.2015625 567.8434375 -228.9375 567.0859375 C-229.96875 566.62622559 -231 566.16651367 -232.0625 565.69287109 C-237.61838502 563.99157002 -241.68494673 566.45718164 -246.765625 568.8046875 C-247.42384247 569.10672592 -248.08205994 569.40876434 -248.76022339 569.71995544 C-250.17208973 570.36832977 -251.58289861 571.01901085 -252.99273682 571.67178345 C-256.70077901 573.38783184 -260.41748894 575.08494606 -264.1328125 576.78515625 C-264.8780014 577.12675278 -265.62319031 577.4683493 -266.39096069 577.82029724 C-273.26127543 580.96783517 -280.15204892 584.06639616 -287.0625 587.125 C-288.56925293 587.79861572 -288.56925293 587.79861572 -290.10644531 588.48583984 C-300.37936749 593.01801139 -309.3167986 595.81487797 -320.4375 592.375 C-330.15867275 588.434721 -336.54760536 580.30867006 -343.11816406 572.46826172 C-347.13588417 567.68398613 -351.33320598 563.10174302 -355.625 558.5625 C-360.44489659 553.46275017 -365.2250898 548.34044803 -369.89453125 543.1015625 C-371.3199142 541.5044795 -372.75566539 539.91661596 -374.19921875 538.3359375 C-394.96962311 515.55549401 -394.96962311 515.55549401 -395.09571838 501.64898682 C-395.1055072 500.82731522 -395.11529602 500.00564362 -395.12538147 499.15907288 C-395.13401466 497.82011208 -395.13401466 497.82011208 -395.14282227 496.45410156 C-395.15272186 495.50742111 -395.16262146 494.56074066 -395.17282104 493.58537292 C-395.20439454 490.45798234 -395.22917714 487.33057657 -395.25390625 484.203125 C-395.27447935 482.03407396 -395.29547592 479.86502689 -395.31687927 477.69598389 C-395.3720631 471.98813092 -395.42148869 466.28024199 -395.46972656 460.57232666 C-395.51996848 454.74740398 -395.57564051 448.9225335 -395.63085938 443.09765625 C-395.73839585 431.66931543 -395.83985088 420.24092928 -395.9375 408.8125 C-396.6145549 408.68652435 -397.2916098 408.56054871 -397.98918152 408.43075562 C-398.88244644 408.25944122 -399.77571136 408.08812683 -400.69604492 407.91162109 C-402.02100227 407.66078262 -402.02100227 407.66078262 -403.37272644 407.40487671 C-407.02821811 406.56058068 -409.91424896 405.16770835 -413.25 403.4375 C-414.40113281 402.85226562 -415.55226563 402.26703125 -416.73828125 401.6640625 C-421.45012859 398.93705928 -425.00844322 396.3957411 -427.625 391.5625 C-428.02074219 390.85609375 -428.41648437 390.1496875 -428.82421875 389.421875 C-431.87548636 382.27013198 -432.24256002 375.51993976 -432.25976562 367.85205078 C-432.26969543 366.78073914 -432.27962524 365.70942749 -432.28985596 364.60565186 C-432.31897329 361.073012 -432.33269123 357.54055252 -432.34375 354.0078125 C-432.34940475 352.78988888 -432.35505951 351.57196526 -432.36088562 350.31713486 C-432.39084001 343.85513195 -432.40931032 337.39321778 -432.41796875 330.93115234 C-432.42885336 324.32862727 -432.47673464 317.72694489 -432.53391266 311.12468147 C-432.57161642 305.98861533 -432.58160075 300.85274161 -432.5846405 295.71654892 C-432.590607 293.28741796 -432.60636175 290.85828669 -432.63301086 288.42929459 C-432.79921701 272.09672407 -430.92511209 257.36525162 -426.68145657 241.58142185 C-425.7692986 238.18647349 -424.92088894 234.77749348 -424.07660866 231.3651619 C-423.20396509 227.86120183 -422.28861563 224.36845712 -421.375 220.875 C-420.78853127 218.62597286 -420.20232964 216.37687625 -419.61619568 214.12776184 C-419.23680435 212.67253735 -418.85690594 211.21744495 -418.47645569 209.76249695 C-417.43118599 205.75428074 -416.4243364 201.73957124 -415.4609375 197.7109375 C-412.54261344 185.61276427 -409.47693818 176.61275738 -398.890625 169.28515625 C-391.21917623 165.45957928 -383.99513285 164.36204712 -375.5 164.5625 C-374.52281006 164.57490723 -373.54562012 164.58731445 -372.53881836 164.60009766 C-369.33758055 164.64999493 -366.13801095 164.72832581 -362.9375 164.8125 C-361.803125 164.83860352 -360.66875 164.86470703 -359.5 164.89160156 C-326.28107132 165.69797623 -326.28107132 165.69797623 -316.9375 168.8125 C-316.94638245 167.72779419 -316.95526489 166.64308838 -316.9644165 165.5255127 C-317.04562705 155.28562694 -317.10552526 145.04580684 -317.14474869 134.80567169 C-317.16559205 129.54153484 -317.1938504 124.2776587 -317.23925781 119.01367188 C-317.28283135 113.93026682 -317.30666156 108.847112 -317.31700897 103.76353455 C-317.32437969 101.8275102 -317.33877298 99.89149901 -317.36042023 97.95558167 C-317.38960728 95.23636659 -317.39344964 92.51817552 -317.39160156 89.79882812 C-317.40598267 89.00472534 -317.42036377 88.21062256 -317.43518066 87.39245605 C-317.38473469 80.49854201 -315.14615561 75.46288674 -310.75 70.1875 C-304.07095779 64.54741991 -296.6388554 60.4444553 -288.8125 56.625 C-287.86528076 56.15650635 -286.91806152 55.6880127 -285.94213867 55.20532227 C-279.07551511 51.82197317 -272.16531797 48.53230004 -265.25 45.25 C-254.12979584 39.97112641 -243.25154063 34.29673052 -232.41894531 28.45410156 C-230.71272675 27.53446987 -229.00504931 26.61753954 -227.29589844 25.70336914 C-225.69944313 24.84942563 -224.10605866 23.9897025 -222.51660156 23.12280273 C-211.58751797 17.28551405 -201.31057852 14.90915455 -188.87890625 17.43359375 C-177.93233255 20.9271811 -170.34421599 29.23758389 -162.5078125 37.23828125 C-159.86461268 39.88549809 -157.1412263 42.29685917 -154.2265625 44.63671875 C-152.20030687 46.56269893 -150.69003598 48.41796845 -149.0234375 50.64453125 C-142.82151702 58.59196835 -142.82151702 58.59196835 -133.79101562 62.31201172 C-125.22159147 62.45955018 -116.7824489 61.08640641 -108.42944336 59.26586914 C-105.73697974 58.77601855 -103.15203043 58.60301236 -100.41796875 58.49609375 C-99.39638672 58.45419922 -98.37480469 58.41230469 -97.32226562 58.36914062 C-96.26716797 58.32982422 -95.21207031 58.29050781 -94.125 58.25 C-93.05056641 58.20681641 -91.97613281 58.16363281 -90.86914062 58.11914062 C-88.22537918 58.01339017 -85.5815289 57.91129767 -82.9375 57.8125 C-82.58558594 56.58853516 -82.58558594 56.58853516 -82.2265625 55.33984375 C-80.66534608 51.0677879 -78.56625802 47.3139967 -76.3125 43.375 C-75.40779586 41.77142995 -74.5041657 40.16725355 -73.6015625 38.5625 C-73.15200195 37.76457031 -72.70244141 36.96664062 -72.23925781 36.14453125 C-70.3420553 32.74579186 -68.51017949 29.31411076 -66.6875 25.875 C-66.36056152 25.26406494 -66.03362305 24.65312988 -65.69677734 24.02368164 C-64.22091099 21.26176736 -62.77851717 18.4909211 -61.390625 15.68359375 C-56.48734972 5.99567082 -50.21945056 0.4073173 -39.9375 -3.1875 C-27.05680963 -7.02547825 -12.69707599 -2.68542713 0 0 Z " fill="#1AE1D6" transform="translate(564.9375,168.1875)"/>
<path d="M0 0 C2.0293962 0.41874098 4.05902045 0.83637816 6.08886719 1.25292969 C16.86993763 3.47435515 27.64428192 5.73959657 38.38769531 8.13720703 C43.09972721 9.1870616 47.81845703 10.1663938 52.55859375 11.08203125 C53.67331055 11.29827148 54.78802734 11.51451172 55.93652344 11.73730469 C58.0542939 12.14488032 60.17333897 12.54592287 62.29394531 12.93847656 C81.867581 16.70739411 81.867581 16.70739411 88.5 22.9375 C89.64275391 23.96230469 89.64275391 23.96230469 90.80859375 25.0078125 C97.62240722 33.48669998 98.77354109 41.00084065 98.55078125 51.6953125 C98.54370651 52.99072968 98.53663177 54.28614685 98.52934265 55.62081909 C98.51043782 59.03082354 98.46148725 62.43972822 98.40582275 65.8493042 C98.35426754 69.34209321 98.3317521 72.83506351 98.30664062 76.328125 C98.2533464 83.15669595 98.16824118 89.98454488 98.0625 96.8125 C98.95670654 97.09319336 99.85091309 97.37388672 100.7722168 97.66308594 C103.62054336 98.65810868 106.0733843 99.75418019 108.70703125 101.203125 C109.54943359 101.66589844 110.39183594 102.12867188 111.25976562 102.60546875 C112.55430664 103.32669922 112.55430664 103.32669922 113.875 104.0625 C114.72642578 104.52785156 115.57785156 104.99320312 116.45507812 105.47265625 C121.5333288 108.28058465 126.25718243 111.26620127 130.8659668 114.79980469 C135.87876189 117.11091662 141.64435043 114.0758502 146.57421875 112.37109375 C148.05634586 111.86801491 149.53852577 111.36509156 151.02075195 110.86230469 C151.79246735 110.59881226 152.56418274 110.33531982 153.35928345 110.06384277 C210.01140676 90.77844438 210.01140676 90.77844438 225.65625 97.51953125 C234.87467095 102.47293602 240.29260685 111.17629319 246.31738281 119.43945312 C249.47155711 123.72856535 252.70708449 127.95569055 255.9375 132.1875 C256.61385498 133.0753418 257.29020996 133.96318359 257.98706055 134.87792969 C262.41185824 140.67779564 266.88230419 146.44016023 271.375 152.1875 C275.71488132 157.75559168 280.0293791 163.34077325 284.25 169 C284.69577393 169.58765137 285.14154785 170.17530273 285.60083008 170.78076172 C291.4082437 178.64828724 292.4957103 184.37659477 292.33618164 193.92919922 C292.32737473 195.57690811 292.32737473 195.57690811 292.31838989 197.25790405 C292.30477327 199.6352649 292.28482555 202.01259615 292.25923347 204.38985825 C292.22226738 208.1568142 292.20986865 211.92308919 292.20518494 215.69021606 C292.19044967 226.39789817 292.15612598 237.10486162 292.0456543 247.81201172 C291.97828184 254.3690338 291.96371893 260.92507333 291.97836113 267.48242569 C291.97457766 269.97589697 291.95254858 272.46941159 291.9116993 274.96255112 C291.1253769 288.0882248 291.1253769 288.0882248 295.22140503 300.07476807 C297.76070954 302.38788297 297.76070954 302.38788297 300.52268982 303.86380005 C305.00488566 307.3028188 306.66602151 312.00792243 307.44548702 317.52164268 C307.63682498 320.59543885 307.69426201 323.64538249 307.70703125 326.72509766 C307.72689087 327.88605957 307.74675049 329.04702148 307.76721191 330.24316406 C307.82543762 334.07106241 307.85288196 337.89829454 307.875 341.7265625 C307.88596727 343.06100211 307.89739471 344.39543801 307.90927124 345.72986984 C307.9639344 352.02126548 308.00258989 358.31245583 308.0180788 364.60407221 C308.03409022 371.06701989 308.08274443 377.52759462 308.1875 383.98974609 C309.1297743 443.39897956 309.1297743 443.39897956 296.56903076 466.90362549 C294.24055484 471.39954713 292.535196 476.09251028 290.78515625 480.8359375 C290.16726869 482.42728432 289.5456593 484.0171922 288.91992188 485.60546875 C288.00599631 487.93594162 287.09414055 490.2670921 286.18920898 492.60107422 C275.60920784 519.87579571 275.60920784 519.87579571 261.6875 526.75 C245.23160759 532.85002908 225.93057426 527.43189461 209.14138794 524.76968384 C199.13647159 523.18407765 189.14715762 521.77735609 179.0625 520.8125 C179.07360306 521.83012421 179.08470612 522.84774841 179.09614563 523.89620972 C179.19779514 533.51735323 179.27259611 543.13838685 179.32156086 552.75994682 C179.34758117 557.70575329 179.38284002 562.65112397 179.43969727 567.59667969 C179.49428817 572.37536996 179.52397736 577.15364281 179.53688622 581.932621 C179.54607772 583.74979339 179.56402622 585.56694464 179.59115028 587.38393784 C179.87571985 607.2487155 179.87571985 607.2487155 172.47946167 615.59992981 C163.91701102 624.06462027 149.94974918 628.21051726 139.0625 633.125 C137.58814547 633.79232435 136.11386232 634.4598064 134.63964844 635.12744141 C131.74802779 636.43646163 128.85575949 637.74403366 125.96289062 639.05029297 C122.70775717 640.52029299 119.45494974 641.99534877 116.203125 643.47265625 C107.77523416 647.29454988 99.31347839 651.0308619 90.8125 654.6875 C89.95430664 655.0572998 89.09611328 655.42709961 88.21191406 655.80810547 C85.83466494 656.82431622 83.45002898 657.82072959 81.0625 658.8125 C80.37269043 659.11196533 79.68288086 659.41143066 78.97216797 659.7199707 C74.14156495 661.71213644 69.8993311 662.32688121 64.6875 662.25 C63.94363037 662.24025146 63.19976074 662.23050293 62.43334961 662.22045898 C49.28185613 661.79797281 41.98788653 655.10387727 33.234375 645.83984375 C29.31916162 641.63676668 25.50835242 637.34382441 21.75 633 C17.67950159 628.29565269 13.39363704 623.78910753 9.1237793 619.26635742 C8.544104 618.64994385 7.96442871 618.03353027 7.3671875 617.3984375 C6.52208618 616.5010083 6.52208618 616.5010083 5.65991211 615.58544922 C4.13720687 613.89541629 2.75737286 612.14588648 1.37109375 610.34375 C0.60925781 609.5084375 -0.15257812 608.673125 -0.9375 607.8125 C-4.51527436 607.83029154 -4.51527436 607.83029154 -7.046875 608.37890625 C-10.88011087 608.95389163 -14.63066553 608.91162771 -18.5 608.875 C-19.22743408 608.87064941 -19.95486816 608.86629883 -20.7043457 608.86181641 C-22.44876629 608.84976442 -24.19314413 608.83176283 -25.9375 608.8125 C-26.09158325 610.26184937 -26.09158325 610.26184937 -26.2487793 611.74047852 C-26.91249358 616.35151191 -28.40479746 620.58706172 -29.95703125 624.96484375 C-30.25687424 625.82380753 -30.55671722 626.6827713 -30.86564636 627.56776428 C-31.49884702 629.37659951 -32.1352438 631.18431874 -32.7746582 632.9909668 C-33.74472899 635.73508943 -34.702175 638.48337985 -35.65820312 641.23242188 C-36.27789401 642.99765994 -36.89831304 644.76264259 -37.51953125 646.52734375 C-37.80198196 647.33904526 -38.08443268 648.15074677 -38.3754425 648.98704529 C-42.61659468 660.90367745 -48.60026771 671.54121705 -60.046875 677.91796875 C-70.90307012 683.05447429 -81.7280853 680.50269643 -92.99609375 678.13671875 C-95.76638057 677.5739304 -98.53875658 677.0220812 -101.31201172 676.47412109 C-102.02218099 676.33364884 -102.73235025 676.19317659 -103.4640398 676.04844761 C-111.10368022 674.55547156 -118.77966176 673.32659456 -126.47265625 672.14453125 C-127.1532246 672.03957211 -127.83379295 671.93461296 -128.53498459 671.82647324 C-132.66170245 671.19116112 -136.78958448 670.56373632 -140.91802979 669.9397583 C-146.50528467 669.09506089 -152.09151921 668.24385457 -157.67666435 667.38532066 C-159.58011596 667.09426996 -161.4843865 666.80859044 -163.38868713 666.52314758 C-191.804376 662.17452868 -191.804376 662.17452868 -198.78125 653.52734375 C-202.59726447 647.99232276 -204.06375329 644.10550138 -204.05102539 637.3215332 C-204.05117142 636.6676059 -204.05131744 636.01367859 -204.0514679 635.3399353 C-204.05077188 633.18101674 -204.04299408 631.02218472 -204.03515625 628.86328125 C-204.03329096 627.36541287 -204.03186758 625.86754389 -204.03086853 624.36967468 C-204.02705207 620.42904981 -204.0172292 616.48846186 -204.00616455 612.54785156 C-203.99593172 608.52604675 -203.9913669 604.50423596 -203.98632812 600.48242188 C-203.97560616 592.59243099 -203.95854017 584.70247009 -203.9375 576.8125 C-204.70320312 576.67099518 -205.46890625 576.52949036 -206.2578125 576.38369751 C-209.38449915 575.71721844 -212.02024905 574.58027476 -214.9375 573.2734375 C-216.6390625 572.52707031 -216.6390625 572.52707031 -218.375 571.765625 C-220.75290205 570.71225611 -223.1279128 569.65233635 -225.5 568.5859375 C-227.2015625 567.8434375 -227.2015625 567.8434375 -228.9375 567.0859375 C-229.96875 566.62622559 -231 566.16651367 -232.0625 565.69287109 C-237.61838502 563.99157002 -241.68494673 566.45718164 -246.765625 568.8046875 C-247.42384247 569.10672592 -248.08205994 569.40876434 -248.76022339 569.71995544 C-250.17208973 570.36832977 -251.58289861 571.01901085 -252.99273682 571.67178345 C-256.70077901 573.38783184 -260.41748894 575.08494606 -264.1328125 576.78515625 C-264.8780014 577.12675278 -265.62319031 577.4683493 -266.39096069 577.82029724 C-273.26127543 580.96783517 -280.15204892 584.06639616 -287.0625 587.125 C-288.56925293 587.79861572 -288.56925293 587.79861572 -290.10644531 588.48583984 C-300.37936749 593.01801139 -309.3167986 595.81487797 -320.4375 592.375 C-330.15867275 588.434721 -336.54760536 580.30867006 -343.11816406 572.46826172 C-347.13588417 567.68398613 -351.33320598 563.10174302 -355.625 558.5625 C-360.44489659 553.46275017 -365.2250898 548.34044803 -369.89453125 543.1015625 C-371.3199142 541.5044795 -372.75566539 539.91661596 -374.19921875 538.3359375 C-394.96962311 515.55549401 -394.96962311 515.55549401 -395.09571838 501.64898682 C-395.1055072 500.82731522 -395.11529602 500.00564362 -395.12538147 499.15907288 C-395.13401466 497.82011208 -395.13401466 497.82011208 -395.14282227 496.45410156 C-395.15272186 495.50742111 -395.16262146 494.56074066 -395.17282104 493.58537292 C-395.20439454 490.45798234 -395.22917714 487.33057657 -395.25390625 484.203125 C-395.27447935 482.03407396 -395.29547592 479.86502689 -395.31687927 477.69598389 C-395.3720631 471.98813092 -395.42148869 466.28024199 -395.46972656 460.57232666 C-395.51996848 454.74740398 -395.57564051 448.9225335 -395.63085938 443.09765625 C-395.73839585 431.66931543 -395.83985088 420.24092928 -395.9375 408.8125 C-396.6145549 408.68652435 -397.2916098 408.56054871 -397.98918152 408.43075562 C-398.88244644 408.25944122 -399.77571136 408.08812683 -400.69604492 407.91162109 C-402.02100227 407.66078262 -402.02100227 407.66078262 -403.37272644 407.40487671 C-407.02821811 406.56058068 -409.91424896 405.16770835 -413.25 403.4375 C-414.40113281 402.85226562 -415.55226563 402.26703125 -416.73828125 401.6640625 C-421.45012859 398.93705928 -425.00844322 396.3957411 -427.625 391.5625 C-428.02074219 390.85609375 -428.41648437 390.1496875 -428.82421875 389.421875 C-431.87548636 382.27013198 -432.24256002 375.51993976 -432.25976562 367.85205078 C-432.26969543 366.78073914 -432.27962524 365.70942749 -432.28985596 364.60565186 C-432.31897329 361.073012 -432.33269123 357.54055252 -432.34375 354.0078125 C-432.34940475 352.78988888 -432.35505951 351.57196526 -432.36088562 350.31713486 C-432.39084001 343.85513195 -432.40931032 337.39321778 -432.41796875 330.93115234 C-432.42885336 324.32862727 -432.47673464 317.72694489 -432.53391266 311.12468147 C-432.57161642 305.98861533 -432.58160075 300.85274161 -432.5846405 295.71654892 C-432.590607 293.28741796 -432.60636175 290.85828669 -432.63301086 288.42929459 C-432.79921701 272.09672407 -430.92511209 257.36525162 -426.68145657 241.58142185 C-425.7692986 238.18647349 -424.92088894 234.77749348 -424.07660866 231.3651619 C-423.20396509 227.86120183 -422.28861563 224.36845712 -421.375 220.875 C-420.78853127 218.62597286 -420.20232964 216.37687625 -419.61619568 214.12776184 C-419.23680435 212.67253735 -418.85690594 211.21744495 -418.47645569 209.76249695 C-417.43118599 205.75428074 -416.4243364 201.73957124 -415.4609375 197.7109375 C-412.54261344 185.61276427 -409.47693818 176.61275738 -398.890625 169.28515625 C-391.21917623 165.45957928 -383.99513285 164.36204712 -375.5 164.5625 C-374.52281006 164.57490723 -373.54562012 164.58731445 -372.53881836 164.60009766 C-369.33758055 164.64999493 -366.13801095 164.72832581 -362.9375 164.8125 C-361.803125 164.83860352 -360.66875 164.86470703 -359.5 164.89160156 C-326.28107132 165.69797623 -326.28107132 165.69797623 -316.9375 168.8125 C-316.94638245 167.72779419 -316.95526489 166.64308838 -316.9644165 165.5255127 C-317.04562705 155.28562694 -317.10552526 145.04580684 -317.14474869 134.80567169 C-317.16559205 129.54153484 -317.1938504 124.2776587 -317.23925781 119.01367188 C-317.28283135 113.93026682 -317.30666156 108.847112 -317.31700897 103.76353455 C-317.32437969 101.8275102 -317.33877298 99.89149901 -317.36042023 97.95558167 C-317.38960728 95.23636659 -317.39344964 92.51817552 -317.39160156 89.79882812 C-317.40598267 89.00472534 -317.42036377 88.21062256 -317.43518066 87.39245605 C-317.38473469 80.49854201 -315.14615561 75.46288674 -310.75 70.1875 C-304.07095779 64.54741991 -296.6388554 60.4444553 -288.8125 56.625 C-287.86528076 56.15650635 -286.91806152 55.6880127 -285.94213867 55.20532227 C-279.07551511 51.82197317 -272.16531797 48.53230004 -265.25 45.25 C-254.12979584 39.97112641 -243.25154063 34.29673052 -232.41894531 28.45410156 C-230.71272675 27.53446987 -229.00504931 26.61753954 -227.29589844 25.70336914 C-225.69944313 24.84942563 -224.10605866 23.9897025 -222.51660156 23.12280273 C-211.58751797 17.28551405 -201.31057852 14.90915455 -188.87890625 17.43359375 C-177.93233255 20.9271811 -170.34421599 29.23758389 -162.5078125 37.23828125 C-159.86461268 39.88549809 -157.1412263 42.29685917 -154.2265625 44.63671875 C-152.20030687 46.56269893 -150.69003598 48.41796845 -149.0234375 50.64453125 C-142.82151702 58.59196835 -142.82151702 58.59196835 -133.79101562 62.31201172 C-125.22159147 62.45955018 -116.7824489 61.08640641 -108.42944336 59.26586914 C-105.73697974 58.77601855 -103.15203043 58.60301236 -100.41796875 58.49609375 C-99.39638672 58.45419922 -98.37480469 58.41230469 -97.32226562 58.36914062 C-96.26716797 58.32982422 -95.21207031 58.29050781 -94.125 58.25 C-93.05056641 58.20681641 -91.97613281 58.16363281 -90.86914062 58.11914062 C-88.22537918 58.01339017 -85.5815289 57.91129767 -82.9375 57.8125 C-82.58558594 56.58853516 -82.58558594 56.58853516 -82.2265625 55.33984375 C-80.66534608 51.0677879 -78.56625802 47.3139967 -76.3125 43.375 C-75.40779586 41.77142995 -74.5041657 40.16725355 -73.6015625 38.5625 C-73.15200195 37.76457031 -72.70244141 36.96664062 -72.23925781 36.14453125 C-70.3420553 32.74579186 -68.51017949 29.31411076 -66.6875 25.875 C-66.36056152 25.26406494 -66.03362305 24.65312988 -65.69677734 24.02368164 C-64.22091099 21.26176736 -62.77851717 18.4909211 -61.390625 15.68359375 C-56.48734972 5.99567082 -50.21945056 0.4073173 -39.9375 -3.1875 C-27.05680963 -7.02547825 -12.69707599 -2.68542713 0 0 Z M-31.9375 19.8125 C-37.6899692 29.97995685 -43.22036492 40.23557026 -48.5625 50.625 C-63.36183663 79.28727888 -63.36183663 79.28727888 -70.9375 81.8125 C-72.93807933 81.9964489 -74.9431916 82.13259774 -76.94921875 82.2421875 C-78.17141113 82.31381104 -79.39360352 82.38543457 -80.65283203 82.45922852 C-82.61905518 82.5722229 -82.61905518 82.5722229 -84.625 82.6875 C-106.01074408 83.72284111 -106.01074408 83.72284111 -127.02807617 87.33813477 C-133.40187651 88.92160159 -141.50628046 89.07837434 -147.4375 86.0625 C-159.05462235 78.41063159 -169.06045563 67.99743686 -179.14453125 58.49658203 C-181.93448649 55.87606035 -184.74473269 53.27805658 -187.5625 50.6875 C-188.48289062 49.83929688 -189.40328125 48.99109375 -190.3515625 48.1171875 C-191.63160156 46.97636719 -191.63160156 46.97636719 -192.9375 45.8125 C-193.72898437 45.03132813 -194.52046875 44.25015625 -195.3359375 43.4453125 C-198.9676616 41.16594212 -200.79096507 41.92000214 -204.9375 42.8125 C-207.51218994 43.89201232 -209.92185687 44.99980464 -212.390625 46.27734375 C-213.08397949 46.62619125 -213.77733398 46.97503876 -214.49169922 47.3344574 C-216.72872201 48.46323223 -218.95809525 49.60626363 -221.1875 50.75 C-222.73497919 51.53475165 -224.28283284 52.31876533 -225.83105469 53.10205078 C-234.37311491 57.43357899 -242.88663121 61.82063449 -251.33398438 66.33447266 C-255.43064548 68.51867143 -259.55556005 70.62856363 -263.71875 72.68359375 C-265.20713379 73.41860107 -265.20713379 73.41860107 -266.72558594 74.16845703 C-268.6375342 75.10867161 -270.55207877 76.04363335 -272.46972656 76.97216797 C-277.67821909 79.53209484 -282.31657478 82.29630417 -286.9375 85.8125 C-282.51031645 96.12237951 -276.18273335 104.66957999 -269.53857422 113.63232422 C-267.19769115 116.81989448 -264.93330153 120.05750623 -262.6875 123.3125 C-261.98109375 124.3334375 -261.2746875 125.354375 -260.546875 126.40625 C-257.21181234 131.39265436 -256.91440053 135.91237 -257.9375 141.8125 C-261.61065978 148.6220541 -267.95077557 153.90596171 -273.44018555 159.28320312 C-277.48560353 163.2694385 -281.097405 167.4916373 -284.640625 171.93359375 C-287.29891864 175.26550261 -290.0115874 178.54636535 -292.75 181.8125 C-293.20640869 182.36478271 -293.66281738 182.91706543 -294.13305664 183.48608398 C-298.95872838 189.23186351 -303.19209787 192.3805223 -310.85546875 193.078125 C-319.04768203 193.03897464 -327.14624383 192.52677532 -335.3125 191.875 C-345.43756065 191.08215651 -355.56133716 190.43183501 -365.70928955 190.02975464 C-367.18971187 189.96846069 -368.66985284 189.89992557 -370.14959717 189.82400513 C-372.22448173 189.71940215 -374.2987322 189.64139789 -376.375 189.5703125 C-378.16744141 189.49514404 -378.16744141 189.49514404 -379.99609375 189.41845703 C-382.98021 189.53297008 -382.98021 189.53297008 -384.75610352 191.47851562 C-386.0932504 194.1202028 -386.78061364 196.5021141 -387.40234375 199.3984375 C-387.76307983 201.03087402 -387.76307983 201.03087402 -388.13110352 202.69628906 C-388.37658936 203.84838867 -388.6220752 205.00048828 -388.875 206.1875 C-389.40088325 208.56571673 -389.92950237 210.94333024 -390.4609375 213.3203125 C-390.84137207 215.0223584 -390.84137207 215.0223584 -391.22949219 216.75878906 C-392.03677664 220.24069043 -392.97079945 223.64019899 -394 227.0625 C-396.07843125 233.99350296 -397.63216284 241.02588421 -399.18774414 248.08886719 C-400.05541626 252.01329571 -400.92860624 255.90524765 -402.078125 259.7578125 C-402.96702389 262.917444 -403.09675928 265.54768476 -402.9375 268.8125 C-396.96532071 271.70658128 -391.06429529 272.97147872 -384.5625 274.1875 C-382.33197453 274.61819593 -380.10150748 275.04919453 -377.87109375 275.48046875 C-376.15768799 275.80797119 -376.15768799 275.80797119 -374.40966797 276.14208984 C-370.98940806 276.80247753 -367.57428239 277.48443186 -364.16015625 278.17578125 C-363.06429199 278.39766113 -361.96842773 278.61954102 -360.83935547 278.84814453 C-358.76402173 279.269012 -356.68881685 279.69051562 -354.61376953 280.11279297 C-348.59399261 281.3240096 -342.57236399 282.37971589 -336.49951172 283.29150391 C-332.84926625 284.03379701 -330.63469417 285.25362348 -327.9375 287.8125 C-325.19923924 293.44360075 -323.50305009 299.31514294 -321.75 305.3125 C-319.88731598 311.61822277 -317.95971571 317.86950666 -315.703125 324.046875 C-315.33598389 325.05556641 -314.96884277 326.06425781 -314.59057617 327.10351562 C-313.88448453 329.0193049 -313.16416674 330.92993553 -312.42700195 332.83398438 C-309.73837169 340.14929644 -308.11470861 347.78716901 -311.4375 355.125 C-317.49106822 361.63258584 -325.37059374 366.10544442 -332.875 370.75 C-333.90173828 371.38881104 -334.92847656 372.02762207 -335.98632812 372.68579102 C-347.55721238 379.85984425 -359.23786805 386.85092053 -370.9375 393.8125 C-369.40702808 397.43522247 -367.25094151 399.74122656 -364.4753418 402.50170898 C-363.55065598 403.42624374 -362.62597015 404.3507785 -361.67326355 405.30332947 C-360.66118486 406.3051882 -359.64900064 407.30694033 -358.63671875 408.30859375 C-357.59736641 409.34421154 -356.55845802 410.38027505 -355.51997375 411.41676331 C-352.78577865 414.14333157 -350.04563815 416.86384762 -347.30419922 419.58312988 C-344.52800314 422.33894243 -341.75738071 425.10034538 -338.98632812 427.86132812 C-334.09854132 432.72999198 -329.20587631 437.59369801 -324.30961609 442.45384216 C-320.98008227 445.7644858 -317.65489544 449.07760712 -314.375 452.4375 C-311.38343536 455.43141982 -311.38343536 455.43141982 -307.9375 457.8125 C-303.54276409 457.32073286 -299.65583832 455.56494091 -295.63671875 453.8203125 C-294.93155624 453.51818344 -294.22639374 453.21605438 -293.49986267 452.9047699 C-291.98949572 452.25637717 -290.48014919 451.6056032 -288.97174072 450.95266724 C-286.60722878 449.92981242 -284.23919432 448.91547306 -281.87060547 447.90209961 C-274.76533728 444.85023357 -267.70289796 441.74937287 -260.74609375 438.37109375 C-259.68753174 437.8611084 -258.62896973 437.35112305 -257.53833008 436.82568359 C-255.62729709 435.89407657 -253.72621732 434.94160514 -251.83862305 433.96337891 C-244.40787415 430.34489103 -236.76183519 429.21693739 -228.6640625 431.43530273 C-226.71715449 432.25167666 -224.9463914 433.18413957 -223.125 434.25 C-222.45597656 434.61053467 -221.78695312 434.97106934 -221.09765625 435.3425293 C-219.02556599 436.46903436 -216.97963959 437.63268518 -214.9375 438.8125 C-214.31568848 439.17053711 -213.69387695 439.52857422 -213.05322266 439.89746094 C-212.44397949 440.2484082 -211.83473633 440.59935547 -211.20703125 440.9609375 C-209.95064142 441.68250167 -208.69412944 442.4038532 -207.4375 443.125 C-206.49076416 443.67450317 -206.49076416 443.67450317 -205.52490234 444.23510742 C-198.30716627 448.33589489 -190.71693548 451.64004334 -183.09765625 454.91918945 C-177.77636298 457.26423255 -173.56851899 459.1953727 -169.9375 463.8125 C-166.465342 474.22897401 -170.88459415 486.15445568 -173.21484375 496.47265625 C-176.55221893 511.00099706 -176.55221893 511.00099706 -177.9375 525.8125 C-173.51616866 528.25304094 -169.58423759 529.47267876 -164.62109375 530.35546875 C-163.90790482 530.48494904 -163.19471588 530.61442932 -162.45991516 530.74783325 C-160.09976242 531.17403317 -157.73749787 531.5870154 -155.375 532 C-153.70916395 532.2982583 -152.04347664 532.59734831 -150.37792969 532.8972168 C-145.86412476 533.7073726 -141.34832078 534.50580906 -136.83197021 535.30163574 C-131.8102122 536.18795914 -126.78996068 537.08274967 -121.76953125 537.9765625 C-115.81113546 539.03727366 -109.85254194 540.09672975 -103.89233398 541.1472168 C-102.50826607 541.39168045 -102.50826607 541.39168045 -101.09623718 541.64108276 C-99.38457844 541.94330162 -97.67276958 542.24467229 -95.96076965 542.54495239 C-90.99980804 543.42189345 -86.06088692 544.37814435 -81.1272583 545.39811707 C-78.27615195 545.93765141 -75.82014873 546.23435103 -72.9375 545.8125 C-69.95757007 542.63703661 -68.63302798 538.84295456 -67.1875 534.8125 C-66.93291016 534.11825928 -66.67832031 533.42401855 -66.41601562 532.70874023 C-62.57742358 522.17933354 -58.88508949 511.59114229 -55.30078125 500.97265625 C-55.03910156 500.20751709 -54.77742188 499.44237793 -54.5078125 498.65405273 C-54.02013372 497.22762374 -53.53911388 495.79889165 -53.06640625 494.36743164 C-51.42543657 489.59657466 -49.57810809 484.49678172 -45.16186523 481.67993164 C-42.46241466 480.62723184 -40.16684521 480.44272733 -37.2734375 480.28515625 C-36.15952637 480.2166748 -35.04561523 480.14819336 -33.89794922 480.07763672 C-32.71475098 480.0107666 -31.53155273 479.94389648 -30.3125 479.875 C-21.34969478 479.30341383 -12.57207551 478.53700384 -3.75927734 476.77758789 C4.34870703 475.20480501 10.80479822 474.79471904 17.9375 479.203125 C21.56380729 481.94951949 24.29252721 485.22782933 27.0625 488.8125 C27.57941406 489.48023438 28.09632813 490.14796875 28.62890625 490.8359375 C29.74779549 492.28644933 30.86487212 493.73836053 31.98046875 495.19140625 C36.06420531 500.33247047 40.39248779 505.27051062 44.69238281 510.23095703 C45.85827731 511.57676326 47.01948458 512.9266278 48.1796875 514.27734375 C49.78861855 516.14012836 51.42016625 517.97919721 53.0625 519.8125 C53.57167969 520.410625 54.08085938 521.00875 54.60546875 521.625 C56.91824691 524.1934323 58.31692759 525.7263558 61.82421875 526.1315918 C65.5865608 525.76086041 68.34471465 524.71286887 71.8125 523.20703125 C72.45504227 522.93160492 73.09758453 522.65617859 73.75959778 522.37240601 C75.86516868 521.46686707 77.96371046 520.54613392 80.0625 519.625 C81.53694358 518.98708876 83.0118035 518.35013905 84.48706055 517.71411133 C87.52316518 516.40300025 90.55640687 515.08557394 93.58740234 513.76269531 C97.78815615 511.92979974 101.99635095 510.11463973 106.20703125 508.3046875 C112.38310944 505.64822995 118.5470824 502.96516862 124.70703125 500.27148438 C127.91238581 498.87777084 131.12657894 497.50679279 134.34375 496.140625 C136.18774426 495.3443154 138.03151166 494.54748015 139.875 493.75 C140.70555908 493.40412842 141.53611816 493.05825684 142.3918457 492.7019043 C146.36945661 491.15213945 146.36945661 491.15213945 148.93505859 487.97705078 C149.10989762 485.00746682 148.15160819 483.74676265 146.51953125 481.27734375 C145.94565674 480.39425537 145.37178223 479.51116699 144.78051758 478.60131836 C144.15169678 477.6603833 143.52287598 476.71944824 142.875 475.75 C141.58287591 473.77113193 140.29121806 471.79195937 139 469.8125 C138.34257813 468.81347656 137.68515625 467.81445312 137.0078125 466.78515625 C134.07712566 462.30673721 131.2245136 457.78032857 128.375 453.25 C127.88298096 452.47197021 127.39096191 451.69394043 126.8840332 450.89233398 C125.98823538 449.47475783 125.09561625 448.05516514 124.20703125 446.63305664 C123.24663145 445.10538998 122.26098357 443.59363624 121.26953125 442.0859375 C119.1244133 438.04561825 119.13221473 434.23984303 120.0625 429.8125 C121.94196799 426.65077814 124.39615033 424.32200557 127.0625 421.8125 C127.784375 421.07 128.50625 420.3275 129.25 419.5625 C132.6249452 416.09380632 136.06321327 412.76034427 139.75 409.625 C145.0475893 405.08573497 149.88552572 400.06866198 154.79296875 395.1171875 C155.35161621 394.55612305 155.91026367 393.99505859 156.48583984 393.41699219 C157.90689494 391.97085188 159.29363906 390.49118783 160.67578125 389.0078125 C164.16368413 385.79962687 166.73536432 384.82975267 171.49926758 384.76782227 C172.78470459 384.86635498 174.0701416 384.9648877 175.39453125 385.06640625 C176.09487991 385.1189003 176.79522858 385.17139435 177.51679993 385.22547913 C184.28554727 385.76378328 191.01850363 386.58586854 197.74829102 387.48321533 C201.20959456 387.9445325 204.67294302 388.3897052 208.13671875 388.83203125 C208.81781708 388.91906311 209.49891541 389.00609497 210.20065308 389.09576416 C216.9577368 389.94671745 223.72877617 390.60015973 230.51831055 391.12866211 C235.56161624 391.54996625 240.17244057 392.50078878 245.0625 393.8125 C248.23373097 394.48137173 248.23373097 394.48137173 251.0625 393.8125 C255.71504886 388.29004179 257.66927989 381.33710466 260.0625 374.625 C260.53463854 373.3163889 261.00705668 372.00787864 261.47973633 370.69946289 C263.023806 366.40960808 264.54443823 362.11161394 266.0625 357.8125 C266.33737244 357.03620239 266.61224487 356.25990479 266.89544678 355.46008301 C268.58993854 350.67229331 270.27211578 345.88042596 271.9387207 341.08285522 C272.47749614 339.5335921 273.01849558 337.98510052 273.56176758 336.43740845 C274.32384703 334.26170451 275.07546375 332.0826635 275.82421875 329.90234375 C276.16558113 328.93544113 276.16558113 328.93544113 276.51383972 327.94900513 C277.69852028 324.45768542 278.31334672 321.50077857 278.0625 317.8125 C265.60446951 310.67192155 252.14502065 307.09869403 238.1953125 304.0546875 C237.51050308 303.90448654 236.82569366 303.75428558 236.12013245 303.59953308 C232.70526076 302.85417174 229.28785625 302.12922271 225.86206055 301.43579102 C209.17825783 297.89847291 209.17825783 297.89847291 204.66064453 291.97412109 C202.21543524 287.54735637 201.55005292 283.42504313 201.25 278.375 C200.38805694 267.49627017 197.86274018 256.95569917 195.44995117 246.33813477 C195.29424149 245.63891403 195.1385318 244.9396933 194.97810364 244.21928406 C194.55012673 242.2994133 194.1120661 240.38179836 193.67333984 238.46435547 C192.75894393 232.99771517 192.29571885 228.46402862 194.6875 223.3125 C209.08929318 205.89728814 242.62132256 198.13521647 263.0625 190.8125 C262.45288037 187.68798353 261.45070871 185.64477504 259.578125 183.08203125 C259.06169434 182.37014648 258.54526367 181.65826172 258.01318359 180.92480469 C257.45195801 180.16586914 256.89073242 179.40693359 256.3125 178.625 C255.73193848 177.83125977 255.15137695 177.03751953 254.55322266 176.21972656 C245.92786625 164.47584685 237.00571086 152.96144962 227.98046875 141.5234375 C223.81294839 136.23530094 219.69258308 130.91025026 215.56860352 125.58813477 C214.99682373 124.85135498 214.42504395 124.1145752 213.8359375 123.35546875 C213.32466309 122.69571045 212.81338867 122.03595215 212.28662109 121.35620117 C211.14823433 119.8600008 211.14823433 119.8600008 210.0625 118.8125 C202.87573168 119.20234614 196.73634883 121.03338298 189.9921875 123.453125 C188.95289093 123.81718445 187.91359436 124.1812439 186.84280396 124.55633545 C183.53780523 125.71610908 180.23759809 126.88886336 176.9375 128.0625 C174.74511072 128.83554087 172.55240477 129.60768424 170.359375 130.37890625 C169.29072205 130.7548291 168.22206909 131.13075195 167.12103271 131.51806641 C166.06788879 131.88851074 165.01474487 132.25895508 163.9296875 132.640625 C162.89056213 133.00655762 161.85143677 133.37249023 160.78082275 133.74951172 C148.56724203 138.04849681 148.56724203 138.04849681 143.3515625 139.828125 C142.2476416 140.20743164 141.1437207 140.58673828 140.00634766 140.97753906 C131.00491194 143.53060841 124.67798315 141.2812468 116.703125 137.015625 C115.58421875 136.37109375 114.4653125 135.7265625 113.3125 135.0625 C112.69818115 134.70961914 112.0838623 134.35673828 111.45092773 133.99316406 C107.93123224 131.95469856 104.51190018 129.81675004 101.125 127.5625 C93.60954151 122.68700077 85.54560085 118.76957456 77.5859375 114.6796875 C61.23052443 106.24281079 61.23052443 106.24281079 59.0625 101.8125 C57.96393986 93.43278544 59.68923184 85.80469159 62.0625 77.8125 C62.46486507 76.45313131 62.86720751 75.09375592 63.26953125 73.734375 C63.91716895 71.55050911 64.5649697 69.36669643 65.21435547 67.18334961 C69.22516056 54.22568041 69.22516056 54.22568041 70.0625 40.8125 C66.79647422 39.42345049 63.71558421 38.42794914 60.23046875 37.76953125 C59.28413574 37.58664551 58.33780273 37.40375977 57.36279297 37.21533203 C56.33557129 37.02052246 55.30834961 36.82571289 54.25 36.625 C44.28543379 34.68209344 34.35336687 32.61394031 24.4375 30.4375 C23.44160858 30.21978943 23.44160858 30.21978943 22.42559814 29.99768066 C14.75438507 28.31974037 7.09567862 26.59601587 -0.55078125 24.80859375 C-2.65044656 24.32138325 -4.75023613 23.83471101 -6.85003662 23.3480835 C-8.81862463 22.88817073 -10.78460643 22.41714678 -12.75048828 21.94580078 C-19.31924019 20.42020618 -25.19265178 19.4559762 -31.9375 19.8125 Z " fill="#00AF9C" transform="translate(564.9375,168.1875)"/>
<path d="M0 0 C1.27693692 0.70516429 2.55429046 1.4095746 3.83203125 2.11328125 C11.6429532 6.51406418 18.49265608 11.57293711 25.1953125 17.51953125 C26.9773872 19.0956001 28.79757379 20.63034057 30.6640625 22.10546875 C48.83305184 36.84118753 59.73525982 60.33326661 63 83 C65.22879007 108.31268726 58.80305107 133.40111576 43.015625 153.6015625 C39.44890772 157.84567957 35.80967168 161.97159119 32 166 C31.14019531 166.94746094 30.28039062 167.89492188 29.39453125 168.87109375 C12.35772022 187.19143851 -10.75556423 197.87374144 -34 206 C-35.20269531 206.42410156 -36.40539062 206.84820313 -37.64453125 207.28515625 C-73.51578686 218.69282279 -119.31857976 215.90340409 -154 202 C-155.175625 201.55011719 -156.35125 201.10023438 -157.5625 200.63671875 C-175.62503911 193.35012627 -192.64494545 183.32227299 -206 169 C-206.804375 168.21625 -207.60875 167.4325 -208.4375 166.625 C-215.30215525 159.59291413 -221.03930923 152.50558526 -226 144 C-226.33563965 143.42975098 -226.6712793 142.85950195 -227.01708984 142.27197266 C-235.68690194 127.38712666 -239.17809599 113.14076932 -239.1875 95.875 C-239.19974609 94.71484375 -239.21199219 93.5546875 -239.22460938 92.359375 C-239.27065022 64.91903382 -226.43110526 41.84995061 -207.8125 22.375 C-191.12899055 6.27564704 -170.67825607 -4.26640193 -149 -12 C-148.30116699 -12.25120605 -147.60233398 -12.50241211 -146.88232422 -12.76123047 C-100.95335293 -28.82912258 -42.07760152 -24.39026944 0 0 Z " fill="#00AE9B" transform="translate(590,352)"/>
<path d="M0 0 C1.31559741 0.29657976 2.63203777 0.58944058 3.94921875 0.87890625 C33.33016786 7.51365747 63.07601384 23.15353681 79.9375 48.9375 C90.00024441 64.99696389 92.93910751 83.85947955 88.98828125 102.421875 C87.23093953 109.55233993 85.00940462 116.30164778 82 123 C78.33516108 121.42813436 75.77623804 119.14186522 72.8125 116.5 C48.107099 95.32671141 11.14997787 82.87330957 -21 82 C-21.95986816 81.97276855 -22.91973633 81.94553711 -23.90869141 81.91748047 C-68.79357269 80.84056842 -111.34041474 92.21137937 -145 123 C-148.06758509 120.43324512 -149.15620283 117.63619381 -150.5625 113.9375 C-150.97628906 112.87402344 -151.39007813 111.81054688 -151.81640625 110.71484375 C-154.55343655 102.12436251 -155.34103076 93.99289422 -155.3125 85 C-155.32861328 83.98421875 -155.34472656 82.9684375 -155.36132812 81.921875 C-155.37409173 62.01064883 -144.03417013 46.13892491 -130.53125 32.5078125 C-111.40246881 14.55905352 -86.7782899 3.25147174 -61 -1 C-59.31970703 -1.30550781 -59.31970703 -1.30550781 -57.60546875 -1.6171875 C-38.78357754 -4.54370094 -18.49795114 -4.75195437 0 0 Z " fill="#00D3BD" transform="translate(534,359)"/>
<path d="M0 0 C0.76344727 0.16628906 1.52689453 0.33257812 2.31347656 0.50390625 C25.99376662 5.7467749 46.75972388 16.00111374 65 32 C61.45412397 36.56280652 57.80759822 40.00649303 53.125 43.375 C52.13608765 44.08716675 52.13608765 44.08716675 51.12719727 44.8137207 C29.4610357 60.09520533 2.54914508 69.22802739 -24 70 C-24.64050293 70.02046387 -25.28100586 70.04092773 -25.94091797 70.06201172 C-63.46021934 71.10878033 -97.51218845 61.19815581 -127.109375 37.82421875 C-129.01904896 35.98162012 -129.98970316 34.43438546 -131 32 C-114.92207886 16.47132462 -93.28869238 6.95844498 -72 1 C-71.27393555 0.78972168 -70.54787109 0.57944336 -69.79980469 0.36279297 C-47.9902317 -5.71252478 -21.96849097 -5.07041954 0 0 Z " fill="#F8F9F9" transform="translate(535,470)"/>
<path d="M0 0 C9.68655753 0.51210798 19.12329091 2.37213183 28.63684082 4.15200806 C33.53200365 5.06754229 38.43013541 5.96691983 43.328125 6.8671875 C44.31343201 7.04862808 45.29873901 7.23006866 46.31390381 7.41700745 C56.98670524 9.3763234 67.68060644 11.20617572 78.38085938 13.00854492 C85.23553472 14.16516131 92.08393059 15.35369379 98.921875 16.60546875 C99.9630246 16.79197746 99.9630246 16.79197746 101.02520752 16.98225403 C105.88392323 17.88392323 105.88392323 17.88392323 107 19 C107.09514592 21.70838086 107.12554932 24.39118513 107.11352539 27.09985352 C107.11367142 27.94856018 107.11381744 28.79726685 107.1139679 29.67169189 C107.11326848 32.49078891 107.10547478 35.30982071 107.09765625 38.12890625 C107.09579217 40.07803817 107.09436822 42.02717055 107.09336853 43.9763031 C107.08954255 49.11706832 107.07971159 54.25780547 107.06866455 59.39855957 C107.05845215 64.64005148 107.05387128 69.8815479 107.04882812 75.12304688 C107.03808939 85.41537694 107.02101201 95.70768614 107 106 C100.13765076 105.41785834 93.43353595 104.45482019 86.66796875 103.1796875 C84.65238266 102.80838245 82.63675589 102.43729819 80.62109375 102.06640625 C79.57163574 101.87191895 78.52217773 101.67743164 77.44091797 101.47705078 C56.89058352 97.67417484 36.30944764 94.21888667 15.64135742 91.12060547 C14.73338913 90.98355194 13.82542084 90.84649841 12.88993835 90.70529175 C11.19733148 90.45043493 9.50424746 90.19871974 7.81062317 89.95071411 C2.22245259 89.11122629 2.22245259 89.11122629 0 88 C-1.20840346 84.37478963 -1.13971132 81.06060184 -1.12939453 77.28735352 C-1.13114685 76.50330139 -1.13289917 75.71924927 -1.13470459 74.91143799 C-1.13910908 72.31723829 -1.13618975 69.72310666 -1.1328125 67.12890625 C-1.13348601 65.32673632 -1.13445643 63.52456647 -1.13571167 61.72239685 C-1.1371868 57.94374731 -1.13504026 54.1651214 -1.13037109 50.38647461 C-1.12467801 45.54308214 -1.12795132 40.69974514 -1.13394356 35.85635471 C-1.13755763 32.13404421 -1.13640661 28.41174685 -1.13381577 24.68943596 C-1.13314863 22.9036553 -1.13396748 21.11787346 -1.13629532 19.33209419 C-1.13883523 16.83537768 -1.13496212 14.33875085 -1.12939453 11.84204102 C-1.13141876 11.10372543 -1.13344299 10.36540985 -1.13552856 9.60472107 C-1.1217197 6.26144658 -1.04135579 3.19632721 0 0 Z " fill="#1DF3B2" transform="translate(383,721)"/>
<path d="M0 0 C0.02313538 10.91769398 0.04092121 21.83538216 0.05181217 32.75309563 C0.05703837 37.82222228 0.06413128 42.8913322 0.07543945 47.96044922 C0.08627763 52.84928681 0.09227882 57.73810827 0.09487724 62.62695694 C0.09672981 64.49533467 0.10034721 66.36371148 0.10573006 68.23208237 C0.11295281 70.84207846 0.11399041 73.45200729 0.11352539 76.06201172 C0.11712067 76.8402832 0.12071594 77.61855469 0.12442017 78.42041016 C0.11405216 83.77189568 0.11405216 83.77189568 -1 86 C-2.92333984 87.09399414 -2.92333984 87.09399414 -5.4609375 88.28515625 C-6.39800537 88.72883545 -7.33507324 89.17251465 -8.30053711 89.62963867 C-9.31510986 90.10248291 -10.32968262 90.57532715 -11.375 91.0625 C-12.93263062 91.79786987 -12.93263062 91.79786987 -14.52172852 92.5480957 C-17.67858981 94.03758198 -20.83901935 95.51927985 -24 97 C-27.31400633 98.55932023 -30.62610841 100.12263608 -33.9375 101.6875 C-34.71641602 102.05447998 -35.49533203 102.42145996 -36.29785156 102.79956055 C-40.47883703 104.77675581 -44.62372073 106.80806604 -48.74145508 108.91357422 C-56.47310196 112.86007136 -64.33202212 116.5053442 -72.25 120.0625 C-73.34650879 120.56442871 -74.44301758 121.06635742 -75.57275391 121.58349609 C-76.60577637 122.04191895 -77.63879883 122.5003418 -78.703125 122.97265625 C-80.08999512 123.59539429 -80.08999512 123.59539429 -81.50488281 124.23071289 C-84 125 -84 125 -88 124 C-88 95.95 -88 67.9 -88 39 C-80.41 35.7 -72.82 32.4 -65 29 C-46.67442054 21.02137322 -28.49264837 12.76336626 -10.38085938 4.31103516 C-9.19814453 3.76108887 -8.01542969 3.21114258 -6.796875 2.64453125 C-5.71245117 2.13897705 -4.62802734 1.63342285 -3.51074219 1.11254883 C-1 0 -1 0 0 0 Z " fill="#1DF3B2" transform="translate(724,681)"/>
<path d="M0 0 C3.91543304 3.51368666 7.24238734 7.54582204 10.625 11.5625 C15.39201235 17.17257209 20.26646188 22.65386832 25.27734375 28.046875 C27.1572879 30.07111756 28.99708279 32.12425729 30.81640625 34.203125 C31.2868335 34.73405762 31.75726074 35.26499023 32.24194336 35.81201172 C33.53464538 37.2728905 34.81844848 38.74163027 36.1015625 40.2109375 C37.76715271 42.04339406 38.91188166 42.96326067 41.22090149 43.92596436 C44.23121836 45.27381328 45.89525358 46.43332791 48 49 C49.31966639 55.23492861 49.04736061 61.3981743 48.87890625 67.7421875 C48.86210992 69.5944611 48.84930358 71.44677483 48.84031677 73.29910278 C48.80603187 78.16307925 48.71769879 83.02461791 48.61798096 87.88763428 C48.52573808 92.85444153 48.48477175 97.82164469 48.43945312 102.7890625 C48.34307061 112.52710996 48.18956703 122.2633519 48 132 C47.2251123 131.22438721 46.45022461 130.44877441 45.65185547 129.6496582 C43.9635226 127.96272425 42.27019946 126.28075927 40.5703125 124.60546875 C35.48072874 119.57279726 30.64416203 114.44182345 26 109 C24.39300059 107.1437124 22.78295972 105.29008291 21.1730957 103.4362793 C18.9790209 100.9094977 16.78561201 98.38220242 14.60107422 95.84716797 C13.49671565 94.57306353 12.38315642 93.30689591 11.26220703 92.04736328 C10.71290527 91.42458496 10.16360352 90.80180664 9.59765625 90.16015625 C8.84947632 89.32109741 8.84947632 89.32109741 8.08618164 88.46508789 C7 87 7 87 7 85 C3.07555101 83.12058498 0.36968533 82.8524017 -3.9375 83.3125 C-4.93652344 83.41175781 -5.93554688 83.51101563 -6.96484375 83.61328125 C-9.98739295 83.9983937 -12.99447289 84.49907881 -16 85 C-20.29 85 -24.58 85 -29 85 C-29 57.61 -29 30.22 -29 2 C-4 -1 -4 -1 0 0 Z " fill="#00D8B7" transform="translate(568,670)"/>
<path d="M0 0 C11.31709814 0.66571166 22.40858822 1.51094408 33.625 2.9375 C35.01035715 3.10920486 36.39577398 3.28042888 37.78125 3.45117188 C41.17647826 3.87154061 44.57030984 4.30197312 47.96350098 4.73846436 C49.35095855 4.91664741 50.73858006 5.09355743 52.12634277 5.26934814 C54.19662186 5.53191405 56.26633121 5.7985947 58.3359375 6.06640625 C60.15037354 6.29952515 60.15037354 6.29952515 62.00146484 6.53735352 C65 7 65 7 68 8 C68 37.37 68 66.74 68 97 C60.25836326 97 53.85291924 96.65748497 46.4375 95.1875 C36.58916626 93.34272777 26.74753744 92.05787749 16.78100586 91.03979492 C15.2361853 90.8770105 15.2361853 90.8770105 13.66015625 90.7109375 C12.75918213 90.62118652 11.85820801 90.53143555 10.92993164 90.43896484 C7.23821836 89.88586923 3.62146044 88.90536511 0 88 C0 58.96 0 29.92 0 0 Z " fill="#00DBB9" transform="translate(743,578)"/>
<path d="M0 0 C0 28.05 0 56.1 0 85 C-10.24298299 90.4227557 -20.16483419 95.64138764 -30.77026367 100.17822266 C-32.73103123 101.01865862 -34.68487224 101.87397555 -36.63867188 102.73046875 C-37.90847594 103.2795214 -39.17864433 103.82773242 -40.44921875 104.375 C-41.56643311 104.85710937 -42.68364746 105.33921875 -43.8347168 105.8359375 C-47 107 -47 107 -53 108 C-53 79.95 -53 51.9 -53 23 C-39.49966239 16.2498312 -39.49966239 16.2498312 -33.80078125 13.7109375 C-33.19542038 13.4403653 -32.59005951 13.16979309 -31.96635437 12.89102173 C-30.0828373 12.04985175 -28.19772437 11.21233532 -26.3125 10.375 C-25.04611503 9.81013998 -23.7798386 9.24503657 -22.51367188 8.6796875 C-20.09605921 7.60038558 -17.67677671 6.52515308 -15.25634766 5.45214844 C-13.23500107 4.55074122 -11.21809928 3.63920691 -9.20849609 2.71191406 C-8.41137207 2.34549805 -7.61424805 1.97908203 -6.79296875 1.6015625 C-6.12160889 1.28783691 -5.45024902 0.97411133 -4.75854492 0.65087891 C-3 0 -3 0 0 0 Z " fill="#00D9B7" transform="translate(320,627)"/>
<path d="M0 0 C10.3567175 1.7033518 20.68138119 3.55173571 31.00219727 5.45898438 C32.97118781 5.82189572 34.94059637 6.18254591 36.91040039 6.54101562 C39.78366323 7.06398892 42.65560492 7.59372981 45.52734375 8.125 C46.40446518 8.28339355 47.28158661 8.44178711 48.18528748 8.60498047 C50.46720036 9.03138236 52.73286794 9.50171061 55 10 C55.95994873 10.20439697 56.91989746 10.40879395 57.90893555 10.61938477 C61.27742878 12.8434162 61.87837347 16.26148914 62.9296875 19.96484375 C63.16914093 20.75395645 63.40859436 21.54306915 63.65530396 22.35609436 C64.15696617 24.02355316 64.64892548 25.69395761 65.13183594 27.36694336 C65.87306531 29.93080804 66.64468529 32.48394281 67.421875 35.03710938 C67.90545855 36.65831456 68.38728953 38.28004376 68.8671875 39.90234375 C69.09727509 40.66804184 69.32736267 41.43373993 69.56442261 42.22264099 C71.11642191 47.65073426 71.11642191 47.65073426 70 51 C68.27270508 52.29931641 68.27270508 52.29931641 66.01953125 53.6015625 C65.19187256 54.08729736 64.36421387 54.57303223 63.51147461 55.07348633 C62.17548218 55.8414856 62.17548218 55.8414856 60.8125 56.625 C58.97554349 57.70269203 57.13961 58.78212966 55.3046875 59.86328125 C53.94682129 60.66113037 53.94682129 60.66113037 52.56152344 61.47509766 C47.99848301 64.1915245 43.55589314 67.08048475 39.11328125 69.98828125 C37.09270173 71.29392548 35.0489946 72.5646979 32.98046875 73.79296875 C26.04697981 77.93788622 18.65910318 83.02269046 16 91 C14.05954312 90.5758071 12.12268239 90.13514005 10.1875 89.6875 C9.10855469 89.44386719 8.02960938 89.20023438 6.91796875 88.94921875 C3.88356743 87.96212434 2.88775412 87.487224 1 85 C-0.93650826 75.32908552 -0.13207779 64.83281228 -0.09765625 54.98046875 C-0.09578597 53.38479151 -0.09436496 51.78911369 -0.09336853 50.19343567 C-0.08959134 46.03923901 -0.07980338 41.88507857 -0.06866455 37.730896 C-0.05834593 33.4735971 -0.05384876 29.21629223 -0.04882812 24.95898438 C-0.03817568 16.63930649 -0.02115863 8.31965778 0 0 Z " fill="#1EEED7" transform="translate(156,463)"/>
<path d="M0 0 C4.44736146 3.0521108 8.27214078 6.07143657 12 10 C12.78157471 10.78681152 13.56314941 11.57362305 14.3684082 12.38427734 C15.17109131 13.1933252 15.97377441 14.00237305 16.80078125 14.8359375 C18.63794865 16.68236349 20.47519045 18.52871546 22.3125 20.375 C23.22451172 21.29539062 24.13652344 22.21578125 25.07617188 23.1640625 C29.68460472 27.78901303 34.33802809 32.27165298 39.2956543 36.52050781 C41.55041942 38.47780285 43.65656253 40.55968126 45.75 42.6875 C46.46671875 43.41324219 47.1834375 44.13898437 47.921875 44.88671875 C48.60765625 45.58410156 49.2934375 46.28148437 50 47 C51.04024323 47.81129364 51.04024323 47.81129364 52.10150146 48.63897705 C54.74043819 51.9208285 54.53208632 54.86040841 54.45410156 58.88964844 C54.45468567 59.68027176 54.45526978 60.47089508 54.45587158 61.28547668 C54.45308899 63.89389233 54.42198983 66.50115947 54.390625 69.109375 C54.38316321 70.91969173 54.37746998 72.73001654 54.37347412 74.54034424 C54.35821288 79.30151735 54.31892691 84.06220116 54.2746582 88.82318115 C54.23371603 93.68283469 54.21546536 98.5425674 54.1953125 103.40234375 C54.15243309 112.93511063 54.08417585 122.4675146 54 132 C53.51843445 131.58654327 53.0368689 131.17308655 52.54071045 130.74710083 C51.59388397 129.93473465 51.59388397 129.93473465 50.62792969 129.10595703 C50.00198914 128.56875031 49.37604858 128.03154358 48.73114014 127.47805786 C47.48037357 126.41014584 46.21973971 125.35375388 44.953125 124.3046875 C36.06650243 116.84481626 28.5806716 107.8767879 21.328125 98.86328125 C19.15804288 96.19437153 16.94488313 93.57153166 14.70898438 90.95800781 C12.45530893 88.31966888 10.22588129 85.66184212 8 83 C7.15695313 81.99646484 7.15695313 81.99646484 6.296875 80.97265625 C-0.69591116 72.02104747 -0.41570905 61.39897268 -0.29296875 50.5859375 C-0.28736115 49.12049803 -0.28309657 47.65505286 -0.28010559 46.18960571 C-0.26874821 42.36566148 -0.23936178 38.54206876 -0.20599365 34.71826172 C-0.17509421 30.80310824 -0.16155815 26.88789698 -0.14648438 22.97265625 C-0.11448141 15.31494534 -0.06339818 7.65752226 0 0 Z " fill="#1CF5B3" transform="translate(189,598)"/>
<path d="M0 0 C0 23.76 0 47.52 0 72 C-26 66 -26 66 -34 64 C-35.66482377 63.61690135 -37.33112914 63.2400655 -39 62.875 C-39.763125 62.70742188 -40.52625 62.53984375 -41.3125 62.3671875 C-42.1478125 62.18542969 -42.1478125 62.18542969 -43 62 C-43.97245122 56.90670314 -44.94299175 51.81305362 -45.91015625 46.71875 C-46.57552992 43.21690653 -47.24870265 39.71682569 -47.93359375 36.21875 C-48.07240967 35.50138672 -48.21122559 34.78402344 -48.35424805 34.04492188 C-48.72818115 32.11274197 -49.10615327 30.18134499 -49.484375 28.25 C-49.93489252 25.4103744 -50.0401472 22.8614003 -50 20 C-38.27429192 14.17894738 -26.50072514 8.60496221 -14.3125 3.8125 C-13.33982178 3.42650635 -12.36714355 3.0405127 -11.36499023 2.64282227 C-10.45692627 2.29276123 -9.5488623 1.9427002 -8.61328125 1.58203125 C-7.81704346 1.27499268 -7.02080566 0.9679541 -6.20043945 0.65161133 C-4 0 -4 0 0 0 Z " fill="#04D0AE" transform="translate(836,384)"/>
<path d="M0 0 C3.89911856 0.71096077 6.86836375 1.78619531 10.37890625 3.65234375 C11.38244141 4.18150391 12.38597656 4.71066406 13.41992188 5.25585938 C14.97549805 6.08827148 14.97549805 6.08827148 16.5625 6.9375 C18.62623874 8.03006757 20.69003838 9.12252011 22.75390625 10.21484375 C23.66470947 10.70073975 24.5755127 11.18663574 25.51391602 11.68725586 C27.66238593 12.82172731 29.82176297 13.92408003 32 15 C31.4033354 26.06399994 29.05762729 36.84224704 26.93579102 47.68994141 C26.44877496 50.1904203 25.9719695 52.69269314 25.49609375 55.1953125 C25.27112465 56.32067917 25.27112465 56.32067917 25.04161072 57.46878052 C23.59216258 65.13964536 23.39521552 71.58948911 26 79 C26.1953125 82.4296875 26.1953125 82.4296875 26.125 85.875 C26.10695313 87.02742187 26.08890625 88.17984375 26.0703125 89.3671875 C26.04710937 90.23601562 26.02390625 91.10484375 26 92 C20.39824771 91.41271952 15.8145363 89.37013146 10.75 87.0625 C9.52796875 86.52206055 9.52796875 86.52206055 8.28125 85.97070312 C2.2675047 83.2675047 2.2675047 83.2675047 0 81 C-0.18788205 78.40991691 -0.25187766 75.92769067 -0.22705078 73.33740234 C-0.22734283 72.54707108 -0.22763489 71.75673981 -0.22793579 70.94245911 C-0.22653962 68.32350786 -0.21096505 65.7048392 -0.1953125 63.0859375 C-0.19158339 61.27275752 -0.18873594 59.45957553 -0.18673706 57.64639282 C-0.17909257 52.86892149 -0.15943712 48.09157133 -0.1373291 43.31414795 C-0.1168882 38.44121948 -0.10773911 33.56827147 -0.09765625 28.6953125 C-0.07619197 19.13015503 -0.04204623 9.56508758 0 0 Z " fill="#18EBD2" transform="translate(335,629)"/>
<path d="M0 0 C0.33 0 0.66 0 1 0 C1 35.97 1 71.94 1 109 C-5.6 106.69 -12.2 104.38 -19 102 C-19.32030968 93.54039258 -19.58759659 85.08316884 -19.78752136 76.62002563 C-19.91879567 71.33725109 -20.12492438 66.06200574 -20.36904907 60.78330994 C-20.52687817 57.0938376 -20.6319161 53.40395109 -20.7265625 49.71237183 C-20.78351649 47.91478164 -20.86188627 46.11773315 -20.96240234 44.322052 C-21.741268 30.04445426 -21.741268 30.04445426 -17.41162109 24.9609375 C-14.49523519 22.59350533 -11.26397735 20.84820883 -8 19 C-1.92052753 13.52606822 -0.50896707 7.89776483 0 0 Z " fill="#009E88" transform="translate(856,355)"/>
<path d="M0 0 C0.66 0 1.32 0 2 0 C2.05001084 6.13402157 2.08600416 12.26792046 2.10986328 18.40209961 C2.1198259 20.48219881 2.13340088 22.56228436 2.15087891 24.64233398 C2.28296149 40.78360224 1.66838722 55.91256343 -3 71.5 C-3.29616211 72.50466309 -3.59232422 73.50932617 -3.89746094 74.54443359 C-7.97821308 87.84519984 -13.66773699 100.62330411 -20 113 C-20.66 113 -21.32 113 -22 113 C-22.23236564 103.37705921 -22.40971048 93.75509299 -22.51812172 84.12995243 C-22.57017285 79.65975986 -22.64068523 75.1914951 -22.75439453 70.72241211 C-22.86357611 66.40393282 -22.92294691 62.08729924 -22.94877243 57.7675457 C-22.96715879 56.12515652 -23.00306767 54.48286123 -23.05730057 52.84126472 C-23.46641455 39.93672471 -23.46641455 39.93672471 -19.82147217 35.12277222 C-17.14208984 32.76342773 -17.14208984 32.76342773 -14.47055054 30.8981781 C-6.04615211 24.42552823 -3.27068923 9.78887131 0 0 Z " fill="#1BF4B2" transform="translate(853,542)"/>
<path d="M0 0 C0.33 0 0.66 0 1 0 C1.23278241 7.76510267 1.38766405 15.52927406 1.49438477 23.29711914 C1.53380956 25.92742997 1.59982534 28.55300037 1.67895508 31.18286133 C2.38366278 55.24885961 -2.84245134 74.33202494 -13 96 C-13.33 96 -13.66 96 -14 96 C-14.09269161 87.33343996 -14.1637603 78.66705062 -14.20724869 70.000103 C-14.22812133 65.97563923 -14.25643235 61.95151465 -14.30175781 57.92724609 C-14.3452282 54.04336464 -14.36913954 50.15980938 -14.37950897 46.27570343 C-14.38689831 44.79409907 -14.40132818 43.31251251 -14.42292023 41.83104706 C-14.45197212 39.75513679 -14.45595556 37.68057313 -14.45410156 35.60449219 C-14.46298401 34.42312683 -14.47186646 33.24176147 -14.48101807 32.02459717 C-13.89682817 28.35126509 -12.78194029 27.36479886 -10 25 C-6.6099557 19.7661339 -4.62170027 14.48795928 -2.75 8.5625 C-2.481875 7.73556641 -2.21375 6.90863281 -1.9375 6.05664062 C-1.28471388 4.0399978 -0.64136627 2.02030376 0 0 Z " fill="#01D2AC" transform="translate(524,706)"/>
<path d="M0 0 C0.33 0 0.66 0 1 0 C1.02578125 0.845625 1.0515625 1.69125 1.078125 2.5625 C1.44055502 9.81110035 2.33986853 14.74235588 6 21 C6 21.66 6 22.32 6 23 C6.99 23.33 7.98 23.66 9 24 C10.60546875 25.77734375 10.60546875 25.77734375 12.1875 27.9375 C12.71730469 28.64777344 13.24710937 29.35804688 13.79296875 30.08984375 C15 32 15 32 15 34 C15.66 34 16.32 34 17 34 C17.29305331 38.28523511 17.54376256 42.57032608 17.75683594 46.86010742 C17.83497473 48.31649173 17.92431215 49.77232274 18.02539062 51.22729492 C18.96070381 64.87819083 18.96070381 64.87819083 15.1328125 69.49609375 C12.48574614 72 12.48574614 72 10 72 C9.773125 72.53625 9.54625 73.0725 9.3125 73.625 C7.54429911 76.82460161 5.46329797 79.29037223 3 82 C2.34 82 1.68 82 1 82 C0.67 82.99 0.34 83.98 0 85 C0 56.95 0 28.9 0 0 Z " fill="#00A48E" transform="translate(248,251)"/>
<path d="M0 0 C0.93998664 16.63574998 1.12286035 33.21554371 1.0625 49.875 C1.05746778 52.32812407 1.05290796 54.78124916 1.04882812 57.234375 C1.03797542 63.15627274 1.02137771 69.07813137 1 75 C-1.2801746 71.5797381 -3.05841447 67.98956626 -4.875 64.3125 C-5.21402344 63.62994141 -5.55304687 62.94738281 -5.90234375 62.24414062 C-6.59178338 60.85608632 -7.27629811 59.46557577 -7.95605469 58.07275391 C-8.64077014 56.71325106 -9.35953537 55.37026166 -10.11425781 54.04833984 C-13.08055073 48.71731929 -13.7378576 44.04893593 -14 38 C-14.08894531 36.55705566 -14.08894531 36.55705566 -14.1796875 35.08496094 C-14.34594401 32.01416356 -14.4303911 28.94939287 -14.5 25.875 C-14.55414062 24.84246094 -14.60828125 23.80992187 -14.6640625 22.74609375 C-14.76370762 17.15884973 -14.41920395 13.78111306 -10.6796875 9.4765625 C-9.47534377 8.2946341 -8.24905639 7.13457334 -7 6 C-5.87264931 4.83560465 -4.7474641 3.66910669 -3.625 2.5 C-1 0 -1 0 0 0 Z " fill="#00A28C" transform="translate(742,578)"/>
<path d="M0 0 C2.36008817 3.54013225 2.23463644 5.01121955 2.1953125 9.19921875 C2.18564453 11.01196289 2.18564453 11.01196289 2.17578125 12.86132812 C2.15902344 14.12396484 2.14226563 15.38660156 2.125 16.6875 C2.11597656 17.96173828 2.10695313 19.23597656 2.09765625 20.54882812 C2.07405641 23.69940627 2.04113194 26.84960983 2 30 C-1.18928938 26.07055003 -4.02137642 22.06541981 -6.75 17.8125 C-7.16121094 17.18408203 -7.57242188 16.55566406 -7.99609375 15.90820312 C-11 11.24266767 -11 11.24266767 -11 9 C-9.21895282 7.39821407 -7.37462722 5.86618074 -5.5 4.375 C-4.4790625 3.55773437 -3.458125 2.74046875 -2.40625 1.8984375 C-1.6121875 1.27195312 -0.818125 0.64546875 0 0 Z " fill="#19E8D3" transform="translate(726,594)"/>
<path d="M0 0 C0.33 0 0.66 0 1 0 C1.28331862 15.24040257 1.49336684 30.48068294 1.62174606 45.72314548 C1.68300454 52.80454218 1.7664535 59.88426504 1.90527344 66.96459961 C3.06065718 127.06833009 3.06065718 127.06833009 -11 152 C-12.00916235 153.99539253 -13.01146355 155.99430917 -14 158 C-15 156 -15 156 -14.45849609 154.06738281 C-13.99564209 152.8970752 -13.99564209 152.8970752 -13.5234375 151.703125 C-13.18449463 150.83268555 -12.84555176 149.96224609 -12.49633789 149.06542969 C-12.12629639 148.13633789 -11.75625488 147.20724609 -11.375 146.25 C-10.63026551 144.34423602 -9.88677923 142.4379838 -9.14453125 140.53125 C-8.7779541 139.5928125 -8.41137695 138.654375 -8.03369141 137.6875 C-6.21896411 132.96938047 -4.56394258 128.19823418 -2.91015625 123.421875 C-2 121 -2 121 -1 120 C-0.89197843 118.44421404 -0.85316475 116.88357142 -0.84178162 115.32408142 C-0.82709839 113.80747169 -0.82709839 113.80747169 -0.81211853 112.26022339 C-0.80636307 111.14173004 -0.8006076 110.02323669 -0.79467773 108.87084961 C-0.78477814 107.70027512 -0.77487854 106.52970062 -0.76467896 105.32365417 C-0.73842945 102.10482071 -0.71659298 98.88599275 -0.69667697 95.66711497 C-0.67485429 92.30649656 -0.64744747 88.94592393 -0.62062073 85.58534241 C-0.5706434 79.2176098 -0.52572335 72.84985185 -0.48259836 66.48206955 C-0.43326896 59.2342702 -0.37833495 51.98651676 -0.32291877 44.73876178 C-0.20902139 29.82588396 -0.10219933 14.91296292 0 0 Z " fill="#008B71" transform="translate(871,486)"/>
<path d="M0 0 C3.54623754 3.35024514 6.26041132 6.65910078 8.8125 10.8125 C9.41707031 11.78832031 10.02164062 12.76414062 10.64453125 13.76953125 C11.09183594 14.50558594 11.53914063 15.24164063 12 16 C10.35718838 17.66964521 8.71067239 19.3356464 7.0625 21 C6.14597656 21.928125 5.22945313 22.85625 4.28515625 23.8125 C2 26 2 26 1 26 C0.0197752 20.31160882 -0.11948801 14.82705667 -0.0625 9.0625 C-0.05573242 7.75055664 -0.05573242 7.75055664 -0.04882812 6.41210938 C-0.03714834 4.27470953 -0.01921689 2.13734537 0 0 Z " fill="#23F0DB" transform="translate(265,288)"/>
<path d="M0 0 C1.99146684 1.99146684 2.60348481 3.21899622 3.6875 5.75 C7.37410054 13.28704999 14.72875435 18.03487962 22.44140625 20.91015625 C24.61852934 21.6426781 26.79953162 22.3413564 29 23 C28.67 23.66 28.34 24.32 28 25 C16.65070634 21.13981705 6.46270632 17.21897812 0.7421875 6.11328125 C0 4 0 4 0 0 Z " fill="#0B9A83" transform="translate(135,551)"/>
<path d="M0 0 C1.54038546 3.52434332 0.51862074 6.00067098 -0.81745911 9.45890808 C-1.10070541 10.1569606 -1.38395172 10.85501312 -1.67578125 11.57421875 C-1.96100143 12.29865677 -2.24622162 13.02309479 -2.54008484 13.76948547 C-3.14436181 15.29709067 -3.75410012 16.82254524 -4.36889648 18.34594727 C-5.31123322 20.68435649 -6.23396804 23.02980742 -7.15429688 25.37695312 C-7.74364653 26.85983063 -8.33410361 28.34226859 -8.92578125 29.82421875 C-9.20295486 30.52834396 -9.48012848 31.23246918 -9.76570129 31.95793152 C-11.76872966 36.88436483 -11.76872966 36.88436483 -14 38 C-10.35663028 24.9925309 -5.92974626 12.14810848 0 0 Z " fill="#0C9B84" transform="translate(870,606)"/>
<path d="M0 0 C1.57418498 3.97599026 0.34405272 6.62109137 -1.08984375 10.515625 C-1.31321915 11.13145447 -1.53659454 11.74728394 -1.76673889 12.3817749 C-2.48027241 14.34170197 -3.20861636 16.29573632 -3.9375 18.25 C-4.42481597 19.58036773 -4.9111556 20.91109354 -5.39648438 22.2421875 C-6.58636856 25.49901797 -7.78959399 28.75073232 -9 32 C-9.66 32 -10.32 32 -11 32 C-10.21419468 28.57804411 -9.11697935 25.30878822 -7.96875 21.9921875 C-7.57042969 20.84105469 -7.17210937 19.68992187 -6.76171875 18.50390625 C-6.34535156 17.30636719 -5.92898438 16.10882812 -5.5 14.875 C-5.08363281 13.66972656 -4.66726563 12.46445312 -4.23828125 11.22265625 C-1.13006525 2.26013049 -1.13006525 2.26013049 0 0 Z " fill="#099A83" transform="translate(538,777)"/>
<path d="M0 0 C1.58058077 3.99197963 0.36916435 7.42683688 -0.75 11.375 C-0.92015625 12.02210938 -1.0903125 12.66921875 -1.265625 13.3359375 C-2.40796654 17.5021243 -3.95368539 21.20138149 -6 25 C-7.12923278 21.64545787 -6.85638991 19.62560815 -5.8203125 16.26953125 C-5.55089844 15.38458984 -5.28148437 14.49964844 -5.00390625 13.58789062 C-4.71386719 12.67201172 -4.42382812 11.75613281 -4.125 10.8125 C-3.84269531 9.88501953 -3.56039062 8.95753906 -3.26953125 8.00195312 C-1.15621693 1.15621693 -1.15621693 1.15621693 0 0 Z " fill="#01A28D" transform="translate(853,601)"/>
<path d="M0 0 C0.33 0 0.66 0 1 0 C1.02578125 0.90363281 1.0515625 1.80726563 1.078125 2.73828125 C1.13484375 3.91777344 1.1915625 5.09726562 1.25 6.3125 C1.29640625 7.48425781 1.3428125 8.65601563 1.390625 9.86328125 C1.71016568 13.02907798 1.71016568 13.02907798 3.75 14.8125 C6.05761559 16.03040823 8.2576929 16.91781692 10.75 17.6875 C11.54921875 17.93886719 12.3484375 18.19023438 13.171875 18.44921875 C13.77515625 18.63097656 14.3784375 18.81273437 15 19 C11.339671 20.3480932 9.33449773 19.6336844 5.8125 18.125 C4.93207031 17.75632812 4.05164063 17.38765625 3.14453125 17.0078125 C1 16 1 16 0 15 C-0.07313567 12.46950598 -0.09247527 9.96695163 -0.0625 7.4375 C-0.05798828 6.72658203 -0.05347656 6.01566406 -0.04882812 5.28320312 C-0.03700864 3.52209987 -0.01907263 1.76103964 0 0 Z " fill="#01A791" transform="translate(156,535)"/>
<path d="M0 0 C0 3.96 0 7.92 0 12 C-0.33 12 -0.66 12 -1 12 C-1.33 9.36 -1.66 6.72 -2 4 C-4.97 6.475 -4.97 6.475 -8 9 C-8.66 8.67 -9.32 8.34 -10 8 C-8.52351062 6.66370254 -7.0437367 5.33103329 -5.5625 4 C-4.73878906 3.2575 -3.91507813 2.515 -3.06640625 1.75 C-1 0 -1 0 0 0 Z " fill="#1DF2DE" transform="translate(727,594)"/>
<path d="M0 0 C1 3 1 3 0.0625 5.1875 C-0.4634375 6.0846875 -0.4634375 6.0846875 -1 7 C-1.66 7 -2.32 7 -3 7 C-2.625 4.0625 -2.625 4.0625 -2 1 C-1.34 0.67 -0.68 0.34 0 0 Z " fill="#0FB2A0" transform="translate(144,395)"/>
</svg>
