<?xml version="1.0" encoding="UTF-8"?>
<svg version="1.1" xmlns="http://www.w3.org/2000/svg" width="1024" height="1024">
<path d="M0 0 C337.92 0 675.84 0 1024 0 C1024 337.92 1024 675.84 1024 1024 C686.08 1024 348.16 1024 0 1024 C0 686.08 0 348.16 0 0 Z " fill="#FBFBFB" transform="translate(0,0)"/>
<path d="M0 0 C0.9552507 0.00449661 1.9105014 0.00899323 2.8946991 0.0136261 C13.61599212 0.16963685 24.13310037 1.49403039 34.73828125 2.98046875 C36.77072738 3.25595935 38.80319835 3.53126673 40.83569336 3.80639648 C54.99570101 5.75256878 68.99145057 8.08604865 82.92578125 11.29296875 C84.66132044 11.67380603 86.39699726 12.05401664 88.1328125 12.43359375 C119.27815732 19.39722273 150.17583817 29.38999203 178.92578125 43.29296875 C179.61494629 43.62506348 180.30411133 43.9571582 181.01416016 44.29931641 C184.9989037 46.23163357 188.95104996 48.22116149 192.88769531 50.24951172 C195.00465862 51.3333523 197.132642 52.39330323 199.26171875 53.453125 C219.17088203 63.49544048 237.82486646 75.71466532 255.09814453 89.80322266 C256.72603819 91.13015388 258.36978432 92.43758307 260.015625 93.7421875 C266.73158308 99.10917265 273.01273732 104.89297614 279.28173828 110.76660156 C280.86614037 112.23759679 282.46764902 113.68655413 284.078125 115.12890625 C299.37949713 128.89208282 312.9933998 144.31411367 325.92578125 160.29296875 C326.85414108 161.42840634 327.78252753 162.56382216 328.7109375 163.69921875 C339.53076423 176.99828816 349.38693731 190.94693152 359.06997681 205.08721924 C359.84666406 206.22119927 360.62463227 207.35430305 361.40390015 208.48651123 C362.4955497 210.07487085 363.57997017 211.66819157 364.6640625 213.26171875 C365.29352783 214.18404297 365.92299316 215.10636719 366.5715332 216.05664062 C367.92578125 218.29296875 367.92578125 218.29296875 367.92578125 220.29296875 C369.17255646 220.28630692 370.41933167 220.27964508 371.70388794 220.27278137 C383.50184741 220.21174424 395.29977449 220.16688807 407.09785652 220.13753223 C413.16214752 220.12193236 419.22631018 220.10079853 425.29052734 220.06665039 C431.1520093 220.03385358 437.01336846 220.01607312 442.87493515 220.00833702 C445.10183518 220.0028298 447.32872913 219.99207642 449.55557632 219.97577858 C470.3116027 219.83002681 488.4398042 221.38053681 504.92578125 235.29296875 C507.44180505 237.82424118 509.66968963 240.531027 511.92578125 243.29296875 C513.41778685 244.96679582 514.91822487 246.63313395 516.42578125 248.29296875 C519.6928246 251.91320598 522.92098901 255.5628044 526.12109375 259.2421875 C528.15536266 261.55385672 530.22800435 263.82828305 532.30078125 266.10546875 C535.39214926 269.52526203 538.35037157 273.01255399 541.23828125 276.60546875 C544.64998609 280.8269325 548.21875753 284.83390942 551.92578125 288.79296875 C556.42534837 293.59845545 560.65681161 298.54457592 564.78125 303.6796875 C566.92453081 306.29144498 569.14958455 308.79662177 571.42578125 311.29296875 C575.34469377 315.59288666 579.01748994 320.05216422 582.67578125 324.57421875 C584.86079694 327.21444604 587.11749516 329.76026595 589.42578125 332.29296875 C611.45530402 356.51391001 611.45530402 356.51391001 611.17578125 369.51171875 C610.58610492 376.07186796 608.02499194 381.95877697 602.92578125 386.29296875 C595.53615372 391.21103905 589.14398631 391.97688729 580.4296875 391.69140625 C578.61834068 391.66111832 578.61834068 391.66111832 576.770401 391.63021851 C572.82075712 391.5514509 568.8737516 391.42875819 564.92578125 391.29296875 C563.57167951 391.24926881 562.21757385 391.20569021 560.86346436 391.16223145 C551.60554287 390.85688815 542.35295643 390.45270346 533.10015488 390.02148819 C530.0658041 389.8810626 527.0312458 389.74542152 523.99668598 389.60960102 C502.9642556 388.66689166 481.93659439 387.64202038 460.92578125 386.29296875 C461.24740234 386.90591797 461.56902344 387.51886719 461.90039062 388.15039062 C472.71642312 408.77954248 472.71642312 408.77954248 477.55078125 418.35546875 C477.86853516 418.97808594 478.18628906 419.60070312 478.51367188 420.2421875 C482.69178866 428.58005573 484.4023534 436.37153679 482.42578125 445.63671875 C479.58428773 454.03204051 473.37923001 458.73950962 466.65625 464.1015625 C464.33386815 465.96544837 462.09048847 467.8803982 459.86328125 469.85546875 C456.92578125 472.29296875 456.92578125 472.29296875 454.92578125 472.29296875 C454.92578125 472.95296875 454.92578125 473.61296875 454.92578125 474.29296875 C460.45871332 476.53956197 465.79290885 476.78512593 471.67578125 477.16796875 C508.56010121 480.04755451 542.10846796 495.44300984 566.703125 523.5078125 C588.01725787 550.21603172 594.31577661 581.19098203 595.86328125 614.54296875 C597.40417163 647.6263162 602.80390136 682.85435827 625.92578125 708.29296875 C626.63347656 709.11796875 627.34117187 709.94296875 628.0703125 710.79296875 C631.87266454 715.16134517 635.79477842 719.1284663 640.17578125 722.91796875 C645.89484821 728.00455323 650.06796914 732.38692051 650.55078125 740.29296875 C650.21104056 746.78801136 646.96116229 750.79798553 642.98828125 755.66796875 C637.87592794 759.69588348 632.18129419 759.72608923 625.92578125 759.29296875 C621.0322402 758.56788711 616.20066072 757.57056399 611.36328125 756.54296875 C610.64547485 756.39258148 609.92766846 756.24219421 609.18811035 756.08724976 C557.11887525 745.13389324 504.04541298 731.50705877 455.92578125 708.29296875 C454.87245605 707.78902588 454.87245605 707.78902588 453.79785156 707.27490234 C449.12955348 705.03048618 444.51206969 702.70033532 439.92578125 700.29296875 C439.27689941 699.95330078 438.62801758 699.61363281 437.95947266 699.26367188 C403.50188588 681.03789093 373.33869392 653.87842899 360.55078125 616.16796875 C360.21095215 615.16781738 360.21095215 615.16781738 359.86425781 614.14746094 C355.68043271 600.94167314 354.44274892 588.09010661 354.23828125 574.35546875 C354.20499419 572.78578099 354.17049474 571.21611845 354.13476562 569.64648438 C354.05119461 565.86212261 353.98379254 562.07780501 353.92578125 558.29296875 C353.26046387 558.90785156 352.59514648 559.52273438 351.90966797 560.15625 C351.02553223 560.96449219 350.14139648 561.77273438 349.23046875 562.60546875 C347.92311768 563.80623047 347.92311768 563.80623047 346.58935547 565.03125 C339.40160587 571.13457835 332.35422829 573.85751316 322.9609375 573.671875 C310.95698898 572.17331257 301.08336076 562.2413326 292.0234375 554.96582031 C284.2299888 548.75065382 276.12708431 542.95420874 267.92578125 537.29296875 C267.90727112 537.87253326 267.88876099 538.45209778 267.86968994 539.04922485 C267.37863753 553.67300944 266.28857124 568.12839961 264.67578125 582.66796875 C264.22000287 586.84346383 263.76790221 591.01935243 263.31640625 595.1953125 C263.20071289 596.25873367 263.08501953 597.32215485 262.96582031 598.4178009 C262.12004937 606.26691306 261.37416313 614.12230197 260.66015625 621.984375 C260.34919755 625.32111067 260.0365391 628.65768249 259.7232666 631.99420166 C259.52661787 634.1334929 259.33695908 636.27343941 259.15466309 638.41400146 C258.89900626 641.40563384 258.61805753 644.39395258 258.33203125 647.3828125 C258.26433533 648.25579483 258.1966394 649.12877716 258.12689209 650.0282135 C257.33142825 657.88334719 254.37665491 664.25994329 248.55078125 669.66796875 C242.0426709 674.7065058 236.00783586 676.17306979 227.92578125 675.29296875 C216.52573756 673.19792761 209.19542174 663.7251135 201.36328125 655.85546875 C200.55181641 655.04787109 199.74035156 654.24027344 198.90429688 653.40820312 C194.64939867 649.14643664 190.57857708 644.80288922 186.65258789 640.23803711 C183.56994818 636.76576359 180.23929835 633.54300851 176.92578125 630.29296875 C172.24611089 625.70294724 167.76302298 621.04171935 163.484375 616.07421875 C161.56090583 613.87596827 159.52179738 611.82641723 157.42578125 609.79296875 C154.01188448 606.48097935 150.89188451 602.98751129 147.77734375 599.3984375 C144.82265672 596.03857187 141.74924532 592.7938799 138.67578125 589.54296875 C133.27837817 583.81009999 127.91813899 578.04891905 122.6171875 572.2265625 C120.70244093 570.13951652 118.77616235 568.07098227 116.828125 566.015625 C104.61740526 553.09239336 97.43423641 543.23665471 97.70922852 524.85205078 C97.9860269 516.81960174 99.48573377 508.94471381 100.86328125 501.04296875 C101.17235997 499.20844299 101.48027213 497.37372036 101.78710938 495.53881836 C103.40627272 485.91228773 105.09749739 476.29835506 106.79164124 466.68478394 C107.42473603 463.09061022 108.05536624 459.49601007 108.68579102 455.90136719 C109.5017513 451.25017298 110.33070681 446.6015484 111.16772461 441.95410156 C111.54571027 439.81841247 111.92341014 437.68267277 112.30078125 435.546875 C112.4806105 434.56652786 112.66043976 433.58618073 112.84571838 432.5761261 C113.0036235 431.67258896 113.16152863 430.76905182 113.32421875 429.83813477 C113.46520996 429.05293961 113.60620117 428.26774445 113.75146484 427.45875549 C113.94051513 425.10990828 113.7165367 423.50703635 112.92578125 421.29296875 C110.97056299 419.15590534 110.97056299 419.15590534 108.48828125 417.10546875 C107.575625 416.31140625 106.66296875 415.51734375 105.72265625 414.69921875 C104.7996875 413.90515625 103.87671875 413.11109375 102.92578125 412.29296875 C96.95722245 406.9963669 91.07837332 401.6054446 85.23828125 396.16796875 C84.62057861 395.59409424 84.00287598 395.02021973 83.36645508 394.42895508 C80.26136498 391.52962646 77.20818066 388.5929652 74.21484375 385.578125 C71.88354904 383.23081999 69.52009399 380.98839633 66.98828125 378.85546875 C60.85688178 373.55263678 55.29643073 367.81779229 50.0234375 361.66796875 C48.37284243 359.79913858 46.69823921 357.97761886 44.984375 356.16796875 C37.4583358 348.21897859 30.51089673 340.03536035 23.92578125 331.29296875 C23.48556641 330.71498535 23.04535156 330.13700195 22.59179688 329.54150391 C-19.24258196 274.5002865 -43.67103697 209.77103485 -50.765625 141.21191406 C-51.05087948 138.51373167 -51.371254 135.82216106 -51.69921875 133.12890625 C-54.64921521 107.07307489 -54.09292615 80.08105016 -51.88671875 53.98046875 C-51.78593018 52.69092285 -51.6851416 51.40137695 -51.58129883 50.07275391 C-50.09978291 34.93036432 -45.04458493 21.57139975 -33.82421875 10.98046875 C-23.79857033 3.06548316 -12.53478759 -0.09296741 0 0 Z " fill="#10AFAA" transform="translate(192.07421875,124.70703125)"/>
<path d="M0 0 C2.53650988 0.74321178 4.57487573 1.86569063 6.87890625 3.16796875 C8.66751701 4.01264676 10.45616964 4.8572368 12.24536133 5.70068359 C49.64026381 23.70950864 86.2208706 51.22213709 113.19140625 82.91796875 C115.93688747 86.10981997 118.7648024 89.20715702 121.62890625 92.29296875 C126.92227581 98.09963476 131.75728518 104.20749578 136.54394531 110.43457031 C137.80168466 112.06769931 139.07041661 113.6923455 140.33984375 115.31640625 C150.65927141 128.57470004 160.4645791 142.21190847 169.64746094 156.28173828 C170.90945551 158.21476169 172.17927801 160.14250238 173.44921875 162.0703125 C190.51187533 188.08968651 206.00577024 215.11359404 221.23144531 242.23632812 C222.90888868 245.22132219 224.59274525 248.2026328 226.27734375 251.18359375 C232.64140666 262.46819445 238.88680505 273.81051052 245.00390625 285.23046875 C245.32196228 285.82378998 245.64001831 286.41711121 245.9677124 287.02841187 C255.87890625 305.5355624 255.87890625 305.5355624 255.87890625 308.16796875 C253.93562772 309.83099634 251.98111593 311.38033725 249.94140625 312.91796875 C248.6509545 313.91095761 247.36195587 314.905837 246.07421875 315.90234375 C245.39004883 316.43150391 244.70587891 316.96066406 244.00097656 317.50585938 C240.39055999 320.33371442 236.85236107 323.24788474 233.31640625 326.16796875 C232.23697754 327.05850952 232.23697754 327.05850952 231.13574219 327.96704102 C226.25871451 332.0015826 221.43070831 336.09068854 216.61645508 340.19970703 C212.82293971 343.41791092 208.93578372 346.49610621 205.00390625 349.54296875 C199.23158761 354.01810993 193.70133291 358.72619008 188.20800781 363.53808594 C184.02295811 367.1980902 179.75603099 370.71703888 175.38671875 374.15625 C172.41650077 376.5389015 169.52296056 379.00661632 166.62890625 381.48046875 C161.55916636 385.80734572 156.37279854 389.95301573 151.11035156 394.04223633 C147.11700203 397.15892949 143.22619669 400.37313377 139.37890625 403.66796875 C134.35455177 407.96908587 129.2171311 412.09554744 123.99951172 416.15942383 C118.55115148 420.40600774 113.2035626 424.76697728 107.87890625 429.16796875 C104.19424239 427.82879901 101.19830228 426.1783314 97.9921875 423.9296875 C97.0630957 423.28112793 96.13400391 422.63256836 95.17675781 421.96435547 C93.69900879 420.92045654 93.69900879 420.92045654 92.19140625 419.85546875 C91.1662793 419.13633301 90.14115234 418.41719727 89.08496094 417.67626953 C79.95532714 411.25712888 70.88866221 404.75409437 61.87890625 398.16796875 C61.12722168 397.61963379 60.37553711 397.07129883 59.60107422 396.50634766 C47.68099819 387.80276025 35.90655354 378.91641871 24.19238281 369.93798828 C22.17294287 368.39293345 20.14869013 366.85463461 18.12109375 365.3203125 C11.56789848 360.34783085 5.24081849 355.16213223 -1.0078125 349.81640625 C-3.82323777 347.41060761 -6.68237796 345.06344612 -9.55859375 342.73046875 C-19.41809093 334.69096596 -29.0087939 326.3722811 -38.34375 317.73046875 C-40.8104862 315.45454899 -43.30203723 313.21227624 -45.80859375 310.98046875 C-57.77567111 300.20442753 -69.34751527 289.04017475 -80.74609375 277.66796875 C-81.26101379 277.1556369 -81.77593384 276.64330505 -82.30645752 276.115448 C-88.13220944 270.31285016 -93.79065739 264.43183759 -99.12109375 258.16796875 C-100.05789388 257.10760296 -100.99661985 256.04893469 -101.9375 254.9921875 C-125.56654897 228.14525758 -144.38681806 197.15507277 -158.12109375 164.16796875 C-158.55711914 163.13655762 -158.99314453 162.10514648 -159.44238281 161.04248047 C-160.8054285 157.78405534 -162.12547001 154.51128562 -163.43359375 151.23046875 C-163.8618042 150.20518066 -164.29001465 149.17989258 -164.73120117 148.12353516 C-165.76314857 145.4522184 -166.64964566 142.99250356 -167.12109375 140.16796875 C-165.66015625 137.234375 -165.66015625 137.234375 -163.12109375 135.16796875 C-162.34894531 134.48476563 -161.57679688 133.8015625 -160.78125 133.09765625 C-159.92402344 132.41960937 -159.06679687 131.7415625 -158.18359375 131.04296875 C-157.21550781 130.26695312 -156.24742187 129.4909375 -155.25 128.69140625 C-154.73969238 128.28245117 -154.22938477 127.87349609 -153.70361328 127.45214844 C-150.97177324 125.23532051 -148.29896785 122.94943001 -145.62109375 120.66796875 C-140.77208483 116.54627555 -135.86946861 112.49804131 -130.93359375 108.48046875 C-127.80309709 105.90650483 -124.70936914 103.29227789 -121.62109375 100.66796875 C-116.77149994 96.54695241 -111.86948569 92.49805521 -106.93359375 88.48046875 C-103.24015465 85.44364105 -99.59810889 82.3483592 -95.95483398 79.25170898 C-92.56155266 76.37251555 -89.13841589 73.53592638 -85.68359375 70.73046875 C-76.49407073 63.24320181 -67.57477276 55.43400951 -58.62109375 47.66796875 C-38.97705766 30.62956646 -38.97705766 30.62956646 -28.8984375 22.4453125 C-26.33984805 20.34734113 -23.80724695 18.22371778 -21.28637695 16.08081055 C-20.18289099 15.14460277 -19.07598413 14.21241113 -17.96557617 13.28442383 C-15.29157516 11.04554956 -12.68553745 8.77750426 -10.16796875 6.36328125 C-3.54966474 0.28109684 -3.54966474 0.28109684 0 0 Z " fill="#75E5D6" transform="translate(356.12109375,195.83203125)"/>
<path d="M0 0 C1.01900391 0.50273438 1.01900391 0.50273438 2.05859375 1.015625 C3.13109375 1.51835938 4.20359375 2.02109375 5.30859375 2.5390625 C5.91002197 2.83659424 6.5114502 3.13412598 7.13110352 3.44067383 C18.91511936 9.24835029 29.82594492 11.18297182 42.8527832 12.25610352 C66.6622721 14.27955561 89.06513527 21.95215794 107.05859375 38.015625 C107.90164063 38.76457031 108.7446875 39.51351562 109.61328125 40.28515625 C131.56950636 60.94002455 136.34272663 90.79586063 137.2890625 119.59375 C137.33868623 121.33850112 137.38688353 123.08329345 137.43359375 124.828125 C137.69686835 133.9123768 138.93049655 142.75688263 140.43359375 151.703125 C140.64290527 152.95649658 140.8522168 154.20986816 141.06787109 155.5012207 C144.94415419 177.64400671 152.71779336 198.61025545 164.05859375 218.015625 C153.08646497 215.98458979 142.35217489 213.70338449 131.6875 210.4140625 C128.29539161 209.37090918 124.88804217 208.41386876 121.4609375 207.4921875 C89.52681873 198.8907695 58.27893988 187.6287667 29.05859375 172.015625 C28.41599609 171.68030762 27.77339844 171.34499023 27.11132812 170.99951172 C-1.46663859 156.03573216 -24.09051503 134.93843227 -34.94140625 104.015625 C-39.0917482 90.39826217 -39.65131005 76.64304622 -40.21313477 62.50268555 C-40.32330744 60.06055156 -40.46052866 57.61948229 -40.62524414 55.18041992 C-42.04789556 33.76828595 -42.04789556 33.76828595 -36.98510742 27.82592773 C-34.13968703 25.14701037 -31.06832083 23.03627015 -27.69558716 21.07679749 C-25.03584973 19.46781852 -22.73754422 17.4681035 -20.37890625 15.453125 C-19.51007812 14.75316406 -18.64125 14.05320312 -17.74609375 13.33203125 C-15.62713096 11.58196867 -13.56305842 9.80685584 -11.51171875 7.98046875 C-10.92849854 7.46750244 -10.34527832 6.95453613 -9.74438477 6.42602539 C-8.60542439 5.42126711 -7.47525195 4.40643622 -6.35522461 3.38061523 C-2.52160253 0.02029459 -2.52160253 0.02029459 0 0 Z " fill="#7BECDC" transform="translate(617.94140625,622.984375)"/>
<path d="M0 0 C21.95129404 -0.52536916 43.15260771 6.54598212 59.1953125 21.79296875 C59.97777344 22.57414062 60.76023437 23.3553125 61.56640625 24.16015625 C62.72462891 25.30097656 62.72462891 25.30097656 63.90625 26.46484375 C78.51333444 41.69616257 86.04207143 62.55061832 85.93066406 83.56103516 C85.23462141 106.62146351 77.50330931 126.51331434 61.56640625 143.16015625 C60.69435547 144.165625 60.69435547 144.165625 59.8046875 145.19140625 C48.16115033 158.09608221 28.05661307 167.40892693 10.82568359 168.30224609 C-15.06213315 169.11394431 -36.49223973 164.66549259 -56.43359375 147.16015625 C-65.29074976 138.57978637 -71.08941719 129.42191611 -76.12109375 118.28515625 C-76.54974731 117.34990112 -76.54974731 117.34990112 -76.98706055 116.39575195 C-81.45984905 106.11475992 -82.97307677 96.00682965 -82.87109375 84.84765625 C-82.86207031 83.65994629 -82.85304688 82.47223633 -82.84375 81.24853516 C-82.66679515 72.2668479 -81.77767164 64.57245417 -78.43359375 56.16015625 C-78.17046387 55.48339844 -77.90733398 54.80664062 -77.63623047 54.109375 C-68.90212605 32.16289871 -52.0061882 15.76306317 -30.30859375 6.34765625 C-20.24309627 2.41416579 -10.75252061 0.50153964 0 0 Z " fill="#10B0AA" transform="translate(354.43359375,277.83984375)"/>
<path d="M0 0 C-1.57842238 4.30756559 -4.88515613 6.73113596 -8.3125 9.5625 C-8.93552002 10.08626221 -9.55854004 10.61002441 -10.20043945 11.1496582 C-11.49502196 12.23750005 -12.79184241 13.32268387 -14.09082031 14.40527344 C-15.87875844 15.89872764 -17.65647894 17.40316901 -19.4296875 18.9140625 C-24.36916778 23.12155017 -29.33501099 27.28791881 -34.375 31.375 C-39.49813067 35.54221124 -44.47594928 39.86312457 -49.45263672 44.20263672 C-53.08719203 47.36452443 -56.75511868 50.46842941 -60.5 53.5 C-65.53348541 57.57757127 -70.42333309 61.80505915 -75.30810547 66.05810547 C-80.96264879 70.9787765 -86.67472086 75.82781099 -92.40722656 80.65722656 C-94.56384996 82.47534868 -96.71698568 84.29757387 -98.86987305 86.12011719 C-99.95700367 87.04036015 -101.0444063 87.96028189 -102.13208008 88.87988281 C-104.80703419 91.14167173 -107.47899659 93.40680245 -110.14453125 95.6796875 C-118.65248871 102.92399588 -127.30617805 109.98021309 -136 117 C-141.18372278 109.22441584 -140.8128947 97.92362159 -141.80493164 88.79858398 C-142.05940649 86.46585769 -142.32313437 84.13431342 -142.58789062 81.80273438 C-144.29816573 66.48069758 -145.19829921 51.23573309 -145.1875 35.8125 C-145.18722809 35.14365784 -145.18695618 34.47481567 -145.18667603 33.78570557 C-145.16738595 23.29653544 -144.82340298 12.84457352 -144.1875 2.375 C-144.11748779 1.11921143 -144.04747559 -0.13657715 -143.9753418 -1.43041992 C-143.89453369 -2.60064697 -143.81372559 -3.77087402 -143.73046875 -4.9765625 C-143.66239014 -5.99830566 -143.59431152 -7.02004883 -143.52416992 -8.07275391 C-142.45816586 -14.02589256 -139.42067127 -18.8679924 -134.7578125 -22.63671875 C-104.55935259 -37.56485262 -30.43387318 -9.40601132 0 0 Z " fill="#5DE4D8" transform="translate(317,182)"/>
<path d="M0 0 C3.34811117 1.21439112 5.90270108 2.48999425 8.609375 4.80078125 C9.60420898 5.63814819 9.60420898 5.63814819 10.61914062 6.49243164 C11.32232422 7.0930542 12.02550781 7.69367676 12.75 8.3125 C20.62201129 14.91595882 28.68740303 21.20209715 36.88378906 27.39550781 C38.9892972 28.99188524 41.08591177 30.59921028 43.1796875 32.2109375 C49.75951819 37.27452966 56.36310553 42.30244834 63.04443359 47.23168945 C64.63464509 48.40674576 66.21967191 49.58885239 67.79931641 50.77807617 C71.83872111 53.79451475 75.89237856 56.58164907 80.23828125 59.140625 C92.31338587 66.45124559 92.31338587 66.45124559 94.00390625 72.7265625 C94.03482675 76.64347586 93.27627525 80.41076376 92.50390625 84.23828125 C91.77482397 88.23410427 91.46571383 92.23911842 91.12133789 96.28369141 C90.79165289 100.11741976 90.41524804 103.94528706 90.02734375 107.7734375 C89.87078839 109.32778512 89.71438601 110.88214816 89.55810547 112.43652344 C89.47099304 113.30289429 89.38388062 114.16926514 89.29412842 115.06188965 C88.82667985 119.73133127 88.36513398 124.40135548 87.90293884 129.07131958 C87.29682028 135.1951712 86.68811718 141.31876587 86.07940292 147.44235992 C85.87562071 149.49375162 85.67222555 151.54518139 85.46890259 153.59661865 C85.08268604 157.49168143 84.69380402 161.38647582 84.3046875 165.28125 C84.12982567 167.04826767 84.12982567 167.04826767 83.95143127 168.85098267 C83.40961489 174.25482126 82.83031836 179.63248108 82 185 C74.33425713 178.69705586 67.11691116 171.75630048 60.6875 164.1875 C56.7635892 159.57951758 52.42341311 155.39816922 48.125 151.14453125 C44.46286487 147.50592162 40.97341693 143.79731118 37.63671875 139.85546875 C34.97069681 136.83312884 32.06329552 134.05565761 29.1953125 131.2265625 C26.55993257 128.55366826 24.12233511 125.74631697 21.6796875 122.8984375 C19.50727274 120.44310361 17.18200529 118.16894583 14.8425293 115.87426758 C13.06705731 114.0682124 11.41036751 112.20698013 9.76171875 110.28515625 C7.29523974 107.44645245 4.77799955 104.67965485 2.17578125 101.96484375 C1.53962891 101.30033203 0.90347656 100.63582031 0.24804688 99.95117188 C-1.04990304 98.60083245 -2.35204647 97.2545122 -3.65820312 95.91210938 C-9.42691361 89.86113783 -13.32603524 85.19993284 -13.16618347 76.55604553 C-12.86874003 71.98110818 -12.02507793 67.52651842 -11.171875 63.02734375 C-10.88645844 61.46712242 -10.88645844 61.46712242 -10.59527588 59.87538147 C-9.9876425 56.56132846 -9.36932908 53.24938526 -8.75 49.9375 C-7.94998522 45.61385739 -7.15432983 41.28941921 -6.359375 36.96484375 C-6.16339722 35.9028476 -5.96741943 34.84085144 -5.76550293 33.74667358 C-3.70515195 22.52090634 -1.83480929 11.26454321 0 0 Z " fill="#58E2D7" transform="translate(336,573)"/>
<path d="M0 0 C10.94423355 -0.16246465 21.88817845 -0.28670812 32.83337402 -0.3626852 C37.91620595 -0.39915804 42.99821058 -0.44859883 48.08056641 -0.52807617 C52.98896365 -0.60434945 57.89656717 -0.64603502 62.80551147 -0.6641407 C64.67463674 -0.67703672 66.54372041 -0.70222079 68.4125061 -0.7401104 C84.89872784 -1.060958 84.89872784 -1.060958 89.99047852 3.3190918 C91.03411327 4.51183575 92.04004677 5.73892846 93 7 C94.16513813 8.20310758 95.33976502 9.39716291 96.52734375 10.578125 C97.66905946 11.79742347 98.80569967 13.02149215 99.9375 14.25 C100.5444873 14.90403809 101.15147461 15.55807617 101.77685547 16.23193359 C105.94641327 20.76068755 109.87638045 25.43596321 113.71875 30.24609375 C117.3787719 34.66444211 121.31563258 38.82016149 125.2265625 43.015625 C128.571373 46.60397882 131.80602218 50.27699894 135 54 C135.41685059 54.4851709 135.83370117 54.9703418 136.26318359 55.47021484 C139.31799738 59.02620072 142.36723432 62.5869323 145.41503906 66.14892578 C146.96011515 67.95341852 148.50702979 69.75631496 150.0546875 71.55859375 C155.45659901 77.85062276 160.83456232 84.1615619 166.18310547 90.49902344 C169.74090543 94.70858403 173.34682881 98.87303869 177 103 C176.67 103.66 176.34 104.32 176 105 C175.23002686 104.95512451 174.46005371 104.91024902 173.66674805 104.86401367 C149.08321614 103.44861422 124.488314 102.31993149 99.88803101 101.2437439 C98.80585391 101.19638407 98.80585391 101.19638407 97.70181465 101.14806747 C96.26549816 101.08533379 94.82917189 101.02282374 93.39283562 100.96054459 C89.94557854 100.81051181 86.49868748 100.65563398 83.05218506 100.48910522 C77.42009647 100.22045537 71.80323497 99.97229518 66.16430664 99.94506836 C65.32453781 99.93077286 64.48476898 99.91647736 63.61955261 99.90174866 C61.51596137 99.87034184 59.41191606 99.87435621 57.30810547 99.88232422 C53.12270801 98.76601231 52.06609491 97.17584567 49.85150146 93.59060669 C48.62572997 91.34539915 47.51155433 89.11890033 46.54296875 86.75 C43.90704478 80.64371233 40.78166066 74.83310366 37.60604858 68.9961853 C36.61919101 67.1767904 35.64175723 65.35264058 34.66723633 63.52661133 C28.06588536 51.16285804 21.10295337 39.02015831 14.03289795 26.91949463 C12.65005876 24.55063943 11.27120288 22.17947629 9.89257812 19.8081665 C8.8990166 18.10370074 7.89880663 16.40311596 6.8984375 14.70263672 C6.29 13.65736816 5.6815625 12.61209961 5.0546875 11.53515625 C4.51312012 10.610979 3.97155273 9.68680176 3.41357422 8.73461914 C1.93927386 5.8825227 0.98314354 3.0509439 0 0 Z " fill="#61E5D9" transform="translate(582,378)"/>
<path d="M0 0 C10.27477392 8.24138538 16.53348386 19.29477353 18.9375 32.25 C20.59461546 48.74807557 17.09915569 63.81474023 6.75 77.046875 C0.44759185 83.8883049 -6.56880987 87.70760791 -15.0625 91.25 C-15.9803125 91.63542969 -16.898125 92.02085937 -17.84375 92.41796875 C-22.35696815 93.58461373 -26.66963701 93.57901089 -31.3125 93.5625 C-32.20324219 93.57861328 -33.09398437 93.59472656 -34.01171875 93.61132812 C-47.67695123 93.62124484 -58.96787076 87.9221378 -68.890625 78.703125 C-79.03467008 67.24546257 -82.96316777 53.32326306 -82.41015625 38.21484375 C-81.28146279 25.34266552 -75.72061876 13.96208498 -66.31640625 5.12890625 C-47.41045953 -10.63151034 -20.80722617 -14.25152477 0 0 Z " fill="#5DE4D8" transform="translate(387.0625,319.75)"/>
<path d="M0 0 C5.95703125 11.9140625 5.95703125 11.9140625 7.00244141 14.02441406 C7.88511542 15.77248017 8.81975278 17.49409486 9.76171875 19.2109375 C11.08310726 22.18718797 11.57010222 23.7990591 11 27 C9.41796875 29.140625 9.41796875 29.140625 7.1875 31.25 C5.95386719 32.41789063 5.95386719 32.41789063 4.6953125 33.609375 C1.13424712 36.76788516 -2.53161592 39.7742848 -6.24609375 42.75 C-8.9092645 44.92586716 -11.46042448 47.18178209 -14 49.5 C-17.31989486 52.52282421 -20.69764112 55.42512161 -24.1875 58.25 C-28.63852192 61.85470085 -32.99198605 65.55370267 -37.3125 69.3125 C-37.94599365 69.86357422 -38.5794873 70.41464844 -39.23217773 70.98242188 C-40.51831655 72.10162485 -41.80436788 73.22092837 -43.09033203 74.34033203 C-50.23391241 80.54872623 -57.39645872 86.72823972 -64.75 92.6875 C-69.12507747 96.23745321 -73.30549192 99.95563821 -77.46875 103.75 C-80.975283 106.86691822 -84.62566749 109.79314526 -88.2734375 112.7421875 C-90.96126167 114.96792156 -93.54847019 117.27182262 -96.125 119.625 C-100.56549665 123.67410672 -105.19679326 127.39179397 -110 131 C-113.10490561 129.55859406 -115.73671961 127.82484207 -118.4765625 125.77734375 C-119.72953125 124.84631836 -119.72953125 124.84631836 -121.0078125 123.89648438 C-121.87148438 123.25001953 -122.73515625 122.60355469 -123.625 121.9375 C-125.34534926 120.6536003 -127.06665663 119.3709831 -128.7890625 118.08984375 C-129.54912598 117.52128662 -130.30918945 116.95272949 -131.09228516 116.36694336 C-132.95308377 114.9578616 -132.95308377 114.9578616 -135 114 C-135 113.34 -135 112.68 -135 112 C-133.51261765 110.64617851 -131.95569449 109.36860114 -130.375 108.125 C-125.88680017 104.53444013 -121.47748015 100.87880962 -117.125 97.125 C-115.93372455 96.10010836 -114.7423177 95.07536943 -113.55078125 94.05078125 C-112.96119629 93.54369629 -112.37161133 93.03661133 -111.76416016 92.51416016 C-105.09267077 86.7880908 -98.38491685 81.10820726 -91.5625 75.5625 C-86.69791376 71.60427044 -81.93937822 67.53350939 -77.18945312 63.43945312 C-73.68783649 60.42768013 -70.15222407 57.46948309 -66.5625 54.5625 C-62.12760683 50.96363971 -57.80432214 47.25267936 -53.5 43.5 C-48.344201 39.00496923 -43.12489333 34.61376949 -37.80859375 30.30859375 C-33.88681966 27.08499363 -30.04936839 23.76655277 -26.2043457 20.45214844 C-21.6923686 16.57143846 -17.10638388 12.79133806 -12.48046875 9.046875 C-9.42413623 6.52479903 -6.47904973 3.89243437 -3.55859375 1.21484375 C-2 0 -2 0 0 0 Z " fill="#47DCD4" transform="translate(628,532)"/>
<path d="M0 0 C5.521494 2.58742656 8.98259636 5.69451207 12.8125 10.375 C13.32603027 10.99076904 13.83956055 11.60653809 14.36865234 12.2409668 C39.76335083 43.07626565 39.76335083 43.07626565 41.375 57.3125 C40.77803879 63.18261858 38.71204009 67.37147406 34.4375 71.4375 C30.23543977 74.13112835 26.91744433 74.32782962 22 74 C13.62787684 71.30389254 10.77125573 65.81602892 6.875 58.5 C1.40750391 48.5318769 -5.18317423 39.99774149 -12.875 31.625 C-18.41825596 25.5225129 -21.7728494 20.93109188 -21.3828125 12.36328125 C-20.59090604 7.47447098 -17.94988517 4.88038138 -14.4375 1.625 C-9.65240237 -0.63704615 -5.20285169 -0.96009204 0 0 Z " fill="#12B0AB" transform="translate(693,699)"/>
<path d="M0 0 C3.62104791 1.28908199 6.26812542 2.79002898 9.20703125 5.2578125 C9.95791016 5.88300781 10.70878906 6.50820313 11.48242188 7.15234375 C12.25134766 7.80332031 13.02027344 8.45429687 13.8125 9.125 C14.60076172 9.78371094 15.38902344 10.44242188 16.20117188 11.12109375 C18.1389481 12.74177932 20.07161245 14.3681652 22 16 C18.63757155 16 18.22572748 15.6682723 15.75 13.62890625 C15.1415625 13.13712891 14.533125 12.64535156 13.90625 12.13867188 C13.2771875 11.61853516 12.648125 11.09839844 12 10.5625 C10.75310318 9.53917587 9.5032124 8.51948621 8.25 7.50390625 C7.69828125 7.04830322 7.1465625 6.5927002 6.578125 6.12329102 C4.87689673 4.79646388 4.87689673 4.79646388 2 4 C1.34 5.32 0.68 6.64 0 8 C0 5.36 0 2.72 0 0 Z " fill="#61E7DB" transform="translate(336,573)"/>
<path d="M0 0 C1.7074998 1.28062485 3.37373596 2.61767557 5 4 C5 4.66 5 5.32 5 6 C5.66 6 6.32 6 7 6 C7 6.66 7 7.32 7 8 C7.61875 8.268125 8.2375 8.53625 8.875 8.8125 C11 10 11 10 13 13 C10 13 10 13 7.51953125 10.6640625 C6.60862148 9.65873726 5.70656694 8.64533316 4.8125 7.625 C4.34908203 7.11710938 3.88566406 6.60921875 3.40820312 6.0859375 C0 2.27115933 0 2.27115933 0 0 Z " fill="#1FAEA8" transform="translate(577,781)"/>
<path d="M0 0 C3.90285767 1.58667578 6.33520982 4.13350481 9.25 7.125 C10.14203125 8.03507812 11.0340625 8.94515625 11.953125 9.8828125 C12.62859375 10.58148438 13.3040625 11.28015625 14 12 C13.34 12.66 12.68 13.32 12 14 C11.38511719 13.30132812 10.77023437 12.60265625 10.13671875 11.8828125 C9.32847656 10.97273438 8.52023437 10.06265625 7.6875 9.125 C6.88699219 8.22007812 6.08648437 7.31515625 5.26171875 6.3828125 C3.04188943 3.86787689 3.04188943 3.86787689 0 2 C0 1.34 0 0.68 0 0 Z " fill="#7FE9DA" transform="translate(451,262)"/>
<path d="M0 0 C0.66 0.33 1.32 0.66 2 1 C0.56877218 2.48523642 -0.87020889 3.96300462 -2.3125 5.4375 C-3.11300781 6.26121094 -3.91351563 7.08492188 -4.73828125 7.93359375 C-7 10 -7 10 -10 11 C-8.55218207 7.55571735 -6.72305391 5.63869038 -3.875 3.25 C-3.15054688 2.63640625 -2.42609375 2.0228125 -1.6796875 1.390625 C-0.84824219 0.70226562 -0.84824219 0.70226562 0 0 Z " fill="#08AAA5" transform="translate(219,266)"/>
<path d="M0 0 C7.42857143 1 7.42857143 1 11 2 C10.34 3.32 9.68 4.64 9 6 C8.34 6 7.68 6 7 6 C7 5.01 7 4.02 7 3 C4.69 2.34 2.38 1.68 0 1 C0 0.67 0 0.34 0 0 Z " fill="#6CEADF" transform="translate(306,180)"/>
<path d="M0 0 C0.33 0 0.66 0 1 0 C1 3.63 1 7.26 1 11 C-0.98 9.35 -2.96 7.7 -5 6 C-4.67 5.34 -4.34 4.68 -4 4 C-2.68 4.99 -1.36 5.98 0 7 C0 4.69 0 2.38 0 0 Z " fill="#67EBDF" transform="translate(417,747)"/>
<path d="M0 0 C0.99 0.33 1.98 0.66 3 1 C0.36 2.98 -2.28 4.96 -5 7 C-4 3 -4 3 -2.125 1.1875 C-1.42375 0.795625 -0.7225 0.40375 0 0 Z " fill="#0AAAA5" transform="translate(680,700)"/>
</svg>
