<svg width="54" height="62" viewBox="0 0 54 62" fill="none" xmlns="http://www.w3.org/2000/svg">
<path fill-rule="evenodd" clip-rule="evenodd" d="M27 0L29.8116 23.314C29.9455 24.4413 30.3917 25.4661 31.1058 26.2859C31.8198 27.1058 32.7124 27.6182 33.6942 27.7719L54 31L33.6942 34.2281C32.7124 34.3818 31.8198 34.8942 31.1058 35.7141C30.3917 36.5339 29.9455 37.5587 29.8116 38.6859L27 62L24.1884 38.6859C24.0545 37.5587 23.6083 36.5339 22.8942 35.7141C22.1802 34.8942 21.2876 34.3818 20.3058 34.2281L0 31L20.3058 27.7719C21.2876 27.6182 22.1802 27.1058 22.8942 26.2859C23.6083 25.4661 24.0545 24.4413 24.1884 23.314L27 0Z" fill="white"/>
</svg>
